<?xml version="1.0" encoding="UTF-8"?>
<svg id="Layer_1" xmlns="http://www.w3.org/2000/svg" version="1.1" viewBox="0 0 1250 1090">
  <!-- Generator: Adobe Illustrator 29.1.0, SVG Export Plug-In . SVG Version: 2.1.0 Build 142)  -->
  <defs>
    <style>
      .st0 {
        fill: #565971;
      }

      .st1 {
        fill: #555c8f;
      }

      .st2 {
        fill: #5a4e45;
      }

      .st3 {
        fill: #575e90;
      }

      .st4 {
        fill: #68604f;
      }

      .st5 {
        fill: #585e94;
      }

      .st6 {
        fill: #505580;
      }

      .st7 {
        fill: #595f92;
      }

      .st8 {
        fill: #b2b0b0;
      }

      .st9 {
        fill: #545a88;
      }

      .st10 {
        fill: #575553;
      }

      .st11 {
        fill: #5b629c;
      }

      .st12 {
        fill: #565b8b;
      }

      .st13 {
        fill: #313131;
      }

      .st14 {
        fill: #575e92;
      }

      .st15 {
        fill: #535a8c;
      }

      .st16 {
        fill: #656564;
      }

      .st17 {
        fill: #5b629a;
      }

      .st18 {
        fill: #575e91;
      }

      .st19 {
        fill: #635748;
      }

      .st20 {
        fill: #3e3d3c;
      }

      .st21 {
        fill: #565d90;
      }

      .st22 {
        fill: #696a69;
      }

      .st23 {
        fill: #323131;
      }

      .st24 {
        fill: #5f67a4;
      }

      .st25 {
        fill: #665e55;
      }

      .st26 {
        fill: #595e90;
      }

      .st27 {
        fill: #585e89;
      }

      .st28 {
        fill: #75747b;
      }

      .st29 {
        fill: #5f5543;
      }

      .st30 {
        fill: #5f67a5;
      }

      .st31 {
        fill: #5b639f;
      }

      .st32 {
        fill: #6a6e70;
      }

      .st33 {
        fill: #575c76;
      }

      .st34 {
        fill: #736450;
      }

      .st35 {
        fill: #505235;
      }

      .st36 {
        fill: #4a4b4b;
      }

      .st37 {
        fill: #5a6198;
      }

      .st38 {
        fill: #24271e;
      }

      .st39 {
        fill: #565d91;
      }

      .st40 {
        fill: #5a6299;
      }

      .st41 {
        fill: #61627b;
      }

      .st42 {
        fill: #676255;
      }

      .st43 {
        fill: #575351;
      }

      .st44 {
        fill: #5a544f;
      }

      .st45 {
        fill: #5a619a;
      }

      .st46 {
        fill: #853233;
      }

      .st47 {
        fill: #4a4b4c;
      }

      .st48 {
        fill: #a59f8c;
      }

      .st49 {
        fill: #4a636d;
      }

      .st50 {
        fill: #544c41;
      }

      .st51 {
        fill: #4a4a4b;
      }

      .st52 {
        fill: #5b6299;
      }

      .st53 {
        fill: #525885;
      }

      .st54 {
        fill: #5b6298;
      }

      .st55 {
        fill: #524d47;
      }

      .st56 {
        fill: #3e3431;
      }

      .st57 {
        fill: #424242;
      }

      .st58 {
        fill: #645f58;
      }

      .st59 {
        fill: #565b85;
      }

      .st60 {
        fill: #4f547f;
      }

      .st61 {
        fill: #6068a6;
      }

      .st62 {
        fill: #a7a7a2;
      }

      .st63 {
        fill: #6069a8;
      }

      .st64 {
        fill: #555b8d;
      }

      .st65 {
        fill: #2f2e2e;
      }

      .st66 {
        fill: #303030;
      }

      .st67 {
        fill: #575f90;
      }

      .st68 {
        fill: #876e62;
      }

      .st69 {
        fill: #585553;
      }

      .st70 {
        fill: #1c1c1c;
      }

      .st71 {
        fill: #596190;
      }

      .st72 {
        fill: #535988;
      }

      .st73 {
        fill: #525886;
      }

      .st74 {
        fill: #5c63a0;
      }

      .st75 {
        fill: #877563;
      }

      .st76 {
        fill: #202021;
      }

      .st77 {
        fill: #64605d;
      }

      .st78 {
        fill: #2f2f2f;
      }

      .st79 {
        fill: #615950;
      }

      .st80 {
        fill: #858474;
      }

      .st81 {
        fill: #515888;
      }

      .st82 {
        fill: #5a6097;
      }

      .st83 {
        fill: #666059;
      }

      .st84 {
        fill: #5a639f;
      }

      .st85 {
        fill: #565e92;
      }

      .st86 {
        fill: #4a433b;
      }

      .st87 {
        fill: #3f3e3d;
      }

      .st88 {
        fill: #585f95;
      }

      .st89 {
        fill: #656db3;
      }

      .st90 {
        fill: #3c3330;
      }

      .st91 {
        fill: #6c6453;
      }

      .st92 {
        fill: #363636;
      }

      .st93 {
        fill: #5a6099;
      }

      .st94 {
        fill: #596097;
      }

      .st95 {
        fill: #5a6098;
      }

      .st96 {
        fill: #5d5348;
      }

      .st97 {
        fill: #535989;
      }

      .st98 {
        fill: #585f96;
      }

      .st99 {
        fill: #857863;
      }

      .st100 {
        fill: #575e94;
      }

      .st101 {
        fill: #5e4b37;
      }

      .st102 {
        fill: #5e5c8a;
      }

      .st103 {
        fill: #3e4c76;
      }

      .st104 {
        fill: #5b5b4a;
      }

      .st105 {
        fill: #525884;
      }

      .st106 {
        fill: #525784;
      }

      .st107 {
        fill: #23211d;
      }

      .st108 {
        fill: #24281d;
      }

      .st109 {
        fill: #594e41;
      }

      .st110 {
        fill: #2f2f2e;
      }

      .st111 {
        fill: #5e5349;
      }

      .st112 {
        fill: #596096;
      }

      .st113 {
        fill: #222;
      }

      .st114 {
        fill: #676fb7;
      }

      .st115 {
        fill: #5d5249;
      }

      .st116 {
        fill: #837144;
      }

      .st117 {
        fill: #858688;
      }

      .st118 {
        fill: #58493b;
      }

      .st119 {
        fill: #75633c;
      }

      .st120 {
        fill: #8b7164;
      }

      .st121 {
        fill: #565c8e;
      }

      .st122 {
        fill: #5a6295;
      }

      .st123 {
        fill: #525887;
      }

      .st124 {
        fill: #5e66a1;
      }

      .st125 {
        fill: #25281d;
      }

      .st126 {
        fill: #5c64a0;
      }

      .st127 {
        fill: #443f36;
      }

      .st128 {
        fill: #b0b1ad;
      }

      .st129 {
        fill: #6369a2;
      }

      .st130 {
        fill: #3f3529;
      }

      .st131 {
        fill: #5c649f;
      }

      .st132 {
        fill: #505680;
      }

      .st133 {
        fill: #565c91;
      }

      .st134 {
        fill: #4d4e4f;
      }

      .st135 {
        fill: #484847;
      }

      .st136 {
        fill: #474747;
      }

      .st137 {
        fill: #7c786a;
      }

      .st138 {
        fill: #5d3f3c;
      }

      .st139 {
        fill: #5c649d;
      }

      .st140 {
        fill: #5a619b;
      }

      .st141 {
        fill: #59595a;
      }

      .st142 {
        fill: #1a1a1a;
      }

      .st143 {
        fill: #1d1d1d;
      }

      .st144 {
        fill: #565c8f;
      }

      .st145 {
        fill: #5b4b3c;
      }

      .st146 {
        fill: #585f81;
      }

      .st147 {
        fill: #1c1c1d;
      }

      .st148 {
        fill: #565b8d;
      }

      .st149 {
        fill: #5c639d;
      }

      .st150 {
        fill: #515151;
      }

      .st151 {
        fill: #575d90;
      }

      .st152 {
        fill: #807162;
      }

      .st153 {
        fill: #6068a7;
      }

      .st154 {
        fill: #696258;
      }

      .st155 {
        fill: #58403c;
      }

      .st156 {
        fill: #5c639e;
      }

      .st157 {
        fill: #5a565b;
      }

      .st158 {
        fill: #6068a1;
      }

      .st159 {
        fill: #6a6d6f;
      }

      .st160 {
        fill: #5e66a4;
      }

      .st161 {
        fill: #545a8c;
      }

      .st162 {
        fill: #565c8b;
      }

      .st163 {
        fill: #5a608c;
      }

      .st164 {
        fill: #605f4a;
      }

      .st165 {
        fill: #555c8e;
      }

      .st166 {
        fill: #5b649e;
      }

      .st167 {
        fill: #413630;
      }

      .st168 {
        fill: #595f98;
      }

      .st169 {
        fill: #2d2d2c;
      }

      .st170 {
        fill: #535886;
      }

      .st171 {
        fill: #585f8d;
      }

      .st172 {
        fill: #555b8c;
      }

      .st173 {
        fill: #615e58;
      }

      .st174 {
        fill: #535884;
      }

      .st175 {
        fill: #5d66a1;
      }

      .st176 {
        fill: #545b8c;
      }

      .st177 {
        fill: #af9e8e;
      }

      .st178 {
        fill: #5d5d48;
      }

      .st179 {
        fill: #5f67a3;
      }

      .st180 {
        fill: #544e42;
      }

      .st181 {
        fill: #252320;
      }

      .st182 {
        fill: #666eb6;
      }

      .st183 {
        fill: #5f5e49;
      }

      .st184 {
        fill: #515784;
      }

      .st185 {
        fill: #1d1e1e;
      }

      .st186 {
        fill: #7f7062;
      }

      .st187 {
        fill: #6d6460;
      }

      .st188 {
        fill: #1b1b1c;
      }

      .st189 {
        fill: #535883;
      }

      .st190 {
        fill: #68605d;
      }

      .st191 {
        fill: #897d70;
      }

      .st192 {
        fill: #5d65a0;
      }

      .st193 {
        fill: #5c603c;
      }

      .st194 {
        fill: #5e636c;
      }

      .st195 {
        fill: #575e8a;
      }

      .st196 {
        fill: #5d64a0;
      }

      .st197 {
        fill: #545a8b;
      }

      .st198 {
        fill: #4e4f50;
      }

      .st199 {
        fill: #596092;
      }

      .st200 {
        fill: #5f5344;
      }

      .st201 {
        fill: #676667;
      }

      .st202 {
        fill: #666153;
      }

      .st203 {
        fill: #676058;
      }

      .st204 {
        fill: #323233;
      }

      .st205 {
        fill: #535987;
      }

      .st206 {
        fill: #555c89;
      }

      .st207 {
        fill: #87888c;
      }

      .st208 {
        fill: #65646c;
      }

      .st209 {
        fill: #3f3e3c;
      }

      .st210 {
        fill: #515473;
      }

      .st211 {
        fill: #9a8b70;
      }

      .st212 {
        fill: #161616;
      }

      .st213 {
        fill: #2e2e2e;
      }

      .st214 {
        fill: #535887;
      }
    </style>
  </defs>
  <path class="st136" d="M569,1090H0V0h1250v1090h-616l-2-.9.5-79.5c2-3.8,6.1-5.4,12.2-4.7,22.2.9,44.7,1.1,67.5.7-1.9-11.5,12.2-12.2,9.6.2l1.2,2.3-1.3-.2c-.8-32.1-1-64.3-.7-96.6l2-1.2c0,3.5-6.4,2-7.5-.3-2.1-4.5,5.7-9.2,8-4.7l.9-2h286.3l1.2,2-2-1V183.3l2-1.3-1,2h-279.8l-1.2-2-2-.7V57.2l2-1.2c5.9-.3,11.9-.6,18-1-3.2-.7-3-10,0-11,10.4,0,20.7-.3,31-1l-1.2-.6c-.4-6.5-.9-12.9-1.4-19.4l-83.7.2c-2.3-.2-3.4-.8-2.7-3.2l.9-2c18.4.1,36.8,0,55.1-.3-.8-4.3-.1-7.2,2-8.7l-.7,2h-209.1l-1.2-2c2.1,1.2,2.8,4,2,8.4,13,.7,26.3.9,39.8.6l1.2,2c1.6,2.2-.4,2.9-2.7,3.2l-82.6-.2c-.7,5.7-1.2,12.1-1,18.1l-1.6,1.9c14.3.4,29,.8,44,1,1,0,1.7.3,2.1,1.2-1.5,6.1-.5,9.3,2.8,9.5,3.1,3.6,1.1,21.6.3,26.8l-2.2.5c-.4,1,0,2,1,3,3.7.8,1.8,6.2-.9,3.6h-21.8c-.8,2.8-4.9,7-6.3,2.4-.8,2.3-2.4,2-4.7-1.1h-29.2c-2.4,3.2-6.3,4.8-9.6,0l-19.6-.3c-3.1,4.6-8.3,5-11.7,0-5-1.8-26.9-.5-32.3,2.2,0,1.6.6,2.9,1.6,3.7.6,2.6,1.5,23,.7,24.2-1.1,1.7-6.9,1.5-7.6,0-1.6-3.3.2-20.9,2.3-24.8-3-.6-4.3-8.1-1-9,0,.5-.2,1-.5,1.3-1.1,1.2-28.2.9-32.1.7l-1.5-2,1.5,2.9c.6,25.5.6,51.1.2,76.8-.4,3.3.6,5.2,2.3,7.3,1.4,3.8-6.7,5.1-7,1-4.1-1.9-.1-2.9-.3-1.8s-7.3,2-7.7,1.9c-.6-2.7-2.6-4.2-6.2-4.5-6.4-6-6,2.7-5.4,7.7-1.4,6.5-17.8,6.1-15.2-2.3-2.8,0-5.6,0-8.3,0,2.2,1.7,1,4-1.5,5h-35c-.2,2.6-1,4.6-2.6,6-1.6,1.1-2.7.3-3.4-2.2-3.3-.1-24.8-.7-25.4.6v87c-.1,0-2.1,2.7-2.1,2.7l-1.1,2.9c-6.4,3.8-12.9,7.2-19.5,10.1,8.4,13.8,15.3,28.2,20.6,43.1l2,8.4c.5,188.7,1,377.1,1.5,565.4l-2,1.3,1-2h287.8l1.2,2c2.1-1.7,2.8-.9,1.5,1.5l2,.7v99.6l-2,1.2,1.2-2h21.9l1.4,2c2.4-2,3.2.2,3.6,2.8v78c0,0-2.1,1.2-2.1,1.2Z"/>
  <path class="st213" d="M560,44l2.3.7c9.9,70.4,104.4,86.8,138.4,23,1.1-8.1,4.8-13.4,11-16.1-5.1.2-7.7-1-7.8-3.7-.9-.2-.8-.6,0-1,.3-1,1.3-2,3-3,7.7-.4,15.3-.5,23,0,2.1,1.4,2.8,4.4,2.1,9h14.5s1.4,2,1.4,2c-5.4,2.3-12.3.4-18,1v126h282v723h-288.5c-2.5,0-5.1.1-6.5,2.5-.3,3.6,6,2.1,6,2.5v98h-3c1.1-1.2.3-8.7,0-9s-4.3-.1-5.1.4c-1.8,1.3-1.1,6.5,0,8.6-11.9-.8-23.6-.9-35.5-1s-5.7,1.1-9,1.1c-5.9,0-33.2-3.4-36,.9l-.5,81h-28c-.8-.2-2-.5-2-1.1-.3-4-1.8-32.1-.9-33.4,2.3-3.3,5.4-2.1,5.9,1.6-3-2.8-3.3-14.1,0-16.5-3.8,3-8.4-1.6-9.9-5.6h-2.1c.5,9.4-6.9,4.4-5.5-1.9-1.4,3.3-12.3,3-14.5,0,4,1.3,4.2,3.7,2,7.2.2,15.8,0,31.5-.6,47.1l-1.4,2.7h-8v-78.6c.3-1-.7-3.4-1.5-3.4h-24.5v-101.5c0-.1-1.4-1.5-1.5-1.5H251.5l-1.5-575c2,1.6,3.8,3.5,5.2,5.6l22.9,43.9,62.7-31.7-13.1.3-1.7-2.1c-1.3-2.1,0-2.7,2.2-3h17.7c-.5-3.3.2-5.7,2.1-7,4-1.8,4.4,6.6,1,8,5,1.9,10.5,2.5,16.5,1.6,1-.8,3-1,6-.5,2-1.4,3.4-1.5,4.4-.1h20.8s.5,1,.5,1c2.7,1.3,2.7,3.7,0,5l-.6,1.4c-8.7-.9-16.6-.1-23.7,2.3-.4,11.1-.5,22.3-.3,33.6l-1.4.8c3.3-.2,4.7,1.6,4,5.5,3.7-1.1,7.1-.3,5,3.5,2-1.5,5.5,1.8,6,4,2-.7,3.7.3,5.2,3,4.6,1.9,6.9,4,7.9,9l4,.3c2.3,2.5,6.2,1.9,11.6-1.7l2.3,1.3c3.4-.1,3.6,6.3,1,7,0,2.1.2,4.2.7,6.4l-1.7,1.6c1.7,0,3.3-.2,5-1-1.3-1.9,0-3.8,4-5.6.4-4.2.6-8.5.6-12.8l1.3-.6c0-.5,0-1,.3-1.4,4.1-5.6,3.9,11.8,3.6,13.5,2.5,2.5,3.2,4.8,2.1,6.9,6.1,2.5-3.2,14-4.5,9.5,2.7-4.4-5.6-3.9-7.4-1l-1.2-.5-.4,1.3c-3.6-.4-7.1-.8-10.6-1.3l-1.6.2c-1.8-3.4-4.3-6.2-7.4-8.2-1.1,1.1-1.4.5-1-2-2,.5-4.7-2-4-4-3.1,1-4.1.4-3-2-2.1.4-5-2-4-4-4.1.2-11.1-4.8-12-9-3.3-.3-4.9.1-4.9,1.3.8,16.8.7,33.6,0,50.4l-1.2,2.3c3.9.8,4.7,7.8,3.5,11.4,3.9-2.4,10.3-.7,11.7,4.7,4.2,1.2,6.2,2.1,7.6,6.5,4.3.9,6,2.4,7.8,6.4,2.4,1,3.5,2.3,3.4,4l2.1-1.5c2.4-10.6,7.7-7.6,9.3,1.1,9.1-5.8,9.4,7.2,9.1,13.8,2.2,2.1-2.1,3.8-3.5,1.6-.5,2-1.4,2-2,0-3.4,1.9-13.3,2-15-3h-2.6c-7-6.7-14.5-12.8-22.4-18.5v-2.5s-1.3.7-1.3.7c-2-1.8-5.5-4.7-6.2-.8v41.6c0,1.1-.5,2.1-1.5,2.6l-.2,3.9c2.8,17.7,2.1,36.9,1.2,55.1,3.9,2.2,3.5,13.5,0,16,1.1,6.9,1.8,15.8-1,22-.6,10.8-.6,21.7,0,32.6l-1.1,1.4c2.5,1.2,3.9,4,4.3,8.3.7,3.2,2.2,12.4-1.3,12.7.3,1.5,0,3.1-.8,4.8-.2,22.1-.2,44.4,0,66.6,0,4.3,6,2.3,7.5-.4h1.4c-.2-2,1.5-1.7,3-.9,0-3,6-6.6,9-7-1.1-2.9,3.1-3.8,5.2-2.1,3.2,2.5-.4,17.5-6.2,14.1.4,2.1-.6,2.6-2,1,.2,3.3-1.3,3.5-4,2-.2,3.2-6.3,7-9,8-2.2-.4-3.1.6-2.8,2.9l-2.2,1.1c.7,11.9,1,24.5.4,36.6l-1.4,1.4c1,.4,1.8.2,2.5-.9.8,0,12.2,9.1,11.5,10.9,6.7.8,13.4.9,20.1.3,0-1.5,1.4-1.6,3.9-.3-.5-3.5,8-7.8,11-7,1.6-4.7,9-11.1,14-11,.5-2.5,4.8-5.3,7-4-1.2-2.3.1-3.3,4-3-.5-2,0-4.5,1.2-7.3-1.3-9.7,1.2-15.7,7.4-18,28.9-1.2,61.1-1.2,90-.2s4,.5,5.4,2.5c1-1.6,1.3-1.2,1,1,4.3-2.5,4.4,10.6,4.2,13.8s-3.8,25.5-4.8,26.3-.9.6-1.5.8c-.2,2.7-4.9,2.6-6.3.9s-2-16.6-1.3-19.1c-1-1.2-1.5-2.5-1.5-3.8l-1.1.9c-23.1-1.3-46.9-1.1-70.1,0l-.8-1c.8,2.3-.2,2.6-3,1-.9,2-3.8,3.9-6,4-2.5,5.6-8.1,7.6-16.9,6,1,6.6-4.9,13.5-11.1,13l2,2.8c5.7-.1,11.4.3,17,1.2,18.5.9,37.4,1.1,56.5.7l2.8-1.4c13.1-.9,25.9-1.9,38.5-3.2l1.2,1.9c.6,4.3.6,8.9,0,13.9v46.6c.8,2.3,2.5,4.2,5,5.5.9-2.8,7.2-2.9,8,0,17.2-5.5,33.7-13.3,49.7-23.3,20.5-10.1,26.2-8.3,45.3,4.2l5,2c10.7,7.8,22.9,14.3,35.9,17.2-.6-3.4,12.2-2.4,13-1.4-.5,2.3-.5,4.5,0,6.4l1.1-1.9c9.1,5.4,12.9,2.1,8.5-7.5,1.8-4.2,1.9-8.1.4-11.6-2.2-15.3-2.2-30.7,0-46,.9-4.1,10.6-3.9,13-1l2.9-1.5c16.8-.8,33.5-.6,50.1.5,10.5-.4,21.3-.5,32.3-.3l.7,1.3.2-1c8.4-1.4,10.4-3,6.1-4.6l-.2-1.3c-1.5.6-2.2-.9-1.8-.6,2,1.3-.6,1.7-2,.5s-2.3-11.1-2-11.6c2.2-4.3,8.7-2.6,6.8,1.8,2.3-1.3,5.5,1.5,6,4,2.1-1.6,2.7-1,2,2,1.9-1.1,4.8,2,5,4,2.3-1.4,2.9-.8,2,2,1.5-1.7,4.8,2.1,5,4,14,1.2,27.6,1.2,41,0,2.3-2.3,4.6-4.3,7-6-1.3-2.9-1-4.2,1-4-1.6-5.8-2.5-17.9-1.2-24.1s.6-.6,1.2-.9c-2.1-.6-3.3-3-3.9-7.1-5.4-4.4-11.1-8.9-17.1-13.4l-1.1-3.5c-1.5,1.3-4-1.3-3-3-4.6.8-5.9-.7-6.9-5.8s.6-14.2,4.9-8.2c3.1,1.7,5.1,3.7,6,6,3.6-.8,10.5,4.3,10,8l1.7.2c7.3,9.2,10,4.6,8.3-13.8,0-2.1.6-3.3,2-3.4-6.4,0-3.5-8.7,0-4l2.1-1.8c5.5-9.2,11.3-19.1,17.5-29.7l2.4-1.5c-2.1-1.8-1.8-2.9,1-3,.9-6.1,5.4-13,10-17-1.5-3.3-.1-5.9,3.5-8,.4-3.6,0-6.6-1.4-9.1,2.3-5.2,2.4-8.1,1.5-13.3l1.7-22.4c2.2-3.1,4.2-.5,5.7,1.8-.6,0-1.1-.1-1.3-.5-1-1.2-.9-13.2,1.3-14l-1.5,1c.9,5.8-.3,8.9-3.8,9.4l-2.2,25.8c-6,5.1-6.1-4.5-5.9-9.4.9-9.5.5-18.8-1.2-28.1,1.9-4.8,4.4-3.7,7.3,3.4l1.3-.6c-.9-1.7-1.9-4.4-1-6-.9-.3-.9-.6,0-1-1.4-2.1-9.8-17.2-9.7-18.4s.3-1.1.7-1.6c-2.4.8-3.1-.6-2-4-3.8-1.3-6.6-6.1-6-10-4.7-13.4-12.7-26.8-20.3-38.9-4-.1-5-5.1-.7-5.1-2-16-1.9-32.6-1.3-48.8l1.3-3.2c-3.3-3-4.4-13.9-1-17-1.3-2.8-1.6-8.3,1-10-2.9-1.3-2.8-3.5,0-5-1.7-12.4-1.8-25.6,0-38l-2-3.4c.2-6,.3-11.9-.9-17.7-.2,4.2-6.2,14-9.1,8.1-2.9.3-4.7-1.3-3-4-.5-.6-.8-1-.7-1.3,1.5-3,8.5-10,11.7-9.7-.3-3.4.7-5.1,3-5-1.2-2-.4-6.2,1-8,.5-5.6.9-10.9,1-16,.2-5.6.4-11.3.6-16.9l1.4-1.1-1.9-3c-1.1-14.3-1.6-33.2-.3-47.5.2-1.7.5-2.9,1.7-4.1-3.6-2.7-6-5.9-6.3-10.5-2.5,2.2-15.4-12-15.4-13,.5-2.3,2.6-3.9,6.2-4.8-10.5,1-14.6-1.7-21.3-9.7-1.2.7-2.5,1.5-3.9,1.6-31.9,1-63.9,1.3-95.6,0-3.1-.7-4.2-3-1.1-4.1l1.1-2c12.5-.4-6.7-6.4-6.1,2,4.1.5,5.3,2.4.8,4s-24.9,0-25.9-.8c-2.5-11.9-2.9-24.2-1.2-37.1,1.1-6.4-.2-11.3-3.8-14.8,1.3-8.2-.6-10.8-5.8-7.6-.2,5.1-.4,10.2-.4,15.4-.6,1.8-2.8,1.1-3.8,0l-.8,1c-18.7-.9-36.9,5.3-53.8,12.7l-1.4-.7c-.2.9-.6.8-1,0-11.2,5.8-25.8,12.9-38.5,6.9-14.6-5.5-29.5-10.9-44.4-16.2l-1.1-1.7c-2.7,2.1-4.3,1.7-5-1l-1,1.2c-9.1-2.5-16.5-1.3-22,3.8l1.9,1.2c-.3,12.3-.5,24.8.4,37,.3,1,16.9,1.7,19.7,1.4,2.1,1.3,2.2,2.3,0,3.4l-1.1,2h-18.5l-1.4-2,1.6,1.8c-1.8,16.4-1.5,33.2-.9,49.7l-1.7,1.5c-.2,3.3-4.3,9.5-8,6-1.3,1.4-1.9.8-1-1-3.6-1.7-7.6-2-12-1,.9.1.8.5,0,1-.1,3.3-6.6,3.1-9,2l-1,1c-4.8-2-11.2-1.3-12.5,4.4-5.6,3.5-5.6-9.9-2.5-12.4.5-1.4,1.3-2.5,2.8-2.3l27.5.4c2.9-.7,4.8-2.4,6.4-5.1l2.3,1c.3-.9.6-.9,1,0l1,.4-.5-8.4c-.3-11.8-.5-23.7-.5-35.4-4.7.6-9.4.5-14.1.4l-1.9-2c-3.8-1.7-8.1-1.3-12,0-1,2.8-3.1,2.8-4,0-2.5-.5-4.5-1.5-6-3-.6,2.8-5.6,3-6,0-4.1,2.6-2.8-4.3,2.3-4l29.3,1.9c.1-2.3.5-4.6,1-6.9,4.3,1.1,9,.8,13.4,0l-2-.7c1.2-12.2,1.5-24.7,1-37.7l1-.7c-2.9,1.4-4.2.7-4-2,1.1-3.1,2.1-6.5,3-10l-2.3-.4c-1.4-32.1-1.4-65.1,0-98.8-2.6,2-5.3,1.5-7.7-.8-2,1.8-4.3,2.3-6.9,1.9,6.7,1.8,6.9,5.6,1.7,9.6s-8.6,1.9-12.2-2.9c-6.8,1.2-8.2-4.4-2.6-6.7,3.6,1.1,2.8-2.6,5.5-3s22.7.8,23.5,0c0-1,0-2,0-3-2.6-.2-3-1.2-1-3,0-.7,1-2.6,1-4.4,0-4.1.8-18.2,0-21s-3.2-.2-4-2.2.4-7.5-.1-10.4c8-.8,16-.8,24,0Z"/>
  <path class="st135" d="M577,1090c.6-16.5-.7-33.1,0-49.6s1.7-3.4,1.7-4c0-1-2.3-1.7-1.7-3.5h14.5c1.9,0,2.4,4.7,3,6,1.2,0,0-5.5.5-6s9.2.3,11,0c.5,3.7-1.3,1.1-2.7,1.2-4,.3-1.1,1.7-.2,3.3s-.3,1.3,0,1.5c.4.4,2-1.1,2.9-.8s.1,1.2.4,1.3c.6.3,2.8-.3,2.8.9v16.5l-4-2,1,35h-29Z"/>
  <path class="st207" d="M580,20c0-2.8,8.8-5,11.4-5.1,25.6,7.8,54.3,5.6,80.7,2.3,3.3-4.1,15.4-1.3,17.8,2.8.5,0,2,1.7,3.4,1.1h85.6c-1.1,5.3,1.4,17.5,0,21.9-51.2.8-102.6,1.2-154,1-.2.9-.5.9-1,0-.8.5-1.6,1-2.4,1.3s-1.6.6-2.4.6c-10.9-.1-21.9-.7-33-2.5-31.4.4-62.8.2-94.1-.4-1.5-4.5,1.1-16.6,0-22h84.6c1.4.7,2.9-.9,3.4-1Z"/>
  <path class="st113" d="M404,92c.5-2.6,1.9-3.7,4.4-4.1,3.6-.4,26.3-.6,28.9,0s1.1,4.3,7.2,3.1-.1-2.9,1.1-3.1c2-.4,22.3-.3,23.2.3,1.8,1.1,2.6,6.6,6.9-.3h32.7c.2,3.2,2.4,2.8,2.6,3,.8,1-2.3,4.8-2,5,7.4-1.3,5.8.9,8.9,3.6s7.1-1.3,10.1-4.1c-2.6-3.9-8.9-1.8-11-6.5,4.7,0,9.3-.1,14,0,4.6.2,3,8.9,1,11.7-5.5,7.3-18.9,10.1-25.5,2.5-7.6-.6-11.4,9.1-.7,10.4.8,6,6.4,7.9,11.5,6.8,7.6-20.3,26.5,1.9,15.9,9.2-5.6.1-8.6,2.5-6.9,8.4,8.2,1.2,9.4,3.3,9.8,11.6s-5.5,19.9-12.5,13.8c-3.6,4.6-4.8,1.6-5.8-2.6-12.9-4.1-13.1-17.1-8.8-27.8,5.5-2.8,6.4-4.8,2.7-6-9.8,2.5-12.6-.9-16.7-9.6-3,3-6.9,4.8-11.7,5.6l-2.4,5.4c-8.8,3.9-10.1,12.1,0,14.8,1.5,2.9-5.2,12.4-8,14.8,1.6.5,2.4,1.1,2.1,3.1-1.5,1.5-3.5,2.2-6,2-5.1,6-11,1.9-13-4-1.8-1-11.2-1.5-12,3.9-11.5,2.6-24.8,2.4-36.8,2.2-2.8-.4-5.3-1.3-3.2-4.1-.8-.3-1.8-1-1.7-1.6.9-3.7,24.2-20.3,29.5-24l4.2-1c-.8,0-2-.2-2-.7-.6-7.8-1.2-29.1,0-36.2l2-1.2c-9.5.5-20.1,1-30,.5-1.4-.7-2.1-2.3-2-5Z"/>
  <path class="st120" d="M362,176c1.5.2,3.5,1.8,3.5,3.3-.3,14.2-.3,28.3-.1,42.4,2.3,1.6,2.3,4.5,0,6.2.8,11.5.7,22.8-.5,33.9-.7-1.5-2.1-1.8-4-.8,2.1,1.5.4,3.6-1.3,5-.5,2.9-1.1,16.1,2.5,17.3,1.7,3.8,1.4,30.7-.2,31.9s-2.4.8-3-1.2l-2.4-.7c-1.7-2.4-13-23.6-12.4-24.9s.5-.9.8-1.3c-4.7-1.5-4.7-4.8-1.6-8.7-6.2-3-9-7.3-8.4-12.9-1.8-.2-2.8-1-3-2.4l-2.5-.4-11.7-22.1-11.6,6.2-2.3-.7c-1.8,4.5-8.7,0-4-4.1-3.6-3.5-5-6.5-4-8.9h-1.1c-5.4,3.9-7.8.6-4-4.4-.2-2.4-1.8-2.2-5,.5-2,1-3.2,1.6-4.5-.5s-.3-26.8,1-27.3,2.4,1,1.6,2.6h2.2c1,3.9,2.5,7.6,4.3,11,1.5-3.9,4.3-5.4,8.6-4.5,9.3-3.5,11-4.2,4.9-12.3-3.5,1.5-6.4.7-5.8-3.6l-3.2,3c-8.4.7-14.1.9-13.8-9.6-1.9-.6-1.9-1.4,0-2,0-2.7,0-5.3,0-8h37.4c.9-.2.7-2.1,1.6-3,4.4-1.7,6.5-.5,5.4,4.2,3.5,2.5,3.7,6.7-.6,8.4,0,2.2-1.1,4.2-3.2,6.1,6.3.7,12.4.7,18.4,0-1.8-7.4,6.7-15.1,8.1-4.8l8,1.7c-1.8-4.4.4-6,4.7-6-1.4-2.6-3.2-4.9-5.7-6.8-3.9-5.3,8.7-7.8,7-1.8Z"/>
  <path class="st76" d="M250,274c.4-1.4.7-2.3,1.7-3.3,2.6-2.4,22.4-12.8,24.8-11,.3,3.1,2.4,5.2,5.5,5.3.3-3.9,4.9-1.5,3.5,2.5-7.8,4.7-7.1,9.1,1.2,12.1l.2,2.4c1.9,3.8,2.2,5.9.9,6.4v28.6c2.3-1.5,9.2-3.2,10.1,0,.2-.9.6-.9,1,0,5.1,1,7.5,3.4,7.4,8.9,4.1,2.7-.5,6.6-3.4,8.1-2.7.1-4-1.9-3.9-6-4-1.2-5.1-3.5-3-7.1-4.6.9-8.9.5-12.9-1.1-.9.6-1.9,19.9-1,20.4l16.8.9c7.8,3.7,16.4,4.7,25.8,3l1.1,2c5.6.5,12.1-.7,17.5,0s3,.6,1.5,2l-67.4,34c-10-16.9-18.6-34.6-27.6-51.9-7.6-14.5-15.4-28.8-22.9-43.4,1.1-2.3,3.9-1.9,5.6-2.9,6-3.8,10.9-6.2,17.3-9.7Z"/>
  <path class="st56" d="M404,92c1.2,1.2.2,2.8,2.4,3.1,7.8,1,18.1-1.1,26.1-.1s3.4.5,3.4,1.6v38c-9.5,8.5-21,15.3-30.5,23.5s-1.3,2.9-1.5,3c-1.1,1.5-1.8,3.1-2.1,4.8-1.3,1.7-28.8,7.3-30,6.4s-.6-.7-.9-1.2c-.6-1.2-.2-2.2,1.1-3.1l.2-71.6c.3-1.3,1.1-1.9,2.1-2.6,2.2-1.6,21.1-.8,24.9-.4l1.7,1.8c.5,8-.5,16-1,24h5c0-8.2-2.4-19.1-1-27Z"/>
  <path class="st65" d="M250,274v-90.4c.5-1.3,1.4-1.4,2.5-1.6,3.2-.6,23.8-.6,26.9,0s0,3.6,1.6,4.1c0,.7,0,1.3,0,2,1.8,5.1,1.8,9.4,0,13,2.3.5,2.9,2.1.5,2.4v24.4c2.3,1.1,1.1,3-.4,4.4-10.2,4.7-5.5,9.1,2.1,13.6,12.7-2.8,5.6,19.2-2.7,7.1-2.4,4.7-1.9,8,1.4,9.7v2.3c-4.5,1.6-5.4-3.5-6.1-3.9-2-1.2-22.2,10.9-25.9,12.9Z"/>
  <path class="st142" d="M580,20h-43s0-11,0-11h211v11s-58,0-58,0c-4.1-.7-12-3.8-15.3-3s-.6,1.7-1.4,1.9c-12.3,3.5-51.9,3.4-65.8,2.1-4.7-.4-13-4.3-15.9-4.2s-8.2,2.6-11.5,3.1Z"/>
  <path class="st159" d="M624,44c2.3,3.8-3.8,11.3-6.7,14.7-12.8,15.4-29.5,20.5-45.6,6.4-3.4-3-10.8-17.1-5.7-20.1,9.1-1,19.8-.9,29,0-8.3-1-18.3-1-27.1-.5-2.5,2.5-5,1.3-7.9-.5-8,0-16,0-24,0-14.2,0-28.4,0-42.6,0-1-.1-1.1,0-1.4-1,34.5.2,69-.3,103.5,0,9.4,0,18.9,1,28.5,1Z"/>
  <path class="st107" d="M370,173c-1.5-.4-3.8,1.4-4-1.5-1.9-27.8,1.4-57.6,0-85.5h34c-.1,3.1.8,5.9,1,9-7.3.9-17.6-1.3-24.5,0s-2,.3-2.4,1.6v72.7c-.3.8-2.2.7-3.1,1.6,1.8,1.8,1.5,2.1-1,2Z"/>
  <path class="st25" d="M320,175c1.7-1.6,7.2-2.5,9.4-1.9s.2,3.5.7,5.3,10.4.9,10.9.5c2-1.8-1.8-9.1,2.2-12.3s4.2.1,6.7,1.2,6.7.5,6.3,5.2l7-2c0,1,0,2,0,3,3.2,1.3,2,3.2-1,2-1.7-3.5-5.2-3.7-6-.4s6.8,4.5,7,10.9l-6,.5,2,6c-.4.4-11.5-2.1-12-2.4-1.9-1.3.4-5-2.4-4.5-4.1,1.6-1.9,9.4-2.5,10s-18.3,0-20.7-.3c-6.2-.8,1.5-5.9,1.6-6.3.2-.9-1.3-3-.9-3.4s4.1.5,4.1-2.5-2.1-2.5-2.5-3.4c-.7-1.7,2.3-5.5-3.6-5Z"/>
  <path class="st43" d="M404,161c1,1.8,1.4,1.9,3.4,2.1,6.8.6,22.7.8,29.2,0s7-2,7.3-2.3c.5-.5-.4-2.6.7-2.9s9.9-1.2,10.8-1,.5,2,.7,2c0,2.7-3.1,3.9-9.1,3.7,1.7,6.9-5.1,12.3-9.2,5.3-9.9,0-19.9.6-30,1.8l-2.9-1.4c-9.9,4-21,6.2-31.6,6.9,2.9,2.6-2,6-5.3,5.8.7,3.3,0,5.2-1.9,5.9l1.9,2.7-.3,30.2,3.5.4c2.4,2.6,5.8,4.2,10.2,5,4.8-9,9-9.8,12.7-2.3,1.5-1,3.1-.6,4.7,1.3l-.7-18.9c1.5-3.7,8.5-3.6,8.9.8-.3,3.1-1.9,27.1-.6,27.5,13.1,1.5,25.5.8,37.3-1.9,3.6,2.9,6.8,2.7,11.5,2-8.2-1.9-23.8-5.9-23.5-16.7s9.2-.4,9.8,5.9l25.5,6.3c3.9,1.2,6.6,3.1,8,5.6l1.7-1.2c10.5.3,20.9.5,31.2.7.3-5.3.3-10.8,0-16.3l1.4-2.1c-.9-2.3-1.3-4.7-.2-7-2.9-.3-2.8-2.3,0-3,4.6-2.3,6.8-1.4,6.7,2.5-.8,10.8-1,21.5-.4,32.2l-2.4,1.4c-11.5-1.9-23.7-1.8-35.4-.5-.5-1.4-1.3-2-2.5-1.6-1.2,4-10.2,2.8-6-1-.2.8-.5,1.9-1.1,2-2.4.3-19.2.4-20.9,0l-1.4-2c1.3,3.4-4.7,4.3-5.5,1-10-.9-20.2-1-30.7-.5-1.3,3-9.8,3.8-10.7-.6l-5-.9c-8.3-4.6-16.9-7.5-25.6-8.7l.8,57.9c2.7,3.3,1.7,6.6.2,10.1,0,15-.3,29.9-1,44.6,2.7-.1,4.3.6,5,2.2l-2-1.1c-.5-3.9-1-14,2-15.9.3-2.7,1.2-2.5,2,0,2.9.5,2.6,13.3,2,15.6l-2,1.4,1.1-2h18.5l1.4,2c3.1-4.9,6.4,3.6,1,2-6-1.1-46.1,1.4-48,0s0-1.6,0-2c.6-2.6,1-2.8,3-1,11.5,1.2,14.5-.5,9-5-.9-1.5-.2-2.5,2.2-3,0-22.6,0-46.7-.3-72.1-1.1.3-1.5-.7-1.9-1.9,1.5-1.7,3.8-.4,4.1-1.6,1.3-6.9-.2-22-.1-30s0-7.2,0-10.9c0-13,0-26,.1-39-4.8-.7-2.3-2-3.1-3.5.9-.3,1-1.2,1-2,2.1,1,5.3.4,7-1s.2-1.2,1-2l27.8-4.7c2.4-.2.6-4.7,1.2-5.3s3.5.3,4,0Z"/>
  <path class="st70" d="M539,82c0,.2.9,1.4,1,3h-104s.6-3,.6-3h102.4Z"/>
  <path class="st188" d="M748,44v11h-18s0-11,0-11c6-.5,12-.6,18,0Z"/>
  <path class="st32" d="M779,43c-.3,1-.4.9-1.4,1-8.3,1.1-20.7,0-29.6,0s-12,0-18,0-15.3,0-23,0c-15.6.6-31.2.8-46.9.5-11.7,2.6-23.4,1.2-35.1-.5l154-1Z"/>
  <path class="st20" d="M574,203l.9,1.8c13.7,5.5,30.8,11.7,44.9,16.1s25.1,0,38.2-7c.3,0,1,0,1,0l2.3.4c16.8-7,36.6-14.8,54.7-11.4-.7-1.5,2.6-3,3.6-1.2s1,28.6.7,32.4c.1,5-1.1,6.9-3.8,5.8,0,2.3-13.3,1.9-13.9,1.3s-.5-.8-.6-1.3c2.9,0,2.7,2.3,0,3,1-2.2,11.4-2.1,13.9-1.3s.5.6.6,1.3c6.3-.7,4.6,12-2.7,11.5,3.6,1.2,4.1,1.7,3.2,5.5l1.1,1.1c-3.2,9.9-6.2,19.9-8.8,30l.8,1.9c5.6-1.4,3,5.4-.9,7.3.5,3.8-1.6,6.3-6.3,7.4l-1.8,1.8c5.6.6,10.6,2.1,15,4.5,7.9.5,14.9.2,21-1,1.2-1.4,2,1.6,1.9,1.6-.3,0-2.3-2.4,0-4.8s33.3-1,35.1,0,3.2,2.6,2,4.1c.4,1.7.7,2.8,2,1.1,2.9-2,10.4-1.1,14,0,.5,1.5-.2,2.5-1.9,3.1-.4.7,14,4.4,14.8,4.2-.7-3.3-.3-5.7,1.1-7.3,2.3-.6,4.8-1.3,7.6-2.1,1.9-1.9,3.8-3.7,5.4-5.4-.5,0-1,0-1.3-.3-.6-.4.4-13.2,1.3-14.7.6-1.8.9-3.6,1-5.5.1-2.1,1.4-5.9,4-5,2.1,1.7,7.9-4.7,7-7-1.8-2.3,1.2-6.1,4-5,3-1.7,6-4,9-7-2.6-1.1-1.7-2.9,1-3l1.9-1.1c.6-1.8,2.8-4.1,6-1.1,13.3,12.1,26.2,24.6,38.8,37.5,2.2,3.7,2.6,11-1.6,12.7-1.5,3.1-1.5,4.5,0,4,3.7-6,4.6,1.9,4.1,6.4-2.3,20.3-3.3,40.7-2.9,61.1l-1.2,1.5c-1,3-3.4,5.8-7.2,8.5-3.1,2.6-4.1,4.5-2.8,5.5.3.3,2.9,3.8,3,4-.3,3.5-7.5,4.4-10.1,2.8-2.2.3-8.3,3.5-6.9,6.2,3.3,5.9.9,11.8-7.1,9.9-1,4.7-13.1-.5-13.2-1.2-.4-24-.6-47.4-.7-70.2-1.7-2.5-2-5-1-7.5.1-2.1-.2-4.2-.9-6.3l1-7.5c-8.7-1-10.2-1.1-9.6,8.4-2.4,3.2-5.6,6.4-9.6,9.4,2.1,1.6,1.6,2.4-1,2-5.8,13.4-12,26.8-18.6,40l-2.4,2c.9,2.7-.4,4.2-4.1,4.4-7.1-.1-10.8.4-10.9,8.2l1.7.6c4.4-1.5,6.2-.9,5.4,1.9.8.3,1.3.8,1,1.5l-24.7,52.8-1.3.7c-.2,1.8-1.9,3-5,3.7.5,5.5-.2,10.3-2.3,14.6-3.1.2-2.6,1.9,1.4,5.2,2.3-2.1,6.1-2.2,4.9,1.5,3.1.6,1.9,5.4-.2,6.9s-17.7-.4-12.8-4.9l-1-1.1c-3.7,1.1-14.9,9.8-13,14.1,2.2,1.9.8,4.5-2,4-3,1.8-6.1,9.2-4,12,2.6.6,2.3,3,0,4-1.5,6.5,2.8,17.2,8,22,2.4-2.7,4.8.5,5.9,3.2,4.9.3,10.9,3.4,10.1,8.8l-.6,2.2c5.1,31.3,12.8,66.4,21.3,96.7s8.7,25.8,16.3,34.1c1.6-1.4,2.1-.8,1,1l-.3,2.1,8.3,13.9c.8-3,3.2-1.9,2,1l-.6,2.1,9.6,16.9c1.6-2.6,2.7-1.9,2,1l-.8,1.9c1.9,4.5,6.1,12.3,8.8,14.1,1.8-2.7,6.6,1.2,6,4-.5,1-.6,2-.5,3,.1-.7.3-1.3.5-1.3,4.1-.3,11.8,0,15,1.3-3.4-1-8.4-1.5-15.1-1.5v-1.5c0,0,1.6-1.8,1.6-1.8,8.1.7,9.3-.3,3.4-3.1-10.1,3.9-5.1-6.5-.7-10.8-1.2-1.7-1.8-3.6-2-5.5l2.4-16.3c.2-17.1.4-34.9.5-51.4.3-2.3-.3-2.2-1.7.3-2.6-.1-4.6.1-5.9.7-4.1-1.6-8.8-2.2-14.3-1.8-1.5-1.1-2.4-11.9.9-12.2,2.3-2.8,6.8-.2,8.3,2.6l3.8-2.2c-7.3-3-8.3-5.5-2.7-7.3,3.2-3.1-6.1-6.7-5.5,1.1-1.7,2.5-4.3,2.9-4.8-.2-.8,0-2-.2-2-.7.4-15,.9-30.1,1.7-45-3.4-1.9-4.7-5.6-3.8-11-.4-.1-6.9.4-7.2.7-.7.7,1,17.9,1.3,19,5.4-.5,7.6,3.8,6.5,13.1l.4,37.4c-.9,7.5-5.4,7.4-5,.6l-1.7-.5c-5.8-17.3-9.6-35.2-11.5-53.7-4.2-14.9-6.8-29.9-7.7-44.8-2.1-3,3.3-7,6-5l1.8.6c3.3-2.3,6-5.2,8.2-8.6-2.1-1.8-.5-3.4,2-3,6.3-12,6.6-29.5-4-39l-1.8,1.1-.3,9.8c-1.8,9.7-10.2,3-7-4.6-.5-4.1-.6-8.1-.4-12.2-5.8-2.2-14.7-6.4-9.6-13.3-.7-5,.6-7.5,3.7-7.6,1.4-4.3,4-4,7.4-2.1l29.5-62.4,4.5-6.6c.2-.9.6-.9,1,0,2.6,3.8,1.8,12,1,17,2.7-.5,2.7-.1,1,2-1.2,2.8-1.5,11.9,0,15,1.8,1.2,3.8,8,1,9l-1.3,1.1c-.3,12-.1,24,.3,35.9,2.7-2.3,5.2-4.9,7.7-7.7l2.3.2c-.8-.2-1.8-.5-2-1.2-.6-2.4-.4-19.9,0-22.9l2-1.5c5.3-5.2,6.6,2.8,5,7.5.9,7,.8,14-.1,20.9l2.5,1.9c.9-11.4,1.3-22.9,1.2-34.5l2.4.2,1.3.3c.1,20.5.2,41,.2,61.5l-1.5,1.2c-2.4-.2-3.4-2.4-2.9-6.7l-8.7.8c-7.4-2.2-2.8-10.4,2.5-12.8-3.4-2.3-7.1-2.3-11.2,0,1,5.3.4,10.6-.6,15.8-.5,3.7-.7,7.5-.7,11.4l-1.3.6-.7,1.3c5.8-.8,10,2.6,7.6,8.9-3.6,0-4.5,1.6-2.9,4.7,3-3.8,9.2,1.6,6.9,5.2.4,2.5-.3,5.4-2.1,8.8,5.5.5,10.7,4.4,3.6,7.1,1.9.6,3.8,1.4,5.5,2.4.5-5.5,4.7-11.3,9.5-6.3,1.3-3.9,4.9-5.7,10.7-5.5l-19.2-1.5c-2.4-1-5.2-2.4-6-4.9-3.6-2.1,0-4.7,3.1-4.9-1.1-1.4-1.5-2.8-1.1-4.1,1.6-1.9,4.5-2.8,8.5-2.8l3.5-2.2c.1-.9.3-1.8.6-2.7s.6-1.6,1.1-2.2c10-10.5,20.5-21,31.1-30.6.6-.6.6-7.8.3-7.5l-16.7,16.4-2.3-.5-1.9-1.9c.9-5.9-.7-8.7-4.7-8.3-6.1-3.3.9-6.4,5.4-7.5.4-.5-4.1-10.3-4.9-10.7-3.9,1.9-6.9,2.1-8.9.4l-1.3-.8c-2.4-13.5-.3-24.9,6.3-34.2v-3c5.5-5.3,10.4-10.6,15-16,2.1-.5,3.5,1.1,4.2,4.6,6.5.8,7.7-3.1,3.5-11.7l1.3-1.9c.2,0,1.2,1.1,2,.5s4.3-5.2,4.5-5.5c.3-.8,1-10.9,4-6s1.5,9.3,1.6,10.5c0,4.6-.2,8.9,0,13.5-1.3,5.5-2,34.6-.7,36.2l.7,1.8c0,1.5,0,3.6,0,5-2.8,2.1-2,7-1,10-.3,6,1,11.9,1,17,0,.7-.1,1.4-.6,2-1.8,2.5-1.7,46.3-.2,48.3l.7,1.8c0,.9-1.2,2.9-1,3s1.9-.1,2.9.6c1.6,1.1,16.8,30.4,18.6,34.5s2,4,.5,6c-4.7-3.6-7.9-10.2-9-16-2.1,0-5.9-8.1-5.7-7.7,2.6,3.4,4.1,7,4.7,10.7l1.1-.4c4.5,8.5,8.9,16.5,13.1,24.1l1.8-.7c.9,1.6,1.3,2.8,2,4,.5,6.4,5.4,14.4,9,20,0,.3,0,.7,0,1-.4,1.6,0,3.6,1,6-.3,1.3,1,3.5-1.5,3-2.3-2.2-1.2-7.1-5.5-7,3.9,11.7.5,25,2,36.5s.8,3.1,2,1.5l2-29,4,2c.4-2.5-1-8.1,1-9.5.5-1,2,.9,2,1v14.5c-3.6.9-2.1-1.2-4-2l-2,24.5c3.6,4.1-.9,8.9-1.1,12s2,.4,2.1,1.1c.3,1.7-.9,3.4-1,5s1.2,4.1.9,4.4-2.4-.3-3.5,1-1.5,3.4-2.5,5l-1.7-.3c-2,2.2-8.8,14.9-8.3,17.3-.2.3-.2,1.6-1,3-.6.9-1.4,1.3-2.4,1l-17.5,31.1-2.1.9c-4.7-.2-.2,2.7,0,4-1.1,1.1-1.8,2.3-2,3.6v13.9c-.2,7.7-4.3,3.9-7.7.3l-2.4-.7c-3.2-2.7-6.3-4.8-10-8-1.3-2.3-3.3-4.3-6-6-1,0-2,0-3,0,.2,4.2-1,8.9,2,12.3s2.2.9,3,1.7c-.2,2.2,1.2,4.5,3,3,4.8,4.1,9.1,7.5,13.9,10.6s2.1,2.8,3.4,4.2,2.1,0,2.4.5,2.1,7.4,2.2,8.8c-2.5,6.4-2,17.8,0,25-.2,2.3-.3,2.1-1,4-2.4,1.9-4.7,3.9-7,6-8.1,2.4-26.1,1.1-35.5,1s-4.4.6-5.5-1l1.2-1.3,32,.5c3.6.2,5.8-.2,6.7-1.2.1.8,0,.9-.7,1-11.8.4-24.4.5-36.1,0s-.5-.4-.7-.9c-1.7,1.2-3.7.4-6.1-2.4l-1.4.4c-1.1-.8-1.4-1.5-2-2,0-.7-1.7-4.6-5-4-.7-.6-1.3-1.4-2-2-1.1-2.3-3.2-5.1-6-4-1.5-1.1-1.3-3-5-2-.4.4,2.8,9,1,11,4.4-2,2.5.6,3,1,5.3,4.7-1.3,7-6,4-9.2,2.8-19.8,2.7-29,0-19.6,1.7-39.4,2-59,0,3,.5,3.6,1.5,2,3-5,.3-7.9-.4-13,1-.1,1-.8,1.8-1.5,2.4v42.4s-1.5,1.2-1.5,1.2c-7.1,2-5.3,7-2.3,11.9-2.5,2.3-4.2,4.4-2.8,7.9l-1.9,1.3c-2.1-.7-.5-4.5-1-5s-10.1,0-12,0c-12.7-3-25-9.1-35.7-17l-5.3-2.2c-19-12.2-24.4-14.6-45.4-4.1-15.8,9.9-32.3,17.6-49.6,23.3-2.5,0-5.6.3-8,0-3.3-1.5-4.7-3.4-4-5.5-.6,0-1-.2-1-.3-.5-17.9-.5-37.4,1-54.7l-.6-.9c1.5-2,1.4-3.5-.4-4.6-2.7.2-6.5.2-9.1.6-27.3,4.2-56.2,2.7-84.4,2.4s-4.4.6-5.5-1l8.1-1h-23.8c-2.1,0-2.8-1-3.2-3,.2-.5,7.9-5.7,8.5-7,1.1-2.2-.3-6.4,1.4-7.6s9.4.5,12.4-.6,1.5-2.9,5.6-3.8c2.5-1.2,5.2-2.4,8-3.5-1.6.8-2.2.6-2-.5,1.3-.5,1.5-.7,3-1l1.3.3c22.6.5,46.2.4,70.7-.3,5.5,2.8,2.7,4.9,3,8.5s1.8,8.8,1,13.5c1.6.1,3.4-.2,5,0,.3-1,1.1-1.3,2-1.4.7-1.1,4.1-23.3,4.2-25.6.1-3.4,0-17.1-4.2-14-.1-.2-.7-.7-1-1-1.7-1.7-3.6-2.6-5.7-2.5l-89.5.2c-6.4,2.1-9,8.2-7.6,18.3-1.4,2.8-1.8,5.1-1.2,7-.2.2-3.2,2.4-4,3-2.8-1.2-5.8,1.6-7,4-4.6,3.5-9,7.8-14,11-2.7-1.4-10,3.2-11,7-3.3,1.9-20,1.4-24,0q1.2-1.3,0,0c-4.2-1.5-9.7-7.9-14-10,.1-1,.6-1.7,1.5-2.2.5-11.9.1-24-.5-35.8.4-4.1,1.8-8.4,1-13h3c.4,2.8-1.1,6.8,1,9,2.3-1,5.1-2.8,8.4-5.6l.6-2.4c1.5-1.1,3.2-1.4,4-2,.9.6,1.5.3,2-1,5.3-3.8,5.7-6.5,5-13-1.5-.5-3.1.9-4,1-3.1,1-8.3,3.2-9,7-1.4.8-.9.9-3,1-5.1,3.6-8.1,3.6-9,0,.6-19.3.5-38.8-.3-58.6l1.3-12.4c1.8-7.4-1.5-14.3-3-21,1.4-5.4,1.8-11.3,1.2-17.7l1.8-1.3c0-12.5-.3-24.9-1-37,.4-5.7,1-10.2,0-16,1.4-13.8.8-29,0-43,1.4-2,3-2.3,4.1,0,2.6,3.5,3.4,3.9,7.7,1.7,3-.2,5.4,1.2,4.3,4.3,1.9,3.7,3,3.1,3.2-1.8l1.4-1.8c8.2,0,7-5.4,1.6-.9l-2.3-.5-2.1.5-7.8-10.7c-.8,1-1.6,1.6-3,1.2-1.9-.7-2.7-2.7-2.4-6.2-3.6-.4-5.6-1.1-2.6-3.8l-1.3-.2c-.5-14.6-.4-29.2.5-43.7,2.3.9,4.6,1.5,6.8,1.9,5.8,4.5,21.7,16,25,21,2.3,5.4,10.2,4.5,15,3,.6,0,1.4,0,2,0,2.8.7,5.3.1,8-1,.8-3.6.9-7.4,0-11l-1-1c-4-3.8,6-5.7,4,0,2.9,2.3,3.8,5.6,2.4,9.1.3,1.2,13,4.5,13.4,3.9-.3-3.9.8-6.2,3.3-7,1.8-2.3,2.7-5.2-1-6-.2.9-.6.9-1,0-1.5-4.9-2.8-10-1-15.6l-1.2-20.1c1.3-1.6,1.8-3.5,2.2-5.4-4.2-1.9-.3-7.5,1.8-10.4l-4.5-.6c-1.9-1.6-4.2-2.4-7.1-2.4-4.4-12.8-4.7,8.3-4.2,12.8l-2,1.7c4.5,3.1,2.3,18-4,15-3.3-.8-3-12.6,0-14-.3,3.3-4.5,2.2-6.3,0s-1.4-18.3,2.4-19.5c-1.3,1.3-2.7,2-4.2,2.1l2,1.2c-.5,10.4-.5,20.8,0,31.4l-2,1.5c.7,2.3.6,8.8-3,8.5-.7,5.7-7,3.1-6.3-2.6-2.5-.5-3.4-1.6-2.7-3.4-.9-3.8-.8-8.4,0-12,2.2-.2,4.6-.5,7-1-1.2-1.7-1.4-4-.8-6.9l-.3-15.7,2.1-1.4c.9-1,1.9-2,3-3,0-.3,4.5-2.6,3-6,3-.7,2.3,2.8,3.3,3.7s4,.3,3.7,3.3c1.9-.3,3.7-6.1,3-7-1.8-2.1-2.2,4-4,2s3.3-4.9,2.9-6.4-2.3-1.9-2.7-3.3c-.8-2.5-.1-7-.2-9.8s1-4-2-3.5c-2.3.3-2.2-3.8,0-4,.2-3.3,4-9.3,6-4,.5-.4,1-.6,1.2-.5,1.6.9,15.9,28.2,18,32.3,2.2,6.5,5.2,12.3,8.8,17.2,3.1.5,3.6,2.5,1,4,.6,1.4.5,2-.6,2.6l9,25.7c-.2,3.4-1.3,6.6-3.5,9.7,2.9,3.4-3.3,12.4-8,13-1.4,3-2.7,12.8,0,18,2.7,1.3,2.6,5.6-.2,6.2-.3,1.6-.5,3.9,1.2,3.8l1.6.2,15.2,18.4c-.6,4.9-8.4,34.1-10.4,36.4s-.8.2-1.4,0c1,2.2,2.2,5-1,5l1,1.4c-2.6,11-5.3,21.8-8,32.6,2.3,3.4-2.7,14.1-7,14-2.9.5-6.6,4.2-6,7,1,1.1,0,2.1-3,3-.5,1.8-2,2.5-4.4,2,5,2.5,5.8,4.9,2.4,7-1.3.8-2.2.1-3-1-1.6,0-3-1-4.3-2.6l-1.7,2.6-2.1-.9c0-2.6-.2-5.5-.7-8.5-3.2,4.2-6.6.6-6.2-3.9-6.8-5.1-2.4-14.4,5.9-10.6l-.2-6.8c-5.2.3-7.6-2.9-7.3-9.6-1.8-1.6-2.3-3.1-1.6-4.6,1.5-1.2,3.4-2.2,5.6-3.1-1.2-2.9-1.4-4.2-1.1-7.4s3.1-11.3,5.4-12.5c3.5-3.9,3.2-9.1-.6-13,0-2.8-.7-5.1-2.4-7-2.8-.9-.4-3.9,2-4,1.6-8.1-3.3-8.1-4.7-1.5h-13.2c-2,0-2.7.6-2.1,1.6,1.5,2.5-.9,3.9-3,2-3.4.2-7.3,2.1-8,6-.6,2.3-6,8.5-8,5-1.2-.2-2.5.7-4,2.7-11,0-4.5,10.3,4,5.3,2-1.8,2.4-1.7,2,1-.4,2.5,3.9-.5,4-3-1.2-3,5.1-6.5,7-4,5.4-2.7,7.3,2.3,5.6,14.8l1,27.6c.6,11.2-.3,21.6-10.9,26.1l-.7,2.4c.8,3.3-5.2,6.6-8,5-3-1.1-7.6,3.1-8,6v2.4c-3.2,1.3-4.2,4.5-3,9.6,2.5,0,5.2-1.3,8-4-1.6-4,.4-8.4,4-5,2.6,1,6.2-1.3,7-4-3.9-4.3,6.2-18.3,10.3-8.7l7.3-.2c-2.6-8.6,5.4-13.8,8.2-4.1,6.7,4.9,9.5,7.4,1.6,12.9l3.1,2c-1.3,13.2-1.9,26.2-1.4,39.4.8,6-.7,10.1-4.3,12.4.7,4.4-.5,6.8-5,7.8-.5.5.5,14.2.9,15,3.3-.5,5.6,0,7,1.7,2.7-1.3,4.8-1.3,6.2,0l2.3-1.5c19.6-41.3,36.8-81.4,50.8-124.8,5.4-16.9,11.1-36,15.5-52.3s-.2-.9-.6-1.4c-.9-.2-.9-.6,0-1,2.7-6.4,7.9-10.6,15.6-12.6l.4-2.4c.3-3.7,5.3-8.7,9-9,3.7,1.7,9-13,7-16-2.7-1-2.1-7.9,1-8l-1.1-6.5c-.6-2.8-2.4-9.7-5.9-8.5-2.8.9-3.7-.7-2-3,1.5-3-7.5-9.8-10-11.1-4.1-2-11.6-5-14-2.9-2.3,4.3-6-.8-5-4-14.7-44.2-32.7-92.2-50.6-134.8,0-.2-.7-.3-1.4-.2-2.7,3.4-3.7,1.3-2.9-6.2l-1.1-.8c-2.7,3.7-6-3.4-5.5-6.3s4.4-5.5,7.3-5.6c3-8.2,15.2-8.2,14.9,2.1,3.4-.4,5.8-2.5,7.1-6.2l4.3-1.5c-1.7-1.5-2-3-.6-5-4.1-4.9,7.9-11.1,10.5-7.6l1.3-.4c3.9,3.8,9.7,4.6,17.4,2.3.7-3,2.8-5.9,5.2-2.9-1.5,4.6,2.2,7.8-1,11,4.8.7,4.3-4.8,8.7-5.8s5,.2,8.3,1.8l2.3.7c4.7-1.2,8.7,0,4.4,4.3l-16-.8c-1,.2-.9,1-.6,1.9h19.8c1.3-.4,2.3-.5,3.1,1,.2-3.5,5.3-2.4,7.1,0,.5-3.1,1.8-4.8,3.9-5,2.3-3.2,4.5-5.6,6.7-7.1l-.7-1.9c-1.4-1.9-.5-42.3,0-47.5s.6-3.6,1-5.5h21l-.5-2c-5.5,2.4-11.9-1.2-18,0-1.2-.2-2.5-.8-3-2-1-2-.9-34.6-.5-39,5.5-5.2,12.9-6.4,22.2-3.7l.8-1.3c2.1.4,2.8.4,5,1Z"/>
  <path class="st185" d="M531,89c3,0,6,0,9,0,0,24.2-.1,48.4,0,72.6s-.4,15.8,0,24,1,2.8,1,3.4l-1.7,7.3c-2.4,2-8.6-2.2-9.2-5.1-9-1.2-18-1.2-27.1-.1,3.2,1.8,12.1,12,9.6,14.7l-3.6.3c-.2.4,0,2.3,0,3l-.7,3.3c3.4,6.8-7,14-13.3,13.1-3.1,5.6-11.5,4-16.5,1.8,0,4.2-1.2,6.7-3.5,7.7-3.2-.8-5.9-2.2-8.8-3.7l-26.1-6.4c-.7-.5-2.8-10.7-6.7-10.9-.2,15.4,14.7,14.9,25,19s4.3,1.6,4.5,3c-5.2-.5-11.6.7-16.6,0s-1-2.1-2.9-2.2c-2.9,0-4.3,1.8-7,2.2-9.3,1.3-21.8-1-31.4-.2-2.7-1.7-.4-26.3-.1-30.9h-5s1,26,1,26c-2.5-3.5-3.7-5.2-7-8-7-7.7-13.4-16-19.5-25-3.3-3.5-6.2-7.2-8.5-11,0-1.5-.3-7.7,0-8,.8-.7,7.2,2,6.1-4.9,8.8-1.4,17.6-3.3,26.3-5.2s4.2-2.4,6.5-2.4,2.3,1.3,3.6,1.5c6.6.6,25.4-4.7,30.5-1.4s.5,3.8,4.4,2.4.9-7.1,1.7-7.8,9.3-.7,11-2c.5.4,1.9.3,3.1,1.4s1.9,3.6,2.6,3.7c1.7.2,5.1-1.8,7.4-1.1,2.7.8,2.6,3.1,0,4,3.7-.1,4.8,1.7,3.1,5.5.6,12.6,20,8.6,27.7,6.2,6.3-.9,12.6-.3,18.9,1.9,3.7-4.1,6-4.8,11.5-3.9.6-2,.2-6.8-1.9-7.8-3.3-1.6-8.4-2.7-12.3-2.2-1.3-.4-1.9-2.3-2-5.8-.2.5-.4,1-.7,1.2-.7.3-4.9,2.4-5.2,2.4-2.7.6-32.5.7-33.9-.4s-1.3-2.7.9-3.2l-6-2.5,4.4-3.6,6.6-10.9c-8.3.5-10.6-9.3-5-14.5s3.3-1.2,4.4-2.6,1.1-4.1,2.5-5.5,6-1.6,8.3-2.7,3.4-4.5,6.7-3.8c-.6,2.3,4.6,9.7,6,10.6,2.2,1.4,11.8-4,12.8,3.2s-5.5,2.9-6.6,8-.7,14.5.9,16.7c2.8,4,12.8,3.6,9.9,11.6l3.5-5c.4,0,3,4.3,5.4,2.9s4.7-8.6,4.9-9.6c.6-2.9.8-10-1.8-11.7s-8,.1-8-5c0-10.9,7.9-7.4,9.2-9.1,4.1-5.6-3.7-19-11.1-10.9s-2.1,6.8-6.4,6.5-8.2-2.3-8.6-2.5c-1.7-1-1.5-4.4-2.5-5.5-1.6-1.8-12.4-.7-5-10.9,6.2-8.5,11.1,1.6,15,2s11.5-2.2,12.9-3.1c4-2.6,5.8-9.6,3.6-13.9Z"/>
  <path class="st56" d="M396,344h-21v-17h-2v17c-10.3,1-6.1-3.3-6-9.5.4-11.3-1.5-26.5-.1-37.1s3.4-4.4,0-9.9l-.9-60.6c10.5-.8,19.6,6,29.2,9.3,1.6.6,5.5.5,5.8.8.4.4-.2,2.5.1,2.8s7-1,8.4-1c8.3-.3,16.8,0,25.1,0s4.4-.6,5.5,1l-4.4,1.9c-3-.1-23.6,0-22.9.9l20.6,26.9c3.5-.1,4.9-4.1,4.4-11.9l2.4-.8,1.9,1.6c.3,4.5,0,8.9-.8,13.3l96.9.5c.8.3,1.4.8,1.9,1.5s1.1,19,1.1,22.1-.4.7-.9,1.1h-1c-.9.3-1.8,0-2.8-1.1h-68.4c1.2.9,2,2.1,2.6,3.5,3.3-3.6,8.7,1.3,5.5,4.5-5,.9-16.3,6.3-5,7l-5,2.5,3,3c-1.2,2.6-4.5,2-6,3s-1,3.3-2.4,4.6-3.5,1.1-4.9,2.1-7.4,6.8-5.6,2.4,2.9-2.2,2.7-4.8c-.5-10.6-13.1-3-10.7-.7s3.9-3.1,5-2-7.9,9.5-10,7.5c7.5-6.7-.7-4.8-2.6-.5s1.5,6.9,3.6,6c1.3,2.2.4,3-2,3-1.7.7-2.6,1.9-2.8,3.6l-2.2.4-2.1-.9c.1-3-.5-2.8-2.7-1.2,0,5.2-1.3,6.4-6.5,5.6l-3.8,1.5c-2.1,1.4-2.8,0-3-2.3l1.1-17.9c2.4-11.7-6.4-12.3-14.5-7.7-.4,8.5-.9,16.9-1.2,25.3l-2.3.5Z"/>
  <path class="st57" d="M715,201c3,.6,1.9-1.5,2-3.5.4-10-3.7-16.5,10-14.6.5.5-.5,8.4,0,10.3s2.6.7,3,3.2c1.9,10.3-.8,28.5,0,40.1s1,4.9,1.1,7.4h25.9c.4-1.3-1.6-1.2-2-1.9,1.8-2.5,3.2-2.5,5,0-.6,3,1.5,1.9,3.5,2,28.9,1.1,64.4,1.5,93.1,0,2-.1,3.4-1.7,4-1.7,2.6,0,7.7,8.4,11.2,9.4s9.3-.7,11.3.7c4.5,3.1-3.4,5.4-6,5l12.5,13.5c1.3-2.2-.6-8.5,3.5-8,0,4.2-.5,9.3,1.3,13.2s5,4.6,5.7,6.3-1.8.9-2.1,2.9c-1.8,14.9.6,35.7,0,51.6l-1.5,1.9-.5,16.1c.1,5,.8,11.6-1,16-.5-.2-.9-.3-1-.3-.5,1.6-1.3,8.3,0,8.3-.5,1.5-2,3.9-3,5-2.5-.2-2.7-1.1-1-3,.3-8.4-1.1-16.5-1-24.5.2-14.2,3.8-27.4,3-43.1-.1-2.5.7-3.3-2-1.5-1.8-1-.9-2.6,0-4,.5-3.6,2.5-7.8,0-11.6-4.3-3.5-38.7-40-41-38.4s-.3,4.9-4,2c-1.6-.7-1.7-2.1-.3-4.2-3.6-2.1-6.9-.7-9.8,4.3-1,2.1-2.3,2.8-3.9,1.9-2-1.9-5.7,3.2-5,5,.8,3.3-8.4,12.9-11.2,14.3l-2.8-.3c-4.6,8.6-13.1,11.6-22.6,11.3l-21.1-.3c.6.4.2.7-1.4,1.1-.6,1.9-1.4,1.9-2,0l-.8-1.2-25,.6-11.9-.4c-2.9-1.6-4.4-3.9-4.4-6.9-1.6-2-1.6-4.9-.2-8.7-4.7-.8-4.8-5.1-4-9l-.8-1.3-1.1-.9c1.9-4.2,2-6,.1-5.1.5-3.4-4.5-2.9-5-4.5-1.2-3.9,3.6-3,5-4,2-1.4,1.1-8.5-.5-8.5h-14.5v-3h14.5c1.1,0,1.4-2.4,1.6-3.4,1.2-10.5-1-23.3,0-34-.2-1.2-1.7.6-2,.5-2.2-.2-2.7-.3-1-2Z"/>
  <path class="st134" d="M560,44c10.4,0,21.1-.4,31.5,0,1.2,0,3.7-.8,3.5,1h-29c-1,5.6,4.1,16.6,8.5,20s10.7,5.6,11.3,5.7c17.4,4.5,32-12.7,38.3-26.8.3,0,.7,0,1,0,27.3.1,54.7,0,82,0l1,3h-4c-16.1,0-32.5,0-49.4,0,1.3,27.5,41.3,29.4,47.1,2.6l2.4-1.6c1.8,1.5,5.6,1.3,7.9,1.4s6.9-2,6.1,1.6c-4.3-1.2-3.8,1.7-5.6,2.9s-4.7,1.6-5.9,3.2c-1.7,2.3-2.6,8.9-4.1,11.9-19.7,37.6-65.3,50.9-102.6,32.8s-33-29.9-37.7-45.5-.7-8.5-2.1-12.2Z"/>
  <path class="st209" d="M396,344c-.1-.1,1-2.2,1-3.5.2-5.6-1.1-19.2.7-23.3s16.4-3.6,17.3-1.5c2.3,5.6,0,20.8,0,27.9s1,2.3,1,2.4c.9.2.9.5,0,1,1.7.3,3.4.7,5,1,3.1-1.3,3.4,1.8,3.1,4.5-3,5.8-2.6,9.3,1.2,10.8.4,6.5.1,13.2-.7,20,4.8.9,7.4,5.9,8.2,10.4s-5,11.2-8.6,10.3l-.3,9.6c0,.7-1,.8-1.9.4-1,2.9-4,2.7-5,0-2.6.6-7.4,3.7-10.5,4.1s-3.3-1.9-4.2-2.1c-1.4-.3-4.9.4-5.3,0s0-3.9-1.5-6-3.8-2-5.6-3.4-2.5-3.4-3.9-4.6c-1.1-2.3-3.2-5.1-6-4-.5-.4-.8-1.9-1.7-2-1.6-.2-4,1.6-4.8,0-1.3-2.3.9-5.8-2.5-7.1.7-2.3,1.7-3.8,3-4.5-.7-.1-1.3-.3-1.3-.5-.2-2.9-1-24.1,0-24.9s.8-.5,1.3-.7c-3.7,1.2-2.1-4.9,1.2-5.4,7-.6,14.1-.9,21.1-.8l.7-1.3c0-1.6-.1-3.4,0-5s1.7-1,.9-1.9-1.7,0-1.9-.1Z"/>
  <path class="st143" d="M304,246c.3-.9,14.2-8.4,14.9-7.9l13.1,24.9c-.9,2.4-3.7,3.5-8.3,3.3-1,7.6-3.5,13.4-8.5,19.4,7.9,4.4,10.8,11.7,5.8,19.3,1.6-3.3,14.1-3.1,16,0-3.8-1.5-2.2-9-1-12.3s6.9-11.1,9-5.7c3.7,7.9,11.5,19.5,14,27,2.4.7,3.5,2.9,3.1,6.7.4,4.8.6,14.1-2.1,17.3,1,3-5.7,6.9-8,5-1,.5-1.9.9-3,1-.1-2.5.8-6.3-1-8l-1.5,1.5c-12.9-.1-25.9,0-38.8.7-3,0-6.7-.7-4.6-4.1,0-3.5,2.3-3.8,4-6-3.9.2-2.2-5.2-3.5-7s-2.6-.8-3.5-1.5-.9-2.3-1-2.4c-.5-9.4-.7-19-.5-28.7-3.3-1.6-3.5-2.7-.5-3.3,1.3-3.6,4-6.4,8-8.6-3.2-3.3-5.2-6.7-6-10.4-.4-3.6,0-7.6.5-11.2s1.7-8.7,3.5-8.8Z"/>
  <path class="st20" d="M458,249c9.1-1.8,18.1-1.8,27-.2-1.1,6.1,11.3,7.9,9.1,1.8l1.8-1.6c1.9.2,4.1-.2,6,0,1.8,1.4,3.8,2.4,6,3,1.3,0,2.7,0,4,0,3.9-1.4,8.2-1.7,12,0,6,0,12.2.6,18-1v51c-3.3.8-1.7-2.9-2-5s-.9-5-1-7.5,1.3-14.4-1.6-15.4l-96.7-.4c-3.2-1.2-.7-5-.6-7.3s-.3-6.5,0-9.5c-4.6-5.2,1.8-8,7.3-6.8,1.6-4,8.6-4.9,10.7-1.2Z"/>
  <path class="st209" d="M377,407c4.5,2.8,7.7,5.5,12,9-1,2.5,1.9,3.5,4,4,.6.5,1.9,1.1,3,2-1.1,1.9,2.8,5.2,4,4,.6.8.8,1.6,1,2,3,1.2,6.9,6,7.2,9.2-.9,3.1-1.4,24.9-.4,25.7s1.1.6,1.8.9c-2.1,2.9-2,9.9.2,13.3.3,5.5,0,14.6-4.7,16.9-7.3-2.3-5.5-5.5-7.7-7.1s-3.5-.6-4.9-1.9-1.2-3.7-2.4-4.6-3.3-.4-5.1-1.9-1.7-4.2-2.1-4.4c-.7-.6-5.3.2-6.8-2.2v7s-3,0-3,0c-.2-3.8.4-7.7,0-11.4s-1.8-4.4-1.9-6.6l.6-1.9c1.5-16.7,1.7-34,.8-52l4.7-.2Z"/>
  <path class="st90" d="M503,191c8.7-.7,17.7-1.2,26.5-.2,2.2.9,3,3,2.5,6.1,3.4-.5,5.4.2,6,2,.5,0,3.8,1.5,4,2-.2,1.8-.6,2.2-1.1,1.3-.4,12.7,0,25.3,1.1,37.7-1.8,2.4-11.2.2-12,1s.3,6.5,0,8l-31.6-2-2.5.5c-1.8,1.4,0,1.3,0,1.5.3,4.4,1.6,6.8-4.5,7.1s-8.2-.9-7.6-6.1c-8.7-.4-17.2-1.4-26-1,.4-2.8,3.2-3.9,8.7-3.2.8-.3,10.8-6.3,8.3-5.8,8.9-1.7,21.2-1.4,30.5-1s5.5,1.4,8.5,1c-1.3-11.1-1.5-22.4,0-33.4l-5-.6c.6-1.4,3.4-.6,3-1.5-1.1-1.8-10.2-12.4-9-13.5Z"/>
  <path class="st32" d="M704,48c-5.6,32.4-51.4,29.1-52-3h52c0,.7,0,1.3,0,2s0,.7,0,1Z"/>
  <path class="st10" d="M326,346c-7.4.3-22.2,2-26.7-3l-20.3-1c2.1-6.2.4-16.7,2.2-22.3s6-.2,7.3-.1c2.7.2,6.8-1.6,9.5,0s-1.5,3.3-1,5,3.4,1.2,3.8,1.7-.2,4.9,2.2,7.8.8,1.7,3.4,2.1c6,.7,40.2-2.2,41.6,0s-.4,7.2,0,9c-6.5.2-13.1-.3-19.6,0s-2.3,1-2.4,1Z"/>
  <path class="st181" d="M476,304c-.8-1.1-1.1-3.1-2.5-4-2-.8-1.3,2.1-2,2.1s-2-1.1-2.9-1.1-.9,4-2.5,2.1,2-2.9,2-4.5-3.5-1-2-4.5h72.5c0,0,.5,3,.5,3-5.3,2.2,2.1,3.7,0,6s-2.9-1.7-3.7-1.8-2.6,1.7-4.8,1.9c-9.3.8-21.8-1.5-30.6,0s-2.3,4.1-4.6,4.9-10.5,1-12,1c-5.4,0-5.1-1.8-7.4-4.9Z"/>
  <path class="st202" d="M410,436c.9.3.9.7,0,1-.3,7.9-.2,15.9.2,24,3.5-.7,5.8,0,6.8,2-2.1,2.5-5,.8-7,1-.9,3.6-.8,8.2,0,12,1.5,1.4,3.4.6,4.1,1.6s.7,5.2.9,5.4c.7.7,3.4-1,4-1,1-2.1,3.3-2.2,6.8-.6,7.8-2.6,6.6,9,1.9,12.7l1.3,1.8c.4.3.7.6,1,1-4,2-2.3,8.3,0,11-1.3,2.7-4.8,3.5-7.5,4l-.5-3c.3,0,2.7-1,2.8-1.2,1.1-4-.7-15.5-6.2-13.8s-.4,2.8-2.1,2c-3.6-1.3-3.2-7.7-3.5-8s-2.7-.1-3.5,1c-1.9,2.8,1.6,6.9-4.5,5,1.1-2.9,2.5-5.4,2.6-8.7.3-6.7-.2-47.2-1.9-50.6s-3.6-5-4.8-6.7c4.9-.3,6.4,5,9,8Z"/>
  <path class="st197" d="M561,883c-.5-2.4,1.1-2.2,2.8-2.7,19.4-5.3,36.2-17.4,54.6-25.5s24.6.8,39,8.4c9.2,4.9,23.3,14,32.7,17.1s5.5-1.1,7,2.7c-11.7-.2-21.5-6.8-31.6-12.9s-2.4-1.7-4.5-3.9-3.7-.5-5.3-1.3c-9.5-4.7-19.3-13.9-30.6-10.5s-49,29.1-61.6,29.5-2.2-1-2.3-1Z"/>
  <path class="st184" d="M549,771c-1.8-.6-3.6-.9-5.5-1-29.3-1.6-60.3,1.1-89.8.3-10.7,1.9-2.3,15.5-8.7,23.8-5.8,1.1-.6-4.3,0-7.6,1.4-9.1-2.8-15.5,8.6-19.4h91c4.9.6,3.2,2.6,4.5,4Z"/>
  <path class="st20" d="M898,392l2,11.4c-1.9,28.8,2.1,59.5,0,88.1-.4,5.8-2.7,5.8-3.1,0-1.3-17.9-.2-39,0-57s.3-28.3,1.1-42.5Z"/>
  <path class="st35" d="M550,95c-1.7,3.6,2.1,4.9,2.1,8.5s-2.3,4.2-2.1,4.5,2.6-.6,2.6,4.4-7,12.4-5.6,13.7,2.1-.4,2.8.2,2.7,7.4,2.2,7.8c-1.5.7-10.6-1.6-11-2-2.3-2.5,3.8-7.1,3.9-7.5.3-1.2-1.4-3.1-.8-4.3s2.8-.8,2.9-1.6-3.1-1.2-3.7-1.8-2.2-5.9-2.2-6.3c0-2.1,2.7-3,2.9-4.1s-1.6-2.1-1.6-2.9,1.7-1.6,1.5-2.8-2.5-1.8-1.9-3.7l5,2c.6-1.8.3-4.7,3-4Z"/>
  <path class="st187" d="M374,527c-.5,3.8,3.1.1,4,1s1.3,7.6,1,9c3.3,1.6,1.1,10.1-3,8-.6.4-2.5-.1-2.9,1.6s1.1,4,1,5.9c-.4,10.7.5,20.8,0,31.1s.2,3.7-2.1,4.4c-2.2-13.5-.1-27-1-40.5s-3.3-16.8-2-18.5,1.6.2,2,0c.2-1.8,1.2-3,3-2Z"/>
  <path class="st21" d="M574,203c9,2.4,17.7,6.9,26.6,9.9,6.3,2.1,23.8,8.6,29.1,9.1s11.3-2.2,15.4-3.4,10.7-4.6,13-4.5c.1,2.6-1.4,2.6-3.2,3.3-6.5,2.7-19.7,8.2-26.2,7.6s-20.4-7.7-27.7-10.2-20.1-5.4-29.5-9.7l2.5-2Z"/>
  <path class="st67" d="M373,681c4.6-.4,0,4.2,0,6.4-.3,17.7,1.1,36.4,1.1,54.1,0,2.6-2.8,11.8.4,12.5s2.6-2.4,4.2-2.8,2,.8,2.3.8c-2,4.2-8.9,6.1-10,.5,1.2-22.4-1.8-46.9.1-69.1.2-2,1.8-2.3,1.9-2.4Z"/>
  <path class="st58" d="M717,867c.6,1.2,1.6,1.2,3,0,3.8,1,2.3,6.2,1.7,9.2s-1.4,1.7-1.5,2.5,1.9,2.8,1.9,5.7c0,4.2-.9,6.1-5.1,6.1,6.9,5.8,5,8-1.5,12.6s-7.6-6.1-7.4-7.4c.4-2.6,7.3-4.1,6.9-7.6-1.4-.3-3.9.4-5,0-.6-3,2.7-7.6,2.8-9.7s-3.4-4.4-.6-9.6,2.6-1.6,4.8-1.7Z"/>
  <path class="st182" d="M539,791c.6,3-1.5,1.9-3.5,2-20.8.7-44.4.8-65.1,0-1.9,0-4,1-3.5-2,12.5-2.7,53.7-2.2,67.6-1,1.8.2,2.8.2,4.4,1Z"/>
  <path class="st162" d="M397,351c0,.1,1.1.7,1,1.4-1.1,4.2-22.2-1.2-24.5,3.6s.6,2.1.6,2.5v26c0,.9-1.2,2.6,0,4.5h-3c1.5-7.5-2.2-29.4.5-35s20.2-2.1,25.5-3Z"/>
  <path class="st206" d="M377,407l-4,1.5c1,1.1,1,2.6,1,4,.3,13.3,1,30.1,0,43.1s0,6-3,5.5c-1.2-17.8.9-37,0-55,2.6-.2,3.8-.4,6,1Z"/>
  <path class="st44" d="M542,201v39c-3.5-.6-9.2.8-12.3,0s-2.3-4.9-6.7-3l3,4c-3.8,0-8.3,1.2-10-3,4.5,1.3,4.5-2.5,6-3.6,2.7-1.8,14.1,3.9,18,2.6.3-10.8-.4-21.7,0-32.5s-1-4,2-3.5Z"/>
  <path class="st21" d="M715,201c.3.1.8,1.9,1,2l-26.2,2.3-29.5,10.6c-2.1.7-1-1.4-1.3-1.9,2.6-.5,4.7-2.6,7-3.5,10.4-4,39.2-13.1,49-9.5Z"/>
  <path class="st195" d="M380,485c0,5.1-4.8-.4-6-1v43c-1.5,1.9-1.7,1.4-3,2v-44.5c2.6-6.8,6-1.9,9,.5Z"/>
  <path class="st124" d="M430,815l3.4,2.1h73.6c0,0-1.5,1.9-1.5,1.9-18.8,0-37.7.1-56.5,0s-12.7,0-19,0c.2-1.2-.3-3,0-4Z"/>
  <path class="st198" d="M423.5,824h51c1.5,0,1.5,3,0,3h-51c-1.1,0-1.9-2.2,0-3Z"/>
  <path class="st77" d="M525,308c1.8.2,2.4,1.4,1.9,3.8,3.8.3,6.3,3.9,2.1,5.2-.7,0-1.9,1-3.4,1-7.2.2-14.4-.2-21.6,0v-6s20,1,20,1c-.5-2-4.4-.6-6.3-1.2s-1.5-1.7-1.6-1.8l9-2Z"/>
  <path class="st193" d="M724,97c3.4,4.1,1.3,1.9-1,5,4.4.3,7.4,3.3,2,5.5,4.6,2,4,5.1,2.8,9.3l-8.8,2.2c1.1-4.3-2.6-3.3-2.1-7.5s1.9-4.9,3.1-5.5c.2-1.3.2-2.6,0-4,0-.2,0-1.8,0-2-.8-2.2,2.1-4.2,4-3Z"/>
  <path class="st136" d="M720,100c-.2-.4-3.1-1.3-2-3s4-1,4-3c-9.2,3-7.5-21.7-1.5-17s.2,2.1,0,3.7c-1.4,8.9,5.5,2.3,6.5,5.9s-1.6,4.1-1.6,5,2.3,1.7,1.7,3.5c-3.7-.9-2.8,1.9-3,2-1.2,1.1-2.7,2-4,3Z"/>
  <path class="st31" d="M553,883c-3.6-.4-5.5-1.5-6.1-5.4.7-20.1-1.2-40.6,1.1-60.6.4,0,2.3-1.9,3,.6s-2,4.7-2,4.9v55c0,.3,3.7,4.2,4,5.5Z"/>
  <path class="st122" d="M895,482c.1,17,.7,35.1,0,52-3.1.6-1.9-1.5-2-3.5-.8-13.4-2.5-32-1.1-45.1.3-2.3.3-3.5,3.1-3.5Z"/>
  <path class="st114" d="M720,821c0,15.3,0,30.7,0,46-1.1,2.6-1.7,2.5-3,0v-45.4c.3-1.2,2.1-.3,3-.6Z"/>
  <path class="st184" d="M550,772c-.9-2.5,2.1-2.6,2.9-2,1.6,1.2,3.5,13.8,3.1,16.5s-1.8,3.5-2,5c-.4,3.1-1.6,21.4-3.1,22.5s-2.8-1-3-1c.8-6.6,3.5-12.8,4-19.5s.6-14.5,0-19.1-1.6-1.8-2.1-2.5Z"/>
  <path class="st211" d="M537,308c.3.4.8.7,1,1,3.5,0,5.6.8,2,3,0,.5-2.7,7.7-3,8-1.9,1.7-2.1-2.3-3.6-2.9s-3.1-.2-4.4-.1c1.2-5-3.2-2.2-4-3s0-4.9,0-6,0-.7,0-1l10.8-.6,1.2,1.6Z"/>
  <path class="st129" d="M790,817c4.7,1.8-1,2.6-4,2-17.7.8-35.3-.2-53,1l-2-3c19.6,0,39.3,0,59,0Z"/>
  <path class="st123" d="M918,703c-6.3,10.9-13.1,21.5-18.7,32.8l-3.3.2,19.5-35,2.5,2Z"/>
  <path class="st209" d="M428,405c-.2.3,0,3,0,4,0,2.1.2,13.7,0,14.4s-4.5,2.6-5.9,4.6c-1.4,1.3-3.4,2.5-5,1-.3-1-1.1-4.6-1-5.5.2-1.9,2-2.3,2-2.5,1.2-1.8,2.6-1.5,4,1,1.7-6.2,2.2-12.8,2.4-19.5,4.1.2,5.3,1,3.6,2.5Z"/>
  <path class="st171" d="M371,809c.8-10.8-1-22.9,0-33.6s.9-3.4,1-4.4c2.2,1,2,6.4,2,8.5.2,7.5.8,19,0,26.1s-.3,3.5-3.1,3.5Z"/>
  <path class="st102" d="M373,641l-2.2-.6c-.7-4.8-.4-9.7.2-14.4-.1-7.6.5-14.9,1-22,2.5,1.1,2,6.2,2,8.4.3,9.2.6,19.6-1,28.6Z"/>
  <path class="st193" d="M728,122l-5,1.5c1.4,1.2,5.2,7.8,4.9,8.9s-4.7,3.8-5.4,3.6c-1.1-.3-2.2-5-5.5-4.1-.7-3.6,2-5.6,3.4-8s.1-3.3,1.2-4,7.3-1.2,6.4,2.1Z"/>
  <path class="st17" d="M841,815c.4-6,4.5,2,7.5,2h37.5c.1,2.3.3,1.8-1.5,2-11.8,1.5-26.4-1.1-38.5,0-2.3-.5-3.9-3.2-5-4Z"/>
  <path class="st46" d="M373,641c.6,1.8.2,13.8,0,16.5s.5,2.6-3,2.5c-1.5-6.6-1.4-14.5-1-21.5s1-9,2-12.5c.1,7.4,0,8.4,2,15Z"/>
  <path class="st116" d="M819,817c2.9,0,2.7,2.3,0,3-3.9.5-8.4-.6-12.5,1l-20.5-2c2.5-.1,4.6,1,4-2,9.6,0,19.4.2,29,0Z"/>
  <path class="st4" d="M560,53c.9,7.5-3.1,6.8-9,7.5-2.2,1.1,1.3,2.4,1,4s-4,2.1-5,1.5-1-6.4,0-7.4,12-6.6,13-5.5Z"/>
  <path class="st35" d="M548,84c-.3,1.9,2.3.5,2.9,1,1.9,1.8-.3,7.7-4.9,3.9-.5.6,2.7,4.8-1.5,5l-2.4-9.4c1-.9,6.9-5.7,7.4-5.7,4.2,0,2.2,5-1.5,5Z"/>
  <path class="st84" d="M895,412c.3,12.6,0,25.4,0,38-3,.6-1.9-1.5-2-3.5-.4-10.5-.5-22.6,0-33.1.1-2.5-.7-3.3,2-1.5Z"/>
  <path class="st1" d="M569,202c3.1,5.2-2,2-4.5,2-6.9-.1-12.7-1.1-18.5,3,.9-9,16.7-6.1,23-5Z"/>
  <path class="st91" d="M760,242c-1.7,0-3.3,0-5,0-4.7-9,10.7-6.3,11.6-5.1,3.6,5.1-3.5,5-6.6,5.1Z"/>
  <path class="st94" d="M896,740c.1,1-1,3-1,4.5,0,3.1.5,16.1-.5,17.6-2.9,4.2-8.7-3.5-10.6-5,3.1-2.1,4.1,1,6,2.5s1.5,2.3,2.5.5.2-13.6.5-17.6-.5-2.6,3-2.5Z"/>
  <path class="st71" d="M895,784c.6,6.8.6,18.2,0,25-2.6.9-2.8-4.3-2.9-5.6-.3-4.4-.7-11.7-.2-15.9s.3-3.5,3.1-3.5Z"/>
  <path class="st106" d="M916,578c1.9,3.4,4.1,6.6,6,10,.6,2.5-1.5,2.6-2.8,1.8s-11.3-21.4-13.2-24.8c-.8-2.4-.5-3.4,1-3,3,5.4,6.1,10.8,9,16Z"/>
  <path class="st113" d="M541,189c0,1.5.3,9.6,0,10s-2.3-.1-3,0c-2-.3-6.3.8-7.6-.9s0-6.6-.4-7.1c-.9-1-23.4.7-27,0,1-1.7,3.8-1,5.5-1,10.7-.1,21.5-2.1,29.5,6,0-2.6,1-5.3,3-7Z"/>
  <path class="st106" d="M924,592c4,7.3,6.6,12,9,20-2.7.2-2.4-1.7-3.3-3.2-3.3-5.2-5.8-10.9-8.6-16.4l2.9-.4Z"/>
  <path class="st197" d="M919,700c-2.6-1.2-2-1.4-1.1-3.5,1.6-3.5,4.3-6.5,6.3-9.8s1.6-5.5,1.9-5.6c.9-.7,3.8-.5,2.9,1.9-3.5,5.5-6.7,11.3-10,17Z"/>
  <path class="st161" d="M420,509c.2,5.6-12.7,2.1-14.1.6s-.7-3.2-.9-3.6c4.9,3.9,5.9,1.6,10.5,1.9s3.6,1,4.5,1.1Z"/>
  <path class="st24" d="M891,384c-3.1,3.5-8.4,6.7-11,11-.1-.2-1.6.3-1.9,0-1.9-2.5,9.7-12,11.9-13.9,0,.2,1.5,1.9,1,3Z"/>
  <path class="st158" d="M894,379c-3.8,3.1-1-5.1-1-6.5.2-5.5-.2-11,0-16.5,1.2-1.6,1.8,0,2,1.5.5,3.6.2,9.7,0,13.5s0,4.6-1,8Z"/>
  <path class="st20" d="M937,668v-17c4.6-.2,4.6,17.2,0,17Z"/>
  <path class="st154" d="M374.3,820.7c1.1.9,3.4-.8,2.7,2.3l-7.9.9-1.1-6.9c3.7-.4,4.6,2.4,6.3,3.7Z"/>
  <path class="st59" d="M546,303c0,.1,2.7-.5,2,1.4-.8,1.8-2.3,3.1-3.4,4.7-1.8,2.7,1.1,2.6-4.6,2.9.4-2.6-1.3-2-2-3,4.4,0,4.8-4.2,8-6Z"/>
  <path class="st209" d="M410,436c0,0,1.3.4,2-.7s.7-6.1,1.5-6.3c5.5-1.1-.3,4.1.5,7h7c0,.2,1.5,1.8,1,3-1.2-.2-3.1.3-4,0-2.5.3-6.6.6-8-2,.2-.2-.2-.8,0-1Z"/>
  <path class="st100" d="M393,744c-2.3,2.5-6.1,5.3-9,7l-2.5-2c2.7-1.6,6.4-5.1,9.3-5.8s2.1.8,2.2.8Z"/>
  <path class="st72" d="M386,759l2.5,2c-2,2-5,3-7.2,4.3s-1.5,4.7-4.3,1.7c2.6-2.8,5.9-5.8,9-8Z"/>
  <path class="st210" d="M825,813c.3.2,6.7.6,3.9,4.9s-8.4,1.9-9.9,2.1v-3c2.3,0,4.7,0,7,0-.7-1.6-2.6-2.3-1-4Z"/>
  <path class="st20" d="M898,337c-.2,5.7-.6,12.4-2,18-.1-5-1.2-11.2-1-15.5s-.2-2.6,3-2.5Z"/>
  <path class="st163" d="M895,455c0,3.8-.9,7.3-1,10-3.5-1.1-2.8-13.5,1-10Z"/>
  <path class="st20" d="M422,414c1.6,2.1,1.6,4.7,0,8-1.3.2-2.9-.3-4-1,.6-1.8-.6-5.1-1-7,1.3-.3,3.5.2,5,0Z"/>
  <path class="st17" d="M894,813c-1.6,4.2-2.8,4.8-7,6,.5-3.5,4.4-5.4,6.5-8l.5,2Z"/>
  <path class="st100" d="M874,749c-1.5-1.3-6.1-2.1-6-6,3,.2,8.8,2.6,6,6Z"/>
  <path class="st85" d="M434,801c-2.6-2.9,8.2-9,7-4-1.7,1.3-5.5,2.9-7,4Z"/>
  <path class="st95" d="M832,807c-1.3-1-4.2-2.7-6-4-.8-5.2,8.3,1,6,4Z"/>
  <path class="st90" d="M524,252c-4,0-8,0-12,0,2.3-2.8,10.4-3.3,12,0Z"/>
  <path class="st95" d="M386,402c-1.4-1.1-4.1-2.4-6-4-.8-5.2,8.3,1,6,4Z"/>
  <path class="st37" d="M409,819l-2.5-2c1.5-1.5,3.8-1.5,5.4-2.6s8.2-7.7,8.1-2.4c-2.5,1.6-6.1,2.3-7.7,3.3s-1.7,2.7-3.3,3.7Z"/>
  <path class="st98" d="M839,813c-1.5-1.2-3.4-2.7-5-4-.6-4.9,5.3.8,6,3.5l-1,.5Z"/>
  <path class="st45" d="M396,422c1.8,1.5,2.5,1.9,4,4,.8,5.9-9.9-4.9-4-4Z"/>
  <path class="st106" d="M933,613c.5,1.9,2.5-.3,1,6-2.6-1.2-4.9-6.8-1-6Z"/>
  <path class="st20" d="M422,428c-1.6,2.2-2.4,9.3-5,1,1.6-1.3,3.1-2.6,5-1Z"/>
  <path class="st136" d="M727,79c.4,3.4-.3,5.6-4,5-.4-3.4.3-5.6,4-5Z"/>
  <path class="st182" d="M464,792l2,.5c-1.6.8-3.7,3.4-5.1,4s-2.7-.6-2.9-.5c1.4-2.4,3.6-3.1,6-4Z"/>
  <path class="st20" d="M525,307c1.2-.6,10.5-2.3,11-2s.4,2.2,1,3l-12-1Z"/>
  <path class="st63" d="M389,416c1,.9,2.5,2.7,4,4-2.3,3.4-9.2-4.8-4-4Z"/>
  <path class="st136" d="M720,102c.7.6,2.8.6,3,1.5,1.1,3.9-1.9,1.9-3,2.5-3.5-3.6-.4-3.1,0-4Z"/>
  <path class="st153" d="M870,757c1.1,1.2,1.6,1.8,3,3,.3,5-4.1-.6-6-2.5l3-.5Z"/>
  <path class="st90" d="M508,252c-3.4-.2-5.1,1.2-6-3,2.1.3,5.1.9,6,3Z"/>
  <path class="st72" d="M392,756c2.7,3.7-3.1,6.6-2,1,.7-.6,1.6-.7,2-1Z"/>
  <path class="st150" d="M475,161c0,0-.3,1.4.2,1.7,1.2,1,28.2.7,31.4.3s2.6-3.7,7.4-2.1c-.4,5.1,2.1,7,7.3,5.5,5.4.2,3.6,4.1-1,4.4l-7.4-.9c-2.4,2.2-5.5-.2-4-3-11.6-1.4-23.4-.9-35.3,1.6l-4.7-1.6c-.2-.5-.1-3.2,0-4,.4-2.9,4.8-2.8,6-2Z"/>
  <path class="st16" d="M281,201c1.5-10.7,11.1-1.2,6.8,3.6s-2.8,1.3-3.8-.6c-.2,0-1.1-1.3-2-1v25c2.6,1,7.8-4.8,9-4s2,4.3,2,4.5c0,1.5-2.2,2.6-2,4,.5,3.4,4.4-2.1,5,.5-.2,1.5-1.2,3.1-3,4.8,1.3,4.5,1,8.3-.8,11.6,8.8-.3,9.4,4.7,7.6,12.3l.2,4.3c2.2,5.7,1.9,13.2-2,18,.5,3.1-8.7,4-10.1,3.6l-.9-5.6c-.7-.7-3.1-1-4.5-2-7.1-5.2-5.5-9.4,1.5-13.5.5-2.4-1.2-1.1-2-1.5-8.4-4.1-3.7-8-3-15,2.9-.8,4.2,4.7,5.5,5s4.6-2.9,4.1-5c-1.2-4.7-3.9-1.7-5.9-2.2s-9.5-6.3-9.6-9.3c-.3-6.3,6.7-5.9,7.7-9.2s.2-22.1.2-28.3Z"/>
  <path class="st22" d="M332,263c7.7,0,3.7,3.9,5.5,8s7,4.6,8.1,7-2.3,2.9-2.4,4.7,1.4,3.4,1.8,4.3c-2-1.6-2.2-.2-3.4,1.1-5.5,5.9-5,8.9-4.6,16.9h-16c-.6-3.5.9-9.3-.2-12.3s-8.2-3.7-7.7-6.9,4.2-5.9,5.2-7.8c2.3-4.3,3.1-9,2.6-13.9,3.5,1.1,8.5-1,11-1Z"/>
  <path class="st203" d="M344,210l-4,1c-.4,7,5.1,1.7,9,3.5s1.7,6.2,2,6.5c.8.7,9.9-.8,1.5,6s-4.8,3.8-5.1,3.9c-1.7.5-3.3-1.1-4.4-.5s-1.1,6.7-4.5,7.5c-2.2,0-4.1-8.7-5-10s-8.8-3.7-8.5-8c5.5,1.2,3.3-2.2,6-5.5s12.7-12,13-4.5Z"/>
  <path class="st79" d="M281,188c2.1,1,.3,4.9,1.2,5.9s1.6,0,2.4.5.5,1.5,1.1,1.6c1.3.2,2.7-.7,3.8-.6s2.3,1.3,2.9,1.3,2.4-2.4,3.5-3.2c3.4-2.4,4.3-.2,4.4-6.5,4.1,2.1-1.8,8.7-.5,10s3.7-1.4,5-.6,4.8,7.9,5,9.2c.5,3.7-1.1,1.9-3.6,3.2s-5,3.8-8.8,4.1-3.1-1.2-3.5-.8-.5,5.8-4.4,4.9-4.5-10.5-5.6-12.9c5.1-.1,2.2-4.1.9-7l-3.9,4c0-4.3,0-8.7,0-13Z"/>
  <path class="st92" d="M361,261c1.5.4,3.8-1.4,4,1.5,1.6,24-1.3,49.8,0,74l-4.1,1.6c-.2.9-.5.9-1,0-.7-7.6,1.4-16.8-1-24,3,.6,1.9-1.5,2-3.5.3-7,.9-18.6,0-25.1s-2.6-1.3-3.1-3.9c-.8-4.6.7-11.2,0-16.1.9-1,2.6-3.9,3.1-4.5Z"/>
  <path class="st138" d="M296,233c1.3,3.6,6.8,6.5,6,10.4s-2.7.2-2,2.1l4,.5c-.4,1.2.3,3.5-.2,5.2-2,6.3-2.9,7.6-3.8,14.8-2.2-4.3.1-8.1-1.5-12s-4.9-1.8-6.4-2.5c-4-1.8-.3-4.1-.1-6,.3-4.9-4.2-9.4,4.1-12.6Z"/>
  <path class="st16" d="M288,317v-30.4c3,1.1,6.6.6,9.7-.5,1.3,10.3,1.4,20.6.3,30.9-3-.5-6.5,2.1-10,0Z"/>
  <path class="st10" d="M287,282c1.7,1.5.4,3.8,1.6,4.1,2.9.6,7.2.1,9.4-2.1.4.3.4.6,0,1-1,3.9.7.6,1.1,3.4,1.1,8.6-1,19.7,0,28.6-.1-.1-.6,0-1,0v-29s-9.4,0-9.4,0l-.6,29-1-35Z"/>
  <path class="st90" d="M394,223c-1.5-1.3-3.2-2.4-4.5-4h-1.5c-.2,1.7-5.7,8.8-6.6,8.9-2.3-2.6-7.8-2.4-9.1-3.2s-.5-2.1-1.9-2.6-4.1,0-4.4-.1c-1.3-1.2-.1-30.6,0-35,2.1.7,3.5,1.9,5,3.5,5.1,5.5,13.3,17.4,18,24s3.7,5.9,5,8.5Z"/>
  <path class="st167" d="M653,442c1.4-.1,2.1.6,2.3,2.1l28.4,1.9,1.3,2.1c.6.1,1.1.3,1.1.5.4,4.7.5,12.7-1.1,16.5.8-.7,1.2-1.8,1.1-3.4v-13.3c-1.5-1.9,0-6,2.9-5.3,2.5-4.1,5.3-2,8,0h-6c1.8,7-2.1,15.1-.9,21.6s6.4,2.1,6.9,1.4c1.7-2.6-2.5-3.8-2.8-4.2-.4-.7-.5-8.5-.2-8.8s4.4.4,5-1.6c1-3.6-3.7-4.1-4-4.5-.4-.6,2.8-2.3,2-4,.2.1,1.3-.4,1.8.3,1,1.2-1.4,3.8,4.2,2.8-.9,2.1-1.6,5.1-1,7.3s3.9,1,3,4.1-5.1,3.2-5.9,5.1c-.8,2.4,4,1.3,3,5-1,3.2-10.2-1.1-9,5.5,0,1.1-.8,2-2.4,2.8-.3,17.6-.2,35.6.3,54-1.3,9-8.2,2.6-5-4.3-2.4.4-4-.1-5-1.5.8,0,2,.2,2,.7.5,6.2,1,26.2,0,31.6l-2,1.2c5.1-2.6,7,2.1,5.8,6.9,1.9.3,3,1.1,3.4,3.2l.4,18.7-1.7,1.7c4.8.7,9.6.8,14.5.4,3.4,1.9,1.1,5.1-2.5,6.2s-17.8-.1-16-4.2c-.8-.2-1.9-.5-2-1.1-.2-1.8-.5-17.2,0-17.9s1.1-1.2,2-1.4c-4,6-15.2-1.5-4.4-4.7.1-.5-6.8-7.8-7.2-8.1s-4.4,1.7-4.4,2c5.5,7.8,4.7,15.1,3.1,24.2.6,5,.8,10.1.7,15.3,1.8.2,1.9.7.2,1.4,1.8-1.7,4.8-.4,5,2,2.1-.2,2.4.3,2.5,2.1s-18.9,25.2-21,25.6-1.8,0-2.5-.7c-4.7,2.8-8.2,2.3-13,3l-5.9-.8c-3.6.8-26.4,4.5-27.8,3.5s-1.3-1-1.7-2.3.4-13.9,1.8-15c5.7,0,3.9-8.4-.4-4.7-5.5-.2-9.7-20.5.1-16.8-.8,1.7-.8,3.4-.1,5,2,.2,3.8-1.6,1.9-2.9l1.1-2.1c-1.4-.7-1.7-1.9-1-3.5-12.7-1.7-11.8-7-5.3-15.4-5.2.4-7.9-1.9-8-6.9-.3-7-1.5-13.7-3.3-20-2.5.9-4.9,1.5-7.4,1.8-.8-.7-1-19.4-.3-20.2l3.3-.6,2.5-2.5,26.1-1.8c4.2-.1,4.2-2,.5-2.6s-27,1.4-28.3,2c-6,10.6-9-8.9-1.9-11.3-2.5-5.1-2.7-5.9-2.9-11.8s0-14.1,3.1-17l.8-2.2c-2.4-3.7,1.9-5.1,5.1-5.8-2.4-1.9-1.7-4.7,2.1-8.7-3.6-3.9-3-6.4,1.7-7.5l.9-2.8c-4.8-4,3.4-8.2,4.7-5.3s-3.2.1-1.4-1.7l.3-1.3c2.8.7,4,.5,3.7-.7-2.1,0-2-1.6,0-2-.6-4,0-6.6,2-8,2.4.6,5.9,1.6,8.3,1s.8-2.9,3.2-3.1,5.6,1.6,8.1,1.9,22.5,1.3,23.4,2.1Z"/>
  <path class="st213" d="M438,334c.9-.9,6.2-5.8,7-5,0,2.3-3.5,3.5-3.8,4.6-.8,2.6,1.4,6.8-2.1,6.4l3,1,3.5,5.4c18.3,43,34.1,87.3,48.5,129.6.2.3,1.1.7,1.7,1.3,1.5,1.7-1.8,1.9,3.3,2.7,5.1-3.6,23.7,7.9,24.4,12.4s-.1,1-.4,1.6c.5.6,1.5,2.2,2,3,.4-.9,1-1.2,1.4-.7,3.9,4.8,4.9,9.7,5.6,15.7-.4,2.7-.6,6-1,8,2.8,1.8-4.1,15.9-5.5,16.1s-1,0-1.5-.1c-2.6,3.6-5.5,6.5-9,9,1.6.8,1,1.6-.4,2.4-7.6,2.8-12.5,4.9-15.6,12.6,0,.3,0,1,0,1,.8,1.1.5,2.6-.8,4.7-15,61.4-38.8,119.5-65.9,175.5l-1.3-.2c-1.4.9-5,2.1-6.6,2.1s-1.2-2-2-2.1c-1.2-.1-3.5,1.2-5.4,0v3s3,1,3,1l-4.7-1.4c1.9-5.1-1.8-15.2-.1-19.9s3.7-1.4,4.4-2.6c1.1-1.6-.1-4.5.6-5.9s2.2-.7,2.9-1.6c2-2.6.7-23.9.9-29.1s1.2-13.1,2.1-18.9c-11.2-3.5,3.9-6.9,2-9.5-2.8.1-3-2.5-4.3-3.7s-2.1,0-2.4-.4c-.7-.8.4-6.1-3.7-4.8-3.4,1.1.8,6.3-1.5,8.5s-8.6.9-10.5.5.8-4.5-4-3.1-4.5,8.8-4.6,10.1c0,2.4-5.1,5.3-7,4-1,.5-2.9.9-3,1-.1.2,1,1.6.9,2.3s-1.6,1.2-1.9,1.7c-2.5,2.7-5.2,4-8,4,0,0-1.9,1.2-2,1,.3-2.8-.6-6.7.2-9.3s3.2-2.3,4.8-3.7c-.1-3,5.1-6.8,8-6,2.8-2,5.5-3.2,8-5l-.4-1.4c6.9-4.6,11.4-7.8,11.8-17.1-.3-17-.4-33.9-.4-50.8-.1-2.3-4.4-1.9-6-1.7-2,1.2-4.5,2.1-7,4,1.1,1.7-2.3,4.2-4,3,0-.2-1.6-.6-2-1-4.2.1-4.6-8.6,0-8,.5-.5,2.2-.5,2.8-1.3s0-2.2.3-2.7,1.9,1,4.9-1c-.6-2.7,5.4-7,8-6,1-.5,2.6-1.9,3-2,.5-2.2,13.5-2.1,15.6-1.5,1.4.7,2.1,2.6,2.4,5.5,6.1.8,3.1,2.5,4.2,6.3s2.4,2,2.8,4.2,1.1,10.6-4,9.5c-3.6.9-5.6.1-6-2.4-4.5-3.1-4.6,16.8-4.2,18.4,3,1.6,3.3,5.6.2,7,0,.4,2.9,2.3,3.4,4s.2,7.6,2.1,8c5.4,1,2.4-8.7,2.5-9.5.2-1.5,2.8-1.6,3,0s-.9,1.9-.8,3c.8,7.7.8,14.8.8,22.5-3.5.7-1-2.8-3-4.5-3.1-2.7-6.4-1.7-6.1,3s2.3,2.8,2.9,3.7c.9,1.4-.6,4.4,1.7,5.8,2.3-2.3.2-4.9,4.5-4l1,13c1.4-.6,3.4-.6,6,0,3-1.7,1.9.6,3,1,1.2-2.2,2.2-4.9,3-8,3.3-2,19.6.8.9,0s-1.3-.4-1.9-1c.7-1.3,2-2,3-3-1-2.2,3.7-7.8,6-7,3.6-5,4.8-8.7,7-14,2.1-9.2,4.5-18.4,7.2-27.5l1.8-1.5c3.3.1,2.3-4.4-.2-6.1l1.2-1.9c-.8-1.5-.5-3.2.9-5.3,1.4-4.3,9.1-31.2,8.8-33.4s-1.1-2.5-2.1-3.6c-6-5.3-10-9.4-14-16.4s.8.8-.6,1.6c-.7,2.2,1.8,8.8-2,8-.9-6,.9-12.3,1-18-2.8-4.6-1.5-13.4,0-18,0-.9-1.6-2.5-1-4,.2-.3,3,1.7,4,1s4.5-8.7,5-10c2.3-3.2,3.4-6.5,3.4-10.1-3.9-9.1-6.7-18.4-8.4-27.9-.3-.8-.3-2.1-1-4l-1.9-1.1c-6.7-16.8-15.5-33-24.7-48.4l-1.4.5c-.2,1.6.2,3.4,0,5-4.2,1,0-4.1-1-5s-2.8-.6-3,.7c-.5,5.2-1.6,2.6-2,3.3-.9-1.6-2.8-2.2-3,.5-.3,4.1,1.7,15.6-3,16.5-2.3-3-.4-5.5,0-8s.9-1,1.1-2.4c.3-2.7-.7-16,0-16.6h3c-3.4,9.7,1.5,10.9,4.4,1.9s-.8-7.7-3.9-10.9-2.9-.6-3.5-1.7c-2.2-4.9,1.8-13.1,1.1-18.8s-2.6-1.3-3.1-3.9c-1.1-6.1,3.3-9.9,0-13.5-1.3-.7-2.4-.5-3.3.6l-1.7-1.6c0-.3,0-.7,0-1,1.5-5.8,7.7-2.6,8-3s-.3-3.4.5-5,4.7-2.1,6-4l.5,7c1.4,2.1,1.4,4.9-.2,8.3,2.1.2,3.5,1.5,4.2,4.1-3-5.1-4.7-13,.9-16.5.7-2.6.4-1.4,2-3Z"/>
  <path class="st213" d="M840,358c1.8,0,2,1.8,0,2,5.5,15.1-8,14.8-5.5,1.6l-1.5-2.6c1.9.6,2,8.7,2,11.6.8,4,0,6.6-2,7.9,4.3-.6,3,5.5,1,8.2.7,1.7.8,3.4.3,5.3,8.6,1.8-.5,11.6-3.4,5-1.2,1.4-2.6-.8-2-1.2s1.8,2.6-1,.2c-.3,0-.7,0-1,0l-1.2,1.3c-11.1,22.4-22.1,44.9-32.8,67.7-.2.1-.6,1.7-1.5,1.7s-1.5-1.8-2.5-1.3-1.4,2.5-2.3,3.3-2.3,0-2.5.4c-.4.5,0,4.5-.3,6.2s-2,3-1.7,4.1,9.2,8.2,11.9,6.6c-1.4,4.6-.2,9.5,0,14.3,0,2.7-2.6,5.1,1.6,7.6,2.7,0,.6-13.5,2.5-16,.4-.3,2.1,1.6,3,2,10.5,9.7,10.3,26.9,4,39-1.6,3-1.3,2-2,3-2.3,3.8-5.2,6.7-8.8,8.8l-1.2-.8c-1.5,1.3-5,3-6,5,.7,2,.9,4.6.4,7.6,4.9,27.3,10.1,54.6,15.5,82,1.8,3.9,2.5,7.3,2.1,10.4.2,2.4,1.6,4.1,4.2,5.1,1.1,4.1,2.8,8,4.8,11.7,3.2,2.1,6.7,9.2,6,13.3,3.2-.8,5.2,1.9,6.2,8.2l1,1.9c.4-1.7,1.4-3,2.8-4,1.1-10.4,1-21.5-.4-31.8h4.8c.1,1,1.3.9,3.6-.2,2.9-.6,2.2,1.6,2,3.5-.9,15.8.2,32.2-.5,48s-2.7,12.5-2.4,17,2.1,2.8,2,4.9-6.8,7.7-5.1,9.5c2.7,2.9,3.4-5.3,6-4-.8,5.5.6,4.5,3.6,6.4s3.9,1.8,3.4,3.5c-4.3-.5-9.9.7-14,0s-4.1-3.1-6-4c-3.1-2.6-6.9-9.6-8.7-13.9s.1-1.5.7-2.1c-.9-1.3-1.5-.7-2-1-1.7-2.7-9.8-15.6-9.6-17.5s.3-1,.6-1.5c-1-1.2-1.6-.8-2-1-3.2-4.8-6.2-9.7-8.8-14.8l.8-1.2c-.3-.4-.3-.7-1-1-5.6-6.7-9.8-14.6-12.7-23.8-10.3-34.9-19.4-72.4-25.2-108.3,0-.2.4-.6.9-.9-2-1.1-2.8-3.8-4.5-5-2.4-1.7-6.7-1.6-7.3-2.2-1.2-1.1.9-2.5-4.2-4.8-4,0-9.7-20.2-9-21.2s.6-.6,1-.8c-.4-2.2-.3-2,0-4-1.9-2.8,1-10.8,4-12,.5-1.1,1.5-3.2,2-4-.3-.5-.5-1-.6-1.5-.3-2.3,11.4-13.7,14.6-11.5,1,3.8,3.7,2,5.3,2.4,4.6,1.1,7.4,4,7.7-4.4.9-1.6,2.7-2.3,5.7-2.2-4.9-6.1-4.5-10.5,1.3-13.2l-2-5.4c-3.1-.5-5.2-2.5-2-4.3-.4-.3-.7-.6-.7-.7,7.9-17.6,16.1-35.7,24.8-52.9.3-.6,1.1-.5,1.9-.4-.5-4.2.8-4.4,4.9-5,9.5,1.4,6.6-4.4,3.1-10l-.4-2.7c6.5-13.6,12.6-27.1,18.4-40.3.3-.6.6-1.3,1-2,2.1-2.3,4.1-3.7,6-4,2.6-2.5,6.6,6.7,7.3,9.3-.6,3.3-.1,6.9,1.7,9.7Z"/>
  <path class="st130" d="M615,293l1,.6c2.5-1.1,7-2.8,8,.4l1.6-1.9,11.7,1.2c2.7-.6,5.1-.7,7.2-.3.2-.8.5-1.9,1.2-2,2.6-.2,22.4-.6,23.4,0s1.2,1.2,1.4,2l1-.9c4.8.9,9.8,1.4,15,1.5l.5,1.4c2.6-.5,4.2,3.7,2,5,.4,3.4-.1,7.5,0,11,2.3,10.1,3.1,24.7,1.8,35.2s-8.2,5.7-8.8-.7c-.5-.3-7.9,6.3-8,7.4,1.2,5.9-6.9,12.2-11.6,15.5-17.6,12-43.5,11.4-61.6,1.2-5.8-3-6.8-5-.7-8.1s.2-6.2-2.7-4c-.5,13-16.5-2.8-10.6-8.6-6.5-2.8-9.3-7.1-8.2-12.9-.9.1-1.8-.3-2.7-1.2l-2,.9c-1.5-5.9-2.2-12.2-2-18.9-1.1-1.5-1.4-3.7-1-6.6-4-3.3-3-4.5.3-7.9,0-4.7,1.3-7.2,3.7-7.5,3.1-2,7.2-2.7,12.2-1.9,7.3-3.1,18-2.9,25.9-1.9l1.9,1.9Z"/>
  <path class="st130" d="M660,734c1.3-.6,2.3,0,3.3,2,6.1-.6,11.7-.3,16.7,1,.2-2.6,5.3-1.3,4.2-.2l1.8-.8c1.5-1,2.9.4,3,2,.9.5,1.8,1.2,1.8,2.2,0,7,0,14.1-1,21.1,4.4,5.1.8,15.5-2.8,20.7-6.9,2.3-3.6,3.8-6,5.5s-2.5.3-4,1.5c1.6,2.2-2.5,5.8-5,6-.8.8-.8,1.1-2,2-.7,2.5-4.6,5.9-7,5-1.5,1.3-2.8,2-4,3,1.4,2.1-2.9,6.4-5,5-4.3,3.4-4.3,1.9-6.8,3.2s-4.4,6.1-6.2,7.8c-1.8,7.9-14.8,9.4-19,2-.4-.8-.3-1-1-2-1.8,1.2-4.4-1.1-3-3,5.1-3.5,4.4.5,6,2,3.8-1.1,8-1.4,12.7-.9.4-.2-.6-8.4-.9-8.7s-10.6,0-11.8,1.6c-3.6,1.5-9.4,1.7-13,0-.5.8-1,1.1-1.6.5l-6.4-5.5c-.6-.8-1.2-1.9-2-3-2.3.2-5.6-2.5-5-5-2.1-1.7-2.8-2-5-4-2.6.8-6.3-2.3-6-5-1.1-1-2-2-3-3-6.5-.4-13.8-14.7-10-20l.7-29c.6-2.3,2.3-2.1,3.3,0l.9-2c1.8.2,3.4,0,5.1-1,5.5,2,12.6,1.9,18.1-.2l1.9,1.2c1.7.6,3.7.2,6-1,14.8,1.4,29.8,1.6,45,.7l2,1.3.5-1.3c1.7.2,3.2-.4,4.5-1.7Z"/>
  <path class="st127" d="M591,531c-1.2,1.2-2.8.2-3.1,2.4-.7,4.9.6,11.4,0,16.6,1.8,1.9,9.7-8.1,10.9,4.7s.4,4.5,1,7.9.8,11.8,2.7,12.3,5.9-2.6,6.2,2.7-4.7,5.4-4.9,6c-1.5,7.3,8.9,6.1,9.6,7.2,1.4,2.4-.6,4.2-.5,5.1-.4,2.3-1.4,4-3,5-.9-1.4-1.3-2.2-1-4-6-.4-1.2,14.7,1.5,14s1.6-4.8,3.5-3,2,6.9,1.9,7.6c-.2,3.6-4.7,2.9-5,4-.8,2.9,2.1,9.6-.9,13.4,1.1,0,2.2-.7,3.3-.6,8.1.5,15.1-2.4,23.2-2.4s5.7.6,7.5,2.1c-1.6.2-3.1.8-5,1-2.4,2.2-.8.3-.8.5-.8,7.6-2.5,12.3-10.4,14.5-19.7,3.4-39.2,7.2-58.4,11.3-4.5,1-6.3.2-5.4-2.3l2-1c-.3-.9-.1-1.6.5-2.2l27.5-4.6c6-.5,4.5-3.6,2.3-8l-27.5,5.1-2.8-1.2c-5.4,2.2-9.1-.2-8.2-6.4-4.1-2.5-4.6-4.4-1.9-8.4-4.8-18.3-7.5-37.6-10.1-56.5-1.4-3.8-2.4-7.4-2.8-10.7-1.7-1.4.2-4.4,1.6-6.1,1.9-2.4,28.3-13,29.9-12.7s1,.4,1.5.8l1.3.2c-1.2,6.6,8.6,8.5,7.8,1.8l-.3-13.2c-.7-4.7,4.4-6.5,6.1-2.8Z"/>
  <path class="st119" d="M708,473c1.5-3.1,3.5-2.3,4,1,1.6,28,2.6,58.8,0,86.4-.6,6.1,1.3,11.9,1.1,18.1s-1.1,8.7-1.5,9.5c-1.4,2.2-2.5.2-3.5,0l-1.7,1.7c-5-1-10.8-1.6-17.3-1.7-1.2-3.6,0-16.7-.9-21.5-5.7,0-1.7-5.8-3.2-7.4s-3.9-.4-3.9-1.6v-33.5c0-.3,5.9-1.1,6.5,0,1.7,2.7-2.9,7.3,1.5,9-.2-11.8.3-23.7,0-35.5,0-5-3.1-19.9.5-23.5s2.2-.7,3.5-1c5.3-1,9.7-.6,15,0Z"/>
  <path class="st78" d="M845,260c-.3.8-.7,2.4-1,3-2.8,2-5.3,4.4-7.4,7.2l-1.6-.2c-1.6,2-2,2.8-4,5,.6,2.7-4.1,7.8-7,7-1.3,1.4-.6,2.9-1.3,3.7s-2.1.5-2.7,1.3c.7,1.3.1,3.2-1.7,5.7.3,10.2-.2,24.2-12,21.3l-.3,1c1.2,3.1.5,5.3,1.1,7.4s5.9,3.8,1.4,3.6-4.1-2.1-6.3-2.8c-4.4-1.3-15.5-.6-14.2-6.8l4-1.5c-2.6-1-12.6-2.4-14,0,.6,5.8-9.3,4.7-10.5,3-2.2-3.1,7-.5,7.5-1,.3-2.4-.1-4.8-2.6-5.8l-31.8-.2c-3.1,1.9-.9,2.8.4,4.9-4,1.3-2.5-2.5-4-3l-.5,1h-20.5c-5.7,1.1-3.4,0-7.6-1s-6.3-1.3-9.4-2.1c-1-5.4,7.5-6.7,7.9-7.1.5-.7-.4-3.3.6-4.9s6.4-3.6,2.5-6c.3-9.4,3.3-18.9,8-27,3.1-.6,1.7,1.5,2.1,3.3.9,3.9-.1,5.4,4.9,4.7,0,3.8-1.3,7.4-2,11,0,3.2,1.3,5.5,3.7,6.7,12.8.2,25.6.6,38.3,1.3.7,0,1.3,0,2,0l.7-1,22.1.3c9.5.3,17.5-2.8,22.3-11.3,6.1-4.9,9-8.8,14-14-.7-1.9,2.8-6.5,5-5,2.5-2.8.8-2.2,5-5.5s.6-3.2,1.6-3.5c1.6-.5,6.4,0,8,1,2.6,1.8.3,3.6-.6,6.1Z"/>
  <path class="st110" d="M638,251c-3.6.4-7.1,1.8-6,6h9c-.3,8.8-2.2,18.6-2.4,27.2s-.8,2.4.9,2.7c7,1.6,3.5-12.6,3.6-15.4,0-4.4,1.8-9.8.9-14.6.8-.9,8,5.1,9,6,.5-.5,1-.8,1.2-.7,1,.6,4.1,3.3,5.1,4.4s.5.8.7,1.3c.3.6,2.4,3.3,3,4,2.2-1.2,5.3,1.7,4,4,1.3,1.2,2.8,1,5,3,3.2.3,6,3,7,6,3.4,2.9,3.5,4.2,8,7,1.9.8,2.2,2.5,0,3-4.1-.5-9.6.8-13.5,0s-2.8-2-3-2h-26c-.2,0-1.4,1.7-3.9,2.1-5.6.8-11.6-.9-16.6-1.1l-2.2-.5c3.7-20.3,3.7-22.7,0-7.1-1.3,5.1-3.5,7.3-6.7,6.6-6.7.7-15.1-1-21.6,0s-3.6,1.8-5.9,2.1c-3.8.5-8.6-.5-12.6,0-.9-.6.2-3.1,1-4.5l8-7.5c.3-.1.7.1,1,0,.8-2.3,4.4-5.6,7-5,.8-.9,1.4-2,2-3,2.4-3.5,5.1-5.5,8-6,.9-.8,1.9-2,3-3,.4-2.3,3.6-5.3,6-5,2.9-2.8,5.1-2,7.9-4.6,4-3.7.6-4.5,7.1-7.4.4-5.1,14.4-3.3,12,2Z"/>
  <path class="st110" d="M774,767c-2.8-3.4-2.4-6.5-3.7-9.8s-4-1.7-2.3-3.2c2.9-2.5,7.5,8.6,8,9,3.8,3.2-1-8.5,4-7,2.7,5.2-1,6.2-1.1,6.6-.7,4.2,8,9.7,9.6,13.4s-5.6,1-7,1c-8.8,0-21.2-1.9-28.9-1s-3.9,2.3-6.1,2-2.8-2.1-3.9-1.9-1.9,2.7-4.1,2.9-7.2-.9-7.8-1c-.8-.2-2.7-4.9-4.7-3s3.3,2.6,3,4c-7.5.6-10.8-8.9-11,4,4.3,1,6.9-2.4,11-1l-1,3.5c2.3,2.2,2.1-1.6,3.4-2.6,3.6-2.7,10.4,0,14.2.1,11.1,0,22.4-2.1,33.9-1.8s7,.8,7.3,1c.7.4,2.2,5.1,4.7,4.8l-1.5-5c1.8.6,13.5.5,14,0s.1-2.9,0-3c-.4-.4-3.3.5-4,0s.2-2.7,0-2.9-2.9-.1-3,0c-.2.2.7,4.3-3.5,4s-1-3.6-1.8-5.1c-2.1-3.8-6.4-6.2-8.7-9.9,3-1.5,13.4-4.9,15.6-2.1s.4,2.8.4,4c1.4-.3,1.8.5,2.3,1.6,4.5-.7,8.1,0,10.7,2.4,2.7,3.9,3.6,9.1,2.7,15.8.7,2.4.8,4.5.3,6.2.4.5,2.5,2.1,4,4,1.7-1.6,3.6,0,2,2-9.9.7-7.3,2.3-16-3l-1,.7c-4.5-4.7-10.1-5.1-16.3-5.3-21.5-.7-43.4-.9-64.6.6l-1.1-.9c-.9.3-2.8.8-3,1.7-1.1,4.6,4.3,16.1-1,20.3-2.3-.2-9.9-16.9-9.8-18s.4-.7.8-1c0-.3,0-.7,0-1-3.4-4.3-3.8-19,2-21,.4-.7,1.8-1.5,2-2l1.2-1.4c10.4-.6,20.7-.5,30.8.4.7.3,1.4.9,2,1,.3-.5.7-.9,1.1-1.2,1.5-1,24.2-.1,27.6.1-1.6-.2-2.2-.9-1.7-1.9Z"/>
  <path class="st34" d="M541,563c.8-1.3,1.5-1.3,2,0,1.6.5,3.4,5,3.9,6.6,2,7.3,3,19,4.1,26.9s2.8,14.6,4.3,22.7,2.6,7.9,2.7,10.4-2.6,4.4-1.9,5.3,4.5,2.4,5,4.6c-5,.6,1.4,6.3,5,5.5v1.4c-3.4,1.6-3.4,4.8,0,9.6-.5.2-1.2,1.1-2,1-3.8,3.6-7-3.7-8.2-7.3s-2-11.7-1.1-9.9-.6.7-1.7.3c-3.7,1.8-6,0-8.3.3s-8.7,4.3-10.7.2,2-1.3,2-2-1.9-12.1-2.2-12.8c-.7-1.7-3.8-.8-5.6-7.4s-2.8-19.2-5-28-2-10.6-2.3-18.6-1.9-.5-2.1-1.2c-1.3-5.8,6.7-9.7,11.4-9.1s2.3,2.2,10.6,1.7Z"/>
  <path class="st65" d="M576,335l2.3,1.3c4,44.1,69.9,57.4,95.5,23.4,2.2-2.3,3.9-3.9,7.2-2.7,3.3-3.9,11.9,3,5,5-.3.5-1.5,2.3-2,3-5,10.7-17.5,20.9-27,28-2.7,2.9-4.4,6.4-8,9.5s-3.3.5-6,5.5c-2.6,4.2-13.5,2.9-12-2-1.3-.7-2.5-1.7-4-2-1.8.3-4.6-2-4-4-3.2-2.5-9-8.5-11.4-10.1s-3.7-.6-4.4-1.1-.5-2.6-1.6-3.9c-2-2.3-9.9-6.7-12.6-8.9-1.8.8-4.1-1.3-3-3-3.3-2.7-6.8-5.2-10-8-.6.4-1.1.6-1.5.5-3.1-1.2-7.1-8.4-7.2-12.2-1.4-11.6-1.3-23.4-.8-35s.6-1.2,1.5-1.3c2.3,4.2.2,9.7,1.2,14.3s2.7,3.5,2.8,3.7Z"/>
  <path class="st65" d="M649,669c.9.2,7.5,3.9,7.8,4.2.5.6.2,2.8,1.2,4.3s3.7,2.5,4.7,3.8c4.1,4.7,8.2,11.4,12.3,16.7,2.2-1.4,4,.7,3,3,2.5,3.3,6,6.7,8,10,.6,0,1.2-.1,1.6.1,3.3,1.9,4.3,24.5,2.7,26s-.8.6-1.3.9c-1.5.4-2.4-.8-3-2l-2.3-.4c-7.8-53.4-98.6-54.1-105.6.6l-2.1,1.8c-2.5.2-2.5.7-2.9,3.6-.7,5.2-1.2,20.3-1.1,25.4-.7-.4-1.6-.9-1.6-1.6-.6-9.7-.8-21.8-.4-31.5s2-26.3,16-27.9c.2-.1,1.5,0,3-1-1-2.6,4.9-6.6,7-5,1.4-1.1,2.5-2.8,4-4l14.3-10c1.2-.5,2.3-.4,2.7,1,1-.7,2-1.3,3-2-1-2.7,4.9-6.4,7-5,1.1-1,.8-1.8,1-2,1.6-2,4.3-3.3,6.8-3.6,2.7-4.3,8.7-7.3,13.7-7.2s1.1.7.4,1.8Z"/>
  <path class="st110" d="M844,339c7,.2,1,2.2,1,2.5,0,1.4,1.7,2.5,2.1,4.9s-.8,6.9-.7,9.9c.5,19.9.8,39.7.7,59.6,3.2-.3,5.3,2.3,8.5,2.2s1.3-1.9,2.2-2.1c1.6-.4,7,.4,7.3,0s-.3-5.2,1-8c-2.6-1.2,5.6-6.8,6.3-6.7,2.6.4,4.7,5.5,1.7,6.7.5,2.7,0,2.6-1.3,4.3-4.5,5.8-8.5,9.4-13.7,14.7-2.6,3.5-4.8,7.4-6.6,11.7l-1.4.3c-1.7,1-1,3.8-1,5.5,0,7.5,1.3,21.6,0,28s-4,4-3,7.5c-4.2.7-.7-3.9-1.1-5.5s-2.6-1.1-2.9-2.3c-1-3.8.9-9.1.9-12.7s-.9-5.8-.9-9.1,3.3-7.8-3-7.5v25.5c0,.6-7.3,8.1-8.7,8.3s-1.1-.7-1.3-.8c-.5-.3-.9-.5-.9-.8-.2-4.5-.3-33.5.6-35s.7-.8,1.2-1.2c-.4-4.2-1.9-2.9-1-9-.6-.3-1-.5-1-.8-.2-2.8-.2-10.5,0-13.2s.4-.7,1-1c-.2-.7-.8-1.3-1-2,.6-3.4.9-6.8.7-10.3l1.3-.7c1.4-4.6,9.2-1.3,4.5,3.4,1.7,2.9,1.9,6.4.5,10.5.4,1,4.7,3,5,2.7.5-.7.1-16-.6-16.5-6.8.2-5.7-7.2.4-7.1,1.4-8.1,1.4-16.5,0-25.3,0-3.6.7-6.5,2.1-8.6-1.4-2.3-2.4-3.3-3-3-3.7-1.6-2.4-5.5-3.3-8.2s-1.8-2.6-2.5-4.5,1.5-4.6-3.2-6.3c-1.2-3.7,2.8-4.3,5.5-1,3.7-1,6.2-.7,7.5,1Z"/>
  <path class="st204" d="M497,341c.8.2,2.8-.3,3,0,1.5,1.8-.6,39.9,0,46.6s1.7,3.2,1.9,4.1-1.6,2.4-1.8,3.8c-.4,3.5.6,7.8,0,10.9s-2.3,2.8-2.8,4.2c-1.8,5.8,5.8,15.7,4.8,4.3,3.6,1.1,11.9,1.8,15.3.9s-1.7-10,2.1-8.9.2,8.2.5,10l2.8-1.7c-1.7-9.2-.2-19.8-1.8-28.7s-2.9,0-3.1-1.1c-1.8-9.4,1.5-24.9,0-34.9,2.5-.6,3.8.8,6-1.5v70c.9.2.9.5,0,1-.5,2.2-2.1,3.2-4,4-2.3,2.3-16.9,2.8-18.8,1.4s-.9-.8-1.2-1.4c-1.3,0-2.8.2-4,0-1.6-1.3-2.8-3.2-3.4-5.2v-39.8c-.2-1.4-.7-2.8-1.6-4.1-4.8-1.9-18,1.7-20.9-.1s0-16,0-19.4c-.2-7.4-4.2-9.6,6.6-10.3s8.1.9,14.4-.1l1.6-1.3c-.5-4.8,1.8-6.9,4.4-2.7Z"/>
  <path class="st169" d="M869,490c2.2-2.4,18.3-18.5,19.5-19,2-.9,1.4,1.4,1.5,2.5.9,12.1-1,8.6-7,15-9,9.7-19.2,18.5-28,28.5-2.6,2.3-6.1,3.4-10.7,3.2l-1.3,1.8c.8.9,2.4,1.4,2.8,2.7,2.1,5.7-4.8,1.2-4.8,6.3-.6,2.6-1.2,2.5-2,0-6.1-8.6-5.1-4.8-6,2.5s-.8,3.1-2,1.5c2.3-6.1-6.7-15.9,3-15-.7-10.1-8-4.5-15-7-.5-3.9,5.8-2.1,9-2,2-2.7,2.4-6.3,1.1-10.9l.9-1.1c-.4-.6-2-.7-2-1.6s1-2.5,1-3.9c0-3.8,0-7.7,0-11.5-1-1.1-6.1,4.5-7,5.5s-1.8,3.4-2,3.5c-.6.5-2.7.2-2-1.5,1-2.4,8.3-7,9.5-10.5,5.6,5.2,4.9,0,9,0s8.4,2.8,8.5,3.4c-2.7,5-8.8,3.8-7,11.5,2.6.6,10.4-2.2,11.9.1s0,4.8,1.1,7.9c1.8-1.2,2.5.6,1,2l1.6.4c4.3-4.6,9.1-8.3,14.4-11.4-3.1-.8-2.2-3.8,1-3Z"/>
  <path class="st109" d="M673,600l-2.9-16.6c.5-4.9,1.8-11,.9-15.8s-4.3-5.4-3.9-8.9c.4-1.5,6.2-4.5,7.9-3.2.9,3.6,7.3,7.5,8,10.1s-6.3.8-4.9,4.4c.9.3,7-.3,7,0v20.5c0,1.6,16.3,2.6,17,2,1.3-.9,1-2.1,1-3.5-2.7-.5-13.3,1.1-14-1,4.2,0,8.4,0,12.5,0s3.1-.8,6.5,0c-1.5,3.1,1.5,9.1-.5,12s-13.9,2.2-15.1,3.9.3,15.4-.4,19.1l3.5-2c4.1,3.7-.5,4.5-2.2,6.3s-.1,3.9-6.3,4.7l-11.1,3.5c-7.5,5-16.9,8.1-18.9-3.5.2-.9-.1-2,0-3,4.6-2.7,17-18.1,20.5-23.1.9-1.3,1.8-2.4.5-3.9,3.5-5.2,5.7-8.5-2.8-8.4.2,3.2-.5,5.3-2.2,6.4Z"/>
  <path class="st13" d="M525,732c0,.3-.1.9,0,1,1.7,1.7-3.8,7.1-6,6-.5-1.3-.9-1.4-1.1-3.4-1.9-23.8,1.5-50.1,0-74.1-.6-5.1-17-4.4-17.9-1.9s-1,10.5-1,12c0,5,1.7,11.4,1,17s-2.2,1.3-2.1,1.9c0,1.3,1.8,2.5,2.1,4.9.6,4,1.1,40.8-.3,42.4s-1.7.1-1.7.2c-1.9,1.7-3.8-1-4.9-2.8s-1.5-42.2-.4-44.5.7-.5,1.3-.7c1,0,2,0,3,0,1.4-4.5-2.9-2.3-3-3.5,1.2-6.3,1.7-12.7,2.9-19.1s1.9-3.8,2.1-6.9c.5-5.7-2.9-3.9-3.8-.8s.4,4.3-1.2,5.3c-2.1-.4-2.1-2.6,0-3,0-1.5-.3-3.8,0-5-1.3-.6-.5-2,.5-3,4.9-4.8,27.2-5.2,30.9,2.6.6,24.8.7,49.9.6,74.7l-1,.7Z"/>
  <path class="st101" d="M419,482c1.3-1.9.7-4.2,1.2-6.3s1.8-2.1,1.8-2.2v-34c0-2.6,5.2-5.7,8-4.5,1.2.9-4.9,6.2-5.1,7.5-.2,1.9-.2,11.5.2,12.9.9,2.5,4.9,1.4,4.9,1.6v14c5.8-2.7,3.9-9.5,4-15,.3-2.3,2.1-2.7,5.3-1.1l6.4,3c1.4-2,2.8-3,4.3-2.9-.8,8.5.8,17.1,1,25.5s-1.3,4.5-1.1,7,2.9,4,.1,8.5c-2.2,3.8-14.9,3.7-17,0-.4,0-1.5-1.9-2.5-1.8s-1.3,1.7-1.5,1.8c-1.6.6-4.1-.4-4-2.5s1.7-.6,2.4-1.6c2.4-3.6,2.1-5.8,1.6-9.9-3,3.4-6-.2-10,0Z"/>
  <path class="st96" d="M579,481l2.1-.4c3.8,0,12.6.3,8.9,5.4-.2,8.3-2.5,18.1,0,26.3s1.9.8,2,1.2c.6,3.6-3.2,3.1-3.9,5.1s.3,7.4-.1,10.3l2.6-5.1c5.2,1.2,30.1-3,32.4-1.4s.7,3.3,5,3c.1,1.7-1.1,2.2-2.5,2.5-11.2,2-23.4.7-34.5,3s-2.7-.2-4,0c-.6,3.7,1.3,19.9-1,21.6s-9.6-.3-10-.6,0-5.5,0-7c-2.8-1-2.2-1.5,0-3-.6-14,1.6-26.5,1-40.5s-1.1-3.3-1-3.5c-.4-1.9,0-3.2,1-4-1.5-1.5-1.8-3.7-.9-6.7-1.9-4-.4-11.3,2.9-6.3Z"/>
  <path class="st167" d="M575,478l-1.7-1.5c1-4.9,2.4-14.6-3.9-7.3-3.9,8.9-9.4-2.6-8.6-8.4,2.3-6.6,2.7-8.8,2.3-15.5s.3-2.2.9-3.1c-3.5-.5-6-1.1-4.3-5.2s6.7-7.8,9.4-6.1c.5,2.3,2.1,3.9,4.7,1.7,1.5.8,2.2,2.2,2.4,3.8-1.4,11.9,1.4,20.1,6.3,3.2.8-4.5,7.5-5.1,9.1-1.8s-3.1,23.3-5.6,26c1.8,5.6-1.6,15.8-7,17.1-.2.2-1.9-.6-2.1.6s1.2,3.9,1.2,5.9-1,4.5-1.1,6.5c-.6.4-1.3.7-1.9.8-2.8.5-27.3-12-32.1-14.8-.3-.3-.7-.7-1-1-2.7-1.7-2.3-4.4,1-8-1.5,0-1.6-1.8,0-2,3.7-3.7,6.4,1.9,6.2,5.7.5.5,12.3,4.2,12.4,1.1,4,0,7.7,1.2,11.2,3.4l2.2-1.2Z"/>
  <path class="st213" d="M616,433c-1.7,2.7-5.9-1.5-7.5,1s1.3,4.7,1.5,6c.5,2.4-.7,5.5,1,8h-3c-5.8-1.1-5-8.1-4.1-12.8l-1.5-.9c-4.5-.1-6-3.2-4.4-9.3l-2.6,1.1c-10.8-2.6-21.6-5.1-32.5-7.5-.6,2.7-1.9,4.1-3.9,4.4-.1,3-.8,4.3-2,4-4.6,3.2-5.3,7.1-6,13,0,1,0,2.1-.9,2.2,2.8,1.7,1.3,9.1-1.7,9.8.2,3-.6,6.2-2.5,9.6,1.8,2.4.9,4.9-2.9,7.3.2.5-.1,1.4,0,2-2.7,6.3-5.5-5.4-3-8,0-1,0-2,0-3-1.1-5.6-.5-11.6,2-18,0-1,0-2,0-3-1.7-5.3-.8-11.8,1-17,0-.7,0-1.3,0-2-2.8-3.8,0-19.8,7.7-17.1,18.1,6.4,37.8,14.2,55.4,21.9s5.7,2.8,8.5,4.3,2.8,2.7,1.4,3.9Z"/>
  <path class="st69" d="M808,648c.8,1.6.7,3.6,3,3,.3-17.4.2-34.7-1-52-2,0-5.1.7-5.9-1.6.6-3.2-2.3-20.2-1.1-21.4s5.7.4,7.4,0,.4-2.9,2.1-2c3.3,1.6-.2,11,3,12s3.5-2.3,5.2-2.8c4.2-1.3,4.8,1.8,7.7,2.9,4.2,1.5,8.7,1.1,11.6,5.4-7.9,1.4-15.7-9.8-22.5-2.5l-1.5,45c.5,1.8.8,3.8,1,6v11c5.3-1.2,11.7,1.6,16.5,1.1s3.2-2,5.5-2.1c.4,1.5-.6,2-1,3s-1.7,4.6-2.5,5c-2.3,1.1-1.1-5.1-4.5-4-.6,9,.7,18.8,0,27.6-.1,1.9-1,2.7-1.1,3.4-1-.4-1.4-1.7-1.1-3.8l.2-25.8-1.1-1.4-1.6,1.9c-4.5-.7-8.6-.1-12.3,1.8l6.9,12.5c1.9,3.7,5.6,11.9-1,8.8-1.2-2.3-3.8-10.4-4.2-10.9s-2.2.2-2.9-.7-5-12.6-6.1-13.2-7.4-.5-8.2-.2c-1.2.3-.5,5-3.6,4.1v-7c2.2,0,4.4.1,6.5,0s4,1.1,3.5-2c1.1,0,2.1-.2,3-1Z"/>
  <path class="st2" d="M841,531c3.8,0,3.7,2.2,6.5,3s20.6.7,21.4,2.1.1,2.8,0,2.9c-.4.4-8.9.5-11.1,2.5s1.9,9.1-5,7l1-5.5c-7.6-.9-5.2,8.3-6,13.4-1.3,7.7-3.8,12-1.6,20.7s3.3,5.5,1.2,5.8c-4.1.6-1.1-1.5-2.7-4.3s-5.3-4-8.8-2.8c-.3-6.1-1.1-8.1,5-10.5-.5-1.2-3.6,0-4-.5-3.1-3.1,5.8-3.5,7-5.5l-7,1.5c-2.1-2.3,8-8.7,8-9.5,0-2.9-8.5-1-6-6.5l4-1c-13-7.4-23.6,3.6-35.4,8-1.8.7-1.8,1.8-3.5-.6,9.6-5.9,19.7-11.9,31-13,.9-1.8,2.1-6.7,4-7.5s1.4,0,2,0Z"/>
  <path class="st66" d="M762,331c.2-.2,4.4.9,4.8,1.2s3.2,8.9,3.3,10.2c1.4,13.6.3,36.4-1,50.2s.8,2.7.7,3.8c-.6,3.5-7.1,2.6-9.8,2.6-1.5-2.7,2-6.1,2-6.5v-61.5Z"/>
  <path class="st72" d="M499,561c.4.2,1.9-.5,2.1.6s-5.6,16.4-6.4,19.4c-9.3,33.8-17.7,64.4-31.8,97.2s-20.5,43.7-30.4,64.8l-1.5-2c2.7-1.6,2.6-6.8,4.1-10.2,11.5-26,24.9-52.6,35.4-79.8,10.6-27.6,18.9-57.3,26.1-85.8.4-1.5,1.5-2.9,2.4-4.2Z"/>
  <path class="st178" d="M854,462l10.5-3c2.1,4.5,3.4,9.6,6.5,13.9-3.1,1.8-8,2.2-10,5,8.7-1.8,8.3,5.4,8,12-1.4,1.5-.8,2.6-1,3-7.4,3.7-12.8,5.6-13.6-3.8l-.4-1.2c-2.3-8.3-2.4-17.7,0-26Z"/>
  <path class="st214" d="M442,341v-8s3,0,3,0c-.4,2.2-1.3,3.8-.8,6.3.8,3.9,6.3,14.4,8.1,19.1,13.3,35.3,27.4,70.8,39.3,106.7.9,2.9,5.4,7.5,2.5,11-7.3-10.2-12.5-34.3-17.3-47.2-10.9-29.3-23.2-58.4-34.7-87.8Z"/>
  <path class="st184" d="M760,551l22.5,101c3.7,11.2,9.1,21.6,14.5,32-.8-.3-1.8.6-3.1-.6-4.5-4.5-14.5-32.6-16.5-40.1-6.8-25.4-15.6-63.6-18.9-89.3s-1.7-3.5,1.5-3Z"/>
  <path class="st29" d="M689,443c-3.6,6-1.2,14.1-2,20.5s.3,1.6-2,1.5v-17l-30.4-2.1c-2.1-.7-1.4-3.7-1.6-3.9-1.2-3.5,6.2-7.2,8.4-7s2.6,1.8,4.1,2c7.7,1.2,6.1,1.1,12.5,3.4s7.6,2,11,2.7Z"/>
  <path class="st111" d="M772,457c0,0-.2,1.3.3,1.7.9.6,2.4.4,3.2,1.3s2.5,6.2,2.6,6.5c0,2.6-5.1,2.9-5,5.9s10.5,11-4,9.5-.8-1.3-2.2-.9c-2.1.6-3,4.2-5.8,3.9,2.5-6.2-1.2-4.6-1.9-6.6-2-5.7,2.3-3.8,2.9-5,1.6-3.5.2-12.6,1.4-14.4s5.5-1.7,6.6-1.9c1.1-1.5,1.6-2,2,0Z"/>
  <path class="st141" d="M434,456c.1-4.5-.6-10.2,0-14.4s2.1-6.5,2.5-6.6c6-1,2,3.7,5,5s2.4-1.9,2.5-2c2.5-1.5,1.7,1.9,2.5,2.9,1.5,2,5.3,1.8,7.5,1.1.8,3.7-2.1,5.1-3.3,8.2s-.3,3.9-.7,4.8c-4.1,10.8-8.7,0-16,1Z"/>
  <path class="st103" d="M689,311c1.8-1.6,2.7-.5,3,1.5,1.1,6.9,1,35,0,42s-3.1,6.9-4,10l-2-2.5c.5-1,1.3-1.7,1-3-.2-.3-5-1.5-6-2-3,1.2-7.4-.2-7-4-1.2-.9-2.4-1-2-3,2.9,1,9-9.3,12-6s-1.6,6,5,5c-.3-12.6.4-25.4,0-38Z"/>
  <path class="st174" d="M639,633c.5,3.2-1,10.2-2.9,12.6s-7.9,3.9-8.8,4.2c-10.1,2.7-25.7,3.9-36.3,5.8s-17.3,4.9-24.4,5.5c-6.2.5-10.9-5.4-12.2-10.9s.6-2.6.4-3.6c-.4-2.1-2.4-4-1.7-6.6.3-.1,1.2-2.6,2-2,2.9,7.1.2,16.7,9,19s.7.9,1.6,1c4,.5,14.9-2.5,19.6-3.3,11.5-2,24.6-4.6,36.5-7.3s6.8,0,10.9-3.3c4.9-4.1,1.9-7.9,4.9-11.9.5-.1,1.2.8,1.5.8Z"/>
  <path class="st115" d="M803,387c1.3,0,2.3.4,3,1,1.3-.1,2.7,0,4,0-.6,2.3,2.1,9.5.9,10.9s-11.6-.7-12.9,4.1c-1.3.3-2.3,0-3-1,0,0-.6-.8-1.4-.7-2.4.2-4.8,2.4-8.2-1.3s1.6-2,1.6-2.6c0-.9-1.5-2.5-.9-3.3s4.3-3.9,4.6-4c3.3-1.2,10.3.7,12.3-3.2Z"/>
  <path class="st104" d="M825,343c2.5-4.1,7-8,7.5-8.9s-.4-9,1.6-10.9c4.3,0,8.9-.9,12.9.9v-5s3,0,3,0v8s-4-1-4-1l-1,8c6.5-.3,1.1,2.8-1,5-2,0-5.3,1.3-7.4,1s-3.6-3-4.1-3-1.1,1.7-1.5,2c-1.9,1.5-3.6,3.7-6,4Z"/>
  <path class="st133" d="M582,787c.4,5-6-1.3-6.6-1.9-2.1-2.3-5.9-11.7-6.4-14.6-1.2-6.7-1.1-38.9-.1-46s2.8-8.9,3.5-10.5c2.1-4.4,6.7-7.1,11-9s2.8-2.2,2.6,1.1c-3,1.9-5.1,2.3-6.7,3.3s-4.4,5.4-4.7,5.8c-6.1,10.8-.7,39-2.6,51.9.3,11.2,3,13,10,20Z"/>
  <path class="st146" d="M584,283c-2.1,5.2-6.5,6.7-9,12s-1.2,5.5-2.2,8.4-3.6,1-2.8,3.1,2.7,1.7,3,4.1-1,4.3-1,6.4c-.2,10.3-1.5,34.3,2.8,42.7s3.2,3.6,5.2,5.3c.5,2.8-1.2,2.5-3,1.5-4.4-2.4-1.8-5.3-2-5.5s-1.9.5-3.1-.7c-4.4-4.1-3-34.4-3-41.9s2.3-6.9-1.3-6.3-1.5,1.4-2.3,1.6c-1.6.3-5.9-1.3-5.3-3.7l4,1c-2.2-4.4,4.7-5.8,5-6.7,1.1-2.6.3-8.3,2.9-10.7s2.9-.5,3.1-.7-1.1-1.7-.5-2.9c1.4-3.2,6.7-5.7,9.5-7Z"/>
  <path class="st197" d="M787,549c2.9-.6,2.1,1.6,2,3.5-.7,13,4.4,28.1,6.9,41.1s5,40.3,12.1,54.4c.2,5.4-.9,5.7-3,1-6.1-13.6-8.2-38.1-11.1-53.4s-6.9-25.8-7.8-36.2-.5-7.5.9-10.4Z"/>
  <path class="st97" d="M543,420c-3,.6-2-1.5-2-3.5-.1-8.5.8-16.2,11.4-14.5,18.7,9.7,44,14.8,61.8,25.2s9.1,9.6,3.3,7.8-1-1.5-1.5-2-1.2-2.4-2.5-3c-20.5-9.9-42.3-16.7-63.1-26-7.6-1.1-7,10.9-7.4,16Z"/>
  <path class="st145" d="M419,614c-.7-2.8,2-5.9-3-5,3.8-7.6-4-22.5,9-23v4s4-2,4-2c0,1,0,2,0,3-.1,5.7-4,11-3.7,15.7s1.7,2.4,1.6,3.6c-.5,3.9-4.6,4.2-7.8,3.7Z"/>
  <path class="st45" d="M736,385c.3,8.4-2.1,32.4,3.9,37.6s17.9-.1,23.7,2c1.9-.3,4.2-5.6,5.2-7.3s.6-2.9,2.2-.8c.2,13.6-25.2,14.3-32.4,8.3-3.8-3.2-4.4-7.6-4.7-12.3-1.2-16.4-2-61,1-75.5.1,16.1.5,32.1,1,48Z"/>
  <path class="st62" d="M450,496c.4,0,.8,0,1,0,3.6-2.1,3.2,3.8,1,6-.3,2.4-1.9,5.7-1,9-1,1-17.6-3-17.9-4.6s1.1-3.2,1-4.9-3.1-4.3-1.1-5.5c3.6.8,13.3.5,17,0Z"/>
  <path class="st114" d="M805,796c.2,5-4.3-1.1-5.7-1.8-8.3-3.7-60.2-.8-73.8-1.2s-4,1-3.5-2c1.3-.5,1.3-.9,3.4-1.1,10.6-1,65.1-1.2,72.6,1.6s4.8,3.2,7,4.5Z"/>
  <path class="st139" d="M494,657c-4.1,2.9-.7-3.8,0-4.5,4.5-3.8,30.9-5.4,32.7,4.2-.2,23.9,1.2,48,.2,71.8s1,4-2,3.5l-.4-74.1c-2.4-8.8-28.9-7.7-30.6-.9Z"/>
  <path class="st89" d="M854,462c0,8.7,0,17.3,0,26,1.6,4.5,5.1,17.8-2,16,0,0-.9-1.7-1-2v-63c1.5-6.7,3.8-7.8,8-12,2.4.9-.3,2.7-1,3.5-6.5,8.1-3.9,21-4,31.5Z"/>
  <path class="st205" d="M827,396c-9.9,21.5-19.9,43-30.2,64.3s-.5,4.1-.9,4.6-2.3-.1-2.8.1c-2.3-1-.2-3,.4-4.1,10.8-21,20.4-42.4,30.1-63.9.8-1.5,2.6-.7,3.5-1Z"/>
  <path class="st183" d="M871,566c-1.6,5,1.3,9.9,1,15l-12,1c-2.5-13-6.1-17.8,11-16Z"/>
  <path class="st38" d="M816,634c.5-.2,2.3.5,2.8-.1,1.1-1.2-1-5.4,5.1-6.5s2.8,1.6,5,2.6v-9c2.7.5,2.3,11.5,2,12s-1.3-.9-2-.4-.7,1.7-1.3,2.1c-1,.7-2.3-.2-2.7.8-1,2.3,3.5,1,5.1,2.9,3.5,4.1-3.9,5-6.1,7.6-.3-5.2-3.4-4.5-7-6s-1.9-.9-3-1c-.7-1,1.2-4.6,2-5Z"/>
  <path class="st75" d="M866,408c-1.8.4-3.1-.4-1.4-2.1s6-4.1,7.9-6.9c.5,3.5,7.2.6,10.5,0,1.4,2.6,4.3,11.7,2.6,14.1s-7.5,1.3-9.6,1.9c.6-3-1.2-4.9-2-7s-.6-5.3-2.5-5-4.7,3.4-5.5,5Z"/>
  <path class="st12" d="M461,533c-.4-1-1.6-1.7-1-3.5.6-4.6,5.7,6.6,6,7,2.9,3.6,11.8,9.8,12.6,13.1,1.3,5.1-5.6,19.7-5.5,26l-5.2,14.3c-1.7,1.4-2.1-.2-2-2,.3-1,1.5-2,1.9-3.5,2.9-11,5.1-22.1,8.8-32.8-4.7-7-12.1-10.3-15.8-18.7Z"/>
  <path class="st164" d="M860,586c3.8.5,7.4-5,11.1-2.6s5.5,11.2,4.5,12.6-9.2,4.4-10.6,3.5-3.6-11-5-13.6Z"/>
  <path class="st194" d="M624,812c0-1,0-2,0-3l14-1c-.8,3.9,1,7.9,1,11.5s0,1.3-1.5,1.5-10.6.2-12,0-1.1-.6-1.5-1c.8-3,.2-5.3,0-8Z"/>
  <path class="st125" d="M379,537c.4-1.1,1.9-4.3,3.5-4l9.5,13c1.2,1.9-1.2,6.3-4,5-4.2-4.5-3.9-1.4-7.6-1s-5.3-1.5-4.4-5c3.3-2.2,2-5.1,3-8Z"/>
  <path class="st175" d="M524,419l1-80,2,1.5c-1.3,25.2,1.7,52,0,77.1s-2,7.8-3.1,2.4c0-.3,0-.7,0-1Z"/>
  <path class="st190" d="M435.8,561.2c.1,0,.2,1.5,1.4,2.1,6.9,3.5,14.1.4,10.5,9.9s-11.8-1.9-16.7-.2c.9-3.3-.2-14.2,4.8-11.8Z"/>
  <path class="st170" d="M795,402c1.7-.2,3.4-2.8,3,1l-26,54c-.1,0-1.6,0-2,0l25-55Z"/>
  <path class="st108" d="M437,751c-2.5,4.3.4,7.6,2,11.5s-4.3,1.5-6.4,1.6-7.4,2.4-9.2,0,.7-6,1.5-6.6c1.5-1.2,4.5,1,5,.6,1.9-1.6-2.6-2.5-2.9-3.6-2.1-6.7,6.4-2.7,9.9-3.4Z"/>
  <path class="st149" d="M397,653l-2.5-2c1.7-.5,3.4-3,4.6-3.5s2.8.6,2.9.5c.4-.4,4.9-9.2,5.1-10.5,2-16.6-1.6-36.9,0-53.9l-5.1-1.6c3.3-1.9,3.6-5.5,7,1.5-1.5,17.7,2.1,38.8,0,56s-7.8,10.3-12,13.5Z"/>
  <path class="st97" d="M494,690l-.5,42.5c.2,2.2,2.7,4.4,4.5,5.5-.1.2,2.5,3.9-.5,3s-5.4-4-6.2-6.6c-1.1-4-1.1-38-.4-42.9s2.2-1.5,3-1.5Z"/>
  <path class="st33" d="M686,711l2-2.5c.9,1.4,2.1,2.7,2.7,4.3,2.1,5.9,2.2,36.4,1.4,43.8-.3,2.3-3.7,5.6.4,5.5s2.3-1.8,3.8-1.8,7.9,2.1,5.2,4.8l-4.5-1c2.2,7-2.3,3.6-3.5,4.9-2.8,3,0,10.9-6.5,13.1l3.6-13.5c-2.9-9-1.5-20.5-1.6-30.5s2.2-18.5-3-27Z"/>
  <path class="st176" d="M434,401c.7-4.8,2.3-2.5,4,.5,8.4,14.3,17.9,33.1,24,48.5l-2.9.4-6.9-17.1-18.2-32.3Z"/>
  <path class="st157" d="M736,517c.8,3.9,3.4,8.5,3,13,3.8-.9,25.6-10.4,27-9s-.1,2.2,0,3c-8.6,1-16.6,5.6-25,8l3,7c-.7-.3-1.8.4-3.5-1-3.2-2.8-6.1-13.3-6.5-17.5s-.9-4,2-3.4Z"/>
  <path class="st123" d="M496,424c-2-.3-4-2.5-5-4.5v-44.5c1.4.5,2.9,0,3,2.5,1,12.8-1.4,27.5,0,40s1.6,4.1,2,6.5Z"/>
  <path class="st205" d="M806,388c-1.5.1-3.4,2.8-3-1,6.5-14.2,13-28.6,21-42,2,.9.4,3.1-.1,4.4-5.7,13-12.7,25.5-17.9,38.6Z"/>
  <path class="st190" d="M408,567c-3.1.5-2.1-1-.5-2,3.2-2,11.5-.5,15.5-1-2.6-3.2,2.5-5.8,5.4-4.9s1.2,9.3,1.6,11.9l-3-2.5-1,2.5c-2.5-.4-5.4,3.2-2-4-4.1.9-12.6-1.3-16,0Z"/>
  <path class="st173" d="M501,756c.3.3-.3,3.7,0,4s6.5-.3,8,0c3.2,2.4-6.5,2.2-7.5,2-4.2-.5-18.7-6-22.5-3.5s-.9,3.9-6,2.5c-1.1-.9,4.5-6.6,5.7-6.8,2.4-.6,5.5,1.8,6.8,1.8,2.2,0,15-.6,15.5,0Z"/>
  <path class="st21" d="M801,494c2.6,1.2,2.5-.7,5,3.5,4.3,7,6,18.2,4.1,26.2-.2.9-2.9,8.3-3.1,8.7-.6.9-2,.6-2,.6-2.9-2.6,1.1-5.2,1.8-7.7,2.9-11.4.5-21.6-5.8-31.3Z"/>
  <path class="st176" d="M463,454c3.5,9.1,6.7,18.3,10,27.6-.2,4-1,8.6-5,10.4,0,0-.9-.7-.7-1.3.7-2.4,3.5-4.8,2.7-8.1l-9.5-27.6,2.6-1.1Z"/>
  <path class="st213" d="M847,688h-3c-1.1-4.2.2-8.7,0-12.5s-1.3-10.6-1.1-15,3.6-7.6,2.1-11.5h5s0,7,0,7l-2-3c-2.2-2-6,6.8,1,6,.5,1.6-2,.9-2,1v28Z"/>
  <path class="st26" d="M831,439c.8,9,.4,22.2,0,31.5s0,3.8-1,5.5c-.5-.2-1.8.6-2-.6.9-10.8-1.1-23.3,0-33.9s.4-4.5,3-2.5Z"/>
  <path class="st191" d="M389,588c.2.9,0,2,0,3-2.8-.4-6.9.6-9.5,0s.7-4.7-4.5-3.1c2.1-1,3.8-6.6,4.1-6.8.6-.5,3.6,0,5.2-.3s4.9-5.7,4.7-.8c-2.7,2.5-.3,5.8,0,8Z"/>
  <path class="st170" d="M577,494c0,.5,1.4,2.1,1.1,3.4s-2,.5-2.1.6c-2.9-1.7-6.1-4-9.1-5.4-4.6-2.1-20.4-7.3-23-10.1s-.7-2.3-.9-2.5c2.1-.3,3.5.3,5.3,1.2,9.4,4.5,18.5,9.9,28.7,12.8Z"/>
  <path class="st45" d="M736,733.5c0,.2,1.5,1,1.8,2.2.7,2.8-.8,4,3.2,7.2-2.5,1.4-7-5.8-7-6.5v-43c0-.2,1.4-1.6,2-1.5,1.2,13-1.7,28.9,0,41.5Z"/>
  <path class="st0" d="M687,632c-5.8,4.4-18.8,10.8-26.1,8.5s-4.7-4.7-3.9-8.5c2.8.6,2,3.4,3,4.4,6.2,6.6,9.8-.8,15.2-2.8s8.5-1.3,11.8-1.7Z"/>
  <path class="st19" d="M442,651c6.7-.8,13.3-.8,20-1.5s3.4-1.7,3,1c-2.8,3.9-20.1,1.8-20.9,2.6s-.5,8.1-4.1,6.9c2.8-4.3-2.8-3.5-3.8-5.2-2.8-5.2,3-3.5,5.8-3.8Z"/>
  <path class="st30" d="M684,365c1.9.9.6,3.2-.1,4.4-2.6,4.3-20.2,21-24.8,24.2s-2.3,2.7-2.1-.6c8-8.6,20.6-19.1,27-28Z"/>
  <path class="st105" d="M576,542c0,1,0,2,0,3-8,3.2-18.3,5.7-25.7,9.8-4.1,2.2-6.8,3.5-7.3,8.2,0,0,.2.9-.6.7s-1.3-.7-1.4-.7c.8-3.3,1.5-7,4.6-8.9l30.4-12.1Z"/>
  <path class="st7" d="M734,655.5c.2-1.2,1.5-3.5,2.5-4.5l.5,7c.2.3,4.6-5.3,4,3l-5-2v32h-2c1.3-10.7-1.7-25.3,0-35.5Z"/>
  <path class="st41" d="M491,345c2.1-8.6-3-6.2-4.5-9s3.9-2.6,5.5-3.5,3.4-6.4,9-4.5c.9,4.3-7.7-.3-4.7,4.8s2.6-.3,1.7,2.2c-2.6-.9-5.8.7-4,3s4.2-1.5,3,3c-1.1-.3-2-.6-3-1,0,1.9.5,5.2-1.6,5.9s-1.3-.9-1.4-.9Z"/>
  <path class="st165" d="M745,769c-10.2,2.3-21.5.4-32,1,.2-.4-2.6-2.6,2.5-3s25.8-.5,28.5.6.8,1.4,1,1.5Z"/>
  <path class="st208" d="M711,459c-.3-1.3.4-5.4,0-5.9s-7.6-1.3-8-2.6c-1.4-5.3,5.2-6.1,9.1-5.4-.8,6.8,2,11.8,2,18.5,0,1.9.9,4-2,3.5-2.8-.7-3.2-6.2-1-8Z"/>
  <path class="st12" d="M467,598c-2.7,10-5.1,19.6-9,29-2.4-5.5,2.6-13.3,3.9-18.6s1.8-10.6,3.1-15.4c2.8-4.3,6.8,5.1,2,5Z"/>
  <path class="st6" d="M717,260c.4-1.3.9-4.8,3-4,.9,3.9-1.1,6.7-2,10-2.5,9-5.2,18.1-8,27-1-.7-2.7,1.7-1.9-3.4,1.1-7.3,6.7-21.1,8.9-29.6Z"/>
  <path class="st132" d="M774,767c.4.5,3.8.3,3,3-9-.9-21.3,1.6-30,0-.1-3.5-.6-2.8,2.5-3,7.9-.6,16.5.5,24.5,0Z"/>
  <path class="st156" d="M735,337c1.3-6,2.6-9.6,10-9.5.8,4.2-3.8,1.3-6.1,4.9s-2.8,7.5-2.9,8.1c-2,13.1,1.4,30.9,0,44.4,0-.2-1-1.6-1.1-3.4-.4-14.8.4-29.8,0-44.6Z"/>
  <path class="st167" d="M708,473c2.6-2.9-4-4.3-4-5.5,4.2-2.3,1.7-4.5,2.2-6.7s2.8-3.8,1.8-6.8c2.3-.9,2.5,3,3,5,.9,3.3.9,4.3,1,8s-.2,4.1,0,7c-1.2-.9-2.6-.8-4-1Z"/>
  <path class="st133" d="M820,287c5.7-.1-1,5.1-1,5.5v15c0,5.1-8.3,9-13,7.5,0-.2-1.6-.2-1-2,18.4,2.2,7.7-16.9,15-26Z"/>
  <path class="st200" d="M468,590c2.3,5,5.9,14,7.7,19.8s1.4,4.7,1.3,7.2c-2.3.4-2.3-1.1-3-2.5-2.3-4.9-2.9-12.2-7-16.5.7-2.6,2.5-4.5-2-5,.4-1.6.2-2.6,1-5,.5.6,1.7,1.4,2,2Z"/>
  <path class="st168" d="M520,424c1.9.2,2.3-.7,2,2-6,1.8-13,3.1-19.3,1.8s-4.8-1.6-2.7-3.8c6.5.3,13.7-.6,20,0Z"/>
  <path class="st88" d="M499,480c-.5-3.1,1.3-2,3.2-1.7,4,.5,7.9,1.7,11.5,3.5,3.1,3.7,9.2,6,11.8,10.2s-1,2-2.5,2c-7.1-8.9-12.7-12.3-24-14Z"/>
  <path class="st49" d="M392,546c2.3-2.4,4.8-5.3,8.1-1.6s-6.7,4.2-7.1,4.6c-.8.8,2.1,7.9-6,6-.2-1.6.3-2.7,1-4s3.1-4,4-5Z"/>
  <path class="st165" d="M709,794c1.6,5.8,6.8,13.2,9,19s1,3.3,1,5c-2.8,3.3-7.1-13-7.5-14-.6-1.5-7.4-10-2.5-10Z"/>
  <path class="st27" d="M906,565c-4.2-7.8-10.1-15.1-12-24,2.2-.6,3.4,2.8,4.2,4.3,3,5.7,5.7,11,8.8,16.7l-1,3Z"/>
  <path class="st73" d="M812,771c.6.5,3,0,3.7,2.6-.4,5.4.6,10.8,1,16.2s1.5,3.7-1.7,3.2c-4-5.6-1-11.4-1.3-16.7s-1.5-5.1-1.7-5.3Z"/>
  <path class="st144" d="M756,484c-6.4,2.9-10.3,7.2-14,13-1.8,0-4,.9-2.5-2,2.9-6,10.5-10.7,16-14,2.5,1.3.4,2.7.5,3Z"/>
  <path class="st55" d="M540,463c0,.4.8,6.8,1,7.4.3,1.2,1.9.5,2,.6.7.7,2.6,3.4,2,4-3.8-.6-3.2.7-3,4-.1-.1-1.6,0-2.5-1-2.2-2.3-1.6-8.4-1.5-11.6s-1-4,2-3.5Z"/>
  <path class="st72" d="M515,545l2.5,2c-2.5,2.4-8.7,3.4-11,4.9-3.6,2.4-3.7,7-7.5,8-.7-9.6,8.4-9.7,14.3-13.2s1.3-1.5,1.7-1.8Z"/>
  <path class="st165" d="M709,793c-2.7,0-2.8-1.2-3.1-3.5-.4-3.3-.4-11.8.1-15s5.3-9.4,4.9-2.6c-4,7.8-3.9,12.2-2,21Z"/>
  <path class="st205" d="M808,702c3,3.7,7.5,14.2,9,19-3.7-2.2-9.6-12.3-11.6-16.9s.7-2,2.6-2.1Z"/>
  <path class="st18" d="M641,821c2.8-.3,2.5.6,1,2.5s-6.2,5.3-9.5,5.6-9.1-1.5-10-3.1-.3-2.5-.5-3c9.3,5.9,11.5,5,19-2Z"/>
  <path class="st139" d="M494,665c-.1,4.6.1,9.4,0,14l-3-.6v-19.4s3,3,3,3c0,1,0,2,0,3Z"/>
  <path class="st176" d="M626,249l-2.5-2c4.4-4.1,16.3-1.9,18.5,3.5s-3.8.5-4,.5c-3.6-5.7-7-4.2-12-2Z"/>
  <path class="st3" d="M828,396c.1,0,1.2-1.6,2-1s0,1.7,1,2c2,1.6,2,3.4,0,5,0,3.4,1.2,9.4-2,11-1.5-5.8-1-11-1-17Z"/>
  <path class="st53" d="M819,722c2.9,4.1,5.7,11.3,8,16-.1,0-1.1,1.3-2.4,0s-7.6-12.7-8.1-14c-1.3-3,.7-2,2.6-2.1Z"/>
  <path class="st172" d="M617,687c-.3.2-1.6-.4-2.3,0-4.6,2.9-9.1,8.1-14.7,9,3.2-2.6,5.8-6.2,10.5-9s6.6-4.8,6.5,0Z"/>
  <path class="st60" d="M531,520c2.9-.6,2.2,1.5,1.9,3.4s-5.1,13.6-5.9,14.2c-1.4,1-3.6,1.3-3-1.5,4.2-5.8,5.5-9,7-16Z"/>
  <path class="st144" d="M628,678c.2-.2,0-1.2.5-2,2.9-4,6.2-1.8,6.5-2s-.3-1.8.3-2.7c2.7-3.8,13.2-6.5,17.7-4.3l-4,2c-.2,0-.5-.9-1.4-1-5.2-.2-13.8,9.9-19.6,10Z"/>
  <path class="st205" d="M798,685c2,2.7,4.8,7.9,6.4,11.1s1.8,2.9,1.6,4.9c-3.7-2.5-7.4-7.8-9.2-12.3s-2.2-4.2,1.2-3.7Z"/>
  <path class="st14" d="M542,442c-.3,6.1-1.8,12.8-2,18-3.1-1.2-1.9-5.1-2.1-7.6l4.1-10.4Z"/>
  <path class="st126" d="M890,312c-.4.7-7.3,7-8.5,8s-1.6,2.4-3.5,2c1.8-5.9,7.5-10,12-14,0,.2,1.2,2.1,0,4Z"/>
  <path class="st88" d="M525,497c.9-5.9,4.8,1.3,5.5,3,2.1,4.9,2.3,7.1,1.5,12-2.1-3.4-2.9-9.4-4.8-12.8s-2-1.8-2.2-2.2Z"/>
  <path class="st64" d="M631,406c.3.2.7,1.4,1.6,1.9,3.9,2.2,6.4.2,10.4.1-.6,1-.2,2.6-2,3.5-4.5,2.2-9.1-.9-12.5-3.5l2.5-2Z"/>
  <path class="st93" d="M855,517c-.5.5,0,2.3-2,3.5s-7.1,1.6-10,1.5c-4.5-5.6,9-3.6,12-5Z"/>
  <path class="st7" d="M762,646v2h-19.5c-.1,0-1.9,1.6-2.5,1s.9-3,1.5-3h20.5Z"/>
  <path class="st52" d="M886,298c1.5,1.6-7.1,9.9-8.5,11s-1.6,2.4-3.5,2c-1.5-1.6,7.1-9.9,8.5-11s1.6-2.4,3.5-2Z"/>
  <path class="st81" d="M830,415c1.8,6.3.9,8.9,0,15-3,.6-1.9-1.5-2-3.5s0-5.4,0-8.1-1-4,2-3.5Z"/>
  <path class="st131" d="M737,313c.6,3-1.5,1.9-3.5,2-5.4.2-12.5.7-17.5-1,3.8-.7,17.8-2.1,21-1Z"/>
  <path class="st140" d="M460,505c.3,4.9.1,12.9,0,18-5.3-.8-2.6-11-2-14.6s-1.1-4,2-3.4Z"/>
  <path class="st37" d="M385,819c-1.6-1.2,0-1.8,1.5-2,5.7-.7,12.7.5,18.5,0,1.6,1.2,0,1.8-1.5,2-5.7.7-12.7-.5-18.5,0Z"/>
  <path class="st131" d="M543,422c-.4,5.6-.7,11.4-1,17-2.7,1.8-1.9,1-2-1.5-.2-4.4.4-7.8,1-12s-1.3-4.1,2-3.5Z"/>
  <path class="st139" d="M875,326c1,.9-7.5,12.5-11,11-1.2-1.1,9.8-12.1,11-11Z"/>
  <path class="st123" d="M830,499c1.5,2.2,2,12.3-.6,13s-1.3-1-1.4-1c.4-2.1-.6-11.2,0-12s1.4,0,2,0Z"/>
  <path class="st121" d="M833,742c.3,0,1.1.9,2.4,1,3.6.2,7.7-.5,11.1,0s1.6-.3,1.5,2h-15.5c-1.1,0-3.4-1.5-2.5-3,1,0,2.1-.2,3,0Z"/>
  <path class="st184" d="M799,767c4.7,0,8.3-.9,12.3,2s.6,1.9.7,2c-1.4-1.4-12.5-.6-13-1s0-2.2,0-3Z"/>
  <path class="st144" d="M736,513c-2.9.6-2.3-1.6-1.9-3.4.7-3.6,3.4-7.9,3.9-11.6l2,3c-1.9,4.1-3.2,7.3-4,12Z"/>
  <path class="st189" d="M687,292c.2.1,1.1-.3,1.8.2,2.8,2,3.8,9.4,3.2,12.8l-3-5c-.2-1.6-1.7-3.7-2-5s.1-2.1,0-3Z"/>
  <path class="st7" d="M771,657c-2.7.5-1.7-.7-2.4-2-1.9-3.6-4-5.5-5.6-9,5.3.8,8.8,5.7,8,11Z"/>
  <path class="st82" d="M831,275c4.7-.4-.3,4.8-1,5.5-1.3,1.6-7,8.1-6,1.5,2-2.2,4.7-4.4,7-7Z"/>
  <path class="st197" d="M803,536c-.2.3.1,2.2-.9,3.5s-10.4,12.1-9.1,4.5c.9-.8,2.7-1.3,4-2.5,2.3-2,3-5.4,6-5.5Z"/>
  <path class="st166" d="M778,315c0-.1-2-1.5-.5-2h15.5c.1,1.2.3,1.6-1,2-3.2.9-10.2-.7-14,0Z"/>
  <path class="st126" d="M844,263c-2,3.8-4.4,6.1-7.5,9l-1.5-2c2.3-2.8,5-7.2,9-7Z"/>
  <path class="st21" d="M381,664l-2.5-2c2.6-1.3,5-4.3,7.6-5.5s3.4-1.4,3,1.5c-3.1,2.2-5.8,4.2-8,6Z"/>
  <path class="st121" d="M389,592c1.4,1.3-8.8,8.9-11,8-.2-2.4,2.9-3.8,4.6-5s5.6-3.8,6.4-3Z"/>
  <path class="st190" d="M397,575l-2.5-2,7.8-5.7,2.7,1.7c-3.5,1.9-5.3,4.2-8,6Z"/>
  <path class="st39" d="M602,269c-2.4,2-3.6,5.5-8,6,1-1.6-.1-3.3,3.5-6s5.5-3.7,4.5,0Z"/>
  <path class="st28" d="M431,659c-2.7-7.4,4.4-5.4,6,0-.3.2-.5,2.1-2.5,2s-3.4-1.8-3.5-2Z"/>
  <path class="st151" d="M445,648c-2.9.4-2.3-.9-1.2-2.7s4-4.2,5.2-6.8l2,2.5c-.6.9-4.5,5.4-6,7Z"/>
  <path class="st172" d="M620,685c-2.5.6-2.7-1.4-1.8-2.8s11-8.8,8.8-2.2c-.6.5-5.9,4.3-7,5Z"/>
  <path class="st172" d="M589,705c-2.5.6-2.7-1.4-1.8-2.8s11-8.8,8.8-2.2c-.9.7-5.9,4.3-7,5Z"/>
  <path class="st5" d="M596,799c2.2,1.8,3.2,2.6,5,5,.2,3.2-.5,2.2-2.5,1s-9.7-6.6-2.5-6Z"/>
  <path class="st148" d="M660,268c-3.7.5-4.5-2.8-7-5-.2-5.4,7.2,2.5,7.5,3.1.6,1.2-.6,1.8-.5,1.9Z"/>
  <path class="st139" d="M525,733c.3.2,1.6-.3,1.9,0,1.4,1.7-4.3,7.3-6.5,7.9s-1.1-1.1-1.4-1.9l6-6Z"/>
  <path class="st64" d="M386,672c-1.5,2.3-2.1,4.7-5.7,5.8s-2-1.6-2.3-1.8c1.6-2.2,5.2-3.8,8-4Z"/>
  <path class="st192" d="M659,805c1.6,0,4.2-.7,2.5,2s-7.5,8.7-7.5,3c2.2-1.7,3.4-3.7,5-5Z"/>
  <path class="st160" d="M677,789c7.5-1.4-2.6,9.2-5,6,.9-.9,3.3-4.6,5-6Z"/>
  <path class="st9" d="M397,663c0,.3,2.3,1.4,0,3.5s-8.4,4.4-7,.5c2.4-1.3,4.4-3.2,7-4Z"/>
  <path class="st112" d="M585,790c1.9,1.8,4.1,3.3,6,5,.5,6.5-12.1-5.6-6-5Z"/>
  <path class="st54" d="M618,818c.2.1,2.9,2.8,3,3,0,5.5-9-3.3-8-5,2.1-.3,3.5.9,5,2Z"/>
  <path class="st199" d="M864,322c-2.1-2.1,5.9-6.9,7-8,.9,2.4-4.8,10.2-7,8Z"/>
  <path class="st40" d="M611,812c.7,4.7-5.5-.4-7-2.5s-.7-2.2-1-2.5c3.8-.6,5,3.6,8,5Z"/>
  <path class="st11" d="M585,283c-2.6-2.1,7.3-10.7,7-5-1.5,1.9-4.8,4.1-7,5Z"/>
  <path class="st88" d="M670,797c2.8,1.9-7.5,10.4-7,5,2.4-2.1,4.9-3.4,7-5Z"/>
  <path class="st94" d="M679,285c-2.3-2-4.6-3.9-7-6,3.1-2.3,6.8,2.9,8,5.5l-1,.5Z"/>
  <path class="st88" d="M611,261c-2.4,2.3-4.1,3.4-6,5l-2-.5c2.2-1.7,5.4-7.6,8-4.5Z"/>
  <path class="st160" d="M663,272c-.4-3.4,1.9-2.1,3.5-1s6.4,6.1.5,5c-.9-.8-3.4-3.3-4-4Z"/>
  <path class="st69" d="M838,646l-7,5c-1.2-5.3,2.7-5,7-5Z"/>
  <path class="st74" d="M675,698c-1.5-8,11,4.5,3,3-1.1-1.4-2.4-2.2-3-3Z"/>
  <path class="st101" d="M451,496c1.3-.5,1.6-3.6,4-3-.7,3.1.7,7.6-3,9,.3-2.5,1.6-3.6-1-6Z"/>
  <path class="st196" d="M819,797c-.2-5.6,7.4,1.7,6,3-1.3.6-3.4-1-4-1-.2-1.1-1.6-1.5-2-2Z"/>
  <path class="st94" d="M623,400c1.5,1.2,3.2,2.1,4,4-.1,0-.9,1-1.6,1-2.7-.2-7-5.8-2.4-5Z"/>
  <path class="st191" d="M395,586l2,1.5c-1.6,1.2-3.5,3.1-5.5,3.5-3,.7-.4-1.8-.5-2,1.7-.6,2.8-2.1,4-3Z"/>
  <path class="st187" d="M378,561v5c-2.6,2.5-6.6-6.1,0-5Z"/>
  <path class="st61" d="M590,373c.8.7,1.6,1.9,3,3,.3,5-4.1-.6-6-2.5l3-.5Z"/>
  <path class="st109" d="M713,592c-1,7.2-3.1,6.7-4,0h4Z"/>
  <path class="st101" d="M430,508c-2.9-.9-3.3-10.4,0-11,2,2.5,1.3,8.4,0,11Z"/>
  <path class="st113" d="M514,161c2,.7.5,4.5,1,5,1.8,1.9,15-3.2,16.8,4.7,2.8,12.2-4.6,6.6-7.8,7.8s-2.9,4-5.4,4.1-7.3-2.1-10.3-2.3c-6.6-.5-11.2,1.2-17,2.5s-19.9.7-21.1-9.5.8-3.4.8-4.6-1.8-1.2-2-1.6c11.4-1.3,23-1.2,34.5-1s4.4-.6,5.5,1l-1.7,1.7c-10.5-1.6-11.8,0-4,4.9,4.8-.5,9.7-.5,14.7,0-3.1-.5-4.8-1.8-5.1-3.7l10-1.5c0-3.3-8.2-.6-9-1.5v-6Z"/>
  <path class="st23" d="M509,209c.5,8.7,2.5,18.2-.1,26.9-9.8-.7-21.9,1.4-31.5.2s-2-1-2.4-1.1l2-11c3.5,2.8,8.1,3.6,12.6,3.1s2.8-2.7,4.7-3.4,3.1.3,4.7-.2c2.8-.9,6.5-5.9,10.1-7-1.7-2.9-2.8-4.6,0-7.5Z"/>
  <path class="st147" d="M440,240c4.5.2,5.2-1,5.5-1h23.5c.4,0-2.2,2.6,6,1,3.4-.2,2,.5.3,1.8s-6.4,5.2-7.4,5.6c-3.4,1.4-7.1-.7-10,1.5-2.2,0-5.5-.5-7.4.2s-1.3,2.6-2.3,2.9c-5,1.3-7.5-3.3-8.3,5-2.5,5.5,1.9,16.4-8,14.5-1.5-2.9-24.6-30.4-23-31.5,10.3.3,20.7-.5,31,0Z"/>
  <path class="st209" d="M436,337c-.3,1.2-2,9-2,9.5.2,1.7,1.9,2.9,2.5,4.5,2,5.7,3.1,11.6,4.8,17.2s3.8,8.4,4.5,11.5-2,4.4-4.2,1.2c-3.5-5.1-.9-7.5-1.8-11.2s-2.5-3.6-3.3-5.8c-1.4-4-.3-10.2-4.5-9l.5-3c-1.6-3.2-4.6,4.9-3.5,6,3.3,0,4.7-1,4,3-.9,1.1-4.8-5.1-7,1.5-6-2.8,1.4-9.9,2.7-13.3s1-5.2,2.3-8.2,1.6-6.6,5-4Z"/>
  <path class="st20" d="M463,311c.9,2.9-2.3,3.9-2.7,5.6s1,2-.2,3.9-5,3.6-6.1,2.5-.9-5.5-.6-6,9.1-6.4,9.6-6Z"/>
  <path class="st88" d="M812,281c.4,2.8-4,7.2-5.9,8.6-8.1,5.6-28.6,3.3-39.1,3.4-.6-3,1.5-1.9,3.5-2,7.8-.3,26.6,1.7,32-2s6.8-5.8,9.5-8Z"/>
  <path class="st88" d="M723,285c3.5-.5.4,1.3,1.9,3.5s2.2,2.2,3.6,2.5c8.7,1.7,25.1-.4,35,0,2.5,0,3.3-.7,1.5,2-12.8,0-25.7,0-38.5,0-4.9-3.2-4.5-3.1-3.5-8Z"/>
  <path class="st20" d="M891,284c0,1.6.6,9-1.5,9-3.1,0-3.9-9.5,1.5-9Z"/>
  <path class="st179" d="M826,267c-3,.4-1.9-.8-1-2.5s6.5-9.6,6-2.5c-1.3,1.5-3.4,3.4-5,5Z"/>
  <path class="st56" d="M421,348c-4.9.3-1.6,7.7-1.9,11.6s-1.9,5-2.1,7,2.8,6.3-2,6.4c0-6.8,0-13.7,0-20.5s1-3.9,1-5.5c1-.2,2.4-1,3.4-.8s1.1,1.3,1.6,1.8Z"/>
  <path class="st155" d="M300,266c1.5,2.9,8.6,7.8,8.1,11.4s-9,6-10.1,7.6c0-.3,0-.7,0-1,.9-6,1.3-12,2-18Z"/>
  <path class="st68" d="M361,338c6.1-.8,3.3,2,5,7-3.5,0-7,.1-10.5,0s-4,1-3.5-2c2.2-1.1,6.7-4.6,8-5s.7,0,1,0Z"/>
  <path class="st8" d="M418,439c-.8,4.8,1.5,21-1,24h-9c.9-7.1-1.2-16.7,0-23.5s1.4-1.8,2-2.5c2,0,4.4-.4,6.3.2s1.6,1.8,1.7,1.8Z"/>
  <path class="st128" d="M430,497c-.3,1.8.4,10.6,0,11s-3.9.4-4-.6c.8-4.9-2.8-12.1,4-10.4Z"/>
  <path class="st209" d="M410,476c-2.2-2.2-.5-8.4-1-11.5.2-.6.5-.5,1-.5v12Z"/>
  <path class="st83" d="M720,867c0,4.4-1.2,8.8-1.1,11.6s4.3,5.6.6,8.6-12.7-5.9-2.6-7.1c1-3.4-2.1-3.3-3-4.7-3.6-5.7,2.5-6.6,3-8.3.9,0,2.3-.2,3,0Z"/>
  <path class="st185" d="M509,167c.7.2,1.6,2.1,4,3s10.9,2.1,6,5.5-7.6-.5-10.5-.6-3.7,1.1-5.1,1.1-5.6-5.8-9.1-6.7-10.1,1.5-12.3-2.2c7.7,1.1,19.9-1.5,27,0Z"/>
  <path class="st20" d="M557,427h1.2c1.3,2.7,4.2,3.4,6.8,2,4-.9,8.1-.9,12.1-.2,2.6,2.2,6,3.3,10.1,3.2,2.7,2.3,4.1,3.4,8.2,2.4-1-3.2-1.1-8.7,2.7-9.4,2.4,1.1-1.1,6,0,7s3.5,0,5,.5c5.1,1.7,1.9,5,2.2,8.8s2,4.7,2.8,6.8-.1,1.4,0,2c-.8.9-2.2,1.5-4,2,.5,1.6,3.9-.1,3,3-1.6-.8-6-.6-6,1.5s2.7,1.2,3.3,1.5c3.5,1.8-1.8,1.9-2.1,2.2-.6.5-.2,2.3-1.3,3.3s-3.4.7-4,2,3.2.1,3,3.9-5.4,5.5-4,6.6,3.6-.3,4,0c3.5,3.4-7.8,4.3-8,5.5-1,5.2,7.7,2.7,6,7.5l-8-3c-.5-6.1-8.9-.3-11-5,.4-.5,5.4-10.4,5.6-11,.5-1.8-.8-4.1-.6-6.4s2.3-4.2,2.8-6.3c1.3-6,1.1-13.9,3.2-20.3-8.4-1.3-5.5,13.5-11.5,14-8.5.8-1.4-14.6-5.5-16.6s-3.1,1.5-3.5,1.6c-1.4,0-1.4-3.8-1.5-4-2.7-2.2-3.5,3-4.6,4.8s-3.9,1.2-1.8,3.2h5.5c.4,1.9-1.6,3.1-1.8,4.7s1.2,3.9.7,6.6c-1.1,6-4.4,6.7-2.3,15.8s1.9,5.4,3.5,4c0-3.8,4.6-8.1,8.1-5.6s.4,10,0,12.6c-.3,2.9-9-1.1-10.2-2.9-3.6-.1-6.1-1.6-5.4-5.6-3.4-2.2-4.3-4.8-4.7-8.7-5.1-3.5-6.2-7-3.4-10.6l-1.2-2.5c2.5-3.4,2.8-6.1.9-7.8-3.9-1.8-1.1-3.2-.5-5.5s-.9-2.2,0-3.5c1.3-1.9,3.3.7,1.6-6l5,2Z"/>
  <path class="st99" d="M673,600c-.7-2,.5-7.4,0-10,3,2.7,6.2,2.1,10,2,0,4,0,10.4-5,10s-4.6-.9-5-2Z"/>
  <path class="st137" d="M613,596c0,1.3,3.2,2,.9,5.4s-2.4,2-3.9-.4c-.3-2.6-.1-5.1,3-5Z"/>
  <path class="st213" d="M604,452c-.3-1,.2-2.8,0-4h1c-.3,2.3,1.1,2.3,3,2,0,.1.9.3.9.5-.1,1.4-3.5,1.8-4.9,1.5Z"/>
  <path class="st48" d="M490,501c7.7,2.1,15.3,4.9,23,7l5,2.6c-.7,9.8-5.6,19-16,12.4-2.4-.5-22-6.9-22.6-8,1.9-4.5,2.7-9.6,4.6-14,1.5-2.8,5.6-3.8,6,0Z"/>
  <path class="st180" d="M502,523c3.1.7,7.8,1.9,10.1-.4s4.1-10.4,4-12-2.9-1.1-3-2.6c2.1.5,4.7,2.2,6.5,2s5.4-6.5,9.1,1-3.7,12.6-4.6,14.5c-3,5.2-7.5-.2-10.5-.4s-7.7,4.4-11.5-2.1Z"/>
  <path class="st42" d="M484,501c1.4-3.3,1.5-4.4,6-4v4c-2.1-.6-4-1.5-6,0Z"/>
  <path class="st56" d="M427,344c1.3,1.3-1.7,5.9-3,2.5s2.2-3.2,3-2.5Z"/>
  <path class="st118" d="M831,397c3.6,1.1,7.5-1.2,4.2-3s-1.4.2-2-.2c-2-1.5,0-5.4-.3-5.8-1,.9-4,1.1-4-.5s4.5.1,4.8-6.3-.8-2.4-.8-2.7v-19.5h3c.8,4.9-2.7,11.6,4,10,0-3,0-6,0-9,.8-2.5,1.8-2.2,3,1-.6,8.3.5,15.8.9,23.5s.4,10.5-1.9,12-5-1.3-4,3.5h5c-1.5,5.3,1.2,14.9-.2,19.3s-7.7-1-8.4-2.3c-1.3-2.3.8-5.1.7-7.5-.2-3.7-3.8-3.2.9-7.5h-5c0-1.7,0-3.3,0-5Z"/>
  <path class="st87" d="M828,654l1,1.1c-.7,11-.4,21,1,29.9-.4,2,.8,7.2-3.4,5.9s-3.4-8-4.6-10.2-1.8-1.3-2-1.7c3.2.4,1.9-.9,1.3-2.8-2.4-7.9-8.2-13.4-10.3-21.2,3.1,1.9,4.6-.8,6.5-1,3.2-.3,7.2-.2,10.5,0Z"/>
  <path class="st20" d="M840,358c-.1-3.2-3-13.1,2-9.5s3,6.4,3,7-1.8.5-2.4,1.8.4,2.8.3,3.8l-3-1c0-.7,0-1.2,0-2Z"/>
  <path class="st36" d="M576,335c7.6-3.4,3.5,3.7,4.7,6.7s9,3.9,8.3,8.8-2.9,0-1.9,2.8,5.8,7.5,6.4,7.7c3,.6,1.3-3.4,2.3-4.6s3.3-1.1,3.9-1.7c1.3-1.3.1-6.3,4.7-5.8s8.5,6.3,7.1,9c-2.7,5.1-7.5-1.3-9-1s-1.8,1.6-1.5,2,4.7.2.5,4-4.4.6-3.5,2.5,15.1,7.6,17.8,8.2c21.5,4.8,46.9-.4,58.2-20.7,1.7,1.2,5,3,7,4-6.1,2.5-9.9,9.6-15.1,13.4-28.8,20.7-75.3,9.8-88.4-24.4-1.5-4-.7-8.6-1.5-11Z"/>
  <path class="st50" d="M624,294c-1.5,0-9.3,1.4-10,1l1-2c6.1-4.7,5.1-11.6,7.8-17.8s1-2,2.7-1.2c4.2,1.8-3.3,16-1.5,20Z"/>
  <path class="st212" d="M582,735c-1.6-7.3,5.3-18,10.3-23.7,11.1-12.8,25.4-14.1,41.3-14.4s16.7.2,15,6.8c3-6.2,14.1,1,18.1,4.3s10.4,11.4,13,17.3,4.5,10.5.3,11.7c-.1,0-1.2,1-2.4,1-5.3.1-10.7-.2-16,0-.4,0-1-2.9-1.6-4.1l-2.7-.9c-6.7-13.6-23.5-15.5-37-13.1-1.3.2-14,8-14.6,8.7-.3,4.2-1.5,6.7-3.8,7.3-4.1,3-12.4,2.4-17.5,2-3.1-.2-2.6.5-2.5-3Z"/>
  <path class="st47" d="M686,736c.8,4.3-4.3.9-6,1,1.4-9.7-9.1-23.6-16.5-29-1.8-1.3-10.1-5.3-11.9-5.1s-1.7,4.6-4.1,4.1.7-5.1-1.5-6.5-10.9-1.5-12.5-1.5c-29.2-.5-42.6,9.4-51.5,36s-2.2,2.7-6,3c.4-12.6,8.6-26.5,18.5-34,13.7-10.3,34.9-12,51-9,16.9,3.1,31.8,14.8,38.2,30.8s.8,7,2.3,10.2Z"/>
  <path class="st212" d="M655,737c-14.3.4-29.9,2.2-44.5,1-3.1-.2-2.6.5-2.5-3-1.7-7.8,8.3-12.3,15.3-12.9s19.3.2,20.3.6c4.1,1.5,12.8,8.6,13.4,12.9s-1.1,1.1-2,1.4Z"/>
  <path class="st51" d="M660,734v4c-1.7.7-4.2-1-5-1,1.1-4.3-10.8-12.8-13.6-13s-2.8.8-3.9.8c-13.1-1-22.7-3.4-29.5,10.2s-1.1,2.9-1.7,3c-2.1.6-5.3.4-4.3-2,.4-1.5,1.8-8.3,2.2-8.8s2.2-.5,3.3-1.2c3.7-2.6,8.7-7.5,13-8,16.8-2,32.1-.4,39.5,16Z"/>
  <path class="st201" d="M652.7,784.3c8,5.7-6.7,8.3-6.7-1.3.5-.5,5.7.6,6.7,1.3Z"/>
  <path class="st152" d="M566,645c9.2-3,21.7-3.8,31.4-6.1,1.5,2.8,4,7,2.1,10.1s-27.8,5.1-33.5,7c-3.3.4-2.5.2-3.3-2.2-2-5.9-2.5-7,3.3-8.8Z"/>
  <path class="st117" d="M585,617c-.2.3-5.8.7-6.9,1-.6-8.4-1.6-17.1-3.1-25.4s-6.1-14.9-1.3-16.5,4.5.5,5.1,2.7c-.7,5,7.7,36.7,6.2,38.2Z"/>
  <path class="st86" d="M783,295c.2.3-.2,4,0,4h17.5c1.2,0,4.1,3.9.5,5.5s-6.2-.6-9.1,0-2.6,2.1-3.4,2.1-2.1-1.6-4-1.8c-14-1.2-27.3.5-42.2-1.5-2-.3-5.3,2.1-5.3-2.4,3.4.6,7.2-.7,10.3-.6,4.5,0,15.1,2.5,19,1.5s0-4.8.6-6.9c2.3.4,15.5-.6,16,0Z"/>
  <path class="st80" d="M734,306c1,6.7-4.3,4.9-9,5v-5s9,0,9,0Z"/>
  <path class="st50" d="M629.9,263.9c-.4.4-2.7-.5-3,.6-.9,4.3,2.8,8.7-3.9,7.5.3-2.7-.5-5.9,0-8.5s2.9-5.2,3.1-5.4c3.6-2,4.9,4.5,3.8,5.8Z"/>
  <path class="st20" d="M854,488c4-.7.3,4.9,3.6,5.9s7.5-2,10.4-.9c-.2.3-4.1,4.5-5,5.5-2.4,2.8-7.3,9-11,5.5,3,.6,1.9-1.5,2-3.5.1-4.2,0-8.4,0-12.5Z"/>
  <path class="st167" d="M686,625c-7.5,1.7-15.3,2.2-23,2.5,4.2-7.8,11.5-14,17-21,.9-1.1,1.1-3.5,2-4.1,1.4-1,8.1.3,5.8,3.4s-1.7.1-1.7.2v19Z"/>
  <path class="st55" d="M551,440c8.4-3,0,8,1,9,11.1-1.7,2.2,1.2.3,3.3-3.1,3.4,2.9,5,4.2,7.7s.4,3.4,1.1,4.9,3.2,2.5,3.9,4-.5,2.4,0,3.1c1,1.2,3.2.7,4.6,1.5s.8,2.1,1.2,2.3c1.1.6,2.5-.7,3.4-.6s1.3,4.1,4.4,2.7c-.2.9.1,2,0,3l-12.5-4-.5,3c-2-.5-14.5-3.4-15-4.1s1.7-6.3-4-6.9c-1.8-5.4,1.5-2.4,2-4.5s-2.1-2.3-2-4,1.9-.3,2-1.1c.7-4.7,2-2.9,2.2-4s-1.8-4.7-1.1-5.4,2.7.3,3,0c1.6-1.5-3.9-2.7-2-5s2.7,1.3,3,1c1-2.9-3.3-1.3-2-4.5s2-1.2,3-1.5Z"/>
  <path class="st186" d="M598,425c-.6,2.4-1.6,6.2-1.1,8.5s4-.8,3.1,2.5c-4.4,0-6.9,1.6-11.2,0s-.8-1.9-1.3-1.9c-6.2,0-4.1-.9-5-1.1s-4,1.5-4.4,1.1c-.6-.7,2-4.3-4.4-3s-1,3.9-2.6,2,1.4-2.7,1-3c-1.8-.6-4,1-5.4,1s-1.2-1.8-1.6-2c-4,2.3-8.8-.6-6-6,.8-2.3,1.9-4.6,2.5-7,10.8,4.4,26.3,4.4,36.5,9Z"/>
  <path class="st167" d="M559,423c-1.2,5.3,2.5,4.4,6,6,.9,3.7-5,1.5-8,2,1.4-1.4,0-3.7,0-4,.2-.9,1.6-2.9,2-4Z"/>
  <path class="st15" d="M828,654c.7,0,1.3,0,2,0v31c-1.2,1.6-1.8,0-2-1.5-1.2-9,.9-20.2,0-29.5Z"/>
  <path class="st20" d="M857,537c.5,3-.7,1.6-2.4,2s-4.1.5-5.8,1.1-.5,2.7-3.3,1.9-1.4-3.7-5.5-2l4.3-1c.8-.2.8-2.2,2.6-2.6s7,1.4,10.1.6Z"/>
  <path class="st177" d="M438,254v11c-1.5-.2-7.7.3-8,0s-.9-9.6-.6-10.1c1.3-1.8,6.4-.7,8.6-1Z"/>
  <path class="st89" d="M855,504c.8-3.7,5.2-6.6,8-9-.8,3.7-5.2,6.6-8,9Z"/>
</svg>