<?xml version="1.0" encoding="utf-8"?>
<!-- Generator: Adobe Illustrator 27.3.1, SVG Export Plug-In . SVG Version: 6.00 Build 0)  -->
<svg version="1.1" id="Discord.gg-_x40_marazm" xmlns="http://www.w3.org/2000/svg" xmlns:xlink="http://www.w3.org/1999/xlink"
	 x="0px" y="0px" viewBox="0 0 1051.4 548.5" style="enable-background:new 0 0 1051.4 548.5;" xml:space="preserve">
<style type="text/css">
	.st0{fill:#363636;stroke:#000000;stroke-width:2;stroke-miterlimit:10;}
	.st1{fill:#555555;}
	.st2{stroke:#000000;stroke-width:2;stroke-miterlimit:10;}
	.st3{fill:none;stroke:#000000;stroke-width:2;stroke-miterlimit:10;}
	.st4{fill:#777777;}
	.st5{fill:none;stroke:#777777;stroke-miterlimit:10;}
	.st6{opacity:0.4;fill:#987F00;enable-background:new    ;}
</style>
<polygon class="st0" points="1,321 105.9,321 105.9,254.2 140.8,254.2 140.8,244.8 152.1,227.2 152.1,191.9 162.1,191.9 
	162.1,165.1 150.2,165.1 145.8,118.5 166.8,116.4 182.4,119.3 195.5,115.5 203.7,115.5 208.8,110 261.5,110 265.9,107 271.4,102.1 
	274.4,97.6 275,94.5 275,87.1 294.3,73.6 308.5,68.2 323.3,68.2 323.3,70.6 351.8,70.6 351.8,46.5 371.1,46.5 371.1,21.7 
	385.5,21.7 385.5,1.2 429.5,8.9 539.3,9.5 539.3,29 563.4,29 563.4,63.5 558.5,63.5 558.5,69.8 562.5,69.8 562.5,206 553.3,206 
	553.3,208.1 555.6,208.1 555.6,222.1 553.3,222.1 553.3,224.2 605.5,224.2 605.5,195.3 613.3,197.1 621.8,201.1 660.2,227.5 
	668.8,231.5 684.3,236.9 730.5,252.4 742.8,253.8 789.5,258.9 825.9,270.9 839.4,281.6 872.2,281.6 872.2,286.6 910,286.6 
	910,277.5 993.4,277.5 993.4,286.8 1050.4,286.8 1050.4,297.5 1042.1,297.5 1042.1,361.3 1050.4,361.3 1050.4,371.1 993.5,371.1 
	993.5,379.4 910.5,379.4 910.5,371.6 871.7,371.6 871.7,377.6 845.2,377.6 843.8,382.5 840.5,387.3 834.4,391 831.5,392.3 
	802.8,392.3 793.3,395.2 786.9,399.7 781.7,406.2 779.8,415.7 779.9,419.1 779.2,455.7 775.7,474.3 767.6,496.6 758.6,511.1 
	743.2,528.1 728.3,538.3 710.5,545.5 700.9,547.5 641.6,547.5 640.8,536.5 638.3,527.9 636.7,523.9 622.2,528.1 599.7,528.1 
	596,522.7 592.7,519.5 585.8,516.5 581.4,513.7 581.4,502.2 538.9,502.2 529,500.6 517,498.9 506.7,497 497.6,495.1 449.5,495.1 
	448.1,462.3 445.8,445.5 442.7,430.1 437.7,416.1 428.6,404 418.9,395.1 407.2,389.5 393,386.9 378.6,387.8 366.9,391.6 
	354.7,398.5 343.8,406.2 330.9,413.8 316.3,419.1 313.9,419.2 313.9,415.9 312,415.9 312,420 270.2,420 270.2,414.8 267.8,414.8 
	267.8,418.8 237,418.8 223.8,416.6 206.7,412.3 190.5,406.2 188.7,405.2 190.6,401.7 174.9,395.1 166.8,390.5 160.9,383.3 
	157.6,376.5 156.2,368.7 158.9,368.7 158.9,359.6 153.7,359.6 153.7,335.5 140.4,313.3 139.9,319.5 140.4,325.3 141.8,339.6 
	144.7,367.5 131,370.2 124.3,370 106.1,368.3 106.1,352.8 1,352.8 "/>
<polygon class="st1" points="479.6,144.8 501.5,144.8 501.5,27.4 465.1,27.4 465.1,29 450.7,29 447.3,30.9 443.2,34.3 441,37 
	440.5,39.8 440.5,115.9 441.7,120 444.8,122.9 448.6,125.3 453.7,126.9 462.5,126.9 462.5,118.9 479.7,118.9 "/>
<path class="st2" d="M616.2,510.7v-23.3H604V450h77.6c0,0.9-0.1,2.2-0.3,3.7c-0.4,2.7-1.2,7-4.4,13.8c-1.6,3.6-4.2,9.2-9,15.4
	c-10.8,14.1-24.5,20.1-30.4,22.6c-6.9,3-13,4.5-17.2,5.3C619,510.7,617.6,510.7,616.2,510.7z"/>
<path class="st2" d="M604.1,427v-37.5h12.5v-23.3c1-0.1,2.4-0.1,4,0c5.8,0.3,10,1.9,14.5,3.7c1.5,0.6,5.8,2.3,11,5.3
	c2.2,1.3,5.7,3.3,9.8,6.6c4.8,3.8,7.9,7.3,9.1,8.7c3.6,4.2,5.8,7.8,7.7,10.8c1.8,2.9,3.3,5.5,4.8,9.3c1.1,2.8,1.7,5.2,2.3,7.9
	c0.8,3.3,1.3,6,1.7,8.1L604.1,427z"/>
<polygon class="st2" points="563.1,473.9 563.1,401.5 524.9,401.5 520.8,400.3 516.9,398.6 513.2,396 510.6,393 509.9,390 
	509.9,383.1 510.8,379.5 512.3,375.8 514.9,372 490.3,396.4 487.1,414 485.1,414 490.6,414 490.6,466.3 496.1,466.3 496.1,470.8 
	496.7,470.8 496.7,466.2 506.8,468.2 523,470.7 539.9,473.4 "/>
<polygon class="st2" points="622,346.9 599.3,346.9 591.1,356.1 587.3,358 578.6,361.1 578.6,335.5 566.7,335.5 566.7,312.4 
	559.7,312.4 559.7,286.5 603.5,286.5 604.8,289.6 606.4,291.5 606.4,298.6 606,309.3 607.1,316.1 609.2,321.8 611.8,326.4 
	615.4,330.3 617.8,333.4 619.5,338.2 621,342.7 "/>
<path class="st2" d="M540.6,365.5V313h3.1v-26.1h-27.4v1.2l-75-22.7l-21.5,21.5c-17.4-5.2-34.8-10.5-52.2-15.7
	c2.4-7.6,4.8-15.3,7.1-22.9c-0.9-0.3-1.9-0.7-2.8-1l-9.3,26.7l36.1,36.2l26-25.2l4.5-2.5l5.1-1.8l5.8-0.2l6.3,0.4l5.1,1.8l4.2,2.2
	l4,2.7l70.1,69.1l-2.8,2.9l0.2,0.2l1.4-1.4l11.5,8h7.8c0-0.3,0-0.5,0-0.8C545.6,365.5,543.1,365.5,540.6,365.5z"/>
<rect x="944.7" y="316.5" class="st2" width="26.4" height="24.5"/>
<polygon class="st2" points="377.7,331.2 341.6,296.5 339.1,295.5 302.5,295.5 302.5,304.6 275.7,304.6 275.7,295.5 261.1,295.5 
	258.9,296.9 256.3,298.4 254.2,301.5 252.8,306.3 226.3,387.4 233,389.4 241.8,390.5 251.7,391.4 268.7,392.5 268.7,395.5 
	269.6,395.5 269.6,384.3 313.6,384.3 313.6,336.4 373.3,336.4 "/>
<polygon class="st2" points="338.4,265.9 340.7,255.8 343.3,247.2 345.7,238.9 313.1,238.9 313.1,248.6 227.3,248.6 227.3,166.3 
	179.3,166.3 179.3,190.9 203.6,190.9 214.1,232.8 214.1,285.3 201.9,328.6 178.9,328.6 178.9,361.4 171.2,361.4 171.2,367.7 
	174.3,367.7 174.4,371.6 176.3,374.5 180.9,377.4 190.2,380.8 196.8,383 198.8,376.2 201.9,366.8 205.3,356.4 208.2,347 
	212.8,332.6 218.7,315.1 224.3,298.2 228,286.4 232.1,279.5 236.1,275.6 241.1,271.4 246.4,269.1 252.8,267.2 257.6,266.6 
	276.1,266.6 276.1,258 302.7,258 302.7,266 "/>
<rect x="282.1" y="122.9" class="st2" width="6.1" height="5.8"/>
<rect x="535" y="206.9" class="st2" width="8.8" height="16.5"/>
<polygon class="st2" points="520,65 544.7,65 544.7,68.5 538,68.5 538,145.5 520,145.5 "/>
<polygon class="st2" points="324.5,86.5 350.6,86.5 350.6,148.6 307,148.6 324.5,127.9 "/>
<polygon class="st2" points="369.1,133.5 384.6,133.5 384.6,151.6 386.6,154.6 413.6,149.7 413.6,198.6 313,198.6 313,184.3 
	297.3,169.9 369.2,169.9 "/>
<polygon class="st2" points="462.6,119.5 479.6,119.5 479.6,180.3 500.6,180.3 500.6,207.4 521.6,207.4 521.6,223.5 516.2,223.5 
	516.2,212.4 473.7,212.4 473.7,180.3 455.6,180.3 455.6,147.5 462.5,147.5 "/>
<path class="st2" d="M732.3,333.7c6.9-0.1,12.8,5.5,12.9,12.5c0.1,7-5.7,12.8-12.7,12.8c-7.1,0-12.9-6-12.7-13
	C720.2,339.3,725.7,333.8,732.3,333.7z"/>
<path class="st2" d="M661.9,274.6c6.9-0.1,12.8,5.5,12.9,12.5c0.1,7-5.7,12.8-12.7,12.8c-7.1,0-12.9-6-12.7-13
	C649.8,280.2,655.3,274.7,661.9,274.6z"/>
<path class="st2" d="M786.7,280c6.9-0.1,12.8,5.5,12.9,12.5c0.1,7-5.7,12.8-12.7,12.8c-7.1,0-12.9-6-12.7-13
	C774.5,285.6,780,280.1,786.7,280z"/>
<path class="st2" d="M432.5,357.2c5.3-0.1,9.9,4.2,10,9.6c0.1,5.4-4.4,9.8-9.7,9.8c-5.5,0-9.9-4.7-9.7-10.1
	C423.1,361.5,427.4,357.3,432.5,357.2L432.5,357.2z"/>
<path class="st2" d="M269.3,205.1c5.2-0.1,9.7,4.1,9.7,9.4c0.1,5.3-4.3,9.6-9.5,9.6c-5.4,0-9.7-4.6-9.5-9.8
	C260.1,209.3,264.2,205.2,269.3,205.1L269.3,205.1z"/>
<line class="st3" x1="140" y1="254.3" x2="140" y2="279.8"/>
<line class="st3" x1="140.1" y1="294.1" x2="140.1" y2="298.9"/>
<line class="st3" x1="203.5" y1="115.7" x2="203.5" y2="119.2"/>
<line class="st3" x1="203.5" y1="132" x2="203.5" y2="166.3"/>
<line class="st3" x1="252" y1="170.6" x2="227.3" y2="170.6"/>
<polyline class="st3" points="243.5,154.9 243.5,166.3 227.3,166.3 "/>
<line class="st3" x1="274.1" y1="170.5" x2="297.9" y2="170.5"/>
<line class="st3" x1="279.2" y1="148.6" x2="307" y2="148.6"/>
<polyline class="st3" points="350.7,112 369.2,112 369.2,133.5 "/>
<line class="st3" x1="414" y1="149.5" x2="426.3" y2="147.3"/>
<line class="st3" x1="443" y1="147.5" x2="455.6" y2="147.5"/>
<line class="st3" x1="483.9" y1="145" x2="479.7" y2="145"/>
<polyline class="st3" points="497.9,145 501.5,145 501.5,40.6 "/>
<line class="st3" x1="471.5" y1="42.5" x2="501.5" y2="42.5"/>
<polyline class="st3" points="464.5,43.3 464.5,27.2 520.2,27.2 520.2,65 "/>
<line class="st3" x1="501.5" y1="29.7" x2="501.5" y2="27.4"/>
<line class="st3" x1="526" y1="180.4" x2="500.6" y2="180.4"/>
<line class="st3" x1="555.6" y1="180.5" x2="562.5" y2="180.5"/>
<line class="st3" x1="521.6" y1="207.4" x2="524.1" y2="207.4"/>
<line class="st3" x1="521.6" y1="223.5" x2="524.1" y2="223.5"/>
<line class="st3" x1="516.2" y1="223.5" x2="516.2" y2="226.4"/>
<line class="st3" x1="535" y1="206.9" x2="532.1" y2="206.9"/>
<line class="st3" x1="535" y1="223.4" x2="532.1" y2="223.4"/>
<line class="st3" x1="543.8" y1="223.4" x2="546.6" y2="223.4"/>
<line class="st3" x1="543.8" y1="206.9" x2="546.4" y2="206.9"/>
<line class="st3" x1="543.7" y1="286.9" x2="546" y2="286.9"/>
<line class="st3" x1="559.7" y1="286.5" x2="557.1" y2="286.5"/>
<line class="st3" x1="578.6" y1="361.1" x2="578.6" y2="374"/>
<line class="st3" x1="578.6" y1="365.8" x2="570.6" y2="365.8"/>
<polyline class="st3" points="563.1,401.5 579.2,401.5 579.2,394.1 "/>
<polyline class="st3" points="563.1,473.9 579.9,473.9 579.9,478.8 "/>
<line class="st3" x1="580.5" y1="499" x2="580.5" y2="502.2"/>
<line class="st3" x1="496.6" y1="491.9" x2="496.6" y2="495.1"/>
<line class="st3" x1="463" y1="487.6" x2="463" y2="495.1"/>
<polyline class="st3" points="463,473 461.6,414.4 473.2,414.4 "/>
<line class="st3" x1="313.6" y1="384.3" x2="313.6" y2="404.1"/>
<line class="st3" x1="226.3" y1="387.4" x2="222.8" y2="386.3"/>
<line class="st3" x1="197.9" y1="379.2" x2="201.8" y2="379.2"/>
<line class="st3" x1="243.5" y1="110" x2="243.5" y2="114.7"/>
<line class="st3" x1="516.2" y1="286.9" x2="516.2" y2="283.2"/>
<line class="st3" x1="313.1" y1="238.9" x2="313.1" y2="221.9"/>
<line class="st3" x1="313" y1="198.6" x2="313" y2="201.9"/>
<line class="st3" x1="344.1" y1="198.6" x2="344.1" y2="208"/>
<line class="st3" x1="383.6" y1="198.6" x2="383.6" y2="208"/>
<line class="st3" x1="875.6" y1="371.6" x2="875.6" y2="363.8"/>
<line class="st3" x1="875.6" y1="342.7" x2="875.6" y2="323.3"/>
<line class="st3" x1="875.6" y1="297.7" x2="875.6" y2="286.6"/>
<polyline class="st3" points="637.5,525.8 648.1,521.7 664.8,511.5 674.3,503.6 682.6,495.2 690.2,484.2 694.9,473.9 698.5,464.4 
	699.8,460.8 700.6,450 "/>
<polyline class="st3" points="700.6,427 699.7,418.2 695.3,406 690.5,394.6 679.6,379.7 661.1,362.8 647.4,355.3 634.2,350.3 
	622,346.9 "/>
<rect x="480.5" y="437.3" class="st4" width="10" height="6.1"/>
<rect x="464.5" y="403.5" class="st4" width="6.1" height="10.9"/>
<polygon class="st4" points="443.8,423.8 445.8,422.6 445.8,419.9 449.1,419.9 449.1,417.8 441.2,417.8 442.2,422.9 "/>
<polygon class="st4" points="358.4,393.7 354.4,387.4 359.6,384 363.8,390.8 "/>
<polygon class="st4" points="509.3,375.3 502.8,362.1 506.7,360.1 512.6,372.5 "/>
<polygon class="st4" points="476.9,324.2 486.3,315.1 479.7,308 472.7,314.2 474,316.1 464.8,316.1 464.8,320 474.7,320.2 "/>
<polygon class="st4" points="543.7,286 549,274.3 543.3,272.2 537.2,286 "/>
<polygon class="st4" points="478.7,224.2 471.2,220.1 475.6,212.7 481.3,212.7 "/>
<rect x="369.9" y="122.1" class="st4" width="5.1" height="10.6"/>
<polygon class="st4" points="406.3,96.1 405.7,99.7 402.1,101.6 397.9,99.1 397.1,95.4 399.5,91.5 403.3,91.5 404.8,92 417.3,83.2 
	420.3,87.3 "/>
<polygon class="st4" points="380.7,70.4 378.8,68.3 378.8,65.2 380.3,63.3 382.7,62 385.1,62.3 387.2,63.7 388.1,65.4 387.8,68.3 
	386.6,70.4 385.8,70.7 385.4,86.5 379.9,86.5 "/>
<line class="st5" x1="385.5" y1="20.8" x2="398.8" y2="24.1"/>
<line class="st5" x1="402.9" y1="25.2" x2="407.4" y2="25.7"/>
<polygon class="st4" points="430.7,21.9 438.4,21.9 438.4,9.7 430.5,9.7 "/>
<polygon class="st4" points="464.1,118.9 459.1,104.4 471,98.9 472.7,102.4 465.9,105.8 468.7,118.9 "/>
<polygon class="st4" points="481,99.2 479.1,96.1 501.5,85.7 501.5,93.7 "/>
<polygon class="st4" points="446.6,110 449.7,107.9 444,98.9 441.1,100.9 "/>
<path class="st4" d="M455.7,84.4l-5,0.3l-3.3-1.1l-1.9-2.7l0.3-4.9l2.4-3.2l3.3-1.8l4-0.4h1.4V73c0,0-1.2,0-1.5,0s-0.6,1.5-0.6,1.5
	l1.5,0.6l0.6,2.8l5.4,0v5.6l-6.4-0.4L455.7,84.4z"/>
<polygon class="st6" points="779.2,454.5 769.2,443.5 764,437.7 753.4,433.7 738.7,431.2 728.4,426.8 720.1,417.8 714.3,403.9 
	709.7,391.3 702.7,379.2 693.5,366.8 685.4,357.8 673.5,348.9 659.7,341.3 646.3,336.1 636.1,332.5 624.9,324.1 616.5,312 
	614,299.9 614.9,283.9 617.2,268.4 617.3,251.7 614.6,237.9 611,231.5 606.9,225.8 605.4,224.3 605.4,195.3 612.7,199.4 
	619.4,204.1 627.3,212.1 631.1,218.2 635.6,227.5 638.1,236.1 639.4,243 639.2,252.9 636.5,266.6 633.2,283.5 632.2,290.3 
	632.3,300.5 635.1,307.8 642.4,315.7 651.2,321.5 670.9,331.5 679.1,335.8 687.6,342.2 696.6,349.2 706.8,361.1 720.2,377.3 
	725.6,380.4 733.2,381.9 740.7,381 749.5,378.1 762.7,373.6 771.9,372.7 784,375.6 789.9,380.4 796.7,387.8 800.3,393.1 
	793.3,395.2 786.9,399.7 781.7,406.2 779.8,415.7 "/>
<polygon class="st6" points="590.8,518.7 608.2,501.3 604.3,497.2 586.7,515.1 "/>
<rect x="601" y="428" class="st6" width="11.9" height="21.1"/>
<polygon class="st6" points="604.5,379.2 609.1,374.5 590.8,357.3 585.8,360.3 "/>
<polygon class="st6" points="367.4,257.1 371.3,246 347.1,237.8 343.2,250.1 "/>
<polygon class="st6" points="432.2,247.7 413.4,241.4 426.2,203.4 444.3,209.2 "/>
<polygon class="st6" points="419.4,183.2 449.3,183.2 449.3,171.5 419.4,171.1 "/>
<polygon class="st6" points="279.2,169 336.2,169 336.6,149.7 279.2,149.7 "/>
</svg>
