<?xml version="1.0" encoding="utf-8"?>
<!-- Generator: Adobe Illustrator 27.3.1, SVG Export Plug-In . SVG Version: 6.00 Build 0)  -->
<svg version="1.1" id="Discord.gg-_x40_marazm" xmlns="http://www.w3.org/2000/svg" xmlns:xlink="http://www.w3.org/1999/xlink"
	 x="0px" y="0px" viewBox="0 0 977.1 977.1" style="enable-background:new 0 0 977.1 977.1;" xml:space="preserve">
<style type="text/css">
	.st0{fill:#555555;}
	.st1{fill:#363636;}
	.st2{fill:none;stroke:#987F00;stroke-width:10.667;}
	.st3{fill:none;stroke:#987F00;stroke-width:4.444;}
</style>
<g transform="matrix(-1 0 0 -1 977.1 977.1)">
	<g>
		<path d="M610,139.5v10.9H478.5v136.7h-8v272.5h7.9v134.1H610v12.8h143.4V579.3h37.8l4.8-20.6V285.9l-4.8-19.2h-37.8V139.5H610z"/>
		<path class="st0" d="M778.5,559.3h-54.8v134.5H611.3v11.5h140.9V689h1.2v-11.8h-1.2v-99.1h26.5v1.2h11.5v-1.2l4.5-20V449.5h-16.2
			L778.5,559.3L778.5,559.3z M611.2,150.7h112.6v136.2h54.7v110h16.2V286.1l-4.5-18.1v-1.2h-11.5v1.2h-26.6v-99h1.2v-12h-1.2v-16.2
			H611.2V150.7z"/>
		<path class="st1" d="M708.1,150.7v1.2H685v6h-1.7v-6h-27.9v5h-1.7v-5h-10.4v0.5h-1.7V152h-4.2v8.4h-1.7V152H608v7.3h-1.7V152H589
			v1.3h-1.7V152H566v3.4h-1.7V152h-13.9v6.4h-1.7V152H529v10.7h-1.7V152h-16.7v0.7h-1.7V152h-14.2v0.7H493V152h-12.5v21.6h9.9V160
			h1.7v0.8h9V160h1.7v2.5h-10.7v12.8h-11.6v2.2h22v4.5l1.6,4h11.6v1.7h-12.8l-1.9-4.8v20.3l1.9-4.4h12.8v1.7h-11.6l-1.6,3.5v4H480
			v32.4h29.8v1.7h-28.5v10.4h2.5V250h1.7v4.2h-4.2v3h6.4v-10h1.7v0.8h10.8v1.7h-1.6v0.7h-1.7v-0.7h-7.5v13.6h7.5v-10.8h9.1v11.6h8.7
			v-14.4h-9.6V248h9.6v-5.9h-0.8v-1.7h2.5v15.5h5.2v3.5h-1.7v-1.8h-3.5v8.3H506v6.8h13.9v-8.4h1.7v10.1h-8.8v3.4h-26.3v4.1h26.3v2.8
			H530v3.9h-37.6v7.9l-9.1,5v9.7h-1.7v-10.7l9.1-5v-6.9h-18.5v85h9.4v-0.9h1.8l-0.1,15.6h-1.7v-13h-5.3v6.2h-2.7v-1.7h1v-4.5h-2.4
			v25.4h9.4v-7.9h1.7v7.9h2.2v13.9h2.8v1.7h-13v-1.7h8.4v-12.2h-11.6v5.6l0,0v0.1h-6.7v3.4l-2.7,4.9v15l2.7,3.7v3.7h5.5l4-8.3h13.5
			v1.7H476l-3.8,7.8v3.7h11.1v9.1h-1.7v-7.4h-9.4v25.7h9.4v-13.8h1.7v31.1h-1.7v-15.6h-9.4V515h9.4v-12.9h1.7v23.3h-1.7v-8.7h-9.4
			V558h18.5v-6.6l-9.1-5.7v-6.3h1.7v5.4l9.1,5.7v7.6h31.8v3.7h-24.3v7.2h16.5v1.7h-16.8v11.9h16.8v1.7H500v5.4h-1.7v-0.6h-9v7.6
			h-2.1V595h0.4v-5.9H480v5.9h5.4v1.7H480v1.8h1.9v1.7H480v3.9h3.3v-4.7h1.7v4.7h4.1v-3.9h-1.8v-1.7h3.6v8.8H489v-1.5h-9.1v7.5h9.1
			v-3.9h1.7v8.1H489V615h-9.1v8h9.1v-3.4h1.7v7.7H489v-2.6h-9.1v6.5h9.1v-2h1.7v2h0.5v1.7h-11.3v7.8h2.1v1.7h-2.1v32.8h4.5v0.1h10.2
			v1.7h-4.1v4.2h-1.7V677h-4.4v9h13.5v-9h-1.4v-1.7h3.1v12.4h-6.7v1.1h-1.7v-1.1h-6.9l0,0h-4.5v4.7h11.4v-2h1.7v2h10.7V677h1.7v15.4
			h154v-35.1h1.7v14.6h8.1v-14.6h1.7v14.6h7.6v-14.6h1.7v14.6h1.4v1.7h-20.6v18.8h61.4V673l7-7l-3-3l-4,4v-2.7l7-7l-3-3l-4,4v-2.6
			l7-7l-3-3l-4,4v-2.8l7-7l-3-3l-4,4v-2.7l7-7l-3-3l-4,4V629l7-7l-3-3l-4,4v-2.7l7-7l-3-3l-4,4v-2.7l7-7l-3-3l-4,4v-29.5h1.2v-10
			h-1.2v-3.9h-25.6v9.9H695v-0.7h-0.9v-1.7h0.9v-7.5h-3.4v7.5h0.4v1.7h-0.4v9h-20.7v0.7h-1.7v-2.5h3.7V578h1.7v0.6h3.8v-4h1.7v4h9.8
			v-7.3h-17v-6h1.7v4.3h15.3v-7.5h-9.8v4.7h-1.7v-4.7h-3.8v0.6h-1.7v-0.6h-11.8v3.2h-1.7v-3.2h-15v-1.5h-6v5.6h-26.1v4h26.1v5.5
			h-27.8v-15.1h-29.4V558h0.1l0,0h17.1v-0.9h49.1v-1h1.1v-11h1.7v2.8h7.1v1.7h-7.1v6.4h6.2v-3h-4.1v-1.7h5.8v4.7h1.8v-6.4h-0.7V548
			h0.7v-7.5h7.5v-15.8h-4.2V523h4.2v-14h-2.8v-1.7h3.3l0,0h2.6v50.8h53v-45h14.2v1.7h-12.5v13h24.4v-7h1.7v8.7h-26.1V558h38.2v1.2
			h8.4V558h5.2V448.2h3.6v1.3h9.8v-1.3h3v-16.4h-6.8v-3.2h1.1v2h5.7v-13.9h-5.7v8.2h-1.1v-9.7h6.8v-17.1h-3v-1.2h-9.8v1.2h-3.6v-110
			H772v-1.3h-8.4v1.3h-38v28.6h26v8.5h-1.7v-6.8h-24.3V331h16.7v1.7h-18.4v-44.6h-54.6v49.6h-1.9v-15h-3.8V321h3.8v-15.7h-7.6v-14.4
			h-2.2v4.4h-5.2v-1.7h3.4v-2.7h-6.5v5.6h7.6v1.7h-7.6v2.4h-1.7v-9.8h-13v-1.3h-34.1v1h-1.7v-2.4h-29V288l0,0v-3.4l0,0v-0.1h2v-3.3
			h1.7v3.3h19.1V277h1.7v7.5h40V277h1.7v7.5h17.6v-5.9h1.7v5.9h27.9v-5.9h1.7v5.9h37.6v-3.3h1.3v-8.7h-1.3v-31.7l3.8,3.8l3-3
			l-6.8-6.9V232l3.8,3.8l3-3l-6.8-6.9v-2.7l3.8,3.8l3-3l-6.8-6.9v-2.7l3.8,3.8l3-3l-6.8-6.9v-2.7l3.8,3.8l3-3l-6.8-6.9v-2.8l3.8,3.8
			l3-3l-6.8-6.9V188l3.8,3.8l3-3l-6.8-6.9v-2.7l3.8,3.8l3-3l-6.8-6.9V152h-5.7v-1.2L708.1,150.7z M508.9,154.2h1.7v2.4h-7.9v1.2H501
			v-1.2h-9v0.6h-1.7v-2.4h18.6V154.2z M518.6,156.3h5.9v6.3h-1.7V158h-4.2V156.3z M587.3,157.2h1.7v7.2h17.2v-2.3h1.7v4.1h-35.4
			v-4.9h-8.3v-2.9h1.7v1.2h8.3v4.9h13L587.3,157.2L587.3,157.2z M515.7,161.1h1.7V178h-1.7V161.1z M683.3,161.1h1.7v2.1h-1.7V161.1z
			 M683.3,166h1.7v8.4h12.4v87.9H685v7.3h-1.7v-9h12.4v-84.4h-12.4V166z M653.6,166.6h1.7v102.9h-1.7v-20.2h-35.9v-1.7h35.9v-16.1
			h-10.5v-1.7h10.5V166.6z M624.1,171.1h13.1v43.8h-1.7v-12h-9.7v-1.7h9.7v-28.4h-11.3L624.1,171.1z M548.6,172h1.7v4.3h6.7v1.7
			h-6.7v1.9h-1.7V172z M610.6,173.6h6.1v1.7h-4.4V212h9.5v1.7h-9.5v25.6h-1.7v-25.6H601V212h9.5v-31.2h-8.9v-1.7h8.9L610.6,173.6z
			 M564.1,176.3h6.9v2.8h23.5v1.7H588v9.6h-1.7v-9.6H571v9.6h-1.7V178h-5.2V176.3z M530.9,177.4h4.2v3.8h-4.2V177.4z M569.3,195.5
			h1.7v8h30v1.7h-30v24.6h6.7v1.7H571v16.1h30v1.7h-14.7v16.9h10.3v1.7h-12v-12.5l-3.8-6.1h-11.5V195.5z M531,204.6h4.2v3.8H531
			V204.6z M503.7,231.8h4.2v3.8h-4.2V231.8z M548,249.7h1.7v7.1l8.6,7.3H573v3.7h-2.6v-2.1h-13.2l-9.4-8.1L548,249.7z M610.9,258.1
			h1.7v8h22v-7.5h1.7v7.5h5.7v1.7h-26.4v6.5h-1.7v-6.5h-10v-1.7h6.9L610.9,258.1L610.9,258.1z M530.9,259.1h4.1v3.7h-4.1V259.1z
			 M683.3,273.4h1.7v2.3h-1.7V273.4z M548.6,282.8h5.1v5.3h-5.1V282.8z M550.3,284.5v1.8h1.6v-1.8H550.3z M480.5,291h1.7v2.3h-7.8
			v-1.7h6.1L480.5,291L480.5,291z M635.3,294.4h1.7v1.3h5.9v32.6h17.5v9.4h-1.6v15.1h-22.9v-24.6h-44.8v4.8l2.1,2.1l-1.1,1.1
			l-2.4-2.4H577l-2.4,2.4l-1.3-1.4l1.8-1.8v-4.8h-30.9v15.1H560v1.7h-17.5v-43.7h56.3v-6.7h1.7v1h9.9v1.7h-1v0.6h-1.7v-0.6h-7.2v3.8
			h5v1.7h-5v9.8h7.7V300h10.4v12.8h7.2V303h-4.9v-1.7h4.9v-3.8h-7v0.6H617v-0.6h-0.7v-1.7h13.2v1.7h-0.8v7.2h4.6v-7.2H631v-1.7h4.3
			V294.4z M647.6,303.1h1.7v0.5h7.6v1.7h-0.5v6.8h-3.1v-1.7h1.3v-5.1h-5.4v5.1h1.6v1.7h-1.6v1.9h-1.7v-9.6v-1.3H647.6z M494,305.3
			h11.1v1.7h-9.4v11.5h31V307H518v-1.7h10.4v53.1h-2v-1.7h0.3v-10h-14v10h10.2v1.7l-28.9,0.1v-24.6h1.7v9.2h13.5v-21.3h-13.5v7.9
			H494v-10.6V305.3z M509.6,305.3h3.5v1.7h-3.5L509.6,305.3z M481.6,315.7h1.7v11.8h-1.7V315.7z M647.6,316.6h1.7v4.4h11v1.7h-12.8
			L647.6,316.6z M749.8,329h1.7v2h10.2v26.8H760v-25.1h-10.2V329z M745.5,331h1.5v1.7h-1.5V331z M481.6,332.1h1.7l0.1,16.4h-1.7
			L481.6,332.1z M473.6,340.6h2.7v8h-2.7v-1.7h1v-4.5h-1V340.6z M582.4,344.6h4.2l3.4,3.4v6.8l-2.9,2.9h-5.8l-3.3-3.3l1.2-1.2
			l2.8,2.8h4.3l1.8-1.9v-5.3l-2.4-2.4h-3.5v-1.8H582.4z M579.6,345.5l1.2,1.2l-2.2,2.2l-1.2-1.2L579.6,345.5z M481.7,352.4h1.7v15.5
			h-1.7V352.4z M600.6,356.6h22.2v10.1h-1.7v-8.4h-19.8l-2.2,2.2l-1.2-1.2L600.6,356.6z M635.9,358.1h22.9v10.1h-1.7v-2h-19.4v1.7
			H636L635.9,358.1z M541.8,358.5h11v1.7h-9.2v2.3h-1.7L541.8,358.5z M555.8,358.5h10.6l5.4,5.5l-1.2,1.2l-4.9-4.9h-9.9L555.8,358.5
			z M760,363.4h1.7v17.4H760V363.4z M541.8,365.2h1.7v7.3H575v-3.3l-1.9-1.9l1.2-1.2l2.4,2.4v31.7H575v-8.1h-28.6v22.4h8.3v1.7H536
			v-1.7h6.4v-22.4h-46.8v22.4h7.8v1.7H494V372h9.6v1.7h-7.8v15.9h30.7v-15.9h-7.9V372h23.3L541.8,365.2z M591.8,366.1l1.2,1.3
			l-2,1.9v7.8h30.1v-4.2h1.7v37.2h-33.6v-8.8h1.7v7.1h11.7v-13.1h-13.4v-2.6H604v-11.8h-13v6.6h-1.7v-18.9L591.8,366.1z M510.4,372
			h2.5v1.7h-2.5L510.4,372z M635.9,372.9h1.7v2.9H657v-2.9h1.7V402l-2.6,2.5l-1.2-1.2l2.1-2V400h-21.2L635.9,372.9z M760,386.9h1.7
			v13.5h-17v7.3H743v-9h17V386.9z M575.1,406.2h1.7v10h-7.9v-1.7h6.2V406.2z M510.4,414.5h19.9v1.7h-19.9V414.5z M559.3,414.5h3.7
			v1.7h-3.7V414.5z M633.2,416.1l1.2,1.2l-1,1v7.1h0.4v1.7h-2.1v-9.5L633.2,416.1z M636.7,416.1l1.5,1.5v9h1v3.5h-1.7v-3h-1.4v-1.7
			h0.4v-7.1l-1-1L636.7,416.1z M743.1,417.2h1.7v11.4h-1.7V417.2z M643.2,424.8h10v7.1h15.1v1.7h-16.8v-7.1h-8.3V424.8z M494,430.6
			h9.6v1.7h-7.8v9.1H494V430.6z M510.4,430.6h19.1v1.7h-19.1V430.6z M535.6,430.6h17.8v1.7h-6.8v22.4h28.8v-8.4h1.7v19.5h-1.7v-8.4
			h-46.6v17.2h-10.4v-1.7h8v-15.5h-30.5v15.5h7.8v1.7H494v-28.2h1.7v8.4h47.4v-22.4h-7.6L535.6,430.6z M557.3,430.6h6.5v1.7h-6.5
			V430.6z M568.2,430.6h8.8v9.6h-1.7v-7.9h-7.1V430.6z M644.2,433.5h1.7v7.2h-1.7V433.5z M637.5,434h1.7v3.3h-1.7V434z M589.2,435.6
			h21.4v1.7H607v28.5h14.2v-15.3h1.7v23.8h-1.7v-6h-30.3v9.6l2.8,2.8l-1.2,1.2l-3.3-3.4v-27.7h1.7v14.9h14.3v-28.5h-14.3v8.4h-1.7
			V435.6z M614.2,435.6h8.7v9.4h-1.7v-7.7h-7V435.6z M743.3,438.7h1.7v6.1h16.8v70.1h-10.2v2.3h-1.7v-2.3h-4.5v-1.7H760v-66.6h-16.8
			L743.3,438.7z M651.5,439.5h16.8v1.7h-15.1v6.7h5.6v3.9h-1.7v-2.2h-6.8v-1.7h1.2V439.5z M637.5,442.3h1.7v3.5h-1.7V442.3z
			 M635.9,447.8h9.6v1.7h-7.8v2.2H636L635.9,447.8z M635.9,456.3h1.7v1.5h19.5v-1.5h1.7v16.9h-8.9v3.3h7.8v1.7h-7.8v7.4h7.8v1.7
			h-4.4v5.1h4.4v1.7h-4.4v5.3h4.4v1.7h-4.4v6.1h6l0,0h2.4v1.7h-1.6v9.7H643V550h-9.7v-8.7h-4.6v8.7h-3.3l0,0h-9.1v-1.7h9.1v-2.9
			h-4.8v-1.7h4.8v-9.4h-6.5V547h-11.5v-12.8h-6.5v9.4h4.4v1.7h-5v2.9h9.9v1.7h-9.9v0.9h-1.7v-5.2h-1.8l0,0h-5.5v-1.7h5.3v-22.7
			h-54.9v-8.1h1.7v3.8H576v-4.6l-3.3-3.3l1-1l3.2,3.5h12l4-4.1l1,1l-1,0.9v1.8h5.2v3.3h-1.7V513h-3.5v5.2h3.5v-1.3h1.7v1.3h37.5V503
			h-6.5v-1.7h6.5L635.9,456.3z M575.3,471h1.7v7.1l-10,9.8h-8v-1.7h7.2l9-8.8L575.3,471L575.3,471z M508.5,472.8h4.5v1.7h-4.5V472.8
			z M535.6,472.8h8v13.4h9.8v1.7h-11.5v-13.4h-6.2L535.6,472.8z M621.2,478.6h1.7v10.3h-23.8l-3.1-3.1l1.2-1.2l2.6,2.6h21.3
			L621.2,478.6z M494,487.8h11.2v1.7h-9.5l-0.1,9.5h30.8l0.1-9.5h-8.8v-1.7h10.5v10.5l0,0v32.8h-1.7v-3h-30.8v10.8h8.7v1.7H494
			v-24.8h1.7v8.5h14.7v-21.6h-14.7v8.1H494V487.8z M509.7,487.8h3.3v1.7h-3.3V487.8z M578.5,490h1.7v2.5l-1.3,1.3v7l-0.9,0.9
			l1.6,1.6h7.1l1.1-1.1l-2-2l1.7-1.7V490h1.7v9.1l-1,1l2,2l-2.9,2.8H579l-3.3-3.3l1.6-1.6v-7l1.3-1.3L578.5,490z M541.8,501.2h22.5
			v1.7h-20.7v3.9h-1.7L541.8,501.2z M599.8,501.2h24.9v1.7h-24.9V501.2z M648.6,523h12.3v1.7h-10.5v3.7h-1.7L648.6,523z
			 M541.9,525.8h1.7v18.1h9v1.7h-10.8L541.9,525.8z M648.6,531.2h1.7v2.4h0.6v1.7h-0.6v4.9h4.1v-4.9h-1.1v-1.7h2.8v6.7h1.3v1.7h-7.1
			v0.2h-1.7v-7.7V531.2z M526.5,535h1.7v5.6h-10.5v-1.7h8.8V535z M509.3,538.9h4.1v1.7h-4.1L509.3,538.9L509.3,538.9z M567.5,543.9
			h6.3v1.7h-6.3V543.9z M659.4,567.6h1.7v11.7h-1.7V567.6z M672.9,572.8h1.7v3.3h-1.7V572.8z M695.1,575.5h1.7v98.2h-5.9V672h4.2
			v-38h-5.2v-1.7h5.2v-46.4h-0.9v-1.7h0.9V575.5z M659.4,582.3h1.7v50.1h21.5v1.7h-2.3v15.2h-1.7v-15.2h-17.5v15.6h-1.7V582.3z
			 M669.2,583.5h1.7v0.7H692v1.7h-0.4v3h-1.7v-3h-11.2v19.6h11.2v-14.3h1.7v29.6h-1.7v-13.6h-11.3v19.7h11.3v-3.7h1.7v5.4H664v-35.5
			h1.7v12.3H677v-19.5h-11.2v4.7h-1.7v-6.4h5.1L669.2,583.5z M527.2,588.4l1.2,1.2l-6.8,6.8l-1.2-1.2L527.2,588.4z M498.2,592.6h1.7
			v3h-4.6v6.1h3.6v1.7h-3.6v5.4h3.6v1.7h-3.6v5.6h3.6v1.7h-3.6v5.6h3.6v1.7h-3.6v5.2h3.6v1.7h-3.6v0.9H493v-1.7h0.7v-37.3h4.6v-1.3
			H498.2z M513.8,602l1.2,1.2l-1.7,1.7v31.2h-1.7v-31.9L513.8,602z M685.1,632.3h2.1v1.7h-2.1V632.3z M669.2,638.7h1.7v10.6h-1.7
			V638.7z M484.6,640.7h10.5v5.5h16.5V642h1.7v5.9h-8v26h-1.7v-5.4h-18.3v-22h1.7v6.7h6.3v-0.8h1.7v4h0.4v1.7h-2.1v-3.2H487v11.9
			h16.5v-8.6h-5.7v-1.7h5.7V648H495v2.3h-1.7v-7.8H487v0.9h-1.7v-0.9h-0.8L484.6,640.7z M685.1,672.1h2.1v1.7h-2.1V672.1z"/>
		<g>
			<path class="st2" d="M583.4,493.2v10.6"/>
			<path class="st3" d="M519.2,298.7H506 M580.3,290.8h11.9 M515.7,279.7h-29.4 M500.8,193.2h15.9 M637.9,567.9h-25.7 M499.7,576.9
				H516 M519.1,548.1h-13 M474.6,423.4H491 M510,423.4h12.9 M568,423.3h-13 M599,423.4h13.2 M789.5,417.1v12.6 M580.8,554h12.5"/>
		</g>
	</g>
</g>
</svg>
