<?xml version="1.0" encoding="utf-8"?>
<!-- Generator: Adobe Illustrator 27.3.1, SVG Export Plug-In . SVG Version: 6.00 Build 0)  -->
<svg version="1.1" id="Discord.gg-_x40_marazm" xmlns="http://www.w3.org/2000/svg" xmlns:xlink="http://www.w3.org/1999/xlink"
	 x="0px" y="0px" viewBox="0 0 977.1 977.1" style="enable-background:new 0 0 977.1 977.1;" xml:space="preserve">
<style type="text/css">
	.st0{fill:#212121;}
	.st1{fill:#131323;}
	.st2{fill:#555555;}
	.st3{fill:none;stroke:#333333;stroke-width:8;}
	.st4{fill:none;stroke:#333333;stroke-width:12;}
	.st5{fill:#262626;}
	.st6{fill:#363636;}
	.st7{fill:none;stroke:#987F00;stroke-width:4.446;}
	.st8{fill:none;stroke:#987F00;stroke-width:10.671;}
	.st9{fill:#777777;}
	.st10{fill:none;stroke:#000000;stroke-width:2;}
</style>
<g transform="matrix(-1 0 0 -1 977.1 977.1)">
	<g>
		<path class="st0" d="M816.1,530.6l2.1,4.6h40.2l0.2,61.4l92.6,41.1l0.1,27.5l23.5,13.9v90.8l-38,9.4l-36.7,7.4l-96.4,5.4
			l-71.8,4.5l-68,10.6L618.5,820l-38.4,17.5l-52.9,29l-49.8,30.9l-17.2,9.9l-13.9,6.2l-25.2,2.7l-161.4,0.1l0.1-23.9l6.6-7.6
			l6.1-536.4l-89.9,1.3l-46.8-1l-0.4-22.5l-5.9-22l-7.4-11.2L104,279.3l-33.3-24.1L39,222.9l-23.8-38.6L3.5,140.9L1.8,28.5
			l32.1-13.7L33.8,2.1L92.7,2v12.8l10.6,8.5l139.6,0.9l10.3-9.6V2.2L333.7,2v12.3l10.6,9.6l294.4-2.7v22l-3.3,21.9l0.7,27.6
			l37.9,0.1l15.3,15.4h55.2l-0.1-43.9l4.9-2.6l11-12.2l32.5-0.1l49.2,2.2L859.7,69l0.2,145.3l-32.4,0.1L816,225.9l-0.1,64.7l2.8,6.1
			l0.2,59.4l-3.4,2.1l0.6,73.1l9.5,6.3l0.1,51.9h-4.5l-5,2.7L816.1,530.6z"/>
		<path class="st1" d="M190.2,334.2c3.4-0.2,6.9-1.5,9.6-3.6c1.4-1.1,3.4-2.6,3.1-4.4c-0.4-2.9-5.2-3.1-7-5.4
			c-1.2-1.5-2-3.4-2.4-5.2c-0.2-1,0.4-2,0.1-3c-0.4-1.7-1.9-2.9-2.5-4.5c-1.1-3-0.7-6.5-2.1-9.4c-0.9-1.8-2.8-3-4-4.6
			c-0.8-1.1-0.9-3.2-2.2-3.6c-1.6-0.5-3.3,1-4.6,2c-2.3,1.8-4.3,4.1-5.4,6.9c-0.7,1.9-0.7,4.1-0.4,6.1c0.7,3.5,3.3,6.4,4.5,9.9
			c0.6,1.8,0.6,3.8,1.2,5.6c1.1,3.4,2.2,7,4.5,9.7c0.9,1.1,2.2,2,3.5,2.6C187.5,333.9,188.8,334.3,190.2,334.2L190.2,334.2z
			 M166.6,287.3c2,0,3.9,1.7,5.9,1.5c1.5-0.1,2.8-1.2,4.1-1.9c1.5-0.7,2.8-1.7,4.4-2.1c2.3-0.6,5.2,1,7-0.5c1.3-1.1,1.8-3.4,1.2-5
			c-0.4-1.2-1.8-1.8-3-2.4c-2.3-1.1-4.8-1.5-7.4-1.6c-4.4-0.2-9.2-0.3-13.1,1.7c-1.8,1-3.7,2.7-4.1,4.7c-0.3,1.6,0.6,3.2,1.4,4.6
			c0.4,0.6,0.8,1.3,1.5,1.5C165.2,288.1,165.9,287.3,166.6,287.3L166.6,287.3z M143.5,251.9c-2.4-1.6-5.7-3.5-8.3-2.3
			c-2.3,1-3.8,4.4-3.2,6.9c0.4,1.9,3.4,2,4.5,3.6c1.1,1.7,0.8,3.9,1.6,5.7c0.4,0.9,0.9,1.9,1.7,2.5c2.1,1.5,5.4,0.6,7.6,2.1
			c1.9,1.3,2.2,4.2,4.1,5.5c1.7,1.1,4.4,2.5,6.1,1.4c1.5-1,0.5-3.6,1-5.4c1.1-3.5,5.4-6.3,4.6-9.9c-0.3-1.4-1.8-2.3-3.1-2.7
			c-3.1-1-6.7,2.4-9.7,1.2C147,259,146.6,253.9,143.5,251.9L143.5,251.9z M195.1,238.7c-1.5,0.2-2.9,1.3-3.6,2.6
			c-0.4,0.8-0.4,1.9,0,2.7c0.5,1,1.7,1.3,2.5,2c1.1,1.1,1.8,2.7,3.1,3.6c0.9,0.7,2.1,1.3,3.2,1.2c0.8,0,1.7-0.4,2.2-1
			c0.6-0.8,0.8-1.9,0.6-2.9c-0.3-1.7-2.5-2.5-3-4.1c-0.2-0.7,0.4-1.6,0-2.2C199.2,239.1,196.9,238.4,195.1,238.7L195.1,238.7z
			 M148.9,235.6c-1.6-0.1-3.8,0.6-4.5,2.1c-0.9,1.8,0.6,3.9,1.1,5.8c0.5,1.7,0.6,3.9,2.1,4.9c1.9,1.3,5.2,1.9,6.9,0.3
			c2.2-2,1.7-6.3,0.4-8.9C153.8,237.5,151.3,235.8,148.9,235.6L148.9,235.6z M374.5,73.2c0,2,1.1,4.3,2.8,5.5
			c1.6,1.1,4.1-0.4,5.7,0.6c0.8,0.5,0.8,1.9,1.5,2.6c2.1,1.6,5,2.2,7.6,2.4c1,0.1,1.9-0.6,2.9-0.5c0.8,0.1,1.3,1.3,2,1.1
			c1.2-0.3,2-2,2-3.3c-0.1-1.7-2.8-2.5-3-4.2c-0.1-1,0.6-1.9,1.1-2.7c0.7-1.1,1.6-2.3,2.8-2.8c1.4-0.6,3.2-0.5,4.6,0
			c0.8,0.3,1.3,1.2,2.1,1.5c1,0.4,2.2,0.3,3.2,0.3c3.6,0,7.6,0.9,10.7-0.8c0.9-0.5,1.9-1.4,1.8-2.4c-0.3-3.1-4.7-4.1-6.9-6.3
			c-0.6-0.6-1-1.5-1.8-2c-0.9-0.5-2.4,0.2-3-0.6c-0.8-1.1-0.3-2.9,0.3-4.2c0.7-1.5,1.9-3.4,3.6-3.6c0.8-0.1,1.4,1.7,2.2,1.3
			c1.5-0.6,1.5-3.1,1.1-4.6c-0.3-1.4-1.2-3.3-2.6-3.5c-1.2-0.2-2.1,1.4-2.9,2.4s-1,2.3-1.8,3.3c-0.6,0.8-1.3,1.8-2.3,2s-2-0.7-3-1
			c-1.6-0.5-3.3-1.9-4.8-1.3c-1.5,0.5-1.7,2.6-2.7,3.8c-1.1,1.4-2.1,2.8-3.5,3.9c-1.2,1-2.7,1.7-4.1,2.3c-1.6,0.7-3.3,1.7-5.1,1.6
			c-1.4,0-2.9-0.4-3.8-1.5c-0.8-0.9,0.2-2.8-0.7-3.4c-1.2-0.8-3.3-0.3-4.4,0.7c-1.2,1-2.2,2.9-1.7,4.4c0.4,1,2.5,0.5,3,1.5
			c0.4,0.8-0.2,1.7-0.5,2.6C376.4,69.9,374.5,71.3,374.5,73.2L374.5,73.2z M438.4,52.8c-0.6-0.6-0.6-1.8-0.2-2.6
			c1.1-2.3,4-3.2,6.4-4c1.2-0.4,2.5-0.4,3.7-0.5c2.4-0.1,4.8,0.5,7.3,0.4c2.1,0,4.2-0.9,6.3-0.7c1,0.1,2.4,0.2,2.9,1.1
			c0.3,0.6,0,1.4-0.2,2c-0.8,1.7-2.9,2.4-4,4c-0.7,0.9-1.1,2-1.5,3.1c-0.3,0.9-0.3,1.9-0.7,2.8c-0.4,1-1.3,1.9-1.4,3
			c-0.1,1.6,0.3,3.3,1.3,4.5c0.5,0.7,1.7,0.6,2.2,1.2s-0.1,1.7,0.5,2.2c0.3,0.3,0.8,0.1,1.2,0.1c0.4,0,0.9-0.4,1.3-0.2
			c1.3,0.4,2.2,1.6,2.9,2.6c0.6,0.9,1.5,2,1.2,3c-0.3,0.8-1.6,0.6-2.1,1.3c-0.5,0.8-0.1,1.8-0.2,2.7c-0.1,1.3,0.1,2.8-0.5,4
			c-0.4,0.9-1.1,1.8-2.1,2c-2,0.5-3.8-2-5.8-1.8c-0.6,0.1-1,0.8-1.6,0.8c-1.5,0.1-2.9-1.7-4.4-1.3c-2.5,0.6-3.2,5.5-5.8,5.2
			c-1.5-0.2-1.1-3-2.4-3.7c-1.1-0.6-2.5,0.5-3.6,0.1c-0.8-0.3-1.2-1.2-1.9-1.5c-1.2-0.5-3.3,0.5-3.8-0.7c-0.9-2.1,1.7-4.7,3.6-5.9
			c0.8-0.5,2,0.2,2.7-0.2c1.7-1.1,2.7-3.3,3.1-5.3c0.1-0.6-0.3-1.2-0.2-1.7c0.6-4,4.2-7,5.4-10.9c0.3-0.9,0.8-2,0.4-2.9
			c-0.3-0.9-1.2-1.4-2.1-1.8c-1.1-0.5-2.5-0.4-3.7-0.5C441.2,52.6,439.4,53.7,438.4,52.8L438.4,52.8z"/>
		<path class="st2" d="M753.2,139.4H609.9v10.7H478.4v136.2h-8v272.8h7.9v117.7h-1.9v18.9h18.7v-2.2H610v13h143.3V579.3H791
			l4.7-20.1V286.1l-4.7-19.4h-37.8V139.4z"/>
		<g>
			<g>
				<path class="st3" d="M298,792.2c14.5-25.8,42.6-30.6,61.5-51.1"/>
				<path class="st3" d="M379.8,716.5c0.2,12.6-14.1,26.2-26.7,26.1c-12.3-0.2-24.7-12-24.5-26.1c0.2-13.1,10.3-24.8,24.1-24.9
					C367.3,691.5,379.6,704.3,379.8,716.5z M302,612.6c0.2,11.5,12.6,26.3,26.8,26.6c12.9,0.3,30.4-12.7,31.5-22.7"/>
				<path class="st3" d="M359.9,691.1c1.3-372.3,1-539.2,0.9-545.5c0-6.3,0.7-9.9,2.6-12.6c1.8-2.7,4.4-5.3,8-7.4s14.9-3.4,19.7-3.6
					c4.8-0.3,13.6-1.1,68.1-1.2 M665.6,704.9c0,0,0.2,6.9-1,10c-1,2.7-2,5.2-4.8,7.1c-2.9,2-10.9,2.6-10.9,2.6 M649.5,724.7
					l-270.8,0.9 M622.1,723.2c0,6.9,0.2,11.7,0.3,17.2c0.2,8.5,0.2,13.9,0.2,20.9c-0.3,5.2,0.7,11-5.1,14.5
					c-28.3,16.1-62.4,30.4-91.5,45.5c-9,4.4-22,12.1-30.3,14.5c-7.5,2.2-14.4,1.8-22.2,1.8c-20.1,0.1-38.3,0.2-60.1,0.2
					c-18.7,0-42.6,1.8-48.9-3.1c-6.5-5.5-9.3-12.8-10.3-22.7c-0.9-13.3-0.5-23.8-0.5-37.6c0-11,1-24.5,0.8-33 M461.8,121.8
					c0,0-0.1,113.1-0.4,141.1c0,4.4,0.3,7.6-1.2,10.9c-1.4,3.1-4.3,5-5.6,7.9c-1.2,2.7-1.7,6.7-1.7,9.8c0.1,43.5-0.7,80.1-0.9,120.2
					c-0.2,44.8-0.3,89.7,0,134.3c0,3.4-0.1,9.2,0.7,12.6c0.9,4,4,7.6,6,9.9c3.5,4,2.7,7.4,2.7,12.8c0.1,46.3-0.2,140.6-0.2,140.6
					 M458.7,120.8c109.5,0.2,210.9-0.5,320.7-0.5 M865.3,726.4c0,0,4-21.4,0.4-35.7s-14.9-21.1-30.9-23.4c-13-1.9-44.2-1.5-44.2-1.5
					"/>
				<path class="st3" d="M804.1,666.9c-0.2-48.6-0.2-224.1-1.3-521.7c-0.6-9.3-6.1-24.9-23.6-24.9 M928.6,788.7
					c0,0-1.8-19.6-11.6-40.7c-3-6-8.5-12.7-14.3-16.1c-9.3-5.5-21.3-4.8-32-4.5c-17.8,0.6-41.1,0.5-50.9-2.1
					c-11.8-3.1-15.2-13.4-15.4-22.5c-0.3-13-0.2-29.4-0.2-35.5 M440,660.6h19 M440.4,622h18.2 M439,551.8h11.2 M438.6,513.3h12
					 M438.6,442.4h12 M375.8,513h-13.3 M375.8,551.5h-13.4 M377,403.8h-14.7 M438.8,333.4h12 M439.2,294.3h11.6 M377.7,294H362
					 M377.4,331.9h-15.8 M440.4,225h18.5 M360.5,147.1h100.1 M557.9,121.8v24 M540.5,721.9v-31.1 M531,723.5v15.8 M420,727.6v14.1
					 M451.4,403.1h-12 M790.8,176.2H806 M463,236.6h18.5 M454.3,377.2h18.5 M454.6,467.2h18.5 M462.4,622h18.5 M772.2,109.1v8.9
					 M829.7,81.8l0.2,78.5 M954.2,80l-153-0.2 M828.7,118.1c-17.3-0.2-32.7-0.3-33.9,6.1"/>
				<path class="st3" d="M1192.1,743.1c0,0-48.7,1.2-73,3.3c-20.3,1.8-40.6,3.7-60.5,7.9c-28.8,6.1-56.2,17.8-84.8,25
					c-23.9,6-48,11.6-72.3,15.1c-21.1,3.1-42.5,3.8-63.8,5.3c-41.2,2.9-82.6,2.4-123.6,7.2c-22.5,2.6-44.6,6.5-66.6,12.3
					c-18.2,4.8-35.4,11.8-52.5,19.6c-34.9,15.8-67.1,36-99.7,56.4c-28.8,18-85.7,57.1-85.7,57.1 M1060.7,753
					c0,0,2.5-254.9,3.3-383.2c0.1-12.2-1.1-24.6-4.4-36.3c-3-10.4-6.7-21.1-13.7-29.4c-8-9.6-20.6-14.4-30.7-21.6
					c-10-7.1-22-12.1-29.8-21.6c-11-13.5-16.8-30.8-21.8-47.4c-5.2-17.3-6.6-35.7-8.3-53.7c-1.8-20.1-1.7-40.4-1.7-60.6
					c0-35-0.6-93.4-0.6-93.4"/>
			</g>
			<g>
				<path class="st4" d="M404.6,40c-26.9,14.7-39.4,24.1-57.7,45.1c-23.1,28-41.5,62.7-41.8,111.8 M275,947.9
					c0.1-153.4,3-330.3,4.8-484.7c0.9-77.2,3.2-196.9,3.7-274C284.1,112,283,77.4,283,0.7"/>
				<path class="st4" d="M185.3,39.8c28.2,16.2,32.6,20,55.3,42.6c24.1,28.7,44.2,64.6,42.9,114.5 M297.2,948
					c0-153.4,3.7-367.2,5.6-521.6c0.9-77.2,1.7-154.5,2.3-231.6C305.7,117.7,305,77.7,305,1"/>
			</g>
		</g>
		<path class="st5" d="M124.8,199.3c0.9,1,2.5,1.6,3.8,1.3c1.8-0.4,2.1-3.5,3.9-4c1-0.3,2,0.8,3,0.6c1.2-0.2,3-0.8,3.1-2
			c0.1-1.4-1.9-2.3-3.1-3c-1-0.6-2.7-0.2-3.4-1.1c-0.3-0.4,0.3-1.2-0.1-1.4c-1-0.5-1.9,1.6-3,1.6c-0.5,0-1-0.8-1.5-0.6
			c-1.8,0.4-3.3,2.4-3.8,4.3C123.4,196.3,123.8,198.2,124.8,199.3L124.8,199.3z M219.8,255.4c0.2-1,1.6-1.5,2.6-1.5
			c0.7,0,1.1,1.1,1.9,1.1c0.6,0.1,1.2-0.6,1.9-0.6c0.9,0,1.9,0,2.5,0.7c0.4,0.5,0.4,1.2,0.2,1.8c-0.2,0.8-0.7,1.6-1.3,2.2
			c-0.9,0.7-2.4,1.6-3.4,1c-0.7-0.4,0.3-1.9-0.4-2.4c-0.6-0.4-1.4,0.7-2.1,0.4C220.6,257.7,219.6,256.4,219.8,255.4L219.8,255.4z
			 M219.7,297.1c-0.4-0.4-0.2-1.3,0.1-1.8c0.6-0.9,2.4-0.4,2.8-1.4c0.2-0.5-0.6-1.1-0.4-1.6c0.6-1,2.2-0.9,3.4-0.9
			c1,0,2.4-0.3,2.9,0.5c0.2,0.5-0.6,0.9-0.7,1.4c-0.2,0.8-0.3,1.7,0.1,2.4c0.1,0.3,0.5,0.3,0.6,0.6c0.3,0.8,0.2,1.8-0.2,2.6
			c-0.3,0.6-0.8,1.2-1.4,1.4c-0.9,0.4-2.2,0.5-3.1-0.1c-0.7-0.4-1-1.4-1.2-2.2c-0.1-0.4,0.4-0.8,0.1-1.1
			C222.1,296.4,220.4,297.9,219.7,297.1z M571.3,40.7c1-0.6,2.4-0.4,3.4,0.1c1.2,0.7,1.8,2.2,2.5,3.4c0.6,1.2,1.4,2.6,1.3,3.9
			c-0.1,1.2-0.5,2.6-1.4,3.2c-1.3,0.8-3.1,0.4-4.5-0.3c-0.8-0.4-1.4-1.3-1.8-2.1c-0.5-0.9-1.1-1.9-0.8-2.9c0.3-0.8,1.7-0.8,2.1-1.6
			c0.2-0.5,0.3-1.3-0.1-1.7c-0.4-0.4-1.3,0.4-1.6,0C570,42.2,570.7,41.1,571.3,40.7z M582.9,41.9c-0.2,0.5,0.5,1,0.4,1.6
			c-0.3,1.1-1.7,1.5-2.2,2.5c-0.5,0.9-0.9,1.9-0.9,2.9c0,1.9,0.7,3.8,1.4,5.5c0.3,0.7,0.6,1.4,1.2,1.8c1,0.7,2.9-0.4,3.7,0.5
			c0.4,0.5-0.5,1.3-0.1,1.8c0.5,0.9,1.8,1.1,2.8,1.2c0.6,0.1,1.2-0.3,1.8-0.4c1.3-0.2,2.8,0.5,3.9-0.1c0.9-0.5,1.8-1.4,2-2.5
			c0.2-1.8-1.9-3.1-2.2-4.9c-0.2-1.1,0.5-2.3,0.1-3.3c-0.6-1.6-1.9-3-3.4-3.8c-0.8-0.4-1.9,0.1-2.8-0.3c-0.5-0.2-1-0.6-1.2-1
			c-0.2-0.6,0.7-1.4,0.3-1.8c-0.4-0.4-1.2,0.2-1.7,0c-0.4-0.2-0.5-1-0.9-1C584.2,40.5,583.2,41.2,582.9,41.9L582.9,41.9z M900,677.8
			c0.8-1,1.9-2.2,3.2-2.2c0.4,0,0.6,0.8,1,0.8c1,0.1,1.6-1.7,2.5-1.4c0.7,0.2,1.2,1.1,1.2,1.8c0,0.8-0.7,1.5-1.3,2
			c-0.6,0.4-1.4,0.1-2,0.4c-0.7,0.3-0.9,1.3-1.6,1.6c-1.2,0.5-3.2,0.9-3.9-0.1C898.5,679.8,899.4,678.6,900,677.8L900,677.8z"/>
		<g>
			<path class="st6" d="M697.3,116.8l-24-23.9L635.1,93l-2.2,4.5l0.1,19.4 M750,84.1v26.2h40.8V84.1H750z M753.2,266.8v-110H791v110
				H753.2z M836.6,108.9V89.4h16.3V109L836.6,108.9z M833.3,147.6v-26h16.4v26H833.3z M827.3,171.6v-10.7h21.2v10.7H827.3z
				 M826.9,191.2v-10.8h21.7v10.8H826.9z M500.3,739.1v56h35.6l53-24.8l0.2-31.2H500.3z M374.1,160v94.9h67.5V160H374.1z
				 M404.1,173.4c2.6,0.1,5.3,0.6,7.8,1.2c3,0.7,6.1,1.4,8.6,3.2c1.3,1,2.7,2.3,3,4c0.4,1.7-0.5,3.6-1.1,5.2c-0.9,2.3-2.9,4-3.8,6.3
				c-0.8,2.1-1.2,4.4-1.3,6.7c-0.1,2.4,0.1,4.9,0.6,7.3c0.4,1.9,1.6,3.6,2.1,5.6c0.4,1.6,1.1,3.3,0.6,4.9c-0.5,1.6-2,2.6-3.3,3.6
				c-1.9,1.5-4.6,2-6.5,3.5c-1.7,1.3-3,3.1-4.4,4.8c-1.7,2-2.8,4.7-4.9,6.3s-4.8,3.5-7.5,3s-5-3.1-5.9-5.7c-0.9-2.7,0.1-5.8,1.4-8.2
				c1.8-3.2,5.9-4.4,8.1-7.3c1.8-2.5,3.1-5.4,3.8-8.4c0.6-2.8,0.7-5.9,0.2-8.7c-0.6-3.2-1.9-6.4-3.6-9.2c-1.5-2.3-4.2-3.7-5.7-6
				c-0.9-1.4-2.1-3.1-1.9-4.8c0.2-1.6,1.7-3,3-4c2.3-1.7,5.2-2.8,8.1-3.2C402.3,173.4,403.2,173.3,404.1,173.4L404.1,173.4z
				 M372.5,365.5V262.4h68.6v103.1H372.5z M372.9,426.6v-53.7h68.8v53.7H372.9z M372.5,473.2v-38h69v38H372.5z M372.5,584.4V480.3
				h69.2v104.1L372.5,584.4z M372.3,591.9v75.4l43.8,44.1h25.5V591.9H372.3z M398.9,739.8v15l-3.1,2.3v43.5l3.1,2.8v8.9h70.5v-8.9
				l3.1-2.8v-43.5l-3.1-2.3v-15H398.9z M807.4,433.3v58.9h8.8l4.7-2.9h4.6v-51.6l-9.3-4.3L807.4,433.3z M825.6,631.9v-95.4h31.7
				v95.4H825.6z M753.3,689.3v-110H791v110H753.3z M695,139.6v-15.5h-52.2l0.1,15.5"/>
			<path class="st6" d="M640.9,139.6c0,48.9-0.1,97.8-0.1,146.7c3.2,0,6.4,0,9.6,0c0-1.6,0-3.2,0-4.7c0.6,0,1.2,0,1.7,0
				c0,1.6,0,3.2,0,4.7c0.4,0,0.8,0,1.2,0c0,0.4,0,0.7,0,1.1s0,0.8,0,1.3c-0.6,0-1.2,0-1.7,0c0-0.4,0-0.8,0-1.3c-3.6,0-7.3,0-10.9,0
				c-11.7,0-23.3,0-35,0c0,0.7,0,1.5,0,2.2c-0.2,0-0.4,0-0.7,0c0,0.3,0,0.6,0,0.9c-0.1,0-0.3,0-0.4,0c0-0.3,0-0.6,0-0.9
				c-0.3,0-0.6,0-0.9,0c0-0.8,0-1.5,0-2.3c-7.5,0-14.9,0-22.4,0.1c0,3.7,0,7.4,0,11c7.5,0,14.9,0,22.4,0c0-0.6,0-1.1,0-1.7
				c0.3,0,0.7,0,1,0c0-0.3,0-0.6,0-0.9c0.2,0,0.3,0,0.5,0c0,0.4,0,0.8,0,1.2c0.2,0,0.4,0,0.5,0c0,3.5,0,6.9,0,10.4
				c-1.2,0-2.4,0-3.6,0c0,0.5,0,1,0,1.5c-0.9,0-1.8,0-2.7,0c0-0.5,0-1,0-1.5c-7.7,0-15.4,0-23.1,0c0,0.5,0,1.1,0,1.6
				c-1,0-1.9,0-2.9,0c0-0.6,0-1.1,0-1.7c-0.3,0.3-0.6,0.6-0.9,0.9c-0.9,0-1.8,0-2.7,0c0-14.3,0-28.5,0-42.8h22.8V150.1
				c-23.4,0-46.9,0-70.3,0c0,19.7,0.1,39.5,0.1,59.2c-2,0-4.1,0-6.1,0c0-0.6,0-1.3,0-1.9c-4.9,0-9.8,0-14.7,0.1c0-1.2,0-2.4,0-3.6
				c0.2-0.2,0.4-0.4,0.6-0.6c0.1,0.1,0.2,0.2,0.4,0.4c-0.2,0.2-0.3,0.3-0.5,0.5c0,1,0,2,0,3c1.3,0,2.7,0,4,0c0-0.6,0-1.2,0-1.9
				c0.2,0,0.5,0,0.7,0c0,0.6,0,1.2,0,1.9c1.8,0,3.6,0,5.4,0c0-2,0-3.9,0-5.9c0.1,0,0.3,0,0.4,0c0,2,0,3.9,0.1,5.9c1.2,0,2.5,0,3.7,0
				c0-2.6,0-5.2,0-7.8c-1.5,0-3,0-4.5,0c-1.7,0-3.3,0-5,0c0,1.6,0,3.2,0,4.8c-0.2,0-0.3,0-0.5,0c0-1.6,0-3.2,0-4.7c-0.5,0-1,0-1.5,0
				c0,0.2,0,0.3,0,0.5c-0.2,0-0.3,0-0.5,0c0-0.3,0-0.6,0-0.8c2.5,0,5,0,7.4,0c1.8,0,3.6,0,5.3,0c0-3.9,0-7.9,0-11.8
				c-4.1,0-8.2,0-12.3,0c-0.8-1-1.9-2.5-2.7-4.5c-0.6-1.6-0.9-3.1-1-4.1c-7.6,0-15.2,0-22.8,0v125c5.4,0,10.8,0,16.2,0
				c0-2.3,0-4.5,0-6.8c0.1,0,0.2,0,0.4,0c0,2.3,0,4.5,0,6.8c0,18.1,0,36.2,0,54.3h-24.6c0,12.8,0,25.5,0,38.3
				c23.7,0,47.4-0.1,71.2-0.1c0,18-0.1,36-0.1,54c-23.7,0.1-47.4,0.1-71.1,0.2c0,12.9,0,25.8,0,38.8c22.2,0,44.4,0,66.6,0
				c0,35,0,69.9,0,104.9c-12.6-0.1-25.2-0.2-37.8-0.3c0-0.1,0-0.2,0-0.4c0.4,0,0.7,0,1.1,0c0-2.7,0-5.5,0-8.2c-0.4,0-0.9,0-1.3,0
				c0-0.1,0-0.3,0-0.4c6,0.1,12.1,0.1,18.1,0.2c0-5.5,0.1-10.9,0.1-16.4c-5.6,0-11.2,0-16.9,0c0-2.3,0-4.6,0-6.9
				c-6.4,0-12.8,0.1-19.3,0.1c0,1.2,0,2.5,0,3.7c-0.4,0-0.9,0-1.3,0.1c-0.5,1.8-0.9,3.7-1.4,5.5c0,24.8,0,49.5,0,74.3h34.1v48.7
				l53.3,0.2v-23.6H613c0-32.2,0-64.4,0-96.6c-2.2,0-4.4,0-6.6,0c0-0.2,0-0.4,0-0.7c2.2,0,4.4,0,6.6,0c8.3,0,16.6,0,24.9,0v-10.4
				H613h-6.6v-2.9h-25.8v-12.1h22.8v1h-21.7v10l60.8,0.2c0-4.3,0-8.7-0.1-13c0.4,0,0.8,0,1.1,0c0,4.1,0,8.2,0,12.3
				c6.2,0,12.5,0,18.7,0c0,2.5,0,5,0,7.4c-1,0-2,0-3,0c0-2,0-4,0-6c-5.1,0-10.3,0-15.4,0c0.1,49,0.1,98.1,0.2,147.1
				c17.2,0,34.3,0,51.5,0v-29.2H721v-18.7h32.3c0-13,0-25.9,0-38.9c-18.3,0-36.6-0.1-54.9-0.1c0-20.1,0-40.1,0-60.2
				c-6.1,0-12.2,0-18.3,0c0,1.7,0,3.4,0,5c-0.3,0-0.7,0-1,0c0-1.6,0-3.2,0-4.8c-0.4,0-0.9,0-1.3,0c0-0.5,0-1.1,0-1.6
				c6.9,0,13.7,0,20.6,0c8.8,0,17.5,0,26.3,0c0-2.4,0-4.8,0-7.3c0.6,0,1.3,0,1.9,0c0,2.5,0,4.9,0,7.4c10.7,0,21.3,0,32,0
				c7.4,0,14.8,0,22.3,0c0-10.8,0-21.5,0-32.3c4.9,0,9.8,0.1,14.6,0.1V467c-4.9,0-9.8,0-14.7,0c0-5.9,0-11.9,0-17.8
				c-9,0-18.1,0-27.1,0c0-0.5,0-1,0-1.4c9,0,18.1,0,27.1,0c4.9,0,9.8,0,14.7,0c0-16.7,0-33.3,0-50c-4.8,0-9.5,0.1-14.3,0.1
				c-9.2,0-18.4,0-27.6,0c0-0.4,0-0.8,0-1.2c9.2,0,18.4,0,27.6,0c0-6.3,0-12.6,0-18.8c4.8,0,9.5,0.1,14.3,0.1
				c0-19.4-0.1-38.8-0.1-58.2c-4.7,0-9.4,0-14.2,0c0-10.7,0-21.5,0-32.2c-18.3,0-36.6,0-54.9,0c-0.1,36.4-0.1,72.7-0.2,109.1
				c3.7,0,7.5,0,11.2,0c0,0.4,0,0.8,0,1.2c-3.7,0-7.5,0-11.2,0.1c0,8.2,0,16.4,0,24.6c0,8.4,0,16.9-0.1,25.2c3.6,0,7.3,0,10.9,0
				c0,0.5,0,1,0,1.5c-3.6,0-7.3,0-10.9,0c-0.1,26.4-0.1,52.8-0.1,79.2c0,0.3,0,5.3,0,5.5c-0.7,0-1.4,0-2.1,0c0-1.8,0-3.7,0-5.5
				c-26.8,0-53.6-0.1-80.4-0.1c0,4.5,0,8.9,0,13.4c-0.4,0-0.7,0-1.1,0c0-3,0-6,0-9c-4.8,0-9.7,0-14.5,0c0,2,0,4,0,6
				c-2.8,0-5.5,0-8.3,0c0-2.1,0-4.3,0-6.4c0-6.5,0-13,0-19.5c-1.9,0-3.8,0-5.7,0c0-7.3,0-14.5,0-21.8c-15.7,0-31.3,0-47,0
				c0-3.7,0-7.4,0-11c0.1-0.2,0.2-0.6,0.4-1c0.2-0.3,0.5-0.8,1.1-1.2c0.2-0.1,0.6-0.3,1.2-0.3c0.9,0,1.8,0,2.7,0
				c0-5.3,0-10.5-0.1-15.8c-1.2,0-2.4,0-3.5,0c-0.7-0.2-1-0.5-1.1-0.6c-0.2-0.2-0.3-0.5-0.4-0.8c-0.1-0.3-0.2-0.6-0.3-0.8
				c0-3.8,0-7.6,0-11.3c18.7,0,37.4,0,56.1,0c0-2.8,0-5.7,0-8.5c-0.4,0-0.7,0-1.1,0c0-0.5,0-1,0-1.6c1.2,0,2.4,0,3.6,0
				c0-0.1,0-0.2,0-0.3c2.4,0,4.8,0,7.1,0c0-2.1,0-4.2,0-6.3c0.3,0,0.5,0,0.8,0c0-0.1,0-0.1,0-0.2c1.7,0,3.4,0,5.1,0
				c0-1.4,0-2.7,0-4.1c-1.7,0-3.4,0-5.1,0c0-0.1,0-0.2,0-0.2c-0.3,0-0.6,0-0.8,0c0-0.6,0-1.2,0-1.9c9.6,0,19.2,0.1,28.9,0.1
				c0-1.5,0-3,0-4.6c-9.6,0-19.1-0.1-28.7-0.1c0-0.6,0-1.2,0-1.7c0.3,0,0.5,0,0.8,0c0-0.1,0-0.2,0-0.3c1.7,0,3.4,0,5.1,0
				c0-1.3,0-2.7,0-4c-1.7,0-3.3,0-5,0.1c0-0.2,0-0.5,0-0.7c-0.3,0-0.5,0-0.8,0c0-1.9,0-3.9,0-5.8c-3.6,0-7.3,0-10.9,0
				c0-0.5,0-1.1,0-1.6c0.4,0,0.7,0,1.1,0c0-2.9,0-5.8,0-8.6c-18.7,0-37.3,0-56,0c0-3.5,0-7,0-10.5c0-0.3,0.2-0.6,0.4-1
				c0.1-0.2,0.4-0.6,0.8-0.9c0.4-0.2,0.7-0.3,0.9-0.4c1.1,0,2.2,0,3.3,0c0-5.2-0.1-10.3-0.1-15.5c-1,0-2,0-2.9,0
				c-0.2,0-0.6-0.1-1-0.3c-0.2-0.1-0.5-0.3-0.8-0.7c-0.2-0.2-0.2-0.4-0.3-0.6c0-11.5,0-23,0-34.5c15.7,0,31.5,0.1,47.2,0.1
				c0-2,0-4.1,0.1-6.1c20.3,0,40.5,0,60.8,0c0-13.3,0-26.6,0-39.9c-4,0-8.1,0-12.1,0c0-0.4,0-0.8,0-1.3c0.4,0,0.8,0,1.3,0
				c0-1.5,0-3.1,0-4.6c0.5,0,0.9,0,1.4,0c0,1.5,0,3.1,0,4.6c3.1,0,6.3,0,9.4,0c1.9,0,3.8,0,5.6,0c0-1.6,0-3.2,0-4.8
				c0.5,0,1.1,0,1.6,0c0,1,0,2,0,3.1c-0.1,0-0.2,0-0.3,0c0,0.6,0,1.2,0,1.8c5.5,0,11.1,0,16.6,0c0-20.2,0-40.5,0-60.7
				c18,0,36,0.1,54.1,0.1c0-13,0-26.1,0-39.1c-10.4,0.1-20.7,0.1-31.1,0.2c0-6.2,0-12.4,0.1-18.6c-8.5,0-17,0-25.4,0.1
				c-0.1-9.6-0.3-19.2-0.4-28.8C677.8,139.5,659.3,139.6,640.9,139.6z M515.9,271.7c11.3,0,22.6,0,33.9-0.1c0,4.6,0,9.2,0,13.9
				h-33.9c-7,0-13.9,0.1-20.9,0.1c0,2.1,0,4.2,0,6.2c-0.1,0-0.2,0-0.3,0c0-2.1,0-4.2,0-6.2c-2.1,0-4.2,0-6.2,0c0-0.3,0-0.7,0-1
				c9.1,0,18.3-0.1,27.4-0.1c0-3.5,0-7.1,0-10.6c-7,0-14,0-21,0c-2.1,0-4.3,0-6.4,0c0-0.1,0-0.2,0-0.3c2.1,0,4.1,0,6.2-0.1
				c0-2,0-4.1,0-6.1c0.1,0,0.2,0,0.3,0c0,1.4,0,2.8,0,4.2C501.9,271.7,508.9,271.7,515.9,271.7z"/>
			<path class="st6" d="M464,408c2.6,0,5.2,0,7.7,0c0-1.9,0-3.8,0-5.7c4.1,0,8.2,0,12.2,0c0,4.4,0,8.8,0,13.2c2.4,0,4.7,0,7.1,0
				c0,5-0.1,10-0.1,15c-5.5,0-10.9,0-16.4,0c-1,2.6-2,5.2-3,7.9c-2.4,0-4.9,0-7.3,0c0-0.6,0-1.3,0-1.9c-0.8-1.9-1.7-3.7-2.5-5.6
				c0-5.1,0-10.1,0-15.2c0.8-1.2,1.5-2.3,2.3-3.5C464,410.7,464,409.3,464,408z"/>
		</g>
		<g>
			<path class="st7" d="M789.5,162.4h-36.2 M784.8,232.3v34.4 M784.7,615.9v-38.4 M789.5,682.9h-36"/>
			<path class="st8" d="M583.3,508.1V491"/>
			<path class="st7" d="M486.2,279.4H505 M502.6,192.9h9.3 M474.7,422.9H486 M500.1,576.7h11.5 M611.3,567.6h26 M789.5,416.8v12.6
				 M595.7,290.5h-9.1 M595.9,553.8H582"/>
		</g>
		<path class="st9" d="M823.9,190.2v6.4h-3v-6.4H823.9z M823.8,182.7v7h-2.9v-7H823.8z M856.2,168.4v5.8h-4.7v-5.8H856.2z M799.8,86
			v3h-8.7v18.4H819V91.2h0.6V86H799.8z M856.2,157.9v5.8h-4.6v-5.8H856.2z M851.3,148.7v6.3h-6v-6.3H851.3z M840.3,148.7v6.2h-6
			v-6.2H840.3z M852.8,69v6.3h-6.3V69H852.8z M843.2,69.1v6.3h-6.5v-6.3H843.2z M372.2,443l7.4-7.4l4.7,4.8l-7.4,7.4L372.2,443z
			 M418.7,251.1h13.9v-9.2h-13.9V251.1z M637.1,528.7h-10.5v3.7c2.8,0,5.5,0,8.3,0c0,0.2,0,0.4,0,0.6c0.7,0,1.3,0,2,0
			c0-0.2,0-0.4,0-0.6c0.1,0,0.2,0,0.2,0C637.1,531.2,637.1,529.9,637.1,528.7z M933.9,770.3l10.3-2.9l-1.5-5.2l-10.3,2.9
			L933.9,770.3z M934.8,772.4l10.1-2.9l1.5,5.4l-10.1,2.9L934.8,772.4z M78,71.2v13.9h9.2V71.2H78z M349,715.6v3.2l6.3,1.3v-5.7
			L349,715.6z M531.2,80.9l1.6-5.1l-6.5-0.7l-0.9,3L531.2,80.9z M331.5,474.8v3.2l6.3,1.3v-5.7L331.5,474.8z"/>
		<path class="st10" d="M816.1,530.6l2.1,4.6h40.2l0.2,61.4l92.6,41.1l0.1,27.5l23.5,13.9v90.8l-38,9.4l-36.7,7.4l-96.4,5.4
			l-71.8,4.5l-68,10.6L618.5,820l-38.4,17.5l-52.9,29l-49.8,30.9l-17.2,9.9l-13.9,6.2l-25.2,2.7l-161.4,0.1l0.1-23.9l6.6-7.6
			l6.1-536.4l-89.9,1.3l-46.8-1l-0.4-22.5l-5.9-22l-7.4-11.2L104,279.3l-33.3-24.1L39,222.9l-23.8-38.6L3.5,140.9L1.8,28.5
			l32.1-13.7L33.8,2.1L92.7,2v12.8l10.6,8.5l139.6,0.9l10.3-9.6V2.2L333.7,2v12.3l10.6,9.6l294.4-2.7v22l-3.3,21.9l0.7,27.6
			l37.9,0.1l15.3,15.4h55.2l-0.1-43.9l4.9-2.6l11-12.2l32.5-0.1l49.2,2.2L859.7,69l0.2,145.3l-32.4,0.1L816,225.9l-0.1,64.7l2.8,6.1
			l0.2,59.4l-3.4,2.1l0.6,73.1l9.5,6.3l0.1,51.9h-4.5l-5,2.7L816.1,530.6z"/>
	</g>
</g>
<path class="st2" d="M498.5,722.3v-3h-16c0-1.4,0-2.8,0-4.2c-0.1,0-0.2,0-0.2,0c0,2.4,0,4.8,0,7.3L498.5,722.3L498.5,722.3z"/>
<path class="st8" d="M398.4,469v17.1"/>
<line class="st7" x1="344.1" y1="554.1" x2="318.1" y2="554.1"/>
</svg>
