<?xml version="1.0" encoding="utf-8"?>
<!-- Generator: Adobe Illustrator 27.3.1, SVG Export Plug-In . SVG Version: 6.00 Build 0)  -->
<svg version="1.1" id="Discord.gg-_x40_marazm" xmlns="http://www.w3.org/2000/svg" xmlns:xlink="http://www.w3.org/1999/xlink"
	 x="0px" y="0px" viewBox="0 0 1680.3 1927.5" style="enable-background:new 0 0 1680.3 1927.5;" xml:space="preserve">
<style type="text/css">
	.st0{fill:#363636;stroke:#000000;stroke-width:2;}
	.st1{fill:#777777;}
	.st2{fill:#987F00;}
	.st3{fill:none;stroke:#000000;}
</style>
<path class="st0" d="M122.5,1131.4V1244h163.1v6.5h-59.3v77.7h42.1v10.7h82.4v-53.3h168.4v53.3h82.4v-10.1h42.7v-43.3h66.4v128
	h-22.5v164.2H789v74.1h107.2v-212.8l17.4-17.4h50.8l17.4,17.4v212.8h108.9v-72.9h6.5v62.8h160.1v10.1h8.3v163.6h49.8v-112.6h-8.9
	v-51h16.6v163.6h50.4v-112.6h-8.9v-51h45.7v-10.1h56.9V1583h-56.9v-16h24.3v-30.8h-24.3v-496.1h17.8v-21.3h-17.8v-99h-121.5v18.4
	h-57.6v42.1h-40.9v-83h213.5V549.9h-24.3v-17.2h-15.4v-45h-23.7v-3h-150.6v113.8h-173.1V482.3h29.7v-20.1h-56.9v29h-96.7v-29h-56.9
	v20.1h28.5v116.2h-153v16.6h-17.2v-13.6h-8.3V426.6H521.6v57.5h-29v-4.7H383.4v-5.9H204.9v50.4h81.2v112H122.5v49.8h123.9v43.8
	H122.5v159.4h86.2v20.5h76.9v74.8h-76.9v49.5h76.9v78.9h-76.9v17.9L122.5,1131.4L122.5,1131.4L122.5,1131.4z M235.1,780.5v-9.4h50.4
	v9.4H235.1L235.1,780.5z M235.1,684.9v-9.4h50.4v9.4H235.1L235.1,684.9z M262.5,730.1v-21.3h23.1v21.3H262.5z M351.7,964V808.8h73.7
	v-16.4h121.4v16.4h68.9v4.8c-68.4,36.7-209.8,113-228.4,124.1c-16.8,10-24.9,22.6-28.9,28.8c-1.5,2.4-2.4,3.8-3,3.8
	C353.5,970.3,351.7,968.2,351.7,964L351.7,964L351.7,964z M351.7,1207.8v-155.2c0-4.2,1.7-6.2,3.8-6.2c0.6,0,1.5,1.4,3,3.8
	c4,6.2,12.1,18.8,28.9,28.8c18.6,11.1,160,87.3,228.4,124.1v4.8h-68.9v16.4H425.4v-16.4L351.7,1207.8L351.7,1207.8z M354.9,601
	v-77.7h217.7v-45.8h65.7V490h-32.3v45.8h32.3v24.6h-8.7v4.3h-20.8v30.4h20.8v5.8L354.9,601L354.9,601z M499.9,1054.9
	c0-0.4,0.6-1.6,1.6-3.5c3.4-6.6,11.1-21.3,11.1-36.6v-13.7c0-11.4-5.4-23.1-9-30.9c-1.8-3.9-3.1-6.8-3.1-8.2c0-2.9,3.7-5.5,5.9-6.7
	c5.5-3.2,23.2-13.8,41.7-25h0c23.5-14.2,48.5-29.1,51.5-30.7c5.4-2.7,16.2-4.7,16.2,5.4V983h-68.9v50.1h68.9v79.1
	c0,6.1-4.2,10.6-7.9,10.6c-3.5,0-10.1-4.3-15.7-7.9l0,0l-1.1-0.7c-3.5-2.3-34.5-20.5-58.4-34.6h0c-14.7-8.7-26.7-15.7-27.9-16.5
	C501.5,1061,499.9,1056.6,499.9,1054.9L499.9,1054.9L499.9,1054.9z M666.4,1217v-173.7c0-4,3.2-7.2,7.2-7.2h29.5
	c4,0,7.2,3.2,7.2,7.2V1217c0,4-3.2,7.2-7.2,7.2h-29.5C669.6,1224.2,666.4,1221,666.4,1217L666.4,1217L666.4,1217z M666.4,973.2
	V799.5c0-4,3.2-7.2,7.2-7.2h29.5c4,0,7.2,3.2,7.2,7.2v173.7c0,4-3.2,7.2-7.2,7.2h-29.5C669.6,980.4,666.4,977.2,666.4,973.2
	L666.4,973.2L666.4,973.2z M761.1,1323.8v-165.1l16.4-21.1v-53.9h75v-25.2h-75v-22.7c0-4.8,3.9-8.6,8.6-8.6h48.7
	c5.9,0.5,19.8,4.4,28,16.4c2,3,3.6,5.6,5,7.9c5.7,9.5,8.3,13.9,25,13.9h134.4v-116H879.8c-2.5,3-8.9,10.8-14.3,18.4
	c-6.8,9.5-18.4,20.5-30.7,20.5h-48.7c-4.8,0-8.6-3.9-8.6-8.6v-26.2h75v-23.9h-75v-51.8l-16.4-22.5V698.3h73.7v-23.9h28l17.1,17h118
	l17.1-17h32.1v23.9h74.4v158.2l-16.4,19.8v53.2h-75.1v23.9h75.1v105h-75.1v25.2h75.1v53.2l16.4,22.5v164.4h-73v23.9h-30l-17.7-17.7
	H883.2l-17.7,17.7h-30.7v-23.9L761.1,1323.8L761.1,1323.8L761.1,1323.8z"/>
<path class="st1" d="M762.8,1141.5c2.2,0,4,1.8,4,4l0,0c0,2.2-1.8,4-4,4s-4-1.8-4-4S760.6,1141.5,762.8,1141.5L762.8,1141.5z
	 M226.6,1232.8c2.4,0,4.3,1.9,4.3,4.3l0,0c0,2.4-1.9,4.3-4.3,4.3l0,0c-2.4,0-4.3-1.9-4.3-4.3S224.3,1232.8,226.6,1232.8
	L226.6,1232.8z M208.3,1235.6c2.4,0,4.3,1.9,4.3,4.3l0,0c0,2.4-1.9,4.3-4.3,4.3l0,0c-2.4,0-4.3-1.9-4.3-4.3
	S205.9,1235.6,208.3,1235.6L208.3,1235.6z M770.8,1032.4c2.2,0,4,1.8,4,4s-1.8,4-4,4s-4-1.8-4-4S768.6,1032.4,770.8,1032.4
	L770.8,1032.4z M753.5,1248.1c2.2,0,4,1.8,4,4s-1.8,4-4,4l0,0c-2.2,0-4-1.8-4-4l0,0C749.5,1249.9,751.3,1248.1,753.5,1248.1
	L753.5,1248.1z M753.5,759.2c2.2,0,4,1.8,4,4s-1.8,4-4,4l0,0c-2.2,0-4-1.8-4-4l0,0C749.5,761,751.3,759.2,753.5,759.2L753.5,759.2z
	 M762.8,869.9c2.2,0,4,1.8,4,4s-1.8,4-4,4s-4-1.8-4-4S760.6,869.9,762.8,869.9L762.8,869.9z M770.8,970.2c2.2,0,4,1.8,4,4
	s-1.8,4-4,4s-4-1.8-4-4S768.6,970.2,770.8,970.2z M979,1420.9c2.1,0,3.9,1.7,3.9,3.9l0,0c0,2.1-1.7,3.9-3.9,3.9s-3.9-1.7-3.9-3.9
	S976.8,1420.9,979,1420.9L979,1420.9z M877.3,1342.7c2.1,0,3.9,1.7,3.9,3.9s-1.7,3.9-3.9,3.9s-3.9-1.7-3.9-3.9l0,0
	C873.5,1344.4,875.2,1342.7,877.3,1342.7L877.3,1342.7z M899.9,1420.9c2.1,0,3.9,1.7,3.9,3.9l0,0c0,2.1-1.7,3.9-3.9,3.9
	s-3.9-1.7-3.9-3.9S897.7,1420.9,899.9,1420.9L899.9,1420.9z M889.6,1552.5c2.1,0,3.9,1.7,3.9,3.9l0,0c0,2.1-1.7,3.9-3.9,3.9
	s-3.9-1.7-3.9-3.9S887.4,1552.5,889.6,1552.5L889.6,1552.5z M989.7,1552.5c2.1,0,3.9,1.7,3.9,3.9s-1.7,3.9-3.9,3.9s-3.9-1.7-3.9-3.9
	S987.6,1552.5,989.7,1552.5z M1398.2,1577.6l-2.7-11.3l8.7-2.1l2.7,11.3L1398.2,1577.6z M1320.7,1590.5l7.7-10.2l3.7,2.8l-7.7,10.2
	L1320.7,1590.5L1320.7,1590.5L1320.7,1590.5z M1404.1,1472.3l-1.3-14.8l6-0.5l1.3,14.8L1404.1,1472.3z M1358.6,1506.1l-2.2-25.6
	l4.1-0.4l2.2,25.6L1358.6,1506.1L1358.6,1506.1L1358.6,1506.1z M1404.1,1598.7v-8.6h4.1v8.6H1404.1z M1298.3,1591.2v-10.8h12.7v10.8
	H1298.3z M755,1481.5v14.4h4.8v-14.4H755z M820.6,1481.5v14.4h4.8v-14.4H820.6z M1085,1562.5v14.4h4.8v-14.4H1085z M1145.6,1562.5
	v14.4h4.8v-14.4H1145.6z M1145.6,1428.7v-14.4h4.8v14.4H1145.6z M1085,1428.7v-14.4h4.8v14.4H1085z M172.2,1186.6v-27.3h4.8v27.3
	H172.2z M224.2,1186.6v-27.3h4.8v27.3H224.2z M755,1458.2v-27.3h4.8v27.3H755z M820.6,1458.2v-27.3h4.8v27.3H820.6z M1085,1477.5
	v-27.3h4.8v27.3H1085z M1145.5,1477.5v-27.3h4.8v27.3H1145.5z M1085,1546.3V1519h4.8v27.3H1085z M1145.5,1546.3V1519h4.8v27.3
	H1145.5z M726.9,1481.5v14.4h4.8v-14.4H726.9z M792.5,1481.5v14.4h4.8v-14.4H792.5z M1056.9,1562.5v14.4h4.8v-14.4H1056.9z
	 M1117.4,1562.5v14.4h4.8v-14.4H1117.4z M1117.4,1428.7v-14.4h4.8v14.4H1117.4z M1056.9,1428.7v-14.4h4.8v14.4H1056.9z
	 M144.1,1186.6v-27.3h4.8v27.3H144.1z M196.1,1186.6v-27.3h4.8v27.3H196.1z M726.9,1458.2v-27.3h4.8v27.3H726.9z M792.5,1458.2
	v-27.3h4.8v27.3H792.5z M1056.8,1477.5v-27.3h4.8v27.3H1056.8z M1117.4,1477.5v-27.3h4.8v27.3H1117.4z M1056.8,1546.3V1519h4.8v27.3
	H1056.8z M1117.4,1546.3V1519h4.8v27.3H1117.4z M726.9,1486.8v9.1h32.9v-9.1H726.9z M792.5,1486.8v9.1h32.9v-9.1H792.5z
	 M1056.8,1567.8v9.1h32.9v-9.1H1056.8z M1117.4,1567.8v9.1h32.9v-9.1H1117.4z M1117.4,1423.4v-9.1h32.9v9.1H1117.4z M1056.8,1423.4
	v-9.1h32.9v9.1H1056.8z M705.6,1557.1c0-4.3,3.5-7.8,7.7-7.8h22.2c4.3,0,7.8,3.4,7.8,7.7v0c0,4.3-3.5,7.7-7.7,7.8h-22.2
	C709.1,1564.8,705.7,1561.4,705.6,1557.1L705.6,1557.1z M144.1,1181.3V1163H177v18.4H144.1z M136,1225.4c0-4.1,3.3-7.4,7.4-7.4h21.4
	c4.1,0,7.4,3.3,7.4,7.4v0c0,4.1-3.3,7.4-7.4,7.4h-21.4C139.4,1232.9,136,1229.5,136,1225.4L136,1225.4z M210.2,1225.4v-8.4h14.1v8.4
	H210.2z M291.3,877.8l12.5-24.2l5.3,2.7l-12.5,24.2L291.3,877.8z M289.1,1090v-34.9h5.6v34.9H289.1z M196.1,1181.3V1163H229v18.4
	H196.1z M726.9,1452.9v-18.4h32.9v18.4H726.9z M985.9,1598.1v-28.4h5.5v28.4H985.9z M985.9,1546.1v-28.4h5.5v28.4H985.9z
	 M936.1,1414.3l0.5-11.6l20.5,0.8l-0.5,11.6L936.1,1414.3z M985.9,1482.2v-28.4h5.5v28.4H985.9z M886.8,1482.2v-28.4h5.5v28.4H886.8
	z M886.8,1531.9v-28.4h5.5v28.4H886.8z M886.8,1600.7v-28.4h5.5v28.4H886.8z M886.8,1637.5v-28.4h5.5v28.4H886.8z M792.5,1452.9
	v-18.4h32.9v18.4H792.5z M1056.8,1472.2v-18.4h32.9v18.4H1056.8z M1135.7,1032.7v-12h21.2v12H1135.7z M1140.2,1040.4v-30h14.2v30
	H1140.2z M1104.8,1032.7v-53.8h7.7v53.8H1104.8z M1116.4,918.8v-12.1h12v12.1H1116.4z M1140.2,921.8v-15.1h8.1v15.1H1140.2z
	 M1192.4,722.3v-7.4h6.7v7.4H1192.4z M1192.4,736.1v-7.4h6.7v7.4H1192.4z M1192.4,759.5v-7.4h6.7v7.4H1192.4z M1192.4,773.3v-7.4
	h6.7v7.4H1192.4z M1198,662.1v-26.4h3.6v26.4H1198z M1198,810.1v-26.4h3.6v26.4H1198z M1192.4,621.6v-33.8h9.2v33.8H1192.4z
	 M1192.4,853.6v-33.8h9.2v33.8H1192.4z M1127.9,895.6v-7.5h19.4v7.5H1127.9z M1126.1,901.5v-5.9h26.5v5.9H1126.1z M1126.1,924.1
	v-20.3h11.1v20.3H1126.1z M911.9,1006.4c0-4.6,3.7-8.3,8.3-8.3h36.4c4.6,0,8.3,3.7,8.3,8.3v0c0,4.6-3.7,8.3-8.3,8.3h-36.4
	C915.6,1014.7,911.9,1011,911.9,1006.4L911.9,1006.4L911.9,1006.4z M1012.1,1045v-8.3h-14.4v8.3H1012.1z M1005.7,1005.6v-8.3h14.4
	v8.3H1005.7z M1021.2,1056.8v-20h-9.1v20H1021.2z M875.2,1029.1v-6.3h11.2v6.3H875.2z M715.4,907l17.8,25.7l4.7-3.3l-17.8-25.7
	L715.4,907z M715.4,1114.4l17.8-25.7l4.7,3.3l-17.8,25.7L715.4,1114.4z M753.9,1128.5v6.4h15.8v-6.4H753.9z M756.9,887.2v-6.4h15.8
	v6.4H756.9z M743.9,1288.5v-62.6h5.8v62.6H743.9z M951.5,643.9l14.2-0.2l-0.1-6.8l-14.2,0.2L951.5,643.9z M929.4,657.3l35.2,2.6
	l1-13.6l-35.2-2.6L929.4,657.3z M869,592.5l8.6-1.4l-1.1-7l-8.6,1.4L869,592.5L869,592.5L869,592.5z M869.8,536.9l7.9,0.8l1.8-16.9
	l-7.9-0.8L869.8,536.9z M898.1,505.3h6.7v-10.7h-6.7V505.3z M910.3,534h15.2v-6.2h-15.2V534z M931.4,534h15.2v-6.2h-15.2V534z
	 M937.7,497.7h15.2v-6.2h-15.2V497.7z M912.5,497.7h15.2v-6.2h-15.2V497.7z M898.9,684.3h31.5V674h-31.5V684.3z M889.5,690.1h106.8
	v-5.8H889.5V690.1z M889.5,1336.9h106.8v5.8H889.5V1336.9z M648.8,1185.5v-62.6h5.8v62.6H648.8z M648.8,915.7v-62.6h5.8v62.6H648.8z
	 M743.8,820.8v-62.6h5.8v62.6H743.8z M743.8,1225.8v-58.9h13.7v58.9H743.8z M648.8,1123.9v-51.8h13.7v51.8H648.8z M648.8,854.1
	v-51.8h13.7v51.8H648.8z M743.8,759.2v-51.8h13.7v51.8H743.8z M743.8,1322v-40.1h13.7v40.1H743.8z M639.6,542.6l2.5-13.2l9.7,1.8
	l-2.5,13.2L639.6,542.6z M639.6,527v-9.7h14.2v9.7H639.6z M635.8,474.6v-10.9h7.5v10.9H635.8z M623.2,476.1v-6.9h10.5v6.9H623.2z
	 M463.2,654.9v-14.4h55.3v14.4H463.2L463.2,654.9z M594.5,716.4V659h6.7v57.3H594.5z M580.9,720.1v-7.5h20.4v7.5H580.9z
	 M541.4,720.1v-7.5h35.3v7.5H541.4z M603.5,720.1v-24.9h31.3v24.9H603.5z M558,692.1v-37.2H574v37.2L558,692.1L558,692.1z
	 M332,718.7v-58.9h19.8v58.9H332z M362.7,654.9v-14.4H418v14.4H362.7z M267.8,520.3v-14.4h22.6v14.4H267.8z M351.9,520.3V504h15.8
	v16.3H351.9z M432.2,520.3v-10.4H448v10.4H432.2z M442.9,492.9v-4.8h65.4v4.8H442.9L442.9,492.9L442.9,492.9z M522.5,483v-13.8h24.4
	V483H522.5z M898.4,1345.6l29.8,0.3l0,5.2l-29.8-0.3L898.4,1345.6z M951.8,1347.7l29.8,0.3l0,5.2l-29.8-0.3L951.8,1347.7z
	 M989.9,690h6.4v-17.9h-6.4L989.9,690L989.9,690z M989.9,1336.9h6.4v17.9h-6.4L989.9,1336.9L989.9,1336.9z M889.5,690h6.4v-17.9
	h-6.4V690z M889.5,1336.9h6.4v17.9h-6.4V1336.9z M648.8,1219.1V1179h13.7v40.1H648.8z M648.8,949.2v-40.1h13.7v40.1H648.8z
	 M743.9,854.3v-40.1h13.7v40.1H743.9z M766,1086.6v48.2h5.9v-48.2H766z M768.9,929v-48.2h5.9V929H768.9z M868.9,1029v-45.8h9.1v45.8
	H868.9z M998.8,1020.7v-23.4h9.1v23.4L998.8,1020.7L998.8,1020.7z M1140.2,983.2v-35.8h14.2v35.8H1140.2z M1172.4,1185.7v-56.3h15.9
	v56.3H1172.4z M1248.3,1518.6l14.6-9.5l2.7,4.1l-14.6,9.5L1248.3,1518.6z M1252.3,1480.1l4.3-16.8l3.8,1l-4.3,16.8L1252.3,1480.1z
	 M1279,1469.7l7.1-15.9l3.6,1.6l-7.1,15.9L1279,1469.7z M1286.2,1480.2v-13.5h8.6v13.5H1286.2z M1313.7,1466.7v-6.6h20.7v6.6H1313.7
	z M1293.2,1489.1v-22.5h13.9v22.5H1293.2z M1328.6,1446.5v-17.9h6.9v17.9H1328.6z M1229.5,1446.5v-5.9h18.8v5.9H1229.5z
	 M1366.2,1305.9l-1.9-17.3l7.3-0.8l1.9,17.3L1366.2,1305.9z M1404.2,1195v-22.7h5.3v22.7H1404.2z M1398.9,1018.3v-12.5h10.7v12.5
	H1398.9z M1306.9,1089.3v-8.7h20.6v8.7H1306.9z M1300.1,1149.1v-12.5h47.1v12.5H1300.1z M1300.1,1208.5v-12.5h47.1v12.5H1300.1z
	 M1191.8,1207.5V1195h48.7v12.5L1191.8,1207.5L1191.8,1207.5z M1400.2,965.3l-6.7,0.5l-1.4-19.2l6.7-0.5L1400.2,965.3z
	 M1232.4,968.2v-6.8h15.1v6.8H1232.4z M1267.3,949.8v-11.1h8.2v11.1H1267.3z M1192.7,1061.3v-14h8.9v14H1192.7z M1192.7,1083v-14
	h8.9v14H1192.7z M1240.5,1080.6v-31.8h8.9v31.8H1240.5z M1245.6,1139.4v-46.8h14.6v46.8H1245.6z M1300.1,1208.5v-33.2h10.9v33.2
	H1300.1z M1264.8,1302.1v-36.6h16.3v36.6H1264.8z M1227.2,1275.1v-50.2h16.7v50.2H1227.2z M1352.7,1319.6v-28.1h10v28.1H1352.7z
	 M1264.4,1446.5v-17.9h6.9v17.9H1264.4z M1294.8,1446.5v-17.9h6.9v17.9H1294.8z M1293.2,1384.5v-17.9h6.9v17.9H1293.2z M1311,1392.2
	v-17.9h6.9v17.9H1311z M1200,1386l2.4-17.7l6.9,0.9l-2.4,17.7L1200,1386z M1233.6,1386.3l-1.2-17.8l6.9-0.5l1.2,17.8L1233.6,1386.3z
	 M1264.8,1400l-13.8-11.4l4.4-5.3l13.8,11.4L1264.8,1400z M1172.4,1275.1v-56.3h15.9v56.3H1172.4z M1117.4,1472.2v-18.4h32.9v18.4
	H1117.4z M1056.8,1541.1v-18.4h32.9v18.4H1056.8z M1089.3,1501.2v-7h28.1v7H1089.3z M1117.4,1541.1v-18.4h32.9v18.4H1117.4z
	 M1298.2,1648.1v-18.4h10.8v18.4H1298.2z"/>
<path class="st2" d="M780.8,952.4h70.7v-21.8h-70.7V952.4z M1028.7,952.4h73.6v-21.9h-73.6V952.4z M780.8,1082.6h70.7v-23.1h-70.7
	V1082.6z M1029.2,1082.7h73.3l-0.2-23.3H1029L1029.2,1082.7z M209.4,909.7h75.8v-20.7h-75.8V909.7z M209.4,1132h75.8v-18.1h-75.8
	V1132z M209.4,1033.6h75.8v-49.8h-75.8V1033.6z M546.9,1033.3h68v-49.8h-68V1033.3z M352,1224h73.7v-16.2H352V1224z M547.2,1224.2
	h67v-15.8h-67V1224.2z M351.8,808.8h73.7v-16.2h-73.7L351.8,808.8L351.8,808.8z M546.2,808.8h69.1v-16.1h-69.1V808.8z M763.5,697.3
	h70.3v-22.6h-70.3V697.3z M1047,698.4h72.8v-23.7H1047V698.4z M763.5,1347.8h70.3v-23h-70.3V1347.8z M1048.3,1347.8h71.5v-23.7
	h-71.5V1347.8z M1378.5,549.7h-15.4v-16h15.4V549.7z M625.4,1327.8h-24.3v-14.8H626L625.4,1327.8L625.4,1327.8L625.4,1327.8z
	 M227.3,1327.1h34.5v-12.5h-34.5V1327.1z M247.4,685.9H287v21.9h-39.5L247.4,685.9L247.4,685.9L247.4,685.9z M625.4,1327.8l0.6-37.2
	h17.2v37.2H625.4L625.4,1327.8L625.4,1327.8z M244.6,1315.4v-20h-17.3v20H244.6z M261.4,706.9v23.6h-14v-23.6H261.4z M620.5,506.5
	v15.6H607v-15.6L620.5,506.5L620.5,506.5z M638.3,534.8H607v-13.4h31.3V534.8z M865.7,480.9h-28.5v-17.3h28.5V480.9z M1044.8,480.9
	h-29.7l0-17.3h29.7L1044.8,480.9z M1275.1,569.2h-47.6v-19.4h47.6V569.2z M1278.2,895.8h-51.3v-16.4h51.3V895.8z M1307.9,921.2v38.9
	h-18.3v-38.9H1307.9z M1465.8,1603.5v36.8h-17v-36.8H1465.8z M1331.6,936h-25.3v-14.8h25.3V936z M1448.8,1640.3H1425v-13.8h23.8
	V1640.3z M1089.7,1596.1h-41.1v-17.2h41.1V1596.1z M790,1596.1h41.4v-18.2H790V1596.1z M1089.7,1596.1v22.7h-15.3v-22.7H1089.7z
	 M790,1596.1v22.9h17.2v-22.9H790z"/>
<path d="M693.9,720.9h16.4v-85.2h-16.4V720.9z"/>
<path class="st3" d="M1331.7,1703.4h-7.6 M1341.5,1703.4h21.8 M1337.9,1651.8h26.9 M1281,1651.8h24.9 M1285,1703.4h20.9
	 M1274.8,1703.4h-8 M1269.4,1651.8h-4 M1256.9,1613.9v27.8 M1256.9,1605v-26.5 M1256.9,1578.5h-66.7 M1256.9,1578.5h10.9
	 M1281,1578.5h-13.2 M1291.7,1578.5h58.3v-36.2 M1350,1537.9v4.4 M1350,1542.3h-82.2 M1190.2,1542.3v36.2 M1190.2,1542.3h77.6
	 M1190.2,1542.3v-6.7 M1190.2,1578.5h-15.4 M1267.8,1564.7v13.8 M1267.8,1555.2v-12.9 M1410.9,1623.8v17.2 M1425.4,1626.9v-23.6
	h23.6v23.6H1425.4z M1410.9,1609.9v-25.4 M1410.9,1561v5.4 M1410.9,1540.5v-4.8 M1350,1513.3v-7.8 M1350,1416.1v30.8 M1350,1394.3
	v-32h-159.8v51.3 M1171,1535.7h19.2 M1190.2,1535.7v-75.5 M1171,1460.2h19.2 M1190.2,1460.2v-13.3 M1190.2,1446.9h24.3
	 M1190.2,1446.9v-33.2 M1226,1446.9h6.7 M1350,1446.9v58.6 M1350,1446.9h-42.4 M1324.1,1505.4h25.8 M1311.8,1505.4h-4.2
	 M1285,1505.4h22.6 M1273.1,1505.4h-3.7 M1248.9,1505.4h20.5 M1235.6,1505.4h-3v-58.6 M1232.6,1446.9h36.8 M1269.4,1505.4v-58.6
	 M1269.4,1446.9h38.1 M1307.5,1505.4v-58.6 M1174.8,1613.9v26.2 M1174.8,1603.3v-24.8 M1174.8,1578.5h-76.9 M1074.3,1619v-23h-25.4
	v55.7 M1091.7,1578.9h-65.1v-165.2h163.6 M1122,1347.6l-73.7,0.1 M1204.8,1039.8h-14.6v50.7 M1229.6,1039.8h9.7 M1288.8,1090.5h61.1
	 M1349.9,1090.5v-50.7h-110.7 M1349.9,1090.5v212.6h-159.8v-212.6 M1278.5,1090.5h-39.3 M1239.2,1090.5v-50.7 M1239.2,1090.5h-9.7
	 M1204.8,1090.5h-14.6 M1265.8,980h-32.6 M1278.5,980h10.3 M1348,954v26h-59.2 M1348,941.3v-20.5 M1331.7,935.9v23.6h-23.6v-23.6
	H1331.7z M1288.8,980v-42.3 M1190.2,882.7v12.7 M1190.2,862.8V706.4 M1190.2,685.2v-86.4 M1201.2,549.9h-11 M1220.5,549.9h119.6
	 M1379.5,549.9h-39.4 M1340.1,549.9v-27.2 M1340.1,513.7v-25.4 M1278.5,568.7h-51.4v309.8h51.4 M984.9,1058.8v6 M984.9,1046.7v-7.8
	 M984.9,968.8v5.4 M984.9,955.5v-6.7 M905.7,974.3h79.2 M984.9,974.3v64.6 M905.7,1038.9h79.2 M894.2,1038.9h-6.7v-64.6h6.7
	 M807.1,1619v-23h24.2v55.7 M710.9,1413.6H854v121.8 M760.9,1553.9v24 M789.6,1553.9v24H854v-42.4 M789.6,1543v-7.5H854 M760.9,1543
	v-7.5H689 M760.9,1347.6h74 M691,1251.3v-26.7 M601,1329.4v-16.5 M601,1312.9v-26.7h24.9v26.7H601z M586.2,1286.2h-66.4
	 M615.7,1224.2h-68.5 M351.3,1224.2h72.6 M280,1286.2h71.2 M267.7,1286.2v3.4 M267.7,1328v-38.3 M267.7,1289.6h-23.3v24.6h40.4v24
	 M249.9,1228v-20.5h34.9 M284.8,1207.5v36.5 M284.8,1207.5v-36.3h-34.9v19.9 M187.6,1221.9v20.5 M187.6,1211.6v-4.1h-65
	 M284.9,1161.6v-29.4h-76 M122.6,1132.2h86.3 M122.5,888.9h86.3 M287,814.5v6.8 M223.9,828.2v-6.8h63 M287,821.3v67.8h-63
	 M223.9,841.9v47.2 M223.9,889.1h-15.1 M181.5,802.2v44.5h-58.9 M181.5,790.5v-10.3 M181.5,780.3h-58.9 M181.5,780.3h53.4
	 M286.9,780.3v21.9 M286.9,780.3h-52.1 M286.9,780.3v-9.2 M286.9,744.6v26.5 M286.9,733.7v-2.8 M286.9,703.6v5.1 M234.9,748.1v23
	 M234.9,780.2v-9.2 M234.9,738.5v-7.5h27.6 M286.9,730.9v-22.3 M286.9,730.9h-24.5 M286.9,691.9v-6.8 M286.9,648.8v26.4
	 M286.9,640.6v-5.5 M234.9,644v-8.9 M234.9,652.9v22.3 M303.4,605.6h-16.4 M303.4,523.5h-16.4 M339.7,523.5h14.4 M339.7,605.6h14.4
	 M354.1,605.6v5.5 M354.1,605.6v-4.1 M354.1,622.1v26.7 M354.1,721.4v-72.6 M354.1,755.6h176.7v-34.2 M530.8,694v27.4 M530.8,721.4
	H602 M693.8,721.4H602 M602,721.4v-65 M602,636.5v19.8 M602,656.3h34.2 M659.5,656.3h34.2 M675.3,601.5h9.6 M636.3,601.5h-5.5
	 M620.5,504.3v17.1h17.8v13.7 M528,613.9v-12.3 M602,613.9v-12.3 M528.1,628.9v20.5 M528.1,681v-31.5 M528.1,649.5h-75.3
	 M430.8,648.8h-76.7 M351.3,792.4h74 M546.5,792.4h69.9 M759.2,674.5h77 M1121.4,674.5H1047 M908.2,492.1v34.2h49.2 M966,526.3h6.4
	v-34.2 M234.9,771.1h52.1 M286.9,708.6h-24.5v22.3 M234.9,675.2v9.8h52 M234.9,675.2h52.1 M286.9,675.2v9.8 M208.8,889.1v20.5h76
	l0.3,74.5h-76.6v49.5h76.6l-0.3,80h-76v18.5"/>
</svg>
