<?xml version="1.0" encoding="utf-8"?>
<!-- Generator: Adobe Illustrator 27.3.1, SVG Export Plug-In . SVG Version: 6.00 Build 0)  -->
<svg version="1.1" id="Discord.gg-_x40_marazm" xmlns="http://www.w3.org/2000/svg" xmlns:xlink="http://www.w3.org/1999/xlink"
	 x="0px" y="0px" viewBox="0 0 1680.3 1927.5" style="enable-background:new 0 0 1680.3 1927.5;" xml:space="preserve">
<style type="text/css">
	.st0{fill:#363636;stroke:#000000;stroke-width:2;}
	.st1{fill:#987F00;}
	.st2{fill:#777777;}
	.st3{fill:none;stroke:#000000;stroke-width:1.44;}
	.st4{fill:none;stroke:#000000;}
	.st5{fill:none;stroke:#000000;stroke-width:2;}
</style>
<path class="st0" d="M1397.5,1683c0.6,0,9.5,0,9.5,0c0-10.3-0.1-20.7-0.1-31l-9.8,0c0-0.8,0-1.7,0-2.5h10v-6.2h58v-58.6h-58v-480.3
	h162.8v-49.8h-101.7v22.4h-10.6v-13.1h-25v-23.7H1407v-70.4h162.8v-49.7h-101.7v21h-10.6v-13.7H1407V900h-3.1V225.9h-62.3V310
	h-153.5v-89.7h-185.9V1H875.6v219.3H686v205.6H581.8v21.8h-10.6v-13.1h-52.4v6.1H454v-75.4h-61.3v157.1h-12.5V365.4h-61.8v76.1
	h-67.4v32.4H89v48.6h101.7v-21.8h9.4v13.1h51.2v8.7h-41.8v120.2h-6.2V781h-84.2v106.5H59.6l-37.4,16.2v48.6H1v21.8h21.2v67.9H1v21.8
	h21.2v47.3l37.4,17.4h18.7v42.8H18.2v51.7H8.5v48.2h9.7v62.9h165.6v36.8c-28.9,0.1-57.8,0.2-86.8,0.2c0,16.2-0.1,32.4-0.1,48.7
	l166.1,0.3v-3.7h8.1v292h117.2v8.1H370v209.9h125.8v-210.5H477v-8.1h117.3v-290.8h7.5v3.1H654v48.6h199.3v60.2H689.7v45.5h95.4v74.9
	h156v20.6h20.6v-20.6h245.8v-6.2H1366v6.2h9.2c0,0.9,0,1.8,0.1,2.6c-3.3,0-6.6,0.1-9.9,0.1l-0.1,30.8l10.3-0.2l0.1,2.8l-3.8-0.1
	l-0.1,27.2h-2.4l0.1-21.2h-32l-0.2,33.8l31.9,0.1v-3.5h2.3l-0.4,52.8l3.9-0.1l0.1,2.1l-44.8-0.2l-0.2,28.6l41.9,0.1v2.8l-4.9,0
	l-0.1,17.5l-21.1-0.1l-0.3,32l41.3,0.3l0.1-49.4l-5.6,0.1v-2.5l24.9,0.2l0.1-18.2l-5-0.1l0.1-10.4l-3.5,0.1v-2.6h3.4v-23l3.2-0.1
	l-0.4,33.6l23.1,0.1v-31.2l-13.3-0.1l-0.1-2.6l13.2,0.2v-3l2.7,0l-0.4,97.1l249.7-1.9l0.2-151.2l-249.6-0.4l0,33.5h-2.5v-3.4
	l-25.9,0.1l0-36.9h-3.9c0-0.6,0-1.2,0-1.7c0-0.3,0-0.7,0-1c0-0.5-0.2-0.9-0.3-1.4c-0.1-1.3,0-2.7-0.1-4c-0.1-0.4-0.1-0.8-0.2-1.2
	c-0.1-1.1-0.2-2.8,0.2-5 M220.8,1389.5v-59.3h61.1v8.3H270v55.1h-7.1v-4.1H220.8L220.8,1389.5z M518.1,537.4v-62.2h168v15.4h-60.9
	v13.3l10.8,10.8v4.5h-17.8v-28.6h-17.5v46.8L518.1,537.4L518.1,537.4L518.1,537.4z M583.5,1338.3v-7.1h57.1v-48.5h65.7v126.9h146.4
	v30.6H789v-7.9h-53v7.9h-52.9v-49.6h-80.5v3.3h-8.1v-55.6L583.5,1338.3L583.5,1338.3z M668.6,1223.9v-84.6h37.8v84.6H668.6z
	 M668.6,881.4v-85.3h37.8v85.3H668.6z M686.1,608.8v-14h213.5v14H686.1z M690.3,750V644.4h16.1V750H690.3z M884.2,1024.3v-33.7h73.2
	v33.7H884.2z M973.2,608.7v-14h215.7v14H973.2L973.2,608.7L973.2,608.7z M1118.5,1135.8v-40.9l36.4-36.3h33v119.9h160.7v127.8
	h-159.4v-6.6h-10.7v-16.5h-39.2c-2.4,0-4.3-1.9-4.3-4.3v-126.6L1118.5,1135.8L1118.5,1135.8L1118.5,1135.8z M1121.6,919.4v-40.3
	l14.4-14.3V734.8c0-2.4,1.9-4.3,4.3-4.3h38.1v-15h9.6v238.8h-31.3L1121.6,919.4L1121.6,919.4L1121.6,919.4z M1187.9,547.6V381.3h151
	v166.3H1187.9z M1207.4,1589.6v-15.3h141.2v15.3L1207.4,1589.6L1207.4,1589.6z M1227.6,930.7v-29.9h120.8v18.6h-59.4v58.6h-18.8
	v-47.3L1227.6,930.7L1227.6,930.7z"/>
<path class="st1" d="M221.3,1330.2v-16.4h18.5v16.4H221.3z M121.3,1189.3h13.2v-28.4h-13.2V1189.3z M122.6,1418.8H154v-15.2h-31.4
	C122.6,1403.6,122.6,1418.8,122.6,1418.8z M122.6,1404.1h15l0.2-16.6l16.1-0.5v-14.5h-31.4L122.6,1404.1L122.6,1404.1L122.6,1404.1z
	 M198.5,1189.4h19.3v-28.4h-19.3V1189.4z M210.3,1130.2h52.8l0.1-4.2l7.2,0.1v-13.6h-60.2L210.3,1130.2L210.3,1130.2L210.3,1130.2z
	 M210.3,1034.7H234v-50.1h-23.6V1034.7z M210.3,904.6h60.1V889h-60.1V904.6z M221.3,1313.8h18.5v-19.2h-14l0,2.2l-4.5-0.2V1313.8z
	 M239.8,1313.8v16.4h22.1v-16.4H239.8z M241.5,728.4h17.1V667h-17.1L241.5,728.4L241.5,728.4L241.5,728.4z M241.5,670.2h19.7v-23
	h-19.7V670.2z M257,705.4h13.6v-17.9H257V705.4z M257.2,686.4h13.3v-16.2h-13.3L257.2,686.4L257.2,686.4z M371.5,1223h48.8v-16.3
	h-48.8V1223z M371.4,808.1h50v-15.5h-50V808.1z M546.6,1223h50.3v-15.6h-50.3V1223z M546.6,808.1h50.3v-15.5h-50.3V808.1z
	 M549.4,1034.2h21.9v-50.1h-21.9V1034.2z M573.7,561H591v-25.2h-17.3V561z M599.6,519.8V537h35.9v-17.7h-17.1v-30.2h-18.8V519.8
	L599.6,519.8L599.6,519.8z M602.1,1329.8h36.8v-29.1h-14.5v13.1h-22.4L602.1,1329.8L602.1,1329.8L602.1,1329.8z M783.8,1346.6h45.7
	v-23.5h-45.7V1346.6z M783.3,698.2h47v-23.5h-47V698.2z M786.3,1616.9H802v-23h-15.7V1616.9z M800.8,1081.6h46.6v-23.5h-46.6V1081.6
	z M801.1,952.3h46.3v-23.5h-46.3V952.3z M786.3,1595.1h27.2v-17.7h-27.2V1595.1z M832.9,478.5h27.6v-15h-27.6V478.5z M874.9,1206.2
	l13.3,7l13.4-25.3l-13.3-7L874.9,1206.2z M895.2,1143.2h34.4v-16.7h44.5v-16.7h-45.7v16.7h-33.2V1143.2z M895.8,1291.2l22.4,17.9
	l9.4-11.7l-22.4-17.9L895.8,1291.2z M928.4,899.9h45.7v-16.7h-45.7V899.9z M981,754.2h13.4v-23H981V754.2z M1015.1,478.5h28.9v-15
	h-28.9L1015.1,478.5L1015.1,478.5L1015.1,478.5z M1024.6,1143.2h34.4v-16.7h-34.4V1143.2z M1033.2,1081.5h45.7v-23.5h-45.7V1081.5z
	 M1033.2,952.2h45.7v-23.5h-45.7V952.2z M1050.3,698.2h47.7v-24.3h-47.7V698.2z M1050.4,1346.5h47.4v-23.5h-47.4V1346.5z
	 M1057,1593.6h15.5v23h17.9v-41.4H1057L1057,1593.6L1057,1593.6L1057,1593.6z M1189.6,931.4h35.7l0.8-31.4h-36.9L1189.6,931.4z
	 M1234.3,381.1h11.5v-23.2h-11.5V381.1z M1239.8,566.1h34.4v-18.3h-34.4V566.1z M1240.1,894.5h34.4V877h-34.4V894.5z M1288.5,959.1
	h17.4v-24.8h-17.4V959.1z M1287.8,935.9h33.7v-16.7h-33.7V935.9z M1348.4,930.7h30.4v-30.9h-30.4V930.7z M1359.8,546.5h28.5v-16.4
	h-28.5V546.5z M1388.3,546.5h16.4v-38.9h-16.4V546.5z M1432.5,1641.8h17.2v-15.2h-17.2V1641.8z M1449.7,1641.8h15.9v-38.2h-15.8
	L1449.7,1641.8L1449.7,1641.8z"/>
<path class="st2" d="M17.8,1318.4l6.1,4.8l6.1-7.8l-6.1-4.8C23.9,1310.6,17.8,1318.4,17.8,1318.4z M24.5,1332h11v-7.8h-11V1332z
	 M37.1,1216.7h6.6v-4.9h2.1v5.8h6.6v-5.8h27.5v-9.8H41v6.9h-3.9V1216.7L37.1,1216.7L37.1,1216.7z M52.2,1244l3.2,16l6.5-1.3l-3.2-16
	L52.2,1244z M54.6,1221.5h6.6v-7.8h-6.6V1221.5z M69.2,944.3h7.6v-14.7h-7.6V944.3z M72.5,1011h54.7v-9.8h-3.1v-5.8h-21.2v5.8H72.5
	V1011z M79.9,1087.8h54.7v-9.8h-48v-8.1h-6.7L79.9,1087.8L79.9,1087.8L79.9,1087.8z M79.9,947.4h6.7v-8.1h48v-9.8h-4.3v-9.7h-12.5
	v9.7h-1.3v-9.7h-12.5v9.7H79.9C79.9,929.5,79.9,947.4,79.9,947.4z M81.8,1018.6h21.1v-5.9H81.8V1018.6z M91.5,1234.6l1.8,9.3
	l6.5-1.3l-1.8-9.3L91.5,1234.6z M92.4,1230.8l6.5,1.3l1.8-9.3l-6.5-1.3L92.4,1230.8z M102.9,1167l6.5,1.3l1.3-6.6l-6.5-1.3
	L102.9,1167L102.9,1167L102.9,1167z M104.1,1158.5h6.6v-7.8h-6.6V1158.5z M121,834.8h6.2v-35.2H121V834.8z M146,793.2h35.6v-7.5H146
	L146,793.2L146,793.2L146,793.2z M147.5,1191c0,3.4,2.8,6.2,6.2,6.2l0,0c3.4,0,6.2-2.8,6.2-6.2l0,0c0-3.4-2.8-6.2-6.2-6.2
	S147.5,1187.6,147.5,1191L147.5,1191z M150.6,817.8h52.2V812h-52.2V817.8z M156.3,847.4h20.5v-7.5h-20.5V847.4z M175.1,1305.4h16.3
	v-7.4h-16.3V1305.4z M180.8,1191c0,3.4,2.8,6.2,6.2,6.2l0,0c3.4,0,6.2-2.8,6.2-6.2l0,0c0-3.4-2.8-6.2-6.2-6.2
	S180.8,1187.5,180.8,1191L180.8,1191z M185.9,1342.1h10.9v-9.9h-10.9V1342.1z M191.2,858.2h57.2v-5.5h-57.2V858.2z M196.6,791.7
	h20.5v-7.5h-20.5V791.7z M202.9,846.6h20.5v-7.5h-20.5V846.6z M215.9,1111.5h54.7v-9.8h-54.7V1111.5z M217.1,916.4h52.3v-11.1h-52.3
	L217.1,916.4L217.1,916.4L217.1,916.4z M226.9,1276.9h7.3v-9.9h-7.3V1276.9z M226.9,1262.1h7.3v-9.9h-7.3V1262.1z M229.7,1041.1
	h17.9v-6.7h-17.9V1041.1z M230.1,983.2h10.7v48h7.2v-54.6h-17.9L230.1,983.2L230.1,983.2L230.1,983.2z M267.5,1041.1H286v-6.7h-8.7
	v-48.7h-9.8V1041.1z M268.3,983.9h10.4v47.9h8.2v-56h-18.6V983.9L268.3,983.9L268.3,983.9z M270.6,1590.8c0,2.8,1.5,5.6,4.4,7h31.6
	c5.8-2.8,5.8-11.1,0-13.9H275C272.1,1585.3,270.6,1588.1,270.6,1590.8L270.6,1590.8L270.6,1590.8z M272.8,1468.4
	c0,2.8,1.5,5.6,4.4,7h31.6c5.8-2.8,5.8-11.1,0-13.9h-31.6C274.3,1462.9,272.8,1465.7,272.8,1468.4L272.8,1468.4L272.8,1468.4z
	 M274.5,1492c0,2.8,1.5,5.6,4.4,7h31.5c5.8-2.8,5.8-11.1,0-13.9h-31.5C275.9,1486.5,274.5,1489.2,274.5,1492L274.5,1492L274.5,1492z
	 M275,1444.2c0,2.6,1.2,5.2,3.8,6.8l31.5,2.7c6-2.3,6.8-10.6,1.2-13.9l-31.5-2.7C276.8,1438.3,275.1,1441.2,275,1444.2L275,1444.2
	L275,1444.2z M277.9,1292.7H293v-7.5h-15.1V1292.7z M278.9,1681.4c0,2.8,1.5,5.6,4.4,7h31.6c5.8-2.8,5.8-11.1,0-13.9h-31.6
	C280.3,1675.9,278.9,1678.6,278.9,1681.4L278.9,1681.4L278.9,1681.4z M288.5,1035.9h7v-54.6h-7V1035.9z M291.6,1300.5l7,2.4l4.8-14
	l-7-2.4L291.6,1300.5L291.6,1300.5L291.6,1300.5z M296.7,649h9.9v-5.6h-9.9V649z M296.7,633h9.9v-5.6h-9.9V633z M296.7,616.9h9.9
	v-5.6h-9.9V616.9z M296.6,1030.5h6.8v-19h7.2v-9.6h-14V1030.5L296.6,1030.5L296.6,1030.5z M296.8,1000.8h13.8v-10.2h-13.8V1000.8z
	 M302.5,738.9h6.7v-17.6h-6.7V738.9z M305.8,1025.4h5.7v-9.6h-5.7V1025.4z M320.3,738.9h7.4v-17.6h-7.4V738.9z M332.5,1333.8h11.1
	v-9.9h-11.1V1333.8z M336.4,608.5h8.9v-0.6h8.9v1.2h11.1V603h-20v0.6h-8.9V608.5z M336.8,692.7h14v-6.9h-14V692.7z M336.8,665.9h14
	v-6.9h-14V665.9z M364.1,692.7h14v-6.9h-14V692.7z M364.1,665.9h14v-6.9h-14V665.9z M368,1515.6c0,3.1,1.6,6.2,4.9,7.7H408
	c6.5-3.1,6.5-12.3,0-15.5h-35.1C369.7,1509.4,368,1512.5,368,1515.6L368,1515.6L368,1515.6z M370.2,1538.7c0,2.8,1.5,5.6,4.4,7h31.6
	c5.8-2.8,5.8-11.1,0-13.9h-31.6C371.7,1533.1,370.2,1535.9,370.2,1538.7z M373.1,1606.6c2.8,5.8,11.1,5.8,14,0v-31.5
	c-2.8-5.8-11.1-5.8-14,0V1606.6z M373.1,1351.3c2.8,5.8,11.1,5.8,14,0v-31.5c-2.8-5.8-11.1-5.8-14,0V1351.3z M378.1,739h7.4v-17.6
	h-7.4V739z M387.1,1755.5l5,6.4l8.3-6.4l-5-6.4L387.1,1755.5z M392.7,1887.4c0,3.3,2,6.6,5.7,7.6l31-5.8c5.2-3.9,3.7-12-2.6-13.7
	l-31,5.8C393.7,1882.8,392.7,1885.1,392.7,1887.4L392.7,1887.4L392.7,1887.4z M395.3,1813.9c0.7,6.4,8.5,9.2,13.1,4.7l10.7-29.7
	c-0.7-6.4-8.5-9.2-13.1-4.7L395.3,1813.9L395.3,1813.9L395.3,1813.9z M395.7,1601.7c2.8,5.8,11.1,5.8,14,0v-31.5
	c-2.8-5.8-11.1-5.8-14,0V1601.7z M395.7,1343.1c2.8,5.8,11.1,5.8,14,0v-31.5c-2.8-5.8-11.1-5.8-14,0V1343.1z M397.9,1454.1
	c2.8,5.8,11.1,5.8,14,0v-31.5c-2.8-5.8-11.1-5.8-14,0V1454.1z M397.9,739h7.4v-17.6h-7.4V739z M407.4,609.2h8.7V603h-8.7V609.2z
	 M413.6,739h7.4v-17.6h-7.4V739z M416.1,692.8h4.5v-10.2h-4.5V692.8z M416.1,667.6h4.5v-10.2h-4.5V667.6z M420.9,1735l11.6,29.3
	c4.8,4.4,12.5,1.3,13-5.1l-11.6-29.3C429.1,1725.5,421.4,1728.5,420.9,1735L420.9,1735L420.9,1735z M432.1,739h7.4v-17.6h-7.4V739z
	 M433.5,692.8h4.5v-10.2h-4.5V692.8z M433.5,667.6h4.5v-10.2h-4.5V667.6z M447.2,1849.1c0.7,6.4,8.5,9.2,13.1,4.7l10.7-29.7
	c-0.7-6.4-8.5-9.2-13.1-4.7L447.2,1849.1L447.2,1849.1L447.2,1849.1z M447.6,1314.6h15.6v-6.6h-15.6V1314.6z M448.3,739h7.4v-17.6
	h-7.4V739z M452.8,1558.7c0,2.8,1.5,5.6,4.4,7h31.6c5.8-2.8,5.8-11.1,0-13.9h-31.6C454.3,1553.2,452.8,1555.9,452.8,1558.7
	L452.8,1558.7L452.8,1558.7z M454.3,1494.9c-0.1,2.4,1.1,4.9,3.5,6.3l29.1,2.7c5.6-2.1,6.3-9.8,1.2-12.9l-29.1-2.7
	C456,1489.4,454.4,1492.1,454.3,1494.9L454.3,1494.9L454.3,1494.9z M454.5,1461.1c2.8,5.8,11.1,5.8,14,0v-31.5
	c-2.8-5.8-11.1-5.8-14,0V1461.1z M454.5,1333.4h8.8v-15.3h-8.8V1333.4z M458.8,1636.3c0,5.2,4.7,9.7,10.4,8.8l29.7-21
	c3.6-6.5-1.9-14.3-9.3-13.1l-29.7,21C459.1,1633.3,458.8,1634.8,458.8,1636.3L458.8,1636.3z M459.4,1516.4c0,2.8,1.5,5.6,4.4,7h31.6
	c5.8-2.8,5.8-11.1,0-13.9h-31.6C460.9,1510.9,459.4,1513.7,459.4,1516.4z M460.7,1371.9c-0.1,2.2,0.7,4.5,2.5,6.3l34.1,12.8
	c7.4-0.7,10.8-9.7,5.6-15.1l-34.1-12.8C463.9,1363.7,460.8,1367.7,460.7,1371.9L460.7,1371.9L460.7,1371.9z M464.5,739h7.4v-17.6
	h-7.4V739z M464.9,675.9h14v-6.9h-14V675.9z M464.9,649.1h14v-6.9h-14V649.1z M480.9,718.8h3.8v-12.2h-3.8V718.8z M480.9,693.8h3.8
	v-12.2h-3.8V693.8z M480.9,663.6h3.8v-12.2h-3.8V663.6z M501,1683.9h11.8v-9.4H501V1683.9z M501,1672.3h8.8v-12.2H501V1672.3z
	 M512.8,1668.5h6.3v-13.9h-6.3V1668.5z M515,1676.9h14v-7h-14V1676.9z M542.3,1491c0,3.2,1.7,6.4,5,8h36.1c6.7-3.2,6.7-12.7,0-16
	h-36.1C544,1484.7,542.3,1487.9,542.3,1491z M549.6,1590.9c0,2.8,1.5,5.6,4.4,7h31.6c5.8-2.8,5.8-11.1,0-13.9h-31.6
	C551,1585.3,549.6,1588.1,549.6,1590.9L549.6,1590.9L549.6,1590.9z M549.6,1542c0,2.8,1.5,5.6,4.4,7h31.6c5.8-2.8,5.8-11.1,0-13.9
	h-31.6C551,1536.5,549.6,1539.2,549.6,1542L549.6,1542L549.6,1542z M551.3,1659.1h8.2V1649h-8.2V1659.1z M553.4,1676.9
	c0,2.8,1.5,5.6,4.4,7h31.6c5.8-2.8,5.8-11.1,0-13.9h-31.6C554.9,1671.3,553.4,1674.1,553.4,1676.9L553.4,1676.9L553.4,1676.9z
	 M627.1,569.5h12.7v-8h-12.7V569.5z M627.1,504.8l7.7,8l6.1-5.9l-7.7-8L627.1,504.8L627.1,504.8L627.1,504.8z M635.1,596.6h12.7v-8
	h-12.7V596.6z M650.2,593.9l8.3,1.3l0.9-5.8l-8.3-1.3L650.2,593.9L650.2,593.9L650.2,593.9z M663.2,501.1h11.2v-8.5h-11.2V501.1z
	 M665,596.6h12.7V587H665V596.6z M687,592.6h12.7v-8H687V592.6z M687,553l9.3,2.7l3.4-11.8l-9.3-2.7L687,553z M687,272.9h11.1v-11.3
	H687V272.9z M687.5,240.8l1.8,10.9l10-1.7l-1.8-10.9L687.5,240.8z M688.6,502.3h9.7v-12.2h-9.7V502.3z M698.2,535.3l1.6,5.9l7.7-2
	l-1.6-5.9L698.2,535.3z M714.9,456.7h76.6v-14.6h-76.6V456.7z M714.9,406.8H833v-14.6H714.9L714.9,406.8L714.9,406.8L714.9,406.8z
	 M714.9,290.9H833v-14.6H714.9L714.9,290.9L714.9,290.9L714.9,290.9z M714.9,236.7H833V222H714.9L714.9,236.7L714.9,236.7
	L714.9,236.7z M719.9,365.8l17.6,2.8l8.2-51.5l-17.6-2.8L719.9,365.8L719.9,365.8L719.9,365.8z M722.8,465.8l6.1,1.7l2-7.3l-6.1-1.7
	L722.8,465.8z M739.5,1169.2h18.1v-36.7h-18.1V1169.2z M742.2,361.5l7.1,3l3.5-8.4l-7-2.9L742.2,361.5L742.2,361.5L742.2,361.5z
	 M743,440l7.4,2l2.4-8.8l-7.4-2L743,440z M744,341l0.2,9.1l7.6-0.2l-0.2-9.1L744,341L744,341L744,341z M757.6,1260.3h21.1v-15.8
	h-21.1V1260.3z M772.5,368.8h17.9v-52.1h-17.9V368.8z M790.3,1219.2h11.6v-9.7h-11.6V1219.2z M792.8,1285.7h7.7v8.5h15.4v-8.5H828
	v-2.1h0v-7.8h-19.8v3h-7V1264h-8.4L792.8,1285.7L792.8,1285.7z M799.3,891.4h4.5v-21.7h-4.5V891.4z M805.6,1091.1h10.2v-7.1h-10.2
	V1091.1z M807.4,1212.4c0,5,4,9,9,9s9-4.1,9-9s-4-9-9-9S807.4,1207.4,807.4,1212.4L807.4,1212.4z M808.1,1196.9h7.7v-5.2h-7.7
	V1196.9z M809.1,905h31.3v-8.5h-31.3V905z M809.1,860.7h11.7v2.5h17v-6.8h-17v0h-11.7V860.7L809.1,860.7L809.1,860.7z M809.9,422.3
	l26.6,14.3l4.7-8.7l-26.6-14.3L809.9,422.3z M811.5,780.5h5.2V768h-5.2V780.5z M817.6,793.9l5.1,3.5l7.9-11.5l-5.1-3.5L817.6,793.9
	L817.6,793.9z M818,1196.9h16.9v-3.7H818V1196.9z M820.8,1173.9h47.5v-18.1h-47.5V1173.9z M828,1121h29.3v-8.8H828V1121z M833,409.2
	l19.1,10.3l8.2-15.1l-19.1-10.3L833,409.2L833,409.2L833,409.2z M837.9,865h17v-6.8h-17V865z M844.5,1285.7h15.4v-9.9h-15.4V1285.7z
	 M848.1,782.5h10.7v-5.1h-10.7V782.5z M854.9,796.2h3.8v-9.7h-3.8V796.2z M854.9,767.3h5.3v-5.1h-5.3V767.3z M858.5,1207.4h9.8v-5.7
	h-9.8V1207.4z M862.2,225.6l2.7,11l10.5-2.6l-2.7-11L862.2,225.6L862.2,225.6L862.2,225.6z M864.9,290.9l6.4,13.3l14.7-7.1
	l-6.4-13.3L864.9,290.9z M866.9,1200.5l6.8,3.1l4-8.9l-6.8-3.1L866.9,1200.5L866.9,1200.5z M868.8,323.7l13.5,17.2l39.8-31.2
	l-13.5-17.2L868.8,323.7z M869.8,404l21.8,1.2l3.3-59.3l-21.8-1.2L869.8,404L869.8,404L869.8,404z M876.2,230.9
	c0,4.6,3.7,8.3,8.3,8.3s8.3-3.7,8.3-8.3s-3.7-8.3-8.3-8.3S876.2,226.3,876.2,230.9L876.2,230.9z M878.4,420.6l8.6,20.7l14.5-6
	l-8.6-20.7L878.4,420.6z M881.8,800.1h15.7v-27h-15.7V800.1z M888.2,696.3l10.4,7.2l5.4-7.8l-10.4-7.2L888.2,696.3z M888.7,1125.4
	h4.6v-31.5h-4.6V1125.4z M888.7,1236.5l6.6,9l21.8-15.9l-6.5-9L888.7,1236.5L888.7,1236.5z M891,99.9l1.8,10.9l10-1.7L901,98.2
	L891,99.9L891,99.9L891,99.9z M892.8,67.9H919V50.7h-26.1V67.9z M899.3,928.3l7.9,10.9l14-10.2l-7.9-10.9L899.3,928.3z M903.9,828.2
	l5.4,7.9l5.1-3.5l-5.4-7.9L903.9,828.2z M903.9,623.3h20.4v-12.6h-20.4V623.3z M909.5,484.8l2.4,21.5l17.2-1.9l-2.4-21.5
	L909.5,484.8z M910.1,786.5h21.5v-8h-21.5V786.5z M913.6,821.5h21.5v-8h-21.5V821.5z M914.4,162.8h18.9l0.9,2.3l6.2-2.3h19.8v-5.6
	H947l-12.4-33.1l-13.8,5.2l10.5,27.9h-16.8V162.8z M915.7,1125.4h9.6v-6.1h-9.6V1125.4z M917.1,1116l5.5,3.2l4.1-7.1l-5.5-3.2
	L917.1,1116z M919,764.8h21.5v-8H919V764.8z M925.8,532.2l22.7,5.5L955,511l-22.7-5.5L925.8,532.2z M932.9,1055.8h56.7v-9.9h-56.7
	V1055.8z M932.9,967.6h48.7v13.8l-1.7,0.5l7.9,26.9l-7.9,26.9l1.7,0.5v8h20v-9.4h-9.8l7.5-25.4l-2.2-0.6l2.2-0.6l-8.7-29.4l-1,0.3
	v-11.4h0v-9.9h-56.7L932.9,967.6L932.9,967.6L932.9,967.6z M935.1,716.7l17.7,12.1l4.5-6.6l-17.7-12.1L935.1,716.7z M935.1,500.4
	l26.4,11.8l-2.2,0.1l0.5,10.8l9.4-0.5l-0.5-10.8l-6.6,0.3l10-22.4l-26.9-12L935.1,500.4L935.1,500.4L935.1,500.4z M935.5,1286.6
	l7,0.4l0.5-7.8l-7-0.4L935.5,1286.6z M936.6,882.8h24.7v-9.9h-24.7V882.8z M936.6,926.9l5.2,9.2l19.5-11l-5.2-9.2L936.6,926.9z
	 M941.9,1276.6l3.1,6.3l7.2-3.6l-3.1-6.3L941.9,1276.6z M944.5,1285.7l1.5,7.7l6.9-1.4l-1.5-7.7L944.5,1285.7z M946,251.6l12.5,9.4
	l5.6-7.4l-12.5-9.4L946,251.6z M951.9,95.4l4.8,40.2l19.7-2.4l-4.8-40.2L951.9,95.4z M952.5,542.4l9.2,2.2l2.6-10.5l-9.2-2.2
	L952.5,542.4z M954.2,792.1h5.4v-8.5h-5.4V792.1z M957.4,1108.2H971v-11.6h-13.6V1108.2z M957.8,49h10.1v10.3h15.5V41.8h-15.5v-3.9
	h-10.1V49L957.8,49L957.8,49z M961.3,1279.1l18.9,6.5l3.1-8.9l-18.9-6.5L961.3,1279.1z M961.3,1264l3.1,6.3l7.2-3.6l-3.1-6.3
	L961.3,1264z M963.6,1230.9l3.7,7.9l8-3.7l-3.7-7.9L963.6,1230.9z M966.4,239.5l14,50.8l20-5.5l-14-50.8L966.4,239.5L966.4,239.5z
	 M967.4,143.7l1.8,10.9l10-1.7l-1.8-10.9L967.4,143.7L967.4,143.7L967.4,143.7z M969.6,1249.8l4.7,5.2l9.6-8.7l-4.7-5.2
	L969.6,1249.8z M973.3,428.7h19.5v-48.9h-19.5V428.7z M975.6,1267.6l7.6,2.6l2.3-6.6l-7.6-2.6L975.6,1267.6z M976.4,792.3l0.7,9.5
	l15.1-1.2l1.4,18l8.3-0.6l-2-25.8l-1.3,0.1l-0.1-1.6L976.4,792.3L976.4,792.3L976.4,792.3z M976.7,1237.4h8.8v-8.8h-8.8V1237.4z
	 M981.3,489.4l11.5,11.2l20-20.6l-11.5-11.2L981.3,489.4z M983.4,377.9h9.4v-1.4h1.4v72.7h19.3V347.3h-20.7V367h-9.4L983.4,377.9
	L983.4,377.9z M984.7,365.1h6.6v-10.6h-6.6V365.1z M989.6,845.3h7.2v-13.6h-7.2V845.3z M993.2,922.2l22.8,3l2.1-15.6l-4.5-0.6
	l2.8-10.5l-7.6-2l-2.9,10.8l5.1,1.4l-15.7-2.1L993.2,922.2L993.2,922.2L993.2,922.2z M993.3,1277.6l43,1.8l0.7-15.8l-43-1.8
	L993.3,1277.6L993.3,1277.6L993.3,1277.6z M997,1170.3l9.8,11l8.4-7.5l-9.8-11L997,1170.3z M1014.3,859.4h5.1v-32.3h-5.1V859.4z
	 M1014.9,359.7l21.3,4.8l10.9-48l-21.3-4.8L1014.9,359.7L1014.9,359.7L1014.9,359.7z M1018.1,906.6h9.4v-11.4h-9.4V906.6z
	 M1021,458.4l23.5,1.3l1.6-29.7l-23.5-1.3L1021,458.4z M1024.9,1288.8h38.9v-5.8h-38.9V1288.8z M1026.9,518.9h28.7v-24.6h-28.7
	L1026.9,518.9L1026.9,518.9z M1032.2,847.9h13.2v-8.3h-13.2V847.9z M1032.2,794.7h13.2v-8.3h-13.2V794.7z M1032.2,741.6h13.2v-8.3
	h-13.2V741.6z M1040.1,407.4h116.6v-15.9h-116.6V407.4z M1040.1,290.4h116.6v-15.9H1100l4.5-9.3l-26.8-13l-4.5,9.4l26.8,13h-59.9
	L1040.1,290.4L1040.1,290.4L1040.1,290.4z M1040.1,234h116.6v-12.6h-116.6V234z M1041.2,880.7h23.4v-15.6h-23.4V880.7z M1041.9,1516
	h32.2v-15.4h-32.2V1516z M1048.9,1125.3h11.9v-10.9h-11.9V1125.3z M1048.9,1112.1h7.7v-7.9h-7.7V1112.1z M1049.4,1094.8l3.7,6.7
	l12.7-6.9l-3.7-6.7L1049.4,1094.8z M1053.2,1177.6l14.2,15.9l10-8.9l-14.2-15.9L1053.2,1177.6z M1057.9,511l8.1,0.7l1.7-18.3
	l-8.1-0.7L1057.9,511L1057.9,511L1057.9,511z M1067.7,498.1l1.7,9.7l9-1.6l-1.7-9.7L1067.7,498.1z M1079.7,356.3l18.7,5l4.4-16.8
	l-18.7-5L1079.7,356.3L1079.7,356.3z M1080.8,457.1h75.9v-15.9h-75.9V457.1z M1084.2,318.8l4.5,16.8l18.7-5l-4.4-16.8L1084.2,318.8z
	 M1095.1,1130.7h6.2v-5.4h-6.2V1130.7z M1102.5,790.5h16.2v-25.9h-11.5v19h-4.7L1102.5,790.5L1102.5,790.5z M1107.3,361.3h46.7V316
	h-46.7V361.3z M1110.1,1229.8h9v-9.3h-9V1229.8z M1142.3,1630.3h7.7v-8.2h-7.7V1630.3z M1153.2,1628.5h7.7v-3.6h11.3v-8.4h-11.3v0.8
	h-7.7V1628.5L1153.2,1628.5L1153.2,1628.5z M1155.3,1580.6h30.5v-4.3h-30.5V1580.6z M1164,592.5h21.2v-46.3H1164V592.5z
	 M1170.4,249.3h14.8v-27.9h-14.8V249.3z M1190.5,1495h19.1v-7h-19.1V1495z M1190.5,1405.8h6.6v-17.2h-6.6V1405.8z M1190.8,665.2
	h10.2v-33.2h-10.2V665.2z M1190.8,620.4h10.2v-33.2h-10.2V620.4z M1191.7,569l4,8.5l12-5.6l-4-8.5L1191.7,569z M1192.2,378.3
	l5.1,0.8l1.4-8.7l-5.1-0.8L1192.2,378.3z M1193.6,317h14.9v-6.2h-14.9V317z M1193.8,1152.6h7v-16.8h-7V1152.6z M1193.8,1127.5h7
	v-16.8h-7V1127.5z M1193.8,1105.3h7v-16.8h-7V1105.3z M1193.8,1057.3h5.1v-11.8h-5.1V1057.3z M1193.8,1443.3h15.8v-7.1h-15.8V1443.3
	z M1195.3,1590.1h7.5v-8.1h-7.5V1590.1z M1195.8,1526.2l6.9,0.9l2.6-18.9l-6.9-0.9L1195.8,1526.2z M1197,1177.6h32.9v-9.6H1197
	V1177.6z M1197.4,557.8h10.2V550h-10.2V557.8z M1209.6,1429h17.1v-5.6h-17.1V1429z M1209.6,1388.6h17.1v-7.6h-17.1V1388.6z
	 M1211,317h7.1v-6.2h-7.1V317z M1217.1,976.1h9.5v-10.4h-9.5V976.1z M1226.6,1445.4h15.8v-7.1h-15.8V1445.4z M1233.4,1314.8h10.9
	v-7.9h-10.9V1314.8z M1237.1,1477h5.3v-15.7h-5.3V1477z M1237.1,1425.2h5.3v-19.4h-5.3V1425.2z M1237.4,1081.9l1.6,6.5l14.9-3.6
	l-1.6-6.5L1237.4,1081.9z M1239.2,1602.6h11.8v-9.5h-11.8V1602.6z M1242.3,842.8h32.5v-9.5h-32.5V842.8z M1242.3,815.8h32.5v-9.5
	h-32.5V815.8z M1242.3,788.9h32.5v-9.5h-32.5V788.9z M1242.3,761.9h32.5v-9.5h-32.5V761.9z M1242.3,692.2h32.5v-9.5h-32.5V692.2z
	 M1242.3,665.2h32.5v-9.5h-32.5V665.2z M1242.3,638.3h32.5v-9.5h-32.5V638.3z M1242.3,611.3h32.5v-9.5h-32.5V611.3z M1246.2,1479.3
	h5.3v-15.7h-5.3V1479.3z M1246.2,1457.6h5.3v-15.7h-5.3V1457.6z M1246.7,1390.9h4.2v-16.7h-4.2V1390.9z M1249.9,1438.3h21v-5.3h-21
	V1438.3z M1252.7,1356.8h9.1v-5.5h-9.1V1356.8z M1252.9,1601.9l8.2,4.8l4.8-8.2v3.4h19.9v-9.5h-19.9v6.1l-8.2-4.8L1252.9,1601.9
	L1252.9,1601.9L1252.9,1601.9z M1255.1,947.5l3.3,6.4l10.5-5.5l-3.3-6.4L1255.1,947.5z M1256.3,1139.4l6.6,1.2l2.7-15.1l-6.6-1.2
	L1256.3,1139.4z M1256.6,1315.6l3.7,10.3l9-3.2l-3.7-10.3L1256.6,1315.6z M1257.4,1530.6h32v-7.7h-32V1530.6z M1257.6,976.1h11.9
	v-7.2h-11.9V976.1z M1264.4,1348.5l1.7,9.4l6.4-1.1l-1.7-9.4L1264.4,1348.5z M1265.6,994.3h24.7V987h-24.7V994.3z M1273.4,1322.6
	h11.4v-10.9h-11.4V1322.6z M1273.6,1438.3h18.3v-5.3h-18.3V1438.3z M1279.1,1428.4h4.2v-16.7h-4.2V1428.4z M1281,1032.8h7.9v-7.3
	h-7.9V1032.8z M1283.3,1372.3h17.1v-7.6h-17.1V1372.3z M1285.7,1356.8h11.4v-10.9h-11.4V1356.8z M1287.6,1639.1h19v-8.7h-19V1639.1z
	 M1287.6,1428.4h4.2v-16.7h-4.2V1428.4z M1293.5,1444.7h8.6v-9.1h-8.6V1444.7z M1298.2,1177h15.3v-8.3h-15.3V1177z M1300.4,1513.3
	h8.5v-7.7h-8.5V1513.3z M1300.4,1315.9h18.7v3.2h11.4v-10.9h-11.4v2.6h-18.7V1315.9z M1301.2,990.7h24.7V987h-24.7V990.7z
	 M1306,898.8h32.5v-7.9H1306V898.8z M1308.9,1639h11.8v-4.3h-11.8V1639z M1311.8,1530.6h5v-25h-5V1530.6z M1311.8,1488h32.8v-5.9
	h-32.8V1488z M1311.8,1594.3l0.6,8.3l8.3-0.6l-0.6-8.3L1311.8,1594.3z M1319.1,1450h18.3v-5.3h-18.3V1450z M1321.9,1099.6h22v-9.6
	h-22V1099.6z M1330.6,842.8h32.5v-9.5h-32.5V842.8z M1330.6,815.8h32.5v-9.5h-32.5V815.8z M1330.6,788.9h32.5v-9.5h-32.5V788.9z
	 M1330.6,761.9h32.5v-9.5h-32.5V761.9z M1330.6,692.2h32.5v-9.5h-32.5V692.2z M1330.6,665.2h32.5v-9.5h-32.5V665.2z M1330.6,638.3
	h32.5v-9.5h-32.5V638.3z M1330.6,611.3h32.5v-9.5h-32.5V611.3z M1336.7,1174.7h7.2V1139h-7.2V1174.7z M1338.6,1133.4h5.3v-18.1h-5.3
	V1133.4z M1338.6,1072.1h5.3v-11.8h-5.3V1072.1z M1338.6,1057.4h5.3v-11.8h-5.3V1057.4z M1341.4,408.7h19.8v-13.1h-19.8V408.7z
	 M1344.9,557.3h32.5v-7.9h-32.5V557.3z M1345.6,300.1l5.6,28l8-1.6l-5.6-28L1345.6,300.1z M1350.4,1057.4h12.5v-8.9h-12.5V1057.4z
	 M1351,1604.2h9.1v-8.7h-9.1V1604.2z M1351.9,1092.5l4,0.6l3.6-24.9l-4-0.6L1351.9,1092.5L1351.9,1092.5L1351.9,1092.5z
	 M1353.4,1516.2h4.1v-25h-4.1V1516.2z M1355.5,1264.5h5.3v-8.9h-5.3V1264.5z M1364.3,528.1h22.9v-7.9h-10.8v-9.5h-5.3v9.5h-6.8
	V528.1z M1378.7,507.5l2.1,9.2l5.2-1.2l-2.1-9.2L1378.7,507.5z M1385.6,1421l15.9,11.3l2.4-3.3l-15.9-11.3L1385.6,1421L1385.6,1421
	L1385.6,1421z M1391.8,918.5h15v-14h-15V918.5z M1393.3,256.5h9.6V240h-9.6V256.5z M1394.6,259.4l2.2,9.6l7.1-1.6l-2.2-9.6
	L1394.6,259.4z M1395.6,370.4h8.1V356h-8.1V370.4z M1398.1,444.2h4.6v-12h-4.6V444.2z M1398.9,1177.6l7,18.2l3.8-1.5l-7-18.2
	L1398.9,1177.6z M1398.9,1147.8l3.8,1.6l7.4-18.1l-3.8-1.5L1398.9,1147.8L1398.9,1147.8L1398.9,1147.8z M1399.3,928.3h7.5v-6.7h-7.5
	V928.3z M1399.6,340.9h4.1v-14.5h-4.1V340.9z M1403.9,1474.1h4.1v-19.5h-4.1V1474.1z"/>
<path class="st3" d="M879.8,1241c0,22.6,18.3,40.8,40.9,40.8l0,0c22.6,0,40.9-18.3,40.9-40.8s-18.3-40.8-40.9-40.8
	S879.8,1218.5,879.8,1241z"/>
<path class="st4" d="M263.9,1234.9v11.1h-37.8v50.7H65.4v-51.1h47.2v-117.9h6.9v107.2L263.9,1234.9L263.9,1234.9z M283.4,1246
	v-112.5h-12v-3.5h-8.2v11.9h14.4V1246L283.4,1246L283.4,1246z M802.5,1534.5v-4.9 M802.5,1556.7v8.4h50.1 M791.6,1577.2v-20.5h10.9
	V1543 M852.6,1543v34.2h-67.4 M802.5,1617.8v-22.9h12.9 M1244.4,1305.2v15.5 M1073.1,1617.1v-23.4h-16.6 M1347.4,1561.2l0.9,28.6
	h17.1v21 M1365.3,1641.8v-19.4 M1407.7,1610.8v-26.2 M1407.7,1642.7v-20.3 M1244.3,1394.9V1351 M1292.3,1466.4v-34.7 M1309.6,1489
	h-17.3v-12.9 M1347.4,1431.7h-159.2 M1244.4,1480.6v-76.7 M1244.4,1531.5v-35.4 M1309.6,1501.2v30.3 M1347.4,1480.6h-37.8v12.2
	 M1188.2,1413.5h-18.7 M1024.5,1434.8v-21.3h128.2 M1075.9,1574.7v-3.9 M1024.5,1570.8v3.9h66.4 M1075.9,1546.9v13 M1085.3,1528.9
	v17.9h-9.4v-10.2h-51.4 M1092,1505.1v23.8 M1024.5,1489h67.5v7.1 M1024.5,1559.9v-96.1 M1188.2,1528.9h-163.7 M1324.4,1531.5h-136.2
	 M1347.4,1531.5h-14 M1090.9,1648.2v-3.3 M1090.9,1615.6v9.2 M1147.3,1615.6v-40.9 M1188.2,1609.1v6.5h-97.3v-40.9h97.3
	 M1347.4,1387.1v-23.9h-159.2v233.7 M1347.4,1540.5v-130.2 M1047,1347.2h51.5v-23.5H1047 M1069.4,1240.7v48.3H955.9v-16.7
	 M962.1,1240.7h93.6 M963.9,1226.5l12.4-9.3l14.9-1.8l6.2-18.6h32.2 M1029.7,1180h-32.2v-31l-18.6-6.2 M978.8,1142.8h-85
	 M978.8,1142.8h88.1 M1066.9,1126.1H1047 M893.9,1126.1H928 M928,1126.1V1110h48.4 M928,1126.1H1047 M1016.7,1115.6l11.2-5.6h19.2
	 M1047,1110v16.1 M1047,1110v-14.9l14.9-8.1h18 M1029.7,1081.5h50.2V1058h-50.2 M942.9,1043.8h39.1 M981.9,1025.8v-41.5
	 M981.9,969.5h-39.1 M909.4,969.5h-37.2 M872.2,1043.8h37.2 M738.8,1180v-57 M852.3,1081.6h-51.5V1058h51.5 M852.3,952.7h-51.5
	v-24.2h51.5 M738.8,913.7v-58.8 M797.1,890.8l9.3,16.1h47.8l14-13.9 M856,854.9h-45.3 M810.8,833.2v-17.3 M810.8,804.7v-4.9
	 M861,726.1v-8.7h-50.2v82.4 M861,739.1v60.7h-18.6 M830.6,799.8h-19.8 M942.9,823.3h-33.5l-11.2-11.2v-32.2l11.2-11.1h31l11.2,11.1
	v27.3 M909.4,890.8l-1.5-17.8l-10.8-9.8 M976.3,882.9H928v16.9h48.4 M1029.7,952.7h50.2v-24.2h-50.2 M1061.9,848.7v14.5h-41.8v-39.9
	c13.9-0.5,41.8-1.1,41.8,0v16.1 M1061.9,795.8v16.4h-41.8v-23 M1020.2,768.8h41.8v16.8 M1020.2,768.8v20.3 M1020.2,768.8v-10.4
	 M1061.9,742.8v15.6h-41.8 M1020.2,758.4v-39.6 M1061.9,732.6v-15.2h-41.8v1.4 M981.9,754.9v-36h38.2 M994.8,730.8v58.3h25.4
	 M1046.9,698.8h50.8v-24.9h-50.8 M962.3,737.1v-16l-28.1-17.3H903 M834.4,697.9h-51.2v-23.6h51.2 M1189.3,1301.8h-65.7
	c-2.4,0-4.3-1.9-4.3-4.3v-140.2l-16.7-21.7v-67.7l24.5-24.4h61.8 M1188.9,973h-61.8l-24.5-24.4v-68.3l16.7-20.3V719.5
	c0-2.4,1.9-4.3,4.3-4.3h65.7 M1189.3,715.1V367.9 M1189.3,715.1v184.7 M1198.5,978.7h-9.2v-78.8 M1260.4,1076h-10.3 M1250.1,1076
	H1189v-35.1h16.4 M1250.1,1076v-11.5 M1250.1,1051.9v-11 M1250.1,1040.9h-22.4 M1250.1,1040.9h36.9 M1310,1040.9h-23 M1287,1051.9
	v-11 M1287,1064.5v11.5 M1287,1076h61.7 M1287,1076h-9.1 M1348.7,1076v104 M1348.7,1076v-35.1H1333 M923.4,1312.7
	c-7.9-5.8-15.8-11.6-23.8-17.3c-8.7-6.3-30.6-19.6-34.7-42.2c-4.2-22.6,4.2-34.7,11.3-49.8c5.7-12.1,12.5-24.9,15.1-29.8
	 M904.9,1181.1c-4.4,8.6-19.1,38.6-22.4,45.2 M933.2,1300.6l-31-23 M692.4,1058v10.8 M692.4,1139.1v-70.3 M656.3,1068.9h36.1
	 M656.3,951.4h36.1 M692.4,951.4v10.7 M692.4,951.4v-70.7 M610.9,889.6V822 M610.9,983.9v54.3 M610.9,1128.5v68.1 M545.4,1223.7
	h52.1v-16.9h-52.1 M541.8,1231.2h17.4 M588.6,1231.2h17.8 M602.2,1282.9h39.3 M582.8,1282.9h-64.7v3 M518.1,1296.8v-10.9
	 M518.1,1323.3v13.9h52.6 M599.8,1314.3h24.8v-13.9 M518.1,1285.9H347 M347,1285.9v10.9 M347,1285.9v-3h-20.6 M347,1324.1v13.9
	h-52.6 M294.4,1282.9h-27.8 M226,1282.9h13.9 M379.6,1231.5H344v-54.4 M344,1115v-71.3 M344,967.6v-70 M344,838.4v-55.6h35.7
	 M414.1,782.8h17.5 M541.8,782.8h17.4 M588.6,782.8h17.8 M545.4,792.5h52.1v15.7h-52.1 M545.4,983.9H572v50.7h-26.5 M146.2,1130.4
	h-26.7 M112.6,1130.4h-7.8 M87,1130.4h-9.1 M163.2,1130.4h100.1 M208.5,1112.3h62.3v17.7 M208.5,1035h26v-50.1h-26 M208.5,904.5
	h62.3v-15.7H160.1 M143,888.8h-24 M119,848.9h17 M148,848.9h88.9v-48.2 M236.9,786.7v-3.9 M236.9,782.8h4.8 M236.9,782.8h-32.6
	 M213.9,750.5h-9.7 M235.7,750.5h5.7 M247.2,750.5h-5.8 M261.7,750.5h24.8 M344,750.5h-57.5 M365.1,750.5h128.2 M259.3,730.6v-25.4
	h11.5 M241.5,750.5v-63.4 M241.5,645.4v41.7 M241.5,687.1h45.1 M286.5,687.1v63.4 M286.5,687.1v-41.7 M375.4,601.3h-88.9v44.1
	 M397.8,601.3h88.3 M286.5,645.4h-24.8v25.4h9.1 M183.7,1412.4v7.2 M183.7,1394.3V1371 M221.8,1330.3v-33.5 M240,1282.9v31.1h26.6
	v-31.1 M240,1282.9h26.6 M257.5,1234.8V1157h-39.3v33.8 M198.8,1190.8V1157h-64.1v33.8 M550.7,750.5h-32.7V644.3h35.9 M565.8,644.3
	h124.7 M690.4,750.5H565.8 M570.8,560.7h30.8 M626.2,598.4v-37.7h-24.5 M626.2,598.4h-24.5v-37.7 M626.2,598.4h59.2v-17.6
	 M685.4,556.9v-32.7 M685.4,500.4v-73.6 M638.2,536.7h-38.8 M570.8,467v8.8 M570.8,456.4v-7.5 M519.3,471v4.8 M519.3,460.9v-19.9
	 M394.1,522.4h23.2 M429.3,522.4h25.5v-81.5h-25.5 M417.3,440.9h-23.2 M354.7,440.9h25 M354.7,522.4h25 M343.1,522.4h-25v-81.5h25
	 M251.7,482.7v-8.8 M251.7,487.2v26.8 M200.3,491.4v7.9 M200.3,480.3v-7.4 M754,491.2h107v-12.8 M861,221.5v241.6 M830.6,478.4H861
	 M861,478.4v-15.4 M830.6,463.1H861 M1015.5,221.5v241.6 M1119.3,491.2h-103.8v-12.8 M1046.9,478.4h-31.4 M1015.5,478.4v-15.4
	 M1046.9,463.1h-31.4 M1189.3,322.2v-11.1 M1233.5,311.1v47h15.4 M1337,491.2h23.9v38.4h28.2v-22.2 M1376.2,623.5v-32.4h-61.5v118.7
	h14.5 M1341.2,709.7h35v-76 M1287.3,623.5v-32.4h-61.5v118.7h14.5 M1252.3,709.8h35v-76 M1376.2,772.9v-32.4h-61.5v118.7h14.5
	 M1341.2,859.1h35v-76 M1287.3,772.9v-32.4h-61.5v118.7h14.5 M1252.3,859.2h35v-76 M1240.3,546.4v20h35.9 M1276.2,894.1h-35.9v-17.1
	h35.9 M1355.7,899.9h-6.9v38.6 M1348.8,952.8v25.9h-123 M1219.8,978.7h6 M1225.8,978.7v-12 M1225.8,954.8v-54.8h-6 M1198.6,899.9
	h-9.2 M1306.1,959.9V936h16.2 M1407.7,964.1v5.1 M1459.4,959.9v9.4 M1459.4,950.5v-9.5 M1407.7,954.8v-26.3 M1379.3,931.6v-31.7
	 M1374.4,899.9h30.3 M1407.4,1044.9v-4 M1407.4,1056.2v6.8 M1407.4,1090V1063 M1407.4,1100v3.2 M1459.5,1095.5v7.7 M1459.5,1086
	v-9.9 M1432.7,1062.9h-25.3 M413.4,1231.6h19.3 M422.2,1223.7h-50.9v-16.9h50.9 M422.2,808.2h-50.9v-15.7h50.9 M153.5,1387.2v16.6
	h-15.7v-16.6H153.5z M1188.2,1574.8h159.5"/>
<path d="M493.5,593.1h-7.5v157.6h7.5V593.1z M892.3,220.2h-16.4v-9.8h16.4V220.2z M1001.8,220.2h-17.1v-9.8h17.1V220.2z"/>
<path class="st5" d="M1375.7,1682.7c0.2-0.5,0.2-1,0.2-1.6c0-3.2-0.1-6.4-0.3-9.7"/>
<path class="st5" d="M1361.1,1804.9c0.1-1.1,0.1-2.2,0.2-3.4c0-0.8,0.1-1.7-0.3-2.4s-1.2-1.3-1.9-1.1c-0.3-0.2-0.2-0.8,0.1-1
	s0.7-0.3,1.1-0.4c0.8-0.2,1.5-1,1.3-1.8c-0.1-0.3-0.3-0.6-0.5-0.8c-1.6-2-2.6-4.4-3.1-6.9c-0.1-0.4-0.1-0.9,0.2-1.2
	c0.1-0.1,0.3-0.2,0.5-0.2c1.3-0.3,2.7,0,4-0.2c1.7-0.3,3.2-1.3,4.8-1.5c0.9-0.1,1.9,0.1,2.8,0.1s1.9-0.2,2.5-1
	c0.7-0.9,0.6-2.1,0.5-3.3c-0.1-0.8-0.2-1.6-0.3-2.4"/>
<line class="st5" x1="1429.7" y1="1752.9" x2="1440" y2="1752.9"/>
<line class="st5" x1="1451" y1="1752.9" x2="1463.1" y2="1752.9"/>
<line class="st5" x1="1462.9" y1="1692.9" x2="1463.1" y2="1765.2"/>
<line class="st5" x1="1463" y1="1775.9" x2="1463.1" y2="1811.3"/>
<line class="st5" x1="1463" y1="1822.3" x2="1463" y2="1845.9"/>
<line class="st5" x1="1430" y1="1787.4" x2="1462.3" y2="1787.3"/>
<path class="st5" d="M1494.4,1845.4c-2.8-3.1-5.5-6.2-8.3-9.3c0.1-16,0.1-31.9,0.2-47.9c2.6-2.5,5.2-5,7.7-7.6
	c26.9,0,53.8,0.1,80.8,0.1c2.7,2.6,5.4,5.3,8.1,7.9c0,16,0,32.1,0.1,48.1l-8.2,8.2"/>
<path class="st5" d="M1495.1,1692.5c-2.9,3-5.8,6-8.7,9l-0.4,48.4l8,8c5.7-0.1,11.5-0.2,17.2-0.3"/>
<path class="st5" d="M1525.2,1757.8c16.8,0,33.6,0,50.4,0c2.6-2.6,5.2-5.1,7.7-7.7c0-16.1,0-32.2-0.1-48.2l-9.2-9.3"/>
<path class="st5" d="M1618,1844.7c-2.7-2.7-5.5-5.4-8.2-8.1V1819"/>
<path class="st5" d="M1609.8,1805.3c0-22.2,0.1-44.5,0.1-66.7"/>
<path class="st5" d="M1610.1,1724.7l-0.1-22.4c2.9-3,5.9-6.1,8.8-9.1"/>
<rect x="1420.5" y="1755.1" class="st2" width="6" height="29.7"/>
<rect x="1356.2" y="1849.7" class="st2" width="14.7" height="7.2"/>
<rect x="1346.7" y="1839.2" class="st2" width="8.2" height="17.3"/>
<rect x="1378" y="1840" class="st2" width="7.7" height="16.9"/>
<rect x="1381.6" y="1834.9" class="st2" width="4.1" height="3.1"/>
<rect x="1383.7" y="1809.7" class="st2" width="2.4" height="23.3"/>
<rect x="1430.3" y="1823.4" class="st2" width="6.8" height="18.5"/>
<rect x="1430.3" y="1789.8" class="st2" width="6.8" height="30.9"/>
<rect x="1439" y="1840" class="st2" width="16.8" height="5.3"/>
<rect x="1455.9" y="1788.3" class="st2" width="6.2" height="19"/>
<rect x="1443.4" y="1788.3" class="st2" width="13.1" height="5.9"/>
<rect x="1499.9" y="1721.6" class="st2" width="46.6" height="15.1"/>
<rect x="1494.9" y="1696" class="st2" width="14.4" height="6.3"/>
<rect x="1510.5" y="1696" class="st2" width="14.6" height="6.3"/>
<rect x="1527" y="1696" class="st2" width="19.5" height="5.7"/>
<rect x="1548.3" y="1696" class="st2" width="17.1" height="7.4"/>
<rect x="1560.4" y="1717.6" class="st2" width="6.7" height="20"/>
<rect x="1571.2" y="1747.1" transform="matrix(0.7071 -0.7071 0.7071 0.7071 -776.1916 1627.3158)" class="st2" width="10.1" height="7"/>
<rect x="1572.6" y="1695.6" transform="matrix(0.7071 -0.7071 0.7071 0.7071 -741.319 1612.6125)" class="st2" width="6.7" height="11.1"/>
<rect x="1632.1" y="1790.2" class="st2" width="6.5" height="29.6"/>
<rect x="1651.1" y="1790.2" class="st2" width="6.8" height="29.6"/>
<rect x="1672.5" y="1790.2" class="st2" width="5.9" height="50.2"/>
<rect x="1611.2" y="1781.3" class="st2" width="44.5" height="4.9"/>
<rect x="1624" y="1743.2" class="st2" width="36.2" height="14.6"/>
<rect x="1624" y="1708.2" class="st2" width="36.2" height="14.5"/>
<rect x="1672.5" y="1707.5" class="st2" width="5.8" height="14.7"/>
<rect x="1672.5" y="1725.2" class="st2" width="5.8" height="17.2"/>
<rect x="1672.5" y="1743.9" class="st2" width="5.8" height="14.2"/>
<rect x="1671.6" y="1760.1" class="st2" width="6.7" height="17"/>
<path class="st5" d="M1659.9,1788.2c-16.4-0.1-32.9-0.1-49.3-0.2"/>
<rect x="1337.8" y="1709.6" class="st2" width="5.2" height="15.6"/>
<rect x="1342.9" y="1722.5" class="st2" width="25.5" height="2.8"/>
<rect x="1345.2" y="1692.4" class="st2" width="17.9" height="7"/>
<rect x="1361.1" y="1692.4" class="st2" width="8.2" height="16.5"/>
</svg>
