<?xml version="1.0" encoding="utf-8"?>
<!-- Generator: Adobe Illustrator 27.3.1, SVG Export Plug-In . SVG Version: 6.00 Build 0)  -->
<svg version="1.1" id="Discord.gg-_x40_marazm" xmlns="http://www.w3.org/2000/svg" xmlns:xlink="http://www.w3.org/1999/xlink"
	 x="0px" y="0px" viewBox="0 0 1680.3 1927.5" style="enable-background:new 0 0 1680.3 1927.5;" xml:space="preserve">
<style type="text/css">
	.st0{fill:#363636;stroke:#000000;stroke-width:2;}
	.st1{fill:#777777;}
	.st2{stroke:#000000;}
	.st3{fill:#987F00;}
	.st4{fill:none;stroke:#000000;stroke-width:2;}
	.st5{fill:none;stroke:#000000;}
</style>
<path class="st0" d="M2.2,945.6h20v53.7h37.4v8.1H22.2v123.4h21.2v100.9h72.9v13.1h31.8v124.6H98.9v50.5h82.9V1289h100.4v368.3h67
	v-76.5h86.4v-73.1h72.3v-38.4h68.6v-246.4h76.1v39.9h31.2v-41.2h135.9v41.2h30.6v-41h167.2v-77.5H1152v266.2h-15.1v81h15.1v145.8
	h254.8v6l58.8-0.1v-58.7l-58.8,0.1v-523.8h24.9v-21.2h-24.9V698.9h-92.9v93.5h36.2v31.2h-107.1V806H1211v17.5h-104.1V806h-32.4v17.5
	H966V589.8h-3.1v-5h8.7v-11.2h165.6c37.7,0.1,146.7,0.4,146.7-130.2V383h53.6v-85.5h18.6v-27.7h-165.4v23.7h11.9v18.4h-11.9V338
	h11.9v17.8h-11.9V383h52.2v45.6c0,2,0.1,4.3,0.2,6.9c1.1,30.5,3.4,98-108.7,98H285.6V361.7H322V321H207.9v40.7h36.8v225.8h-33.8
	v192.4h71.3v108.4h-260v36.1h-20V945.6L2.2,945.6L2.2,945.6z M206.5,1072.9v-128h76.6v128h-7.4v-14.4H215v14.4H206.5L206.5,1072.9z
	 M240.8,730v-43.8h69.4V730H240.8L240.8,730z M284,586.2v-13.3h368.8v137.8h-58.9v-9.8h-6.3V645h6.3v-44h-163v11.9h-10.5v-26.6
	L284,586.2L284,586.2z M349.1,1423.1v-82.5h158.5v46.7h-55.5v35.8L349.1,1423.1L349.1,1423.1L349.1,1423.1z M349.9,1310v-248.5
	h302.9v125.7H539.6v35.6h3.6v87.3L349.9,1310L349.9,1310L349.9,1310z M348.1,949.1V645h72.2v-14h7.7v14h2.8v55.9h-2.8v44.8h165.8
	v-2.8h58.9v206.3L348.1,949.1L348.1,949.1L348.1,949.1z M683,1189.5v-129.8h136.3v129.8H683z M683.5,949.1v-66.7h105.7V749.2h51.1
	v-48.2H924v-13.3h12.6v135.7h-43.4v125.9H683.5L683.5,949.1z M683.5,748.3V572.9h246.1v11.2h11.2v5.6h-4.2v67.8h-14v-3.5H814.5v46.8
	h-49.8v47.4H683.5L683.5,748.3z M849.6,1189.5v-129.8h78.8v68.7h52.8v61H849.6L849.6,1189.5z M927.9,883.7v-29h421.5v46.2h5.7v24.9
	h-7.4v-5.9h-59.9V975h59.9v3.6h6v104.3H1309v-43.3h-119.5v77.6v-17.4l-138.4,0V948.9h-71.7v-65.2L927.9,883.7L927.9,883.7
	L927.9,883.7z M1189.6,1583.6v-220.8h164v220.8H1189.6z M1189.6,1309.4v-182.4v38l9.5,8.7l-3.9,4.1l19.5,20.4l4-4l6.3,6.3h128.6v109
	L1189.6,1309.4L1189.6,1309.4z M1232.1,1165.6V1143h38.9v22.6H1232.1z"/>
<path class="st1" d="M1095.1,818.4c4.7,0,8.4,3.8,8.4,8.4s-3.8,8.5-8.4,8.4l0,0c-4.7,0-8.4-3.8-8.4-8.4l0,0
	C1086.6,822.1,1090.4,818.4,1095.1,818.4z M897.8,1043.4c4.7,0,8.5,3.8,8.5,8.4l0,0c0,4.7-3.8,8.4-8.5,8.4c-4.7,0-8.5-3.8-8.5-8.4
	S893.1,1043.4,897.8,1043.4L897.8,1043.4z M839.8,1213.3c4.7,0,8.5,3.8,8.5,8.4l0,0c0,4.7-3.8,8.4-8.5,8.4c-4.7,0-8.5-3.8-8.5-8.4
	S835.2,1213.3,839.8,1213.3L839.8,1213.3z M430.5,1547.7c2.4,0,4.4,2,4.4,4.4s-2,4.4-4.4,4.4c-2.4,0-4.4-2-4.4-4.4
	S428.1,1547.7,430.5,1547.7L430.5,1547.7L430.5,1547.7z M357.3,1563c2.4,0,4.4,2,4.4,4.4s-2,4.4-4.4,4.4s-4.4-2-4.4-4.4
	S354.8,1563,357.3,1563L357.3,1563z M422.9,1578.2v-12.1h6.4v12.1H422.9z M410.4,1578.2v-12.1h6.4v12.1H410.4z M397.9,1578.2v-12.1
	h6.4v12.1H397.9z M359.8,1441.5l0.4-7.4l18.1,1l-0.4,7.4L359.8,1441.5z M360.7,1457.5l-0.5-7.4l18.1-1.2l0.5,7.4L360.7,1457.5z
	 M416.8,1431.6v-7h25.4v7H416.8z M460.9,1396.4v-8.1h40.5v8.1H460.9z M474.6,1438.2v-21.3H487v21.3H474.6z M555.8,1452.6l-1.4-6.5
	l12.5-2.7l1.4,6.5L555.8,1452.6z M812.7,968.9l-0.4-4.2l22.1-2.3l0.4,4.2L812.7,968.9z M808.4,962.7l-0.1-4.2l28.9-0.5l0.1,4.2
	L808.4,962.7z M811.9,960.4l0.2-4.2l28.9,1.1l-0.2,4.2L811.9,960.4z M845.7,957.4l3.1-4.5l12.9,9l-3.1,4.5L845.7,957.4z
	 M781.8,1021.1l4.8-6.9l10.3,7.2l-4.8,6.9L781.8,1021.1L781.8,1021.1L781.8,1021.1z M438.8,1050.3v-2.9h16.6v2.9H438.8L438.8,1050.3
	L438.8,1050.3z M451.5,987.9l6.9-6.9l4,3.9l-6.9,6.9L451.5,987.9L451.5,987.9L451.5,987.9z M412,1054.5l5.5-10.9l5,2.5L417,1057
	L412,1054.5z M389,961.7l-1.8-6.8l14.5-3.8l1.8,6.8L389,961.7z M368,959.6l1-7l14.8,2.1l-1,7L368,959.6L368,959.6L368,959.6z
	 M367.8,995v-7h7.3v7H367.8z M462.4,998.9v-10.9h7.3v10.9H462.4z M426.3,1054.5v-8.4h10.6v8.4H426.3z M508.4,1022.6v-8.4h10.6v8.4
	H508.4L508.4,1022.6z M814.5,1048.5v-8.4h10.6v8.4H814.5z M850.6,1051.9v-11.8h7.3v11.8H850.6z M895.8,868.4l7,0.2l-0.2,9.5l-7-0.2
	L895.8,868.4z M1116.7,838.1l-0.6-4.7l19.8-2.4l0.6,4.7L1116.7,838.1z M1111.8,832.6v-5.8h30.8v5.8H1111.8z M965.8,1105.3l7.9-7.1
	l5.2,5.8l-7.9,7.1L965.8,1105.3z M968,1098.2v-8.1h12.1v8.1H968z M967.8,910.5V899h10.1v11.4H967.8z M915.5,908.5l7,0.2l-0.4,14.2
	l-7-0.2L915.5,908.5z M914,974.3l7,0.2l-0.4,14.2l-7-0.2L914,974.3z M902.8,995.6l0.3-7l14.2,0.6l-0.3,7L902.8,995.6z M907.6,1047.8
	l2-6.7l13.6,4.2l-2,6.7L907.6,1047.8z M863.5,1060.4v-11.8h7.3v11.8H863.5z M757.2,1216.8l5.7-10.3l6.4,3.6l-5.7,10.3L757.2,1216.8z
	 M544,1200.3v-7.6h7.4v7.6H544z M541.3,1391.2v-13.9h25.5v13.9H541.3z M558.8,1441.6v-12h11.5v12H558.8z M562,1469.3v-15.6h8.3v15.6
	H562z M552.8,1469.3v-12.9h8.3v12.9H552.8z M539.5,1469.3v-10.5h9.7v10.5H539.5z M496.1,1497.4V1487h6.8v10.5H496.1z M483.6,1497.4
	V1487h6.8v10.5H483.6z M471.1,1497.4V1487h6.8v10.5H471.1z M458.6,1497.4V1487h6.8v10.5H458.6z M446.2,1497.4V1487h6.8v10.5H446.2z
	 M428,1528.8v-10.5h6.8v10.5H428z M372.9,1453.3v-25.1h5.9v25.1H372.9z M393.2,1482.5l-1.3-10.8l10.6-1.3l1.3,10.8L393.2,1482.5z
	 M361.6,1474.1v-7.2h8.5v7.2H361.6z M206.2,1227.9l6.3-6.2l5.2,5.2l-6.3,6.2L206.2,1227.9z M220.1,1226.9l-2.5-8.5l5.4-1.6l2.5,8.5
	L220.1,1226.9z M74.7,1066l-5.6-12.5l10.7-4.7l5.6,12.5L74.7,1066z M35.4,1118.6l-5.6-12.5l10.7-4.7l5.6,12.5L35.4,1118.6z
	 M97.1,938.9l2,7l14-4l-2-7L97.1,938.9z M52.4,996.4l2-7l14,4l-2,7L52.4,996.4L52.4,996.4L52.4,996.4z M99.9,933.1l1.4-12.3l8.7,1
	l-1.4,12.3C108.6,934,99.9,933.1,99.9,933.1z M35,902.7v-12.9h12.3v12.9H35z M23.6,916v-26.2h12.3V916H23.6z M112.1,936.6v-9.2h13.2
	v9.2L112.1,936.6L112.1,936.6z M218.7,776.2l1.2-6.8l12.2,2.1l-1.2,6.8L218.7,776.2z M236.6,779.3v-11.6h8v11.6H236.6z M247.2,779.3
	v-7.8h4.9v7.8H247.2z M532.4,569.7l6.5-10.2l6.6,4.2l-6.5,10.2L532.4,569.7z M531.2,740.6l0.2-10.3l9.8,0.2l-0.2,10.3L531.2,740.6z
	 M547.3,739.4l6-11.1l8.7,4.7l-6,11.1L547.3,739.4L547.3,739.4z M655.4,704.8l0.4-12.9l6.5,0.2l-0.4,12.9L655.4,704.8z M655.8,723.6
	l0.5-15l3,0.1l-0.5,15L655.8,723.6z M685.5,759.5l5.2-8.3l8.4,5.2l-5.2,8.3L685.5,759.5z M645.7,723.3l0.2-7l9.9,0.3l-0.2,7
	L645.7,723.3z M575.9,679l2.7-6.4l9.1,3.8l-2.7,6.4L575.9,679z M1278.8,848.3l4.9-10.7l11.2,5.1l-4.9,10.7L1278.8,848.3z
	 M1296.8,847.9l2.2-4.9l8.5,3.9l-2.2,4.9L1296.8,847.9z M1310.5,853.3l0.7-10.2l5.7,0.4l-0.7,10.2L1310.5,853.3z M1352.3,877.3
	l4.2-12l5.4,1.9l-4.2,12L1352.3,877.3z M1351.2,889.3v-7.5h7.6v7.5H1351.2z M1364.5,888v-7.5h10.3v7.5H1364.5z M1350.1,898.3v-7.5
	h22.9v7.5H1350.1z M1360,826.8v-23.2h13v23.2H1360z M1314.4,790.4v-9.7h22.7v9.7H1314.4z M1314.4,767.5v-14.9h5.2v14.9H1314.4z
	 M1314.4,740.3v-14.9h5.2v14.9H1314.4z M1344.5,706.1v-5.4h28.5v5.4H1344.5z M1330,381v-14.4h7.4V381H1330z M1320.6,381v-12.7h7.4
	V381H1320.6z M1307.5,381v-6.4h11v6.4H1307.5z M1191.5,381v-12.7h7.2V381H1191.5z M1333.7,740.3v-9.9h25.2v9.9H1333.7z M1333.7,770
	v-9.9h25.2v9.9H1333.7z M1325.5,1111l-12.6-12.6l5.5-5.5l12.6,12.6L1325.5,1111z M1325.5,1127.6l-12.6-12.6l5.5-5.5l12.6,12.6
	L1325.5,1127.6z M1325.5,1144.2l-12.6-12.6l5.5-5.5l12.6,12.6L1325.5,1144.2z M1230.5,1100.1v-40.2h17v40.2H1230.5z M1324.9,1359.9
	l0.9-16.1l5.7,0.3l-0.9,16.1L1324.9,1359.9z M1295.1,1356.3l1.8-14.7l21,2.5l-1.8,14.7L1295.1,1356.3z M1180.8,1288.8v-12h6.6v12
	H1180.8z M1177,1304.6v-10.4h10.4v10.4H1177z M1180.8,1316.6v-12h6.6v12H1180.8z M1205.7,1361v-9.7h15.3v9.7H1205.7z M1194.3,1361
	v-19.4h11.4v19.4H1194.3z M1368.3,1576.5V1548h2.8v28.5H1368.3z M1147.3,1478.3l6.9-5.4l3.4,4.3l-6.9,5.4L1147.3,1478.3z
	 M1153.2,1635.4v-24.8h13.6v24.8H1153.2z M1237,1635.4v-13.2h33.1v13.2H1237z M1362.7,1576.5V1548h2.8v28.5H1362.7z M1365.5,1578.6
	V1550h2.8v28.5H1365.5z M1360.6,1578.6V1550h2.8v28.5H1360.6z M1357.8,1580.6v-28.5h2.8v28.5H1357.8z M1274.8,1358.8v-19.4h11.4
	v19.4H1274.8z M1334.7,1358.8v-8.6h11.4v8.6H1334.7z M1376.1,1116.5v-14.6h6.9v14.6H1376.1z M1346.1,1144.2v-32.9h7.4v32.9H1346.1z
	 M1346.1,1100.1v-14.4h7.4v14.4L1346.1,1100.1L1346.1,1100.1z M1327.3,1091.8v-7.2h7.4v7.2H1327.3z M1316.1,1091.8v-7.2h7.4v7.2
	H1316.1z M1246.2,1140.3l5.8-9.4l7,4.3l-5.8,9.4L1246.2,1140.3z M1262,1136.4l4.2-6.8l7,4.3l-4.2,6.8L1262,1136.4z M1266.3,1100.1
	v-40.2h17v40.2H1266.3z M1228.6,821.1v-9.9h12.6v9.9H1228.6z M951.3,776.5v-9.9h12.6v9.9H951.3z M940.3,642.1v-7.2h6.7v7.2H940.3z
	 M792.6,545.5v-6.2h6.3v6.2H792.6z M857.4,699.9v-9.1h11.4v9.1H857.4z M868.8,699.9v-7.2h52.6v7.2H868.8z M886.4,660v-4.2h33.9v4.2
	H886.4z M864.3,664.1v-8.4h22.1v8.4H864.3z M830.4,664.1v-8.4h22.1v8.4H830.4z M816.3,688.9v-23.2h7.6v23.2H816.3z M828.1,741.8
	v-18.2h9.9v18.2H828.1z M799.7,747.2v-8.4H838v8.4H799.7L799.7,747.2L799.7,747.2z M775,711.7v-8.4h29.5v8.4H775z M766.4,728.9
	v-25.5h9.9v25.5H766.4z M781.3,798.6v-32h7.2v32H781.3z M781.3,867.9v-65.1h7.2v65.1H781.3z M755.4,881.2v-6.1h24.4v6.1H755.4z
	 M726.4,881.2V872h22.8v9.1H726.4z M690.4,881.2v-6.1h30.3v6.1H690.4z M725.1,855.3v-14.1h23v14.1H725.1z M725.1,822.9v-50.3h23
	v50.3H725.1z M685.5,831.5v-65h9.7v65H685.5z M585.1,639.6v-35.3h6.1v35.3H585.1z M532.5,702.2v-56.7h12.6v56.7H532.5z M475.3,702.2
	v-56.7H488v56.7H475.3z M428.5,735.5l0.7-25.8l3.8,0.1l-0.7,25.8L428.5,735.5z M436.2,733.4l-1.4-21.7l4.9-0.3l1.4,21.7L436.2,733.4
	z M431.9,738.2l-2-31.2l5.5-0.4l2,31.2L431.9,738.2z M432.3,700.7v-35.8h8.1v35.8H432.3z M460.1,612v-9.9h62.5v9.9H460.1L460.1,612
	L460.1,612z M386.6,617.2v-25.8h10.8v25.8H386.6z M358.4,617.2v-25.8h10.8v25.8H358.4z M331.3,606.9v-15.5h10.8v15.5H331.3z
	 M362.1,643.1v-6.9h14.2v6.9H362.1z M334.7,643.1v-6.9h14.2v6.9H334.7z M305.5,640.8V615h6.2v25.8H305.5z M289.8,631.7v-12.4h7.9
	v12.4H289.8z M288,642.3v-9.4h11.1v9.4H288z M273,639.6v-11.3h12.2v11.3H273z M285.2,736v-5.6h5.7v5.6H285.2z M291.5,737.7V732h5.7
	v5.6H291.5z M298.4,738.8v-5.6h5.7v5.6H298.4z M334.7,759.1v-10.4h7.4v10.4H334.7z M332.4,775.4v-10.4h7.4v10.4H332.4z M286.7,779.3
	v-5.5h6.4v5.5H286.7z M255.6,779.3v-7.8h27.4v7.8H255.6z M283,800.6v-7.3h10v7.3H283z M283,811.1v-7.3h10v7.3H283z M283,845v-11.4
	h7.2V845H283z M293,850v-13.1h8.2V850H293z M214.1,934.9v-13.1h8.2v13.1H214.1z M292,856.8l-0.8-7.4l10.9-1.1l0.8,7.4L292,856.8z
	 M209.9,943.7v-9.2h13.2v9.2H209.9z M115.7,945.9v-9.2h13.2v9.2C128.9,945.9,115.7,945.9,115.7,945.9z M112.1,957.1v-9.2h26.8v9.2
	H112.1z M173.4,1070.5v-26.9h10.3v26.9H173.4z M171.7,1082.8v-9h12.1v9H171.7z M168.3,1090.5v-9h12.9v9H168.3z M157.3,1090.5v-9h8.1
	v9H157.3z M125.5,1070.5v-9h30.2v9H125.5z M129.8,1036.6v-9h25.9v9H129.8z M129.8,981.8v-9h25.9v9H129.8z M107.5,1024v-30.7h8.1
	v30.7H107.5z M79.9,997.8v-13.1H88v13.1H79.9z M69.1,996.5v-13.1h8.1v13.1H69.1z M62,1012.3v-7h12.6v7H62z M54,1017.5v-7H61v7H54z
	 M62,1022v-7h7.1v7H62z M94.3,1042.6v-14.1h8.4v14.1H94.3z M85.3,1043.6v-14.1h8.4v14.1H85.3z M48.1,1139.8v-9.9h11.7v9.9H48.1z
	 M86.9,1114v-3.9h19.4v3.9H86.9z M85.3,1110v-3.9h23.2v3.9H85.3z M83.9,1106.1v-3.9h29.1v3.9H83.9z M83,1116.1v-3.9h29.1v3.9H83z
	 M97.6,1205.8v-17.7h7.7v17.7H97.6z M147.5,1369.9v-17.7h7.6v17.7H147.5z M189.4,1287.8v-7.6h14.1v7.6H189.4z M330.7,1190.5
	l2.7-33.3l6.8,0.6l-2.7,33.3L330.7,1190.5z M339.5,1185.8v-22.3h4.4v22.3H339.5z M330.2,1153.1v-8.1h11.3v8.1H330.2z M287.6,995.8
	l1.2-7.1l13.8,2.4l-1.2,7.1L287.6,995.8z M293.6,1083.5v-13.3h9.3v13.3H293.6z M299.2,1196.5v-14.7h11.3v14.7H299.2z M287.6,1219
	v-42.6h15.3v42.6H287.6z M232.8,1213.4v-7.6h17.7v7.6H232.8L232.8,1213.4z M232.8,1224.5v-7.6h17.7v7.6H232.8L232.8,1224.5z
	 M239.7,1287.8v-7.6h10.9v7.6H239.7z M253.4,1287.8v-7.6h10.9v7.6H253.4L253.4,1287.8L253.4,1287.8z M283.5,1511.5V1497h6.8v14.5
	H283.5z M283.5,1525.6v-12.5h8v12.5H283.5z M300.7,1498.6l-2.4-8.6l7.8-2.2l2.4,8.6L300.7,1498.6L300.7,1498.6L300.7,1498.6z
	 M298.8,1574.7v-16.9h8v16.9H298.8z M283.5,1656.3v-94.9h13.7v94.9L283.5,1656.3L283.5,1656.3z M309.7,1651.4l13-5.5l2.7,6.3
	l-13,5.5L309.7,1651.4z M300,1655.1v-14.1h6.8v14.1H300z M337.5,1645.9v-14.1h6.8v14.1H337.5z M349.1,1522.8v-30.6h6.8v30.6H349.1z
	 M384.6,1531.2V1520h20.9v11.3H384.6z"/>
<path class="st2" d="M148.1,1249.1h135.2v-124.8H105.4v82.3H81.7v6.1h34.9v-82.5h161.1v113.6H148.1L148.1,1249.1L148.1,1249.1
	L148.1,1249.1z"/>
<path class="st3" d="M1312.4,1179.6V1163l11.8-14l-8.8-8.8l-16.7,15.8v23.6L1312.4,1179.6L1312.4,1179.6z M199,1174v17.2h19.2V1174
	H199z M117.2,1174v17.2h18.5V1174H117.2z M126.4,1385.4h22.7v-15.1h-22.7V1385.4z M349.1,993.4h11.5v-34.9h-11.5V993.4z
	 M349.1,1051.9h11.5v-36.5h-11.5V1051.9L349.1,1051.9z M257.4,670.5v-24.6h-16.9v24.6H257.4z M956.4,567.5V556h-11.2v11.5H956.4z
	 M673.5,567.8v-11.5h-11.3v11.5H673.5z M407.3,562.3h11.5v-15h-11.5V562.3z M1211.7,289.8v11.5h11v-11.5H1211.7z M1288.7,920.9v38.6
	h16.7v-38.6H1288.7z M1464.6,1642.3v-42.6h-16.4v42.6H1464.6z M1420.3,1642.3h28.9v-15.2h-28.9V1642.3z M1240.1,1179.2h29.2v-13.7
	h-29.2V1179.2z M919.3,963.8v-11.5h-19v11.5H919.3z M943,915.1v-11.5h-15.2v11.5H943z M942,1103.5v-11.5h-12v11.5H942z M647.4,989.5
	h13.3v-17.8h-13.3V989.5z M646.9,1038.9h13v-17.8h-13V1038.9z M813.5,1038.7h13.3v-17.6h-13.3V1038.7z M677.4,989.5h13.2v-17.8
	h-13.2V989.5z M676.8,1038.9h13.3v-17.8h-13.3V1038.9z M843.4,1038.7h13.3v-17.6h-13.3V1038.7z M912,1040.4h17.2v-18.2H912V1040.4z
	 M1208,1131h11.7v-18.2H1208V1131z M1207.3,1051.9h11.3v-12.2h-11.3V1051.9z M1305.5,934.5h27.9v-13.7h-27.9V934.5z M240.5,685.1
	h39.8v-14.5h-39.8V685.1L240.5,685.1z M81.2,1230.7l36.1-0.1v-17.4l-36.1,0.1V1230.7z"/>
<path class="st4" d="M927.3,1003.3H764.6v22.3v-43.9 M322.8,1003.4h149.4l0.1,22.9v-44.6 M504.4,981.5v44.7v-22.9h227.7l-0.1,22.9
	v-44.7"/>
<path class="st5" d="M257.4,645.9v24.6h23 M683.5,745h-11.3 M663.2,745h-10.4 M690.6,989.5l-43.2,0 M677.3,949.1v22.6h13.3
	 M660.7,949.1v22.6h-13.3 M683.5,949.1h-30.2 M927.3,1022.1H912 M927.3,1040.4l-15.3,0.1 M690.2,1021.1l-43.2,0 M676.8,1061.4v-22.6
	h13.3 M660.3,1061.4v-22.6h-13.3 M683,1061.4h-30.2 M856.8,1021.1l-43.2,0 M843.4,1061.3v-22.6h13.3 M826.9,1061.3v-22.6h-13.3
	 M849.6,1061.3h-30.2 M1350,792.3h24.8v-61.8 M1374.9,720.4v-21.6 M244.6,555.5h146v-8.3l31.5,0 M407.4,572.9v-10.6h14.8
	 M929.6,572.9H945v-17 M971.6,573.6h-15.2V556 M924,687.6v-5.9 M924,663.3v-5.8 M683.5,587.5h-11.8 M663.7,587.5h-10.9 M652.8,572.9
	h9.4l0-18.2 M683.5,572.9h-10v-18.2 M789.7,572.9v-12.7 M789.7,546v-12.5 M1222.7,269.8v31.5h-11v-31.5 M1316.8,269.8v66.9h-81.9
	v-66.9 M683.5,882.4v-14.8 M683.5,849.1V748.3 M593.9,742.9v-8.2 M593.9,717.4v-6.7 M304,645.7v-35.7 M304,600.2v-13.9 M310.2,645.7
	h-69.7l0.3,40.5 M348.2,724.1h-13.8 M323.4,724.1h-13.2 M59.6,1003.4h19.9 M106.7,1008.8H79.5v-9.7h27.2 M106.7,1055.4v16.2
	l78.3-0.2V946.6h-78.3v22.7 M106.7,979.5v66 M521.3,1398.7h-13.5 M576.4,1398.7h-46.1 M507.8,1446.6v-59 M507.8,1469.3v-13.6
	 M164.3,1369.5h-17.9 M181.8,1369.5h-8.1 M349.1,1540.5v41.3 M349.1,1423.2v104.8 M304.2,1382.7h-22.1 M349.1,1382.7h-29.4
	 M1033.8,966.4h-91v76.8h91.2L1033.8,966.4L1033.8,966.4L1033.8,966.4z M927.3,1040.4v19.3 M927.3,948.9v73.2 M979.5,897h-37.3v20.5
	 M959.7,948.9h-32.4v-64.7 M979.5,948.9h-10.8 M981.5,1110.5h-39v-20.1 M959.5,1059.5H928 M981.5,1061.4v-1.9h-12.6 M1025.6,1097.4
	h-44.1 M1051.2,1061.4h-69.8v66.8 M1051.2,1097.4H1034 M1216.5,1165.1h15.7 M1353.7,1148.9h-10.5 M1353.6,1082.8v90.6
	 M1309.1,1082.8v51l15.1,15.1h8.5 M1222.3,1051.6h-17.1v60.9h17.1 M1315.2,1179.6h-86.7l-12.1-14.5V1131h-10.8h16.6 M310.2,686.1
	v-10.4 M310.2,656.5v-10.9h38 M348.9,948.9v9.5h13.8 M362.7,1015.3h-13.3v-22H363 M349.9,1061.4v-9.6H363 M154.6,1385.4h-28.2v20
	 M350,1340.7v-11.3 M350,1320.4V1310 M576.4,1308.9h-8.7 M558.1,1308.9h-14.9 M576.4,1222.9h-15.7 M551.9,1222.9h-8.8 M1349.4,854.7
	v-6.5 M1349.4,830.5v-7.1 M1355,900.9h22.3 M1394.9,900.9h11.9 M1305.5,959.4v-24.9h27.9 M1347.6,975v-23.1 M1347.6,940.9v-15.1
	 M1420.3,1627.1h27.9v-27.4 M1406.8,1637.3v-17.6 M1406.8,1606.2v-22.4 M1406.8,1583.7h-12.1 M1376.1,1583.7h-22.9 M1189.6,1583.6
	H1179 M1170,1583.6h-18 M1189.6,1493H1175 M1165.8,1493H1152 M1189.6,1408.7h-13.4 M1166.1,1408.7H1152 M1190.1,1223.2h-10.3
	 M1162.5,1223.2H1152 M1189.6,1362.8v-21.1 M1189.6,1324.6v-15.2 M1353.6,1362.8h22.9 M1394.9,1362.8h11.9 M1353.6,1309.4h22.7
	 M1394.9,1309.4h11.9 M282.3,1004h21.9"/>
</svg>
