<svg id="svg1" version="1.1" xml:space="preserve" width="3537.88" height="3246.147" xmlns="http://www.w3.org/2000/svg"><g id="Bunkers" transform="matrix(-4.31059 0 0 -4.31059 3562.39 3268.99)" opacity="1" fill="#666" fill-opacity="1"><path d="m586.268 338.491 55.892 15.688-3.107 10 10.726 3.099-6.951 23.515-11.602-3.13-2.158 8.637.46.075-1.79 6.765 1.44.414-2.15 7.892-1.564-.304-1.468 5.737-2.812-.875-.341.932 2.312.687-1.922 6.848 1.076.334-1.36 4.847 4.558 1.251-.361 1.203 5.679 1.555 2.556-10.176 20.178 5.468-17.745 67.458-20.742-5.58 2.417-8.892-5.48-1.52-.213.786-7.752-2.245-.856.434-1.643 6.74-3.31-.83 1.886-6.75-.427-.88-32.774-8.635-1.086 3.896-1.252-.305-1.01 3.769-1.123-.26-1.304 4.73-2.02-.52-.372 1.126.721.241-1.202 3.9.602 1.265 15.874 4.394 1.486-.635 1.28-4.142 4.705 1.316-.995 3.857.89 1.71 11.192 3.071-.84 2.866-11.16-3.147-1.567.953-1.897 7.234-1.083-.306-1.295 5.01 10.717 2.992-5.257 19.716-67.718-18.075 5.24-20.114 8.455 2.306 1.604-5.13-.787-.215 2.104-7.272-.838-1.494-14.2-3.499L509 498.382l-2.362-.639-4.371 15.898-5.417-1.77-1.225-.88-4.683 7.705 2.293 1.164 1.198-1.91 47.67 28.542-8.445 14.372-1.333-.83-13.209 21.84 16.326 9.393-1.258 2.31 4.228 2.637-5.958 10.082-4.037-2.337.97-1.752 2.02 1.17 2.952-4.79-2.312-1.192-1.909 3.292-12.476-7.332 3.43-5.457-1.995-1.278-12.414 18.782 11.15 6.728-3.884 6.45-3.56-2.216-2.497 4.07-7.565-4.506-7.136 11.583c4.828 5.31 1.583 11.874-2.88 13.49l-.025 3.357-5.605-.106.035-3.048c-3.451-1.18-5.734-4.252-5.734-8.076 0-4.326 3.297-8.648 9.542-8.025l5.53-8.982-5.866-3.609-1.436 2.23-10.837-6.45 3.83-6.327 3.275 1.887 1.246-1.82 2.86 2.01-1.109 1.692 7.899 4.878.536-.804 2.396 1.414 10.136-16.992-44.595-26.53 6.455-10.842 6.325 3.845 2.19-3.726 38.848 23.108 13.17-21.814-43.592-25.887 5.157-8.306-5.814-3.517 8.88-14.562 3.67 2.229 3.494-12.066-.9-.285 4.383-15.334-3.698-.97 2.537-8.737.695-.024 8.208-30.026-.62-.295 2.713-9.619-10.328-2.74-1.174 4.53-24.512-6.935 5.464-19.636 23.159 6.646-2.592 9.355 10.65 2.917 2.83-10.487-1.128-.162 1.68-5.383 1.42.391 5.74-20.878-4.914-1.257 1.276-4.604 4.467 1.333 1.154-4.553 1.356.392.254-.83-1.29-.316 1.01-3.74-28.948-7.986 3.887-13.61-31.881-8.631 5.797-21.25 49.046 13.11-5.797 21.339-12.377-3.29-2.035 7.58 32.265 8.848-1.71 6.105-1.99-.562-1.18 3.927-1.516-.569-.277.717 1.587.508-.988 3.32.924 1.375 7.868 2.287 39.434 10.885 3.555-12.812-.391-.274.915-3.498 1.192.23 2.048-6.727-36.73-10.11 8.884-32.215 25.058 6.98zm41.302 48.304-35.422-9.754-2.95 10.394.824.243-3.477 12.867 34.62 9.483 4.274-15.502-1.335-.473.596-2.266 1.377.426zm-86.106 8.784.09-.691-1.447-.32.577-1.887-7.603-1.978-2.252 1.336-5.22 19.287 2.488.74 3.891-14.48 4.988 1.582-8.362 29.996 1.206.296-.471 2.15 1.41.481.645-2.202.841.144 7.498-26.98 7.418 1.966.069-.484-7.871-2.14zm50.362 12.074-30.8-8.501-.313 1.02-7.981-2.144-1.944 7.5-1.633-.446-.3 1.009 40.45 10.979zm23.36 6.928-17.767-4.854-3.377 12.096 10.422 3.033-.214.787 4.904 1.487.214-.787 2.478.641zm14.542 22.341-5.462-1.593-.125.455-7.426-1.994-1.05.569-4.607 16.372.508.984-1.332 4.732-.983.553-4.463 16.006.694 1.1 7.759 2.1-.304.995 5.434 1.515zm-17.188-3.238-.656-1.277-3.682-1.043-.198-.671-4.76-1.187-.295.69-4.22-1.154-.455 1.3 5.39 1.494-1.129 4.049-3.34-.784-7.566 27.947-13.953-4.193.91-2.837-1.6-.408-.885 2.88-7.572-2.015-.477 1.32 1.834.526-1.342 5.055 27.793 8.058 4.346 1.367 1.164-.65 4.407-15.79-.764-1.137-4.024-1.096 1.255-4.684 4.287 1.132.968-.594zm-94.755 8.776-8.317 29.717 2.345.682-.23 1.048 18.254 4.997 1.431-.858 1.11-3.735 4.683 1.3-.952 4.034.729 1.203 15.21 4.285 1.356-.82 1.031-3.928.566.095.463-1.25-2.59-.714 2.353-8.505 3.998 1.035 4.067-14.364 1.703.312.392-1.444-21.906-6.024-.394 1.468-2.97-.834.31-1.49-13.216-3.625.791-2.96-1.401-.363-.918 2.97zm57.22 53.45-.855-1.711-16.324-4.461-.91.675-4.526-1.326-.736-1.082-15.341-4.146-1.667.848-2.03 7.23-.948-.26-1.433 5.075 41.479 11.356 1.945-4.865-.786-.214z" id="path1-4" fill="#666" fill-opacity="1"/><path d="m315.572 112.29 64.278 17.582-33.76 123.122 21.333 5.844-1.738 6.238-2.15-.549-.514 1.705 2.187.557-2.893 10.386-10.698-2.983-2.628 8.962 13.829 3.647-1.37 4.898-16.708-4.629 6.53-24.014 9.093 2.39.393-1.629-16.181-4.563-8.933 32.481-16.958-4.956-13.006 48.053-30.505-8.324 13.132-48.034-16.987-4.874 11.544-41.717-32.824-8.956-.285 1.049 9.056 2.322-5.614 20.61-13.987-3.816-3.894 14.783 9.807 2.493-.958 3.485-14.025-3.813 10.248-38.45 6.55 1.787.285-1.048-15.562-4.32 1.96-6.932 51.123 13.848z" id="path2-3" fill="#666" fill-opacity="1"/></g></svg>