<svg id="svg1" version="1.1" xml:space="preserve" width="3537.88" height="3246.147" xmlns="http://www.w3.org/2000/svg"><g id="Terrains" transform="matrix(-4.2716 0 0 -4.2716 3537.88 3251.39)" fill="#212121"><path d="m127.258 2.855 297.028 80.75-8.346 30.701 166.614 44.052-4.296 15.8c4.426 1.218 6.148 2.136 8.086 6.264 1.576 3.357 1.713 5.762 1.713 5.762l3.97 1.535 37.832 14.346 35.655 11.528 15.668 4.616 17.539 2.685 128.286 34.139-52.383 194.932.517 5.991-8.26 33.252.426 6.466c.56 2.068 1.02 2.649.468 4.804l-1.852 4.569c-.149.548-.333 1.337-.657 1.793-.826 1.159-5.246 2.959-6.737 3.638-6.706 3.066-12.291 5.479-18.069 10.189l-7.43 5.306-5.15 3.954-5.038 3.421c-7.14 5.084-11.702 9.017-19.769 13.198l-7.174 2.552-6.771 3.139-6.975 2.854-18.688 9.663-13.881 5.449-14.82 6.949c-1.667.908-2.688 2.911-3.524 4.557l-4.23 7.867c-3.844 6.273-8.124 11.705-13.268 16.963-1.737 1.777-3.277 3.513-5.249 5.054-4.703 3.67-9.018 5.439-14.648 7.126-2.121.638-3.821 1.19-6.043 1.499-3.649.51-7.349-.27-10.891.672-2.618.696-7.727 3.74-10.125 5.289-3.462 2.234-7.3 5.035-9.793 8.327l-5.927 10.224-4.726 6.605c-2.433 3.859-2.522 6.182-6.124 9.889-2.656 2.732-6.118 3.546-9.622 4.62-4.414 1.349-8.991 2.898-12.95 5.316-6.922 4.222-13.719 8.77-20.201 13.658-3.435 2.591-6.24 6.025-10.084 8.124-2.447 1.336-5.391 1.77-8.002 2.784l-7.747 3.62-15.888 3.506-2.653.606c-2.882 1.054-7.808 3.989-10.584 5.588-2.111 1.214-3.807 3.14-6.318 2.508l-53.527-14.552c-.562-.153-1.309-.33-1.801-.633-1.034-.636-3.042-3.479-3.832-4.562-3.099-4.243-6.804-10.133-9.042-14.856-2.12-4.471-2.907-7.153-4.524-11.656l-4.693-12.547-6.8-15.656-3.501-7.151-4.066-6.767-4.121-6.606c-1.388-2.01-3.141-4.43-4.796-6.201l-4.876-4.871c-2.917-3.363-5.611-7.195-9.121-9.979l-9.73-5.671-3.571-1.988c-.519-.525-.722-2.422-.85-3.195-.518-3.131-1.544-5.628-1.544-5.628l19.754-74.636-80.637-21.922-3.863 1.064-228.339-61.655z" id="path1"/></g><g id="Dirty_roads" transform="matrix(-4.2716 0 0 -4.2716 3537.88 3251.39)" fill="#333"><path d="M235.459 298.276c6.803 1.852 13.61 3.695 20.411 5.561-3.299.773-5.354 4.165-5.333 7.423-.784 5.528-1.704 11.04-2.582 16.551-1.002 3.137-2.679 6.007-3.967 9.033-1.406 3.167-3.172 6.214-3.877 9.638-1.166 4.213-2.447 8.413-2.903 12.777-.373 2.486-.648 5.005-1.675 7.327-.594 2.63-3.171 4.53-2.693 7.417.151 3.175-.878 6.357-2.762 8.909-.901 2.588.47 5.232.406 7.813-.387 2.681-2.363 4.567-4.315 6.195-1.471 2.443-4.76 5.767-5.763 8.41-1.098 2.688 1.509 4.395 3.253 5.852 1.28 1.599.994 4.736-.694 5.927-2.316-1.001-4.081 1.47-5.901 2.658-1.573 1.54-3.844 2.519-5.921 1.33-4.157-1.083-8.377-1.967-12.487-3.205-1.355-.778-3.22-4.237-1.63-4.923 2.676.087 3.799-3.255 3.55-5.47-.446-2.351-.597-4.381.585-7.02 1.13-3.333 5.463-2.936 7.45-5.406 2.044-2.352-2.063-5.29-3.978-3.122-.672 1.287-2.567 5.059-3.906 2.49.293-2.463-1.685-4.185-3.154-5.851-.813-1.664-2.651-2.148-4.364-2.095-2.84-.23-6.313.81-7.236 3.818-.87 2.604-1.078 5.372-1.852 8.004-1.177 4.93-2.142 9.913-3.255 14.852-1.018 2.38-2.959 4.206-4.424 6.309-1.596 1.974-3.024 4.088-4.5 6.138-2.848 2.868-6.01 5.754-9.96 6.935-2.691.491-4.936-1.401-7.253-2.382-2.928-.694-5.98-.352-8.948-.788-2.604-.519-5.203.008-7.795-.131-2.112-.32-4.389-1.658-4.372-4.056-.49-2.316-1.193-4.622-1.06-7.021-.394-2.251-2.364-3.768-3.957-5.238-1.79-1.529-4.078-2.288-6.392-2.509-2.552-.211-3.582-2.772-2.407-4.861 1.623-6.127-.228-12.488-2.148-18.321-1.234-2.974-.986-6.265-1.594-9.372-.623-2.804-3.686-3.061-5.508-4.239-2.923.142-2.328 3.933-4.724 4.873-1.904 1.191-4.895.475-5.913-1.578-1.08-2.713-1.64-5.619-2.545-8.4-.717-2.679-1.668-5.312-2.192-8.032.322-2.107 1.964-4.566 3.674-5.516.608 1.681.71 5.104 3.492 4.148 2.077-1.19 3.61-3.387 6.314-3.282 3.167-.303 6.529-.026 9.393-1.688 2.336-.942 4.959-3.053 4.175-5.886-.842-2.793.775-5.806-.568-8.496-.871-2.385.223-5.427-1.892-7.308-2.116-2.189-5.064-3.457-6.818-6.021-1.65-1.857-2.743-4.132-4.071-6.186-1.517-1.275-2.392-3.347-4.488-3.809-2.608-.695-5.362-1.85-8.043-.789-2.535.746-5.072 1.7-7.72 1.894-2.023-.15-3.591-1.662-5.377-2.487-1.686-.758-3.186-2.219-5.1-2.244-2.416.075-5.493.029-6.842-2.36-1.199-2.799-1.775-6.047-.734-8.994.62-2.082 1.768-4.165 3.87-5.047 2.038-.945 4.215-1.562 6.227-2.566 2.885-.919 5.954-.263 8.883.035 3.062.95 5.975 2.341 8.967 3.496 2.448.967 4.876 2.228 7.589 2.081 3.961.074 8.489-.128 11.558 2.85 2.048 1.891 3.814 4.073 5.986 5.83 1.699 1.844 3.546 3.756 4.151 6.265.927 2.416 2.378 4.6 3.714 6.807 1.57 2.246 3.473 4.294 4.832 6.671 1.23 3.313 1.026 7.194 3.172 10.129 2.009 2.18 5.098 2.561 7.799 3.352 3.09.38 5.549-2.328 8.632-2.031 2.74-.106 5.555.275 8.195-.648 2.356-.52 4.674-1.37 7.071-1.608 4.557.066 9.143.267 13.649-.593 3.669-.313 5.694-4.061 9.181-4.865 2.53-1.341 4.967.716 7.262 1.5 3.594.618 7.258.16 10.879.098 3.486-.024 6.514-1.898 9.663-3.136 2.489-1.161 5.134-2.08 7.442-3.579 2.006-1.996 3.051-4.749 4.317-7.235 1.406-3.861 1.815-7.99 2.635-11.996.541-2.901.92-6.113-.682-8.768l-.102-.238zm-14.351 50.894c-2.443-.545-5.383-1.098-7.2 1.124-2.304 1.753-4.918.081-7.154-.835-2.381-1.405-5.254-.495-6.887 1.587-1.541 2.422 1.07 5.116 1.932 7.386 1.713 2.238 4.439 3.515 6.937 4.71 2.66.721 5.407-.255 8.095-.367 2.6-.332 5.293-1.87 5.964-4.57.994-2.428 2.256-5.512.503-7.897-.564-.627-1.374-.982-2.19-1.138zm-32.166 5.341c-5.083-.997-10.12-2.287-15.235-3.083-4.001-.208-8.01.251-11.98.67-2.984.664-5.428 2.66-7.613 4.697-1.157 2.37 1.225 4.723 2.782 6.265 1.767 1.56 3.899 3.061 6.373 2.83 2.892.02 6.018.448 8.165 2.594 2.456 2.102 4.196 5.244 7.339 6.408 4.362.9 8.033-2.199 11.959-3.468 2.274-.78 4.707-1.125 6.9-2.11 2.26-1.575 2.166-4.677 2.389-7.125-.466-2.47-2.95-3.764-4.816-5.133-1.922-1.196-4.033-2.123-6.263-2.545zm-51.824 16.309c-3.264.074-6.601.428-9.618 1.762-1.825 1.488-2.919 3.667-4.09 5.659-2.276 5.383-1.221 11.445.217 16.901.494 2.2 1.891 4.216 4.142 4.789 2.403 1.375 1.208 4.708 3.135 6.296 2.363 1.332 4.307-1.483 6.711-1.006 2.424.289 4.917-.18 6.93-1.616 2.022-1.26 3.873-3.125 4.56-5.459 1.707-2.462 5.5-1.936 7.081-4.578 1.373-2.151 2.715-4.392 3.623-6.779.987-3.598-.976-7.63-4.361-9.164-3.335-1.659-6.844-2.946-10.278-4.383-2.614-1.016-5.285-1.927-8.052-2.422zm44.213 19.794c-2.567.658-4.274 2.889-6.462 4.239-1.831 1.79-5.276 2.751-5.594 5.584.26 2.248 2.173 3.758 3.353 5.554 1.504 1.185 2.099 4.136 4.397 3.822 1.404-1.992 1.731-4.774 1.301-7.191.478-1.77 4.706-1.252 3.831-4.2.207-2.348 1.561-5.004.039-7.169a2.626 2.626 0 0 0-.865-.639zm-9.914 16.774c-2.181-.444-4.872-1.693-6.791.071-1.198 2.204.142 4.908.949 7.018 1.853 1.843 4.891.674 6.474-.96.481-1.875.931-4.407-.808-5.546l.109-.308zm-.621 9.561c-3.424.097-.122 5.172 1.806 2.723.772-1.163-.713-2.548-1.806-2.723zm-7.517-.354c-2.226-.129-5.123-.175-6.446 1.971-.886 2.124.046 5.074 2.119 6.165 2.381.265 4.766-.966 6.934-1.899 2.278-1.554.304-4.752-1.349-5.964a3.148 3.148 0 0 0-1.258-.273z" id="path2"/><path d="M677.681 336.103c2.858-1.39 6.028-2.594 8.003-5.224 1.797-2.315 3.482-4.869 4.235-7.724.545-4.142.988-8.306 1.596-12.435.684-1.422.891-2.977.743-4.533.006-2.104-.388-4.265.37-6.294.379-2.78.059-5.635-.431-8.384-.981-3-1.597-6.236-.887-9.369.547-3.14 2.313-5.887 2.965-8.998.6-2.4 1.315-5.031 3.559-6.419 2.412-1.486 5.247-2.124 7.994-2.684 3.164-.538 5.353 2.447 8.234 3.128 2.156.216 3.643 1.961 3.615 4.125.412 1.763.644 3.589.128 5.36-.708 4.084-1.651 8.169-3.347 11.964-1.116 2.688-3.84 4.19-5.093 6.794-1.327 2.455-3.139 4.883-3.085 7.806-.038 2.73.059 5.625 1.313 8.107 1.584 1.883 3.867 3.118 6.156 3.946 3.145.716 5.795-1.79 8.862-1.92 2.077-.304 4.184-.483 6.242-.867 2.906-1.532 4.984-4.222 7.051-6.703 1.029-1.451 1.902-3.075 3.462-4.045 2.283-1.782 5.478-2.399 7.052-5.036 1.698-2.404 2.916-5.097 3.763-7.905.663-1.9 2.701-2.859 4.617-2.484 2.147.26 4.393-.123 6.467.586 1.612 1.203 2.574 3.052 3.863 4.573 1.614 2.219 3.504 4.244 4.904 6.608.568 1.453-.329 2.935-.598 4.375-.497 1.558-.699 3.243-1.482 4.685-1.672.402-3.85-.186-5.317 1.395-2.195 1.625-5.053 2.796-7.779 1.863-2.875-.816-5.881.658-8.021 2.513-2.614 2.32-4.868 5.02-7.622 7.185-1.635 1.319-2.764 3.137-4.23 4.631-2.502 2.666-4.659 5.732-7.816 7.691-2.612 1.675-4.377 4.417-5.527 7.236-.332 1.98.487 4.206-.833 5.971-1.292 1.028-2.434 3.095-.469 4.136a15.478 15.478 0 0 0 6.597 2.17c4.435.021 8.32-3.452 12.837-2.481-.199 2.031-3.94 2.089-5.782 2.817-3.229 1.126-6.247 3.822-6.478 7.419-.209 2.712.5 5.39.879 8.056.61 2.276 2.517 4.241 4.771 4.907 1.942.075 3.648-1.295 5.625-1.123 2.482-.109 4.98-.076 7.451-.277 2.739-.601 5.518-1.044 8.229-1.754 1.573-.533 3.188-1.2 4.877-.902 3.201.155 6.4.56 9.608.307 1.598-.12 4.277.698 3.475 2.788-.826 2.052-1.865 4.023-2.406 6.182-.747 2.62-1.733 5.181-2.285 7.85-.397 2.546.768 5.294-.682 7.658-1.068 1.9-2.445 4.087-4.728 4.557-2.148.1-4.302-.023-6.45.13-1.9.061-3.803.075-5.664.504-2.168.345-4.319.862-6.529.799-2.385.031-4.761.177-7.124.515-2.328.235-4.646.686-6.994.516-2.027.022-4.067-.177-6.085.012-3.082.639-6.027 1.815-8.994 2.84-2.911.971-2.378 4.267-2.716 7.028-.427 2.72-.843 5.23.028 7.902.54 1.888.266 3.736.372 5.758.386 2.302 1.712 4.865 1.048 7.065-.819 2.75 1.315 5.122 2.46 7.415 1.82 3.127 3.394 6.424 4.21 9.965.826 1.709-.101 3.431-1.266 4.695-1 1.815-2.708 2.914-4.82 2.513-4.826.003-9.654.103-14.48.106-2.18-.047-3.221-2.457-3.911-4.199 1.027-.307 3.649-.567 4.3-2.343.819-2.139-.72-4.382.04-6.546.595-2.872-.547-5.868.35-8.666.928-2.044 1.622-4.001.3-5.604-1.228-1.581-3.093-3.84-2.877-5.73-.205-2.211 2.293-4.451 1.867-6.63-.663-3.304-1.736-6.515-.872-9.736.394-2.025-.915-4.256-1.729-6.213-2.046-6.67-3.75-13.623-7.763-19.443l-5.32-6.377c2.89.209 5.82.019 8.58-.919 4.133-1.349 8.456-3.46 10.711-7.362 1.509-3.611 1.571-7.647 1.385-11.502-.183-3.336-1.848-6.485-4.48-8.539-4.771-3.987-10.859-5.753-16.587-7.878zm25.85-9.941c-2.127-.436-3.345 1.723-2.895 3.57.219 2.125.466 4.274.021 6.388-.697 2.428 2.362 3.31 3.645 1.419 1.999-1.653 4.413-3.071 5.645-5.435.481-1.841-1.401-3.183-2.684-4.139-1.15-.766-2.387-1.451-3.732-1.803zm14.865 27.373c-1.606.592-.659 2.588-.674 3.849.121 1.785.207 3.597.999 5.244.843 2.258 2.031 4.804 4.564 5.498 1.387.112 1.082-1.575.86-2.447-.405-1.685-.31-3.443-.608-5.137-.825-2.185-2.493-3.907-3.745-5.848-.384-.47-.842-.897-1.396-1.159zm-10.92 16.13c-2.457.05-2.936 2.83-2.74 4.763.134 2.486.846 5.645 3.482 6.576 2.165.602 4.158-1.058 5.55-2.525 1.52-1.343 1.307-3.657-.292-4.854-1.658-1.727-3.519-3.597-6-3.96zm43.867 19.025c-3.022-.171-6.066-.092-9.054-.631-3.018-.378-6.015-.885-9.008-1.414-3.033-.48-5.996.827-8.309 2.713-1.794 1.438-4.486 2.297-5.003 4.834-.612 2.479 2.129 3.73 4.148 3.927 2.56.453 5.018-.84 7.585-.634 2.199-.06 4.419.139 6.582-.358 3.272-.576 6.602-.792 9.831-1.611 2.152-.497 4.317-.923 6.521-1.096 1.908-.321 3.989-.148 5.707-1.128 1.679-1.423-.972-2.594-2.225-2.761z" id="path3"/></g><g id="Roads" transform="matrix(-4.2716 0 0 -4.2716 3537.88 3251.39)" fill="#333"><path d="m592.973 121.294 11.809 3.21-16.407 60.351-1.333 3.864-10.914 40.147c-.763 2.823-1.428 6.372-1.025 9.244.194 1.377.559 3.412 1.674 4.34.77.64 2.021.485 2.972.467l7.227 1.168c9.904-.556 8.113.449 18.27-1.591 3.468-.697 8.158-1.967 11.154-3.804 1.725-1.058 4.814-4.274 5.95-5.987l3.01-4.801c1.037-1.057 3.178-.627 3.694.79.456 1.245-1.683 4.15-2.42 5.176l-2.817 3.74c-2.231 2.489-6.4 5.605-9.504 6.778l-5.178 1.428c-4.774 1.226-12.118 1.855-17.05 2.276l-11.268-.805c-2.943.25-8.049 3.806-10.129 6.026-.896.953-1.191 2.028-1.525 3.248l-5.208 19.155-.807 4.007-5.422 19.942c-.31 1.203-.51 2.228.259 3.33.666.957 1.632 1.126 2.678 1.413l44.082 11.474 4.007.807 68.894 17.895 3.602 1.261 1.05.286 5.374 1.998c5.261 1.834 13.79 4.936 16.713 9.951 2.457 4.22 1.864 11.074.568 15.625-.805 2.821-4.679 5.848-7.133 7.296-.916.54-2.345 1.381-3.297 1.773-1.066.439-1.947.561-3.04.819-3.156.743-5.593 1.167-8.826.331l-1.049-.285-4.008-.808-2.361-.642-4.01-.797-3.411-.927-3.218-.604c-3.993-.883-9.547-2.027-14.627-3.349-5.757-1.497-10.824-3.128-10.824-3.128l3.135-10.09s17.982 3.053 25.245 5.027l4.008.808 9.708 2.64 5.582 1.235c3.111.806 6.177 1.037 8.042-2.04.44-.726.81-1.428.967-2.274.331-1.786-.008-4.59-1.132-6.044-2.713-3.508-11.082-4.051-15.29-5.188l-4.532-.952-52.261-13.983-4.007-.807-48.543-13.198-4.532-.95-8.659-2.354c-2.539-.67-3.09-.014-3.743 2.364l-3.21 11.808-1.331 3.865-7.277 26.764c-.61 2.246-2.793 7.725-1.166 9.587.672.769 1.781 1.003 2.725 1.263l70.059 19.047c1.849.504 7.393 2.781 8.801 3.902 5.192 4.128 6.634 10.799 4.952 17.025l-22.542 82.916c-1.66 6.066-7.375 10.286-13.601 10.645-.957.056-4.616-.665-5.66-.947l-13.12-3.567-4.531-.95-57.99-15.765-4.531-.95-17.844-4.851c-1.052-.272-3.896-.787-4.73-.216-.71.486-.926 1.602-1.14 2.387l-14.721 56.032c-.333 1.234-1.136 4.602-.578 5.68.729 1.414 2.717 1.582 4.083 2.154l6.435 2.243 5.309 2.24 40.429 17.05c3.222 1.488 6.174 3.637 8.792 6.009 1.452 1.313 2.932 3.043 3.009 5.113.077 2.08-1.448 7.773-3.465 8.676-.838.375-2.466.341-3.424.374l-7.291-.13-14.02-2.624-9.894-.917-2.687-.48-6.311-.625-3.62-.159-2.432-.385-9.924-.807-12.082-1.166c-1.66.135-3.007 1.133-3.246 2.848-.25 1.795.931 2.045 2.47 2.773 2.281.97 5.506 1.686 8.031 2.299l3.996.847 54.578 14.838c4.322 1.183 8.254 5.076 9.137 9.529.215 1.076.168 2.317.122 3.414-.047 1.205.013 4.089-.37 5.24-.585 1.745-1.849 2.21-3.52 2.62l-8.84 1.426-13.885.202-17.884 2.955-10.464 3.224c-3.96 1.077-7.706 1.372-8.5 5.48l.018 5c-.105.822.177 4.417-.344 4.988-.673.742-1.804.725-2.721.74l-5.92.006c-.938-.03-2.558-1.028-2.558-1.028l-.797-29.194 7.936-.17 17.581-.406 15.709-.778 14.673-1.109c1.74-.099 5.318-.105 6.663-1.114 1.594-1.198.708-1.803-.506-2.89-1.418-1.271-3.039-1.543-4.804-2.026l-3.864-1.332-55.102-14.981c-4.293-1.167-7.917-1.784-11.931-3.573-.956-.429-3.537-1.365-3.978-2.234-.305-.607-.175-2.77-.1-3.441l.714-2.624.51-2.96.85-3.996c.687-1.642 1.584-2.373 3.139-2.6l3.848-.681c1.737-.231 4.87.029 6.743.076l22.386 1.611 13.462 1.27 9.217 2.235 13.57 1.914c1.19.16 4.08.436 3.966-1.531-.089-1.59-1.92-2.138-3.133-2.571l-4.33-1.693-5.42-1.828-16.563-6.246-3.588-1.314c-1.426-.582-1.928-.984-3.552-1.447l-6.692-2.335-4.889-1.707-5.642-2.05-13.864-3.773-4.532-.95-11.021-2.996-4.007-.807-55.966-14.452-3.865-1.333-26.238-7.133-3.865-1.333-19.942-5.421-.571 2.099c-.69 2.374-2.357 1.893-4.316 1.363l-11.352-4.54-4.531-.951-20.991-5.706-4.008-.808-17.581-4.78-4.006-.807-12.595-3.424-4.533-.95-9.971-2.711-4.531-.95-9.971-2.711-4.533-.95-9.183-2.497-3.214-.618-10.447-1.994-18.737-3.634-10.178-1.947-5.249-1.427-4.531-.95-7.347-1.998-4.008-.807-5.772-1.57-4.007-.807-3.674-.999-4.01-.797-4.199-1.141-3.217-.604-9.78-2.377-4.531-.951-22.916-4.846-32.071-6.414-13.667-2.589c-9.062-1.807-18.333-3.037-27.257-5.463l3.139-11.545 9.653 1.805 16.83 3.397 5.377.949 22.738 4.465 2.361.642 16.56 3.35 19.958 4.324 4.008.808 4.461 1.212 4.27.879 3.935 1.07 4.27.879 3.673.999 4.269.879 3.937 1.07 4.007.807 4.46 1.213 4.007.808 15.952 3.516 10.914 2.354 10.178 1.946 2.362.642 6.965 1.33 8.73 2.092 4.534.94 4.199 1.142 3.22.593 3.936 1.07 3.217.604 10.305 2.52 3.482.665 5.51 1.498 4.532.95 6.297 1.712 4.533.95 7.085 1.926c.781.201 4.223.859 4.851.708 1.147-.28 1.524-1.276 2.96-1.433l5.901 1.072 6.297 1.712 4.008.808 6.035 1.64 4.007.808 15.815 4.017 8.084 3.089 3.674.999 4.27.878 8.92 2.426 4.532.95 73.095 20.475 4.532.95 31.225 8.49c2.444.657 5.54.507 7.222-1.7.607-.795 1.459-3.294 1.74-4.319l12.978-50.658c.469-1.718 2.6-5.794 1.373-7.278-.626-.755-1.808-1.009-2.715-1.259l-87.48-22.928c-1.567-.427-5.838-1.111-6.44-2.638-.312-.79.003-1.66.21-2.437l1.57-5.773c.22-.763.393-1.516 1.156-1.915.852-.45 1.845-.084 2.707.147l46.284 11.729 3.864 1.333 64.286 17.477c1.37.372 5.421 1.859 6.539 1.093.71-.486.926-1.603 1.139-2.387l11.985-44.082 1.332-3.865 9.987-36.735c.855-3.165-.407-3.767-3.271-4.552L371.76 335.895l-3.865-1.332-44.344-12.056-3.864-1.332-90.104-22.354-3.864-1.332-12.595-3.424-4.389-1.476-12.333-3.352-4.389-1.474-40.933-11.129-4.007-.808-42.24-12.23c-5.688-1.554-10.404-6.783-11.767-12.497-.728-3.055-.29-9.468.539-12.534l6.767-27.597 1.332-3.864 4.703-17.959 1.332-3.864 4.34-17.99 1.332-3.864 8.703-32.012c.482-1.69 1.334-3.278 2.324-4.722 1.984-2.89 6.049-7.006 9.414-8.128 2.383-.795 4.207-.632 6.639-.582 3.62.075 14.288 3.101 17.768 4.052l3.936 1.07 3.08 1.108 7.085 1.926 4.127 1.404 6.56 1.783 4.127 1.404 6.56 1.784 4.388 1.475 101.809 27.678 3.864 1.332 18.892 5.136 3.865 1.333 20.729 5.635 3.864 1.333 22.304 6.064 3.865 1.332 7.346 1.997 4.008.808 133.774 34.842 3.745.736 31.555 8.752c3.265.883 4.287 2.059 5.246-1.448l11.409-42.862 3.044-11.356 8.779-30.201 1.332-3.864zm-441.109 9.753c-4.544-.533-13.252-3.203-17.266.098-.723.596-1.39 1.22-1.886 2.023-.618 1.011-.889 1.935-1.197 3.056l-11.478 43.368-1.333 3.865-15.032 59.535c-.545 2.048-.975 4.5.028 6.46 1.398 2.735 5.166 3.936 7.923 4.72l3.34 1.19 1.049.285 8.254 2.808 90.824 23.811 4.007.807 8.92 2.425 4.008 1.173 5.825 1.355c2.823.76 3.225-.214 3.967-2.92l2.606-9.183 1.683-7.205 1.997-7.348.95-4.531 2.212-8.135 1.475-4.389 4.208-15.481 1.476-4.389 8.624-33.82 1.476-4.39 3.852-14.17c.595-2.087 1.619-3.31.95-5.653-.59-2.077-3.277-3.149-5.18-3.669l-76.265-20.307-3.864-1.332-27.027-7.348-2.566-.925zm357.767 97.133c-2.358-.253-5.323-1.205-7.67-1.843l-13.645-3.71c-1.685-.435-4.73-1.061-6.33-.368-1.549.669-1.906 4.457-2.665 5.93-1.073 2.092-2.103 7.606-2.7 9.789l-3.281 12.069-.95 4.532-1.57 5.773-.95 4.532-5.205 17.469-.95 4.53-14.898 51.646c-.528 2.033-1.144 4.766.845 6.219.533.391 1.406.592 2.046.766l8.134 2.211 4.389 1.475 57.464 15.623c1.212.329 3.099 1.008 4.303.76 2.01-.418 2.395-1.569 2.874-3.318l1.569-5.773.95-4.532 2.64-9.709.95-4.531 2.639-9.709.951-4.532 4.565-16.793.808-4.007 4.565-16.794.807-4.006 4.566-16.794.951-4.532 3.781-13.906c.177-.676.44-1.456.128-2.132-.509-1.103-3.318-3.467-4.499-3.791l-33.39-9.251-3.613-1.224zM288.415 169.83c-1.567.177-2.08.623-2.542 2.103l-.884 4.269-14.052 51.691-.808 4.008-15.052 55.364c-.239.922-.596 2.67-.237 3.557.453 1.114 1.476 1.286 2.507 1.569l23.09 6.278 3.865 1.332 143.266 38.949c2.141.582 7.862 2.75 9.605.922.545-.573.742-1.518.945-2.266l4.922-18.105.95-4.532 11.116-45.178 1.331-3.865 7.562-27.814 1.332-3.864 2.069-7.61c.702-2.582 1.914-6.138-.935-7.96-.578-.372-1.389-.561-2.053-.742l-12.332-3.353-4.396-1.454-152.974-41.588Zm249.958 211.383c-.986.042-1.929.081-2.712.741-1.195 1.006-2.138 5.7-2.593 7.374l-21.258 78.193c-.244.906-.622 2.016-.276 2.932.53 1.396 1.861 1.723 3.141 2.074l75.044 20.402c2.405.617 2.561-.099 3.147-2.244l23.184-85.278c.697-2.586.481-2.962-2.108-3.65l-66.647-18.119z" id="path4"/></g><g id="Fence_ext" transform="matrix(-4.2716 0 0 -4.2716 3537.88 3251.39)" fill="none" stroke="#000" stroke-width="2"><path d="m305.671 579.025 19.855-74.626-80.637-21.922-3.863 1.064-228.339-61.655L127.148 2.455 424.27 83.23l-8.443 31.056 166.727 44.07-4.296 15.8c5.406 1.866 9.115 5.432 9.799 12.027l37.416 14.463 53.067 17.158 21.346 3.267 127.121 33.96-52.383 194.933.517 5.991-8.26 33.252 1.518 5.705" id="path5"/></g><g id="Fences_int" transform="matrix(-4.2716 0 0 -4.2716 3537.88 3251.39)" fill="none" stroke="#444" stroke-width="1"><path d="m112.876 70.412 15.451-58.423L285.47 54.022" id="path6"/><path d="m290.107 55.086 64.607 16.935" id="path7"/><path d="m360.948 73.936 56.29 15.28" id="path8"/><path d="m415.69 93.551-14.083 52.541" id="path9"/><path d="m386.48 181.054 9.174 2.494 7.964-28.88m-2.886-5.028-7.675 28.8-5.06-1.38" id="path10"/><path d="m404.582 150.397 10.062-37.009" id="path11"/><path d="m111.951 73.872-18.419 69.113" id="path12"/><path d="m91.214 151.515-7.608 28.897" id="path13"/><path d="m82.493 184.521-21.129 78.844 39.136 10.357" id="path14"/><path d="m229.795 299.562-3.991 14.68-98.22-26.029m59.6 8.705 33.402 8.99 2.37-8.26m-120.083-23.201 81.544 21.817" id="path15"/><path d="m124.208 287.463-62.737-16.979" id="path16"/><path d="m59.504 270.187-4.07-1.107" id="path17"/><path d="m231.926 476.73 25.203-94.364-13.84-3.896 5.423-20.035m-6.46 8.704-4.13 15.096 13.692 3.618-24.034 89.676" id="path18"/><path d="m249.366 355.27 11.642-42.884 4.929 1.384m1.6-4.332-9.204-2.386-14.947 55.625" id="path19"/><path d="m322.567 490.767 7.523 2.045" id="path20"/><path d="m334.31 493.96 27.341 7.433 13.07-48.076 2.569.698" id="path21"/><path d="m380.776 454.963 16.882 4.589" id="path22"/><path d="m403.113 461.232 60.737 16.512-6.784 24.957" id="path23"/><path d="m454.522 512.058-5.039 18.533-14.129-3.841" id="path24"/><path d="m432.051 525.852-94.133-25.591" id="path25"/><path d="m334.064 499.213-12.844-3.492" id="path26"/><path d="m258.659 286.582 87.161 23.696" id="path27"/><path d="m352.105 312.091 82.453 22.416" id="path28"/><path d="m435.76 329.372-84.088-22.86" id="path29"/><path d="m345.364 304.602-55.211-15.01" id="path30"/><path d="m285.068 288.21-25.063-6.814" id="path31"/><path d="m450.74 340.272 7.752-28.514" id="path32"/><path d="m540.423 301.656-2.518 9.262-69.014-18.762-6.566 24.155m-2.698-8.73 5.777-21.249 69.377 18.861 1.086-3.995" id="path33"/><path d="m461.14 320.67-5.679 20.886" id="path34"/><path d="m577.441 175.301-12.24 44.544" id="path35"/><path d="m564.361 222.932-2.666 9.807-5.205 13.408" id="path36"/></g><g id="Rocks" transform="matrix(-4.2716 0 0 -4.2716 3537.88 3251.39)" fill="#262626"><path d="m408.579 628.536.262.071-.334.191z" id="path37"/><path d="m78.963 534.98.574 1.002z" id="path38"/><path d="M502.29 729.53c-2.116-1.439 1.766-4.62 3.328-6.464 1.562-1.987 4.198-2.335 6.443-3.1 3.902-1.079 7.825-2.235 11.343-4.294 1.828-1.002 3.76-1.803 5.799-2.242 4.264-1.158 8.576-2.148 12.771-3.547 2.632-.726 5.226-2.004 8.021-1.692 2.275.415 3.691 2.463 5.417 3.812 2.322 1.891 3.685 4.591 5.242 7.081 1.117 1.834 2.977 3.238 5.164 3.408 2.605.497 5.334-.782 6.715-3.024 1.34-1.836 1.671-4.13 2.507-6.184 1.802-3.155 5.503-4.318 8.789-5.24 2.623-.65 5.507-1.761 8.126-.47 2.694 1.047 5.166-.987 7.764-1.367 1.952-.392 3.983.844 5.847-.212 1.617-.881 3.411-1.413 5.263-1.344 1.975-.154 4.162.161 5.937-.88 1.313-1.091 1.678-2.894 2.86-4.11 2.054-2.574 4.771-5.27 8.286-5.308 2.332.088 4.84.728 7.009-.478 2.252-1.295 4.691-2.211 7.225-2.778 3.405-.856 6.817-1.944 10.353-2.018 2.601.35 5.016 1.538 7.364 2.657 2.367 1.291 4.96 3.069 5.375 5.952.418 2.257.087 4.576.566 6.827.46 3.054.841 6.127 1.352 9.172.879 2.677 3.287 4.528 4.074 7.26 1.047 2.435.38 5.122.154 7.649-.257 2.634-1.404 5.045-2.179 7.547-.532 1.628-1.155 3.243-1.629 4.88.108 2.178.349 4.368-.078 6.53-.443 2.664-.582 5.79-2.91 7.588-3.208 2.799-6.84 5.623-11.246 5.982-3.449.311-6.726-1.172-9.786-2.57-2.031-.816-2.618-3.104-3.773-4.75-.711-1.399-2.216-2.916-3.857-1.838-1.793.963-3.789 1.681-5.856 1.31-2.364-.328-4.836-.49-7.024-1.515-1.631-.937-2.556-3.207-4.697-3.117-2.939.146-5.803 1.293-8.772.937-1.476-.103-2.969-.089-4.433-.268-1.311-.528-2.704-1.101-4.135-.637-1.829.387-3.733 1.8-5.586.709-1.159-.869-2.688-1.004-3.93-.206-1.951.848-3.594 2.422-5.7 2.877-1.732-.14-3.431-.628-5.069-1.201 0 0-19.788-8.905-30.377-10.62-10.401-1.683-21.512 3.506-31.605.484-6.353-1.903-16.452-11.188-16.452-11.188Z" id="path39"/><path d="m414.632 622.855.263.071-.334.191z" id="path40"/><path d="M155.098 526.495c4.37.649 8.031 3.308 11.797 5.413 2.203 1.297 3.731 3.384 5.504 5.171 1.807 1.891 3.549 3.849 5.398 5.698 1.64 1.423 3.231 2.909 4.901 4.294 1.836 1.256 3.753 2.415 5.325 4.012 2.497 2.315 4.709 5 7.709 6.703 1.585 1.12 3.539 1.685 4.949 3.041 1.119 1.196.582 2.908.193 4.289-.445 2.049 1.236 3.702 2.834 4.667 1.46 1.06 3.552 1.678 4.186 3.538.388 1.739-.882 3.245-1.783 4.603-1.677 2.333-4.338 3.695-7.067 4.39-3.638.907-6.984 2.716-10.656 3.484-2.673.675-5.48-.09-8.143.584-1.987.615-2.833 2.817-4.737 3.582-1.93.872-4.1 1.702-6.245 1.308-1.928-.493-2.763-2.737-4.741-3.152a5.078 5.078 0 0 1-2.896-1.706c-1.839-1.646-4.421-1.873-6.682-2.615-4.157-1.171-8.42-2.246-12.775-2.037-3.484.112-6.998.275-10.417.99-1.812.324-3.086 1.998-4.985 2.018-1.534.169-3.09.198-4.61.457-2.541.593-5.075 1.229-7.623 1.794-2.139.284-4.376-.02-6.448.663-3.125 1.581-5.823 3.996-9.214 5.053-1.628.56-3.426.675-5.06.09-2.098-.716-4.52-.551-6.326-1.983-1.405-1.172-2.079-3.154-1.554-4.924.518-1.359-.653-3.014-2.143-2.691-1.769.196-3.855 1.019-5.386-.311-1.98-1.93-2.834-4.839-2.602-7.558.187-1.572-.701-2.917-1.201-4.333-.653-1.603.742-2.945 2.012-3.661 1.724-1.046 2.798-2.863 4.473-3.977 1.401-.935 2.94-1.922 3.498-3.61 1.073-2.715 2.878-5.059 4.58-7.404 1.796-2.435 5.027-2.692 7.54-4.008 1.915-.897 3.362-2.506 4.416-4.306 1.699-2.541 3.008-5.349 4.959-7.715.96-1.217 2.517-1.766 4.033-1.581 2.155.136 4.305.463 6.374 1.092 1.825.225 2.781-2.036 4.607-1.771 1.611.365 3.336.552 4.901-.124 3.727-1.493 6.605-4.555 10.431-5.862 5.929-2.307 12.441-2.268 18.674-1.605z" id="path41"/><path d="M518.293 622.988c5.081.705 1.653 6.418.017 8.892-1.055 1.598-2.64 3.585-4.446 4.289-1.358.527-3.249.5-4.716.766-1.225.225-2.987.845-4.148.746-1.714-.144-2.592-1.62-3.817-2.548-1.322-1.002-2.954-.721-3.663-1.748-.593-.857-.055-2.235.207-3.156.186-.654.339-1.199.722-1.776.372-.561 3.168-3.337 3.751-3.765 2.822-2.079 6.523-1.222 9.776-1.268z" id="path42"/><path d="M413.697 592.089c2.639.847 2.411 1.884 4.213 3.16 1.494 1.057 3.991 1.139 5.389 1.942 1.389.794 2.028 2.338 3.422 2.961 1.138.513 2.078.278 2.987.415 1.061.159 1.796.784 2.781 1.171 1.068.417 2.758.606 3.576 1.349 1.304 1.194 2.959 5.97-.72 6.782-1.485.295-3.578-.883-4.98-1.354-1.965-.585-2.352-.231-4.121-.386l-2.951-.548c-1.463-.163-2.374-.006-3.73-.789-2.463-1.422-3.967-5.28-6.382-4.451-1.432.492-1.419 1.553-2.085 2.645-.621 1.018-1.479 1.737-2.419 2.442-4.057 3.039-5.515 2.196-8.346 3.942-2.897 1.787-2.014 2.676-3.348 3.838-1.131.989-2.939.652-3.574 1.889-1.006 1.96 3.368 3.584 1.998 6.167-.625 1.18-2 1.958-2.508 3.263-.332.854-.18 1.814-.348 2.723-.263 1.425-.925 1.775-1.082 3.369l.023 3.388c-.171.835-.972 1.702-1.829 1.081-.93-.676-.596-2.465-.676-3.452-.209-2.54-2.268-3.072-1.327-5.715.317-.886.622-1.274.836-2.309.953-4.613-3.798-5.544-2.441-9.399.317-.895 1.949-4.72 2.5-5.227.943-.865 2.338-1.063 3.512-1.525 1.079-.422 2.938-1.467 3.925-2.1 1.701-1.096 2.677-2.893 4.202-4.211 1.555-1.347 3.97-2.57 5.179-3.947.915-1.046.861-1.842 1.419-2.995 1.491-3.078 3.379-4.822 6.905-4.119z" id="path43"/><path d="M381.894 579.532c2.537.462 4.062 4.835 1.107 5.212-.709.089-3.86.03-4.343-.429-1.269-1.2 1.118-3.792 2.118-4.413.513-.321.587-.262 1.118-.37z" id="path44"/><path d="M338.934 564.434c2.987.291 2.6 3.61.357 3.829-1.522.149-3.143-1.582-2.357-2.857.437-.706 1.26-.849 2-.972z" id="path45"/><path d="M92.588 493.157c1.977.284 6.091 1.515 7.288 3.147 1.284 1.752.401 3.928 1.995 5.246.644.533 1.752.665 2.559.909 2.841.858 3.425 3.789 2.109 6.204-.635 1.166-1.908 2.117-3 2.836-4.007 2.645-6.065 2.026-10.489 1.725-1.41-.097-3.641-.141-4.917-.573-.975-.33-1.834-.91-2.708-1.438-3.892-2.351-7.44-5.438-9.857-9.327-1.666-2.682-1.407-6.661 1.315-8.601 1.75-1.245 3.52-1.077 5.52-1.012z" id="path46"/><path d="m471.348 595.623 6.055 2.604 2.181 1.309c1.125.42 2.188-.017 3.307.271 1.566.406 2.324 1.804 3.954 2.038 1.364.199 2.462-.514 4.269-.155l4.81 2.001c2.491.779 5.654 4.548 4.383 7.233-.425.898-1.091 1.698-1.965 2.187-.985.555-1.842.525-2.909.678-2.102.302-3.88.756-5.684-.859-1.572-1.401-2.67-5.092-5.408-4.986-3.081.12-1.379 3.818-4.519 5.182-1.65.719-3.343.117-4.58.305-2.523.388-3.461 2.282-6.514 1.157-1.693-.624-2.587-1.792-4.483-2.169l-11.049.22c-1.565-.141-3.171-1.054-4.607-1.709-1.108-.507-2.999-.954-3.637-1.932-1.182-1.81.827-4.183 2.278-5.167l2.382-1.361c1.221-.874 1.517-2.053 3.087-2.492 1.799-.505 6.24.575 8.786-.209 2.682-.827 7.43-4.05 9.863-4.146z" id="path47"/><path d="M438.513 585.8c1.125.145 3.583.661 4.41 1.399.93.831 1.379 2.317 2.479 3.318 1.14 1.036 2.896 1.187 3.776 3.154 1.43 3.189-1.666 7.124-4.253 6.896l-2.624-.713c-1.604-.216-3.902.36-5.15-.752-.643-.575-1.248-1.866-1.82-2.633-1.532-2.057-2.865-1.91-3.659-6.459-.156-.893-.354-1.956.214-2.748 1.109-1.539 4.877-1.543 6.627-1.462z" id="path48"/><path d="M381.808 564.342c3.206-.195 3.522 3.1.962 3.63-1.944.404-3.806-2.436-.962-3.63z" id="path49"/><path d="M376.817 550.545c2.653.619 2.022 4.286-1.24 4.563-1.173.093-2.274-.734-1.818-1.976.423-1.165 1.915-2.318 3.058-2.587z" id="path50"/><path d="M570.671 600.308c1.844.349 5.906 3.008 5.234 5.243-.319 1.061-2.895 2.595-3.87 3.175-3.352 1.988-4.18 1.308-7.645 1.12-1.366-.075-3.085-.021-4.357-.465-3.838-1.337-3.036-3.759-1.891-6.686.618-1.587 1.071-2.85 2.757-3.649 1.697-.801 3.518.004 5.201.458 1.501.406 3.031.605 4.571.804z" id="path51"/><path d="M423.579 554.703c3.119.346 2.914 1.502 4.901 2.701l2.556.964c.817.376 1.66 1.037 2.392 1.568 2.197 1.589 4.645 3.79 3.944 6.827-.255 1.102-.521 1.585-.153 2.776.52 1.674 2.344 4.097.871 5.858-.876 1.044-2.275.946-3.265.133-1.537-1.264-1.765-3.915-4.358-2.442-1.452.828-3.342 3.119-6.459 3.877-2.589.629-5.359-.594-7.764 1.009-1.644 1.094-.93 2.145-1.155 3.582-.266 1.709-1.579 2.446-2.796 3.467-3.351 2.823-4.889 4.242-9.57 3.897-2.756-.203-5.953-3.775-5.43-6.565.294-1.581 1.735-3.42 1.794-4.021.134-1.407-1.446-2.102-.903-4.755.81-3.945 3.59-5.054 6.486-7.253l4.829-3.759 3.285-2.207c1.335-1.164 2.641-3.867 5.584-5.135 1.442-.62 3.636-.55 5.211-.522z" id="path52"/><path d="M401.069 545.246c3.399 1.263-.143 5.29-2.219 4.044-1.32-.793-.97-2.836.05-3.584.637-.467 1.416-.481 2.169-.46z" id="path53"/><path d="M388.268 540.744c1.932-.024 1.442 1.257 1.39 2.621-.043 1.079.262 2.435-1.05 2.916-1.192.436-1.876-.8-2.041-1.789-.249-1.491.341-3.056 1.701-3.748z" id="path54"/><path d="m548.895 578.833 1.049.285c2.08.422 4.776 2.389 3.605 4.858-.406.861-1.422 1.377-2.133 2.238-.71.864-.845 1.753-1.9 2.865l-3.06 2.549c-1.194 1.336-1.681 4.609-5.048 5.415-1.687.402-5.81.507-7.141-.684-1.599-1.432-1.805-4.489-3.872-4.369-1.134.066-2.138 1.281-3.372 1.901-1.771.888-2.498.172-4.39.695-1.716.474-2.773 1.483-4.043 1.397-1.414-.094-2.029-1.523-4.062-2.676l-5.958-1.925c-1.368-.628-2.684-2.017-4.207-2.15-1.335-.117-3.531.904-4.865 1.313l-6.205 1.057c-.701.018-1.227-.117-1.894-.289-1.926-.502-4.961-1.089-6.377-2.455-1.043-1.002-1.599-2.34-2.43-3.499-.814-1.131-2.019-2.316-2.144-3.786-.079-.943.386-1.668 1.238-2.056.985-.45 2.051-.13 3.129-.44 2.626-.754 3.31-2.597 6.666-1.538 1.97.62 3.625 1.943 5.397 2.95l5.823 2.422 4.3 1.803c1.963.427 6.639-1.357 9.426-1.504 1.832-.095 2.306.752 3.878 1.284 1.78.602 7.774-.012 9.921-.214 2.218-.215 5.863-.56 7.71-1.756 1.83-1.188 2.071-2.74 3.886-3.484 1.595-.651 5.267-.303 7.073-.207z" id="path55"/><path d="M470.081 554.678c.653.063 1.276.116 1.836.5 1.506 1.074 2.516 4.852 2.134 6.621-.229 1.057-1.33 3.708-1.982 4.534-.551.698-1.351 1.177-2.177 1.479-.962.353-6.703.948-7.862.931-1.063-.015-2.063-.237-2.817-1.041-.932-.995-1.212-2.348-2.583-2.935l-2.361-.642c-1.006-.363-1.609-.986-2.798-1.11-1.216-.127-3.33.564-5.058-.055-1.147-.414-3.946-2.948-4.858-3.894a6.8 6.8 0 0 1-.84-1.035c-1.828-2.785.229-3.818.543-5.711.285-1.7-.501-3.029 1.549-3.966 2.816-1.288 4.073 1.15 6.202 1.951 1.084.408 1.955.117 3.234 1.578 1.169 1.339 1.361 2.797 2.497 3.26 1.28.526 3.64-.918 5.663-1.145 2.07-.232 2.366.623 3.993.862 1.828.27 3.829-.198 5.685-.182z" id="path56"/><path d="M577.116 577.64c1.859.799 1.987 2.113 3.228 2.637.682.289 1.485.084 2.216.14 1.625.117 3.004.951 3.8 2.389 1.76 3.174-1.056 5.274-3.67 6.463-3.337 1.516-5.005.446-8.286.421-2.506-.021-5.669.514-8.092-.297-5.035-1.69-4.873-6.837-1.087-9.845 1.942-1.549 4.875-1.194 7.28-1.53 1.793-.25 2.763-.731 4.611-.378z" id="path57"/><path d="M538.779 562.165c3.32-.012 6.054 1.942 8.499 3.959 1.034.85 2.147 1.514 2.332 2.978.197 1.568-1.024 2.357-1.47 4.13-.183.728-.332 1.668-1.003 2.116-.7.469-1.629.259-2.375.028-1.401-.434-4.856-2.709-5.636-3.925-.92-1.433-.303-2.305-1.033-4.075-.864-2.099-2.863-4.304.686-5.211z" id="path58"/><path d="M577.006 567.678c1.645.17 5.891 1.375 6.865 2.683 1.519 2.039 1.046 5.027-1.928 5.07l-5.434-.74c-1.347-.042-2.937.334-4.094-.49-1.607-1.147-2.305-3.802-.594-5.181 1.143-.92 3.732-1.313 5.185-1.342z" id="path59"/><path d="M606.4 568.39c2.576.146 2.801 2.145 3.678 4.184.48 1.117 1.139 2.601.532 3.808-.469.929-1.438 1.297-2.393.874-.959-.424-1.927-1.722-2.715-2.454-.837-.777-2.107-1.39-2.639-2.327-1.363-2.405 1.628-3.781 3.537-4.085z" id="path60"/><path d="M741.549 593.663c.087 1.755-.714 3.38-1.094 5.062-2.261 8.294-4.499 16.594-6.774 24.883-.251 1.05-.891 1.977-1.83 2.522-1.813 1.338-3.42 2.93-5.127 4.397-1.869 1.757-4.083 3.091-6.241 4.458-1.844 1.07-3.796 2.406-6.04 2.137-1.118-.113-2.557-.236-3.249.862-.775 1.377-.137 3.067-.861 4.47-.637 1.618-2.268 2.872-4.051 2.763-1.575.015-3.16-.242-4.724.046-2.184.242-4.364.552-6.55.751-1.945-.058-4.147-.638-5.87.575-2.007 1.322-3.973 2.712-6.009 3.989-1.247.747-2.751 1.228-3.651 2.431-.68 1.182-.437 2.687-1.247 3.825-.987 1.703-2.622 2.999-4.534 3.498-2.333.614-4.657 1.275-6.945 2.039-1.599.619-3.31 1.251-5.046.822-2.768-.625-5.617-1.335-7.991-2.957-1.473-.963-2.485-2.784-1.982-4.556.44-1.495 1.273-2.855 2.153-4.131.594-.685 1.709-1.46 1.153-2.498-.736-1.212-1.889-2.243-2.075-3.727-.252-1.679.742-3.289.364-4.977-.338-2.303-2.128-4.209-1.972-6.622-.044-1.928 1.369-3.523 1.374-5.432-.226-1.553-.95-2.992-1.204-4.546-.381-1.888-.591-3.871-.024-5.746.297-1.576.053-3.181.054-4.771-.038-.844-.083-1.686.103-2.516.394-2.612.741-5.232 1.166-7.838.964-3.393 3.638-6.109 6.7-7.734 1.556-.785 3.463-1.443 5.137-.6.688.463 2.135.872 2.202-.396-.194-1.439-1.101-2.843-.617-4.332.261-1.435 1.344-2.453 2.312-3.448.831-.981 1.445-2.135 2.27-3.118 2.152-1.931 5.071-2.684 7.852-3.16 1.711-.285 3.635-.367 5.088.753 1.839 1.275 3.581 2.76 4.919 4.564 1.125 1.684 1.907 3.564 2.806 5.372.619 1.288.859 2.78.397 4.161-.913 2.875-.755 5.978-1.763 8.825-.532 1.38-1.852 2.21-2.556 3.467l-1.165 3.284c-.455 1.024-2.007 1.32-1.998 2.566.182 1.133.784 2.442-.067 3.462-1.35 1.766-4.173 1.18-5.419 3.084-1.007 1.798-1.86 3.72-2.307 5.74-.379 1.324.299 2.622 1.189 3.567.905.892 1.56 2.092 2.695 2.721 1.327.546 1.987-1.119 2.314-2.094.598-1.749 1.167-3.622 2.644-4.854 1.624-1.493 3.493-3.199 5.866-3.056 1.678.054 3.228.739 4.798 1.255 1.273.265 2.221-.909 2.241-2.089.171-1.422.004-3.005.965-4.197 1.433-2.06 4.057-2.509 6.251-3.342 2.379-.849 4.782-2.438 5.516-4.995.352-1.36 1.056-2.748 2.402-3.349 1.841-.871 3.895-1.108 5.816-1.753 2.313-.713 4.711-1.158 7.136-1.136 2.212-.106 4.481.005 6.626-.624 1.139-.258 1.716-1.443 1.421-2.528-.224-1.104-.041-2.478 1.068-3.042 1.857-1.056 3.972-1.525 5.985-2.187z" id="path61"/><path d="M135.636 419.847c2.316.064 2.271 1.108 4.015 1.772.963.365 1.701.123 2.397.473 1.2.605 1.496 2.541.203 3.119-.599.265-1.007.044-1.572-.115-1.703-.48-3.858.197-5.204-.552-1.736-.971-2.639-3.945.161-4.697z" id="path62"/><path d="M132.822 413.917c1.198.31 1.796 1.362 1.673 2.594-.049.489-.298 1.469-.955 1.417-.871-.071-2.204-3.231-.718-4.011z" id="path63"/><path d="M130.603 402.147c3.082.384 1.627 3.176 1.486 4.13-.177 1.202.206 2.808-1.522 3.04-1.568.211-2.439-1.052-2.548-2.457-.152-1.968.508-4.136 2.584-4.713z" id="path64"/><path d="M168.519 403.753c.13.055.306-.063.693.189.699.311 2.255 2.611 2.04 3.401-.202.745-1.189 1.15-1.868 1.304-3.359.76-3.526-3.568-.865-4.894z" id="path65"/><path d="M135.054 393.962c1.104.179 2.494.611 3.064 1.676 1.095 2.036-1.15 4.001-3.131 3.751-2.552-.322-4.551-3.862-2.164-5.191.693-.385 1.476-.289 2.231-.236z" id="path66"/><path d="M104.736 382.147c3.309.327.293 3.546-1.246 3.536-.923-.005-1.263-1.076-1.018-1.83.333-1.028 1.309-1.481 2.264-1.706z" id="path67"/><path d="M145.478 392.951c1.03.391 1.554 1.045 1.639 2.194.1 1.37-1.022 1.807-2.027 1.29-1.495-.774-2.089-3.346.388-3.484z" id="path68"/><path d="M150.121 391.464c2.622-.036 2.719 2.986.939 3.499-2.354.68-3.765-2.33-.939-3.499z" id="path69"/><path d="M624.161 519.643c2.563.22 4.941 1.76 5.049 4.593.027.709-.274 1.713-.471 2.408-.504 1.771-1.786 4.226-3.947 4.154-3.044-.1-1.867-3.787-2.082-4.947-.37-2.017-2.834-4.708.28-5.98.487-.2.683-.175 1.171-.228z" id="path70"/><path d="M110.168 373.569c2.474.186 1.473 3.329-.469 3.745-1.427.305-2.115-.812-1.602-2.076.4-.987 1.135-1.345 2.071-1.669z" id="path71"/><path d="M673.866 516.625c2.739.735 3.964 2.845 4.8 5.339.32.949.72 1.925.453 2.94-.266 1.01-1.694 2.549-2.455 3.278-.665.633-2.58 2.263-3.333 2.664-1.512.804-4.39 1.159-6.02.56-1.743-.636-4.32-2.136-4.873-3.998-.313-1.054.077-1.681-.374-3.195-.73-2.465-1.893-3.39-.968-6.182 1.085-3.263 4.935-3.611 7.755-2.656l2.513 1.123c.78.198 1.69.074 2.502.127z" id="path72"/><path d="M694.898 508.164c1.712.192 4.28 2.159 3.484 4.145-.692 1.723-3.455 2.27-5.07 1.69-.807-.29-3.839-2.05-4.304-2.691-.844-1.165-.777-2.832.67-3.476 1.301-.58 1.975.227 2.943.418.658.128 1.583-.04 2.277-.086z" id="path73"/><path d="M672.66 498.694c1.744.57 2.932 3.671 2.353 5.407-.423 1.27-2.159 2.15-3.397 1.52-2.225-1.132-2.088-6.49 1.043-6.927z" id="path74"/><path d="M693.354 500.149c1.28.123 2.963 1.023 3.276 2.39.37 1.614-1.642 2.85-3.376 2.086-1.732-.764-2.654-3.776.1-4.476z" id="path75"/><path d="M693.785 488.6c4.126-.165 6.36 7.283.798 6.352-3.209-.537-4.439-4.93-.798-6.351z" id="path76"/><path d="M102.062 319.51c1.309.578 1.418 2.498 1.607 3.803.103.718.059 1.67-.919 1.627-2.206-.095-2.326-4.315-1.596-5.063.372-.384.491-.284.908-.367z" id="path78"/><path d="M108.604 320.167c1.797 1.485-.846 3.705-2.155 2.871-1.387-.879-.599-3.52 2.155-2.871z" id="path79"/><path d="M187.682 644c1.208-2.497 3.265-3.136 3.989-5.396.468-1.454.353-3.091 1.153-5.04.755-1.833 2.092-2.221 3.158-4.215l1.649-4.905 4.908-8.528c1.228-2.197 4.14-7.951 5.934-9.365 1.871-1.475 6.562-1.578 8.822-.995 1.79.464 4.371 1.003 5.412 2.678.669 1.072 1.165 3.974 2.109 5.076 1.185 1.382 2.843.134 4.679 2.283.798.933 1.021 1.802 1.346 2.945 1.383 4.842.28 5.752 1.065 8.732.354 1.35.752 1.45 1.467 2.503 3.012 4.435 4.51 4.306 7.627 7.786 1.078 1.203 2.221 3.408 3.737 3.873 1.09.334 2.158-.053 2.926-.862l2.058-3.092c.977-1.233 3.859-4.042 5.093-5.096 1.076-.919 2.597-2.227 3.856-2.801 1.441-.657 8.419-1.71 10.408-2.017 3.076-.477 4.555-1.092 7.665-.209 3.066.872 5.826 2.564 8.381 4.414 1.198.866 2.312 1.569 2.992 2.954 1.404 2.859.011 6.386 2.036 7.593 1.43.851 3.996-1.483 5.131-2.314 1.27-.925 4.901-3.347 5.66-4.378.809-1.099.856-2.369 1.345-3.58.464-1.136 2.2-3.406 3.108-4.226 1.786-1.618 5.154-1.877 6.011-4.285.462-1.294-.748-2.265-1.489-3.157l-1.692-2.066c-1.387-1.375-2.519-1.412-3.607-3.948-1.546-3.601.613-5.201.24-8.67-.175-1.643-1.027-3.238-1.745-4.701-1.235-2.517-2.44-5.97-5.102-7.302-1.253-.625-2.255-.357-3.542-.447l-3.936-1.07-3.611-1.224c-1.533-.293-2.803-.168-4.199-1.142-1.787-1.336-2.524-3.654-3.296-4.638l-2.908-2.6c-.797-.811-2.02-2.685-2.634-3.691l-1.321-2.535-2.428-4.324c-1.328-2.628-1.846-4.612-3.752-7.103-2.209-2.885-5.917-5.196-9.153-6.758-2.778-1.34-5.758-2.357-8.066-4.492-1.093-1.009-1.592-2.633-2.131-3.989-.799-2.004-2.353-5.388-3.964-6.8-1.142-1.002-2.58-.795-4.003-.824-4.669-.094-6.092 1.035-9.864 1.044-1.458.001-2.759.073-4.009-.803-1.484-1.04-3.422-3.396-4.173-5.042-.849-1.863-.684-2.922-2.108-5.023-.851-1.254-2.545-2.628-3.878-3.356-.878-.481-2.002-.782-2.651-1.547-1.187-1.404-.936-4.132-.418-5.78l2.732-7.147c.357-.918.869-2.534 1.536-3.235.63-.66 4.145-1.75 5.377-2.334 1.724-.816 3.236-1.808 5.128-2.28 1.277-.321 3.713-.262 5.166-.342 1.633-.089 3.735-.253 5.291.229 1.213.377 2.089 1.117 3.201 1.701l6.22 3.033 7.505 3.491c1.653.529 4.73.491 6.143 1.244 3.046 1.626 2.608 6.077 1.822 8.84-.68 2.393-3.264 5.625-5.388 6.904-.97.584-3.205 1.158-2.99 2.107.203.891 2.092 1.687 2.919 1.743 1.931.133 3.752-2.069 6.456.092 1.937 1.55 3.616 5.698 4.886 7.942 1.97 3.48 4.051 5.619 7.073 8.185 1.062.903 4.851 3.674 6.124 2.405.516-.513.467-1.605.631-2.322.201-.906.516-1.773 1.068-2.528.399-.545.792-.925 1.39-1.25 1.031-.557 2.037-.621 3.107-.158 2.834 1.223 3.439 4.49 4.66 6.997.352.727.925 1.813 1.537 2.337 1.438 1.234 3.86-.235 5.879 2.174 1.211 1.445 1.093 2.585 1.312 4.264l1.06 8.821c.275 2.417.231 4.101 2.388 5.727 1.774 1.339 5.017 1.392 7.174 1.593l14.323 1.216c1.029-.053 2.832-.415 3.848-.678 4.639-1.207 7.615-4.101 12.787-2.467 3.131.99 5.172 3.114 6.858 5.847 1.384 2.239.616 3.444 1.561 3.701.802.219 1.414-.912 1.797-1.427.737-.992 1.623-1.836 2.962-1.658 2.408.323 4.878 3.997 7.002 4.301 2.098.303 5.391-1.714 6.804-3.156 1.089-1.117 2.141-2.963 4.02-2.453 2.277.62 1.94 3.712 3.069 6.352.344.806.851 2.179 1.933 2.104 1.074-.075 1.991-1.632 3.627-1.849 1.404-.092 2.383.96 3.674.998 1.546-.069 3.304-1.311 4.656-1.576 1.965-.388 10.088 1.862 8.19 6.608-.619 1.548-1.934 2.103-3.746 5.744-1.175 2.476-.572 3.443-1.284 4.723a2.984 2.984 0 0 1-2.548 1.401c-.77.003-1.464-.294-2.036-.802l-2.316-2.88c-1.347-1.299-3.869-2.343-5.391-.768-1.43 1.474.093 2.973-.003 4.779-.062 1.152-.399 1.342-.023 2.811.433 1.682 1.41 2.526 1.698 4.407.288 1.885-.453 2.946.058 4.806.493 1.794 1.946 3.31 1.72 5.258-.304 2.614-3.159 2.903-5.114 5.091-1.54 1.725-1.245 3.384-1.655 5.467-.387 1.96-1.694 2.87-1.971 3.973-.386 1.544.826 3.584 2.474 3.691 1.702.11 3.635-1.14 4.88-1.365 1.662-.301 3.466.847 4.507 2.056 2.276 2.646.406 4.082.066 5.342-.414 1.522.169 4.16 1.284 5.302.828.851 3.909 1.906 5.415 2.843 2.802 1.738 3.157 3.025 4.8 4.111 1.459.965 1.849.784 3.361 1.108 2.072.445 3.921 2.038 4.62 4.048.487 1.393-.009 1.933 1.75 4.655 1.132 1.747 4.153 5.083 4.733 6.699.821 2.143-.874 3.818-1.567 5.763-.59 1.53-.334 3.034-.829 4.283-.694 1.745-2.048 2.433-2.731 3.766-1.23 2.39-.03 4.059.939 6.173.294.643.709 1.943 1.15 2.415.563.604 1.127.489 1.738.024l1.735-2.028 2.649-2.097c1.601-1.504 1.326-2.853 2.74-4.327 1.47-1.528 3.666-1.655 5.391-2.767 1.78-1.145 3.197-3.831 6.159-4.9 2.263-.817 4.293.338 6.622-.538.794-.297 1.846-.89 1.981-1.815.275-1.85-2.924-4.334-4.246-5.381-1.572-1.245-5.68-4.159-6.647-5.566-.575-.832-.959-1.861-1.327-2.8-.717-1.841-.906-2.412-.407-4.338.581-2.238 2.242-5.914 4.088-7.343l5.801-3.213c2.178-1.358 4.074-3.263 6.699-3.817 2.945-.62 5.147.539 6.67.342 2.091-.271 3.622-1.9 6.418-1.842 1.319.029 3.368.259 4.594.722 1.636.616 3.097 1.71 4.923 1.584 2.715-.19 6.278-1.582 9.436-1.538 3.929.054 4.324 1.392 6.388 1.378l4.685-.652c1.169-.081 4.196.911 5.249 1.426.938.548 2.845 2.306 3.663 3.106 1.854 1.815 6.061 7.083 7.623 9.275.829 1.161 2.791 4.861 4.354 4.611 2.738-.443 1.167-4.589 2.246-6.88 1.418-3.01 4.224-.644 5.603-2.709.503-.754.156-1.984-.01-2.815-.374-1.899-.699-2.61-.094-4.534l5.969-12.466c.757-1.559 1.583-4.543 2.537-5.792 2.039-2.663 5.359-1.752 7.013-3.453 1.021-1.047.194-2.298.88-4.263.719-2.051 1.68-5.456 3.922-6.218 1.736-.591 2.965.681 4.768-.748 1.682-1.334 2.366-5.012 3.676-6.286 2.806-2.732 8.429-.012 11.522.865 1.799.512 6.067 2.228 7.568 3.256 1.486 1.019 1.87 2.439 3.66 3.122 3.287 1.258 6.036-1.835 8.466-3.559 2.389-1.692 5.151-3.446 8.201-2.817 1.035.214 1.424.519 2.31.836l.781.212c2.981.397.338-3.086 2.839-4.044 2.513-.964 4.695 2.796 6.928 2.189.943-.254 1.14-1.001 1.384-1.827l1.475-4.39 1.07-3.936 1.093-5.057.951-4.532 1.64-6.035c1.039-3.64 1.99-4.209 5.447-5.522 1.026-.388 2.237-.849 3.339-.881 1.453-.047 3.671.635 4.964.4 1.162-.211 2.055-.856 2.959-1.571l6.533-5.268c1.31-1.564.925-2.496 1.934-3.984.802-1.185 3.958-3.838 5.188-4.788 3.587-2.776 7.717-4.896 11.564-7.283l12.836-7.781 6.087-3.688 7.066-3.188c3.036-1.612 3.759-2.985 5.356-5.845.531-.949 1.24-2.218 1.594-3.23l1.119-3.077c.717-2.07.505-3.229 2.517-4.669 2.06-1.472 7.51-3.245 10.123-4.422l6.631-3.656c3.883-1.94 6.499-2.647 10.735-3.21 2.031-.269 5.624-.841 7.535-.767 3.087.118 7.59.903 10.524-.301 3.255-1.392 1.23-3.624 1.656-6.09.162-.618.46-1.196.725-1.775 1.291-2.822 2.251-3.575 5.232-4.653l6.654-1.674 4.722-1.821c1.408-.42 2.94-.531 4.258-1.173 2.039-.99 2.296-1.997 3.823-3.126 1.192-.882 4.309-2.147 5.799-2.188.73-.021 1.694.269 2.405.474 1.366.397 4.489 2.207 4.971 3.504.201.545.697 4.977.547 5.528-.486 1.786 18.447 2.9 20.812 10.265 2.722 8.48-4.8 19.269-12.605 23.558-5.505 3.025-12.818.537-18.792-1.404-.81-.263-1.402-.979-2.171-1.342-1.725-.815-5.416-1.848-5.416-1.848-2.484-.706-4.809-1.91-7.45-1.614-.823.092-2.275.362-2.752 1.106-.551.856.642 3.544.99 4.484 1.81 4.908 1.784 6.558 2.694 11.441.307 1.65.848 5.649.602 7.208-.253 1.594-.717 2.246-1.206 3.618l-.785 2.886-3.666 8.302c-.918 2.994.5 5.802-.965 7.32-.985 1.024-3.128 1.092-4.489 1.302-3.497.539-7.599 2.183-11.052 1.262l-1.837-.5-12.234-1.639c-2.381-.706-3.734-2.136-4.938-2.567-1.281-.461-4.342-.093-5.693.213-4.17.94-6.199 2.567-9.82 3.989l-11.343 3.369c-3.55 1.067-6.48 2.434-10.223 1.327-1.277-.381-2.985-1.429-4.115-1.444-1.323-.018-3.317.945-4.61 1.407-2.154.773-2.575.724-4.763.935-1.89.185-5.567.112-6.938 1.452-1.021.999-.238 2.269.113 3.402.754 2.448.685 4.725.72 7.239l-.256 20.501-.328 6.956c-.06 1.28-.021 2.911-.44 4.107l-1.503 3.819-3.259 8.412-2.535 5.51-1.413 8.07c-.649 1.785-3.146 4.409-4.339 6.146-1.03 1.505-1.781 3.419-3.356 4.392-1.479.914-6.271 2.172-7.985 1.728-2.838-.732-4.452-2.777-7.668-1.853-.703.201-1.491.519-2.061 1.007-1.031.947-.905 2.371-.995 3.663-.213 2.191-.321 3.956-1.811 5.707-3.932 4.617-7.368 5.179-12.5 7.898-3.437 1.819-2.968 2.634-4.893 3.974-1.121.779-2.151.854-3.296 1.676-2.473 1.771-2.365 5.601-5.689 6.011-1.601.196-5.349-.288-6.739-1.125-.99-.599-1.916-1.805-3.273-2.471-.851-.448-2.593-.64-3.673-.999l-4.461-1.212c-2.042-.939-6.108-2.959-8.113-3.327-2.464-.45-5.879.712-8.076-.353-1.59-.773-3.952-2.72-5.093-4.07-1.55-1.834-3.395-4.406-6.058-4.664-1.882-.186-2.832 1.475-4.083 2.53-1.148.967-3.192 2.186-4.634 2.586-2.194.61-4.93.202-5.651 3.071-.389 1.546.338 2.947 1.13 4.228 1.525 2.457 4.12 4.852 5.113 7.614.623 1.73-.356 2.96-.816 4.568-.323 1.133-.531 2.356-1.224 3.331-1.248 1.757-3.682 2.577-5.497 4.141l-5.27 5.319c-1.558 1.005-6.757 2.125-8.855 2.732-3.851 1.12-6.838 2.985-10.97 3.04-3.242.045-3.728-.033-6.805-.884l-2.841-.95c-.912-.2-3.012-.706-3.773-.198-.899.605-.508 1.559-.234 2.386 1.157 3.513.748 3.582-.18 6.995-.612 2.25-45.268 11.37-67.816 8.2-23.057-3.243-41.871-21.094-64.345-27.181-23.957-6.49-49.702-3.824-73.84-9.603-22.595-5.41-44.743-13.243-65.693-23.285-5.935-2.846-12.655-5.264-16.8-10.378-3.997-4.934-7.41-15.92-6.435-17.933Zm380.985-13.475c-.788.214-1.128.297-1.466 1.121l-.57 2.099c-.377 1.343-1.937 3.776-.449 4.908.792.601 1.767-.013 2.474-.438 1.369-.817 2.508-1.564 4.186-1.319 3.328.485 6.877 5.547 9.893 7.142.911.481 2.046 1.15 3.095 1.053 2.637-.247 4.077-2.837 3.217-5.252-.784-2.197-2.038-3.078-4.173-3.67l-7.946-1.867c-1.256-.283-2.186-.201-3.466-.723-2.255-.923-2.526-2.817-4.795-3.054z" id="path80"/><path d="M731.073 419.727c2.418.494 1.869 3.303-.11 3.463-1.278.105-2.173-1.204-1.755-2.234.338-.839 1.077-1.066 1.865-1.229z" id="path83"/><path d="M733.021 414.685c2.392.075 1.937 2.567.118 2.594-1.157.015-2.372-1.671-.118-2.594z" id="path84"/><path d="M94.722 232.401c-.264.536-.577 1.254-1.011 1.669a2.447 2.447 0 0 1-1.029.591c-4.274 1.377-3.067-4.517.63-3.289.602.2.967.609 1.41 1.029z" id="path85"/><path d="m504.528 339.867.263.071-.334.191z" id="path86"/><path d="M776.379 410.611c3.214 1.466.684 4.649-1.378 4.035-1.329-.395-2.298-2.389-1.211-3.496.741-.757 1.642-.703 2.589-.539z" id="path87"/><path d="M773.549 404.44c3.227.618 1.183 4.399-.877 4.242-1.279-.097-2.118-1.695-1.55-2.819.503-1.002 1.398-1.32 2.427-1.423z" id="path88"/><path d="M122.543 222.294c2.874 1.879-2.002 4.876-3.46 4.486-1.224-.328-1.288-1.675-.644-2.585.925-1.298 2.548-1.981 4.104-1.901z" id="path89"/><path d="M708.733 374.494c3.653.231 1.992 6.095-.705 4.573-1.544-.87-1.945-3.803.705-4.573z" id="path90"/><path d="M101.273 174.101c3.015.423.825 3.806-.508 3.827-1.35.022-2.61-2.048-1.748-3.178.446-.585 1.58-.598 2.256-.649z" id="path91"/><path d="M384.01 172.653c1.708.902.348 3.127-.733 4.064-2.186 1.895-3.219.698-4.908 1.16-.932.256-1.781.953-2.774.877-.783-.057-4.498-2.259-2.882-3.272l1.974-.647 2.582-1.202c1.074-.359 2.115-.299 3.223-.454 1.2-.17 2.299-.584 3.518-.526z" id="path92"/><path d="M238.352 122.828c3.287.463 1.616 3.345-.353 3.351-1.339.005-2.111-1.499-1.377-2.562.46-.666 1.009-.703 1.73-.789z" id="path93"/><path d="M212.315 117.277c-.578-.261-2.165-.899-2.463-1.239-.674-.78-.035-3.371.993-3.649 1.721-.465 1.605 1.726 1.68 2.691.039.478.171.945.004 1.41-.032.456-.168.552-.214.787z" id="path94"/><path d="M301.769 134.174c1.876.211 2.243 1.233 3.592 2.338 1.061.866 2.511 1.488 2.544 3.089.021 1.249-1.955 3.636-3.279 2.724-.699-.48-1.342-2.072-1.49-2.893-.081-.433-.021-1.203-.287-1.538-.694-.865-1.954.709-3.245.138-.89-.394-1.087-1.465-.668-2.278.56-1.085 1.721-1.437 2.833-1.58z" id="path95"/><path d="M329.222 139.955c3.521.574 3.652 5.482-.493 4.921-3.278-.443-3.528-4.436.493-4.921z" id="path96"/><path d="M240.635 111.321c3.569.556 2.682 3.33 1.405 5.584-1.663 2.932-2.443 4.281-6.032 3.145-1.473-.466-2.706-2.049-1.687-3.528.423-.612 1.155-.785 1.446-1.348.289-.556-.028-1.236.233-1.884.595-1.464 3.236-1.943 4.635-1.969z" id="path97"/><path d="M355.655 140.477c2.685-.115 2.806 3.527 1.277 3.988-1.66.501-3.441-2.66-1.277-3.988z" id="path98"/><path d="M218.975 102.956c2.133.157 1.74 1.557.601 1.715-1.189.167-2.631-1.103-.601-1.715z" id="path99"/><path d="M361.76 140.739c2.106.133 2.624 3.585.767 4.041-2.238.553-3.091-2.892-.767-4.041z" id="path100"/><path d="M245.348 108.829c1.714.184 4.135 3.023 5.976 3.6 1.207.379 2.46-.312 3.248.334.988.804.394 3.164-1.431 3.327-1.554.139-2.439-1.404-3.438-1.845-1.292-.568-2.814.492-4.132-1.292-.799-1.082-1.637-3.288-.223-4.124z" id="path101"/><path d="M390.545 144.634c1.989.197 2.037 2.521.546 2.876-1.554.369-2.658-1.915-.546-2.876z" id="path102"/><path d="M222.357 89.622c1.226.207 1.322 1.191 1.436 2.315.2 1.96-.992 3.692-2.958 4.105-1.544.321-2.011-.629-1.695-1.988.357-1.53 1.772-3.81 3.217-4.432z" id="path103"/><path d="M268.717 98.247c1.048.454 1.881 2.002 1.199 3.113-.858 1.395-3.028.233-4.101.801-.829.44-.742 1.652-1.734 1.538-1.172-.136-1.634-1.588-1.15-2.528.647-1.25 1.997-1.012 3.091-1.532 1.214-.58 1.197-1.17 2.695-1.392z" id="path104"/><path d="M383.599 115.102c1.593-.043 2.421.881 1.805 2.455-.514 1.309-2.441 3.575-3.842 3.963-2.358.652-2.48-1.657-1.888-3.266.61-1.663 2.334-2.623 3.925-3.152z" id="path105"/><path d="M383.032 101.704c2.052-.093 3.389 1.539 1.863 2.082-.515.184-2.519.521-2.981.218-1.158-.757.394-1.998 1.118-2.3z" id="path106"/><path d="M322.704 77.081c.393.045.56-.07.957.26.478.263.577.774.336 1.267-.289.592-1.126 1.018-1.609 1.81l-1.393 3.849c-.184.502-.319 1.215-.867 1.45-.704.3-3.352-.408-2.758-2.16.192-.559.961-1.316 1.314-1.89l.761-1.485c.623-.972 2.218-2.57 3.259-3.101z" id="path107"/><path d="M365.53 87.247c1.293.32 2.106 1.094 2.386 2.45.243 1.181-.36 2.627-1.754 2.462l-1.307-.356c-1.415-.401-2.213-.224-3.577-1.333-.648-.528-1.163-1.35-.641-2.16.704-1.1 3.694-1.11 4.893-1.063z" id="path108"/><path d="M327.709 71.18c1.418.478.917 1.47.281 1.497-.69.029-1.505-1.066-.281-1.497z" id="path109"/></g><g id="Concrete" transform="matrix(-4.2716 0 0 -4.2716 3537.88 3251.39)" fill="#333"><path d="M547.19 386.333c1.432.008 4.255.948 5.766 1.358l56.414 15.337c.902.246 3.457.778 4.002 1.418.618.732.157 1.934-.064 2.753l-21.9 80.555c-.729 2.662-1.006 2.82-3.671 2.101l-60.088-16.335c-.902-.246-3.457-.778-4.001-1.418-.619-.732-.156-1.934.063-2.753l21.187-77.93c.246-.906.981-4.045 1.461-4.61.337-.4.417-.321.831-.476z" id="path110"/><path d="m312.228 318.871 58.849 16.344c.903.246 3.458.777 4.002 1.418.618.732.156 1.933-.064 2.753l-19.199 69.666-1.574-.428-5.707 20.991 1.575.428-8.388 31.292-.975 1.781-2.554-.204-32.145-9.295-5.487 21.033 4.46 1.213-5.998 20.29-32.705-8.943-1.455-.846.403-2.539.786.214 30.662-110.498-.786-.214 1.855-6.822 1.311.356z" id="path111"/><path d="M135.018 223.072c1.626-.093 4.916 1.05 6.632 1.516l66.91 18.191c2.182.638 2.604 2.221 3.676 4.099 1.255 2.195 1.614 2.335.958 4.768l-3.353 12.332c-.704 2.574-1.264 2.497-3.574 3.82-2.31 1.322-2.527 1.843-5.103 1.148l-71.108-19.332c-2.415-.673-2.546-1.737-3.747-3.836-1.322-2.312-1.844-2.524-1.149-5.102l3.353-12.334c.149-.548.329-1.335.656-1.793.714-1.006 4.606-3.062 5.849-3.477z" id="path112"/><path d="m285.701 260.651-18.367-4.993c-3.082-.844-3.11-2.016-2.341-4.864l3.781-13.907c.407-1.498.89-4.385 2.147-5.297 1.383-1.002 3.695-.438 5.217-.028l170.555 46.368c.769.22 1.621.435 1.994 1.227.366.779-.012 1.851-.225 2.635l-5.136 18.892c-.326 1.115-.673 1.923-1.978 2.072-.787.091-2.861-.568-3.722-.802l-7.347-1.998c-1.02 3.749-.83 4.545-3.574 3.818l-13.906-3.78c-2.29-.639-2.232-1.102-1.649-3.266l.499-1.837-39.096-10.628c-.257.946-.782 3.726-1.59 4.188-.64.367-1.651-.001-2.318-.179l-10.496-2.853c-.257.947-.782 3.726-1.589 4.188-.641.368-1.651 0-2.315-.192l-11.803-3.208c-2.143-1 .094-3.038-.621-4.577-.404-.867-1.468-1.046-2.302-1.276l-7.608-2.069c-.716-.2-1.66-.375-1.93-1.175-.243-.732.618-3.332.851-4.19l-26.238-7.133c-.283 1.038-.748 3.933-1.818 4.291-.573.19-1.516-.126-2.09-.282l-14.17-3.852c-2.511-.733-1.816-1.61-.815-5.293z" id="path113"/><path d="m317.709 205.106-34.636-9.417c-.793-.233-1.401-.403-1.86-1.156-.691-1.13-.271-2.396.044-3.564l3.781-13.908c.407-1.498.89-4.384 2.147-5.296 1.383-1.003 3.695-.439 5.218-.028l170.554 46.368c.769.22 1.621.435 1.994 1.226.367.78-.012 1.852-.225 2.637l-4.994 18.367c-.772 2.819-1.558 2.952-4.267 2.221l-22.041-5.992-1.498 5.51 19.155 5.208c1.406.382 5.329.994 5.759 2.475.203.695-.13 1.695-.318 2.385l-4.993 18.368c-.773 2.819-1.558 2.952-4.267 2.221l-167.669-45.583c-1.06-.288-5.355-1.334-5.987-1.796-.435-.316-.682-.696-.847-1.206-.316-.984.036-2.044.295-3.003l3.78-13.906c.408-1.499.891-4.385 2.147-5.297 1.384-1.002 3.696-.438 5.218-.027l32.012 8.703zm111.779 30.388-107.844-29.319-1.498 5.51 107.844 29.319z" id="path114"/><path d="m475.014 164.749 5.764 1.28 1.566.876-.18 2.319-8.06 29.65-.877 1.566-2.319-.18-3.673-.998-1.566-.877.201-2.313 8.342-30.684z" id="path115"/><path d="M428.512 138.863c1.355-.133 4.336.863 5.764 1.28.559.163 1.255.329 1.566.876.367.641-.001 1.651-.179 2.319l-11.557 42.507c-.173.615-.351 1.486-.947 1.828-.642.366-1.652-.001-2.319-.18l-3.149-.856c-.665-.183-1.723-.378-2.09-1.019-.367-.641.001-1.65.18-2.318l11.199-41.196c.33-1.215.41-2.546 1.532-3.241z" id="path116"/></g><g id="Bunker_entr" class="building" transform="matrix(-4.2716 0 0 -4.2716 3537.88 3251.39)" fill="#444"><path d="m193.736 407.275 3.146 6.784c.307.76 1.004 2.931 1.537 3.467.373.226 1.712.505 2.228.606l6.035 1.641 5.309 1.2c2.574.68 3.217-.443 5.225-1.96l4.382-3.318 1.36 1.215-6.384 8.972-20.204-5.492-1.926-.81-2.1-6.202-.753-3.304z" id="path117"/><path d="M109.631 380.717c-1.69 2.028-2.076 1.509-4.347 1.478l-3.125.092c-.96-.014-2.444.18-3.19-.525-.643-.602-2.042-4.651-2.438-5.723L91.7 363.454c-.372-1.003-1.713-4.354-1.64-5.236.09-1.052 1.556-1.885 2.35-2.461l3.708-2.655c.51-.365 1.246-.954 1.893-.982.669-.026 1.204.451 1.698.831l-2.132 3.647-1.983 3.125.996 4.496 2.635 9.171 1.705 4.403 2.732 1.041 2.034.813z" id="path118"/><path d="m721.964 448.098.911 1.938-1.244 2.76-3.116 5.917-9.502-.292-12.32-.286-2.843-6.127c-.777-1.628-1.44-2.398-.575-4.102l3.405 4.055 2.147 2.47 4.177.183 9.32-.08 4.465-.355 2.093-2.411z" id="path119"/><path d="M751.008 286.271c.089-.719.078-1.239.661-1.767.557-.506 1.951-.947 2.691-1.233 2.302-.893 4.425-2.398 6.813-1.222 1.476.728 4.175 4.936 5.291 6.451l5.763 7.823c1.199 1.633 2.348 2.207 1.626 4.33-.343 1.004-.651 1.185-1.013 1.98l-.895 2.574c-.878 1.53-2.613 2.139-4.226 2.515l1.998-7.348c.524-2.086-.391-2.74-1.635-4.353l-3.533-4.623c-.654-.849-2.915-4.07-3.676-4.39-.596-.252-2.494-.216-3.236-.245z" id="path120"/><path d="m296.881 141.52 78.717 21.4-3.182 11.708-8.659-2.354.286-1.05-16.269-4.423-.214.788-32.537-8.846.285-1.05-16.53-4.494-.285 1.05-4.724-1.284z" id="path121"/><path d="m210.394 118.565 75.569 20.544-3.111 11.445-75.57-20.545z" id="path122"/></g><g id="Buildings" class="building" transform="matrix(-4.2716 0 0 -4.2716 3537.88 3251.39)" fill="#444"><path d="M434.44 645.35c1.921.224 1.845 1.662 2.422 3.273.698 2.357 1.796 4.081-1.33 4.892a3.185 3.185 0 0 1-1.116.218c-2.074-.007-2.58-2.988-3.018-4.622-.191-.706-.414-1.568-.077-2.265.499-1.041 2.09-1.347 3.119-1.496z" id="path123"/><path d="m447.107 632.074.077 10.851-12.562-.051.001-10.995z" id="path124"/><path d="m463.851 633.666 4.203.134.02 10.877h-7.245l.025-7.781z" id="path125"/><path d="m404.018 613.594 25.254-.157.326 25.26-7.065.057.143 23.569-18.543.113z" id="path126"/><path d="M467.675 617.722v10.456l-3.394.01-3.452-3.172.008-7.338z" id="path127"/><path d="m322.778 518.138 10.234 2.782-3.281 12.07-10.234-2.782z" id="path128"/><path d="m193.209 460.056 5.374 1.412-1.854 6.82-5.374-1.41z" id="path129"/><path d="m20.112 407.472 10.423 2.925-2.596 9.67-10.422-2.925z" id="path130"/><path d="m304.369 484.603 6.988.21-.235 5.008-6.987-.21z" id="path131"/><path d="m306.048 453.617 47.821 13.829-2.626 9.254-20.999-5.539-3.176 10.692-26.507-7.203z" id="path132"/><path d="m618.08 528.537 5.248 1.427-1.855 6.821-5.247-1.426z" id="path133"/><path d="m487.524 487.407 7.872 2.14-2.426 8.922-7.872-2.141z" id="path134"/><path d="m517.44 493.966 68.354 18.641-5.306 19.897-68.335-18.24z" id="path135"/><path d="m354.242 408.624 19.942 5.421-3.691 11.448 8.645 2.253-2.543 9.111-8.723-2.46-19.337-4.782Z" id="path136"/><path d="m269.739 367.358 25.114 6.876-29.817 110.761-25.047-6.81z" id="path137"/><path d="M426.679 399.231c.545.044.797-.031 1.301.354.885.534 2.095 3.474 2.632 4.508l2.772 5.463c.336.724.778 1.585.428 2.386-.434.993-2.039 1.56-2.969 2.029-.656.331-1.458.811-2.205.856-1.932.12-3.237-3.92-3.988-5.378l-2.401-4.831c-.427-.895-.968-1.701-.435-2.697.432-.807 1.836-1.389 2.65-1.802.921-.465 1.205-.597 2.215-.888z" id="path138"/><path d="m536.579 427.198 6.036 1.641-2.711 9.971-6.036-1.641z" id="path139"/><path d="m410.44 392.623 6.823 1.855-3.781 13.907-6.822-1.854z" id="path140"/><path d="m762.383 464.632 3.524.842-.876 3.513-3.602-.869z" id="path141"/><path d="m633.424 423.23 20.363 5.518-17.907 68.073-20.932-5.63z" id="path142"/><path d="m462.376 364.37 33.934 9.064-3.509 12.671 19.711 5.244-10.671 41.141-14.779-4.215-2.679 9.53-52.332-14.03 9.003-33.217 7.756 2.166 3.502-13.18 5.495 1.762z" id="path143"/><path d="m374.524 338.217 31.043 8.392-12.172 45.515-9.366-2.535-2.935 10.876-16.7-4.557 3.064-10.442-4.813-1.532z" id="path144"/><path d="m277.3 311.763 31.054 8.646-11.995 46.078-31.105-8.633z" id="path145"/><path d="m657.39 397.922 5.553 1.432-2.502 9.257-5.552-1.431z" id="path146"/><path d="m72.714 240.121 3.352.921-.927 3.448-3.525-.876z" id="path147"/><path d="m476.491 322.27 49.493 13.23-5.849 21.533-49.494-13.32z" id="path148"/><path d="m233.062 254.23 17.58 4.779-3.281 12.07-17.58-4.779z" id="path149"/><path d="m357.624 285.276 4.461 1.213-1.284 4.723-4.461-1.213z" id="path150"/><path d="m585.882 337.46 56.402 15.832-3.135 10.09 10.824 3.128-6.874 23.926-8.273-2.283-1.303 4.873-7.872-2.14 1.528-4.883-33.556-9.198-1.484 4.834-7.525-2.14 1.387-4.883-34.993-9.57 8.965-32.51 25.287 7.045z" id="path151"/><path d="m361.536 255.343 40.671 11.057-6.492 23.878-40.671-11.057z" id="path152"/><path d="m314.568 242.574 40.671 11.057-6.492 23.878-40.671-11.057z" id="path153"/><path d="m369.525 225.955 40.671 11.057-6.491 23.878-40.671-11.057z" id="path154"/><path d="m322.628 212.924 40.671 11.057-6.491 23.877-40.671-11.057z" id="path155"/><path d="m109.428 132.701 10.234 2.782-2.497 9.183-10.233-2.782z" id="path156"/><path d="m543.848 242.914 14.17 3.852-2.069 7.609-14.17-3.852z" id="path157"/><path d="m377.729 195.78 40.671 11.056-6.492 23.879-40.671-11.057z" id="path158"/><path d="m330.761 183.011 40.671 11.057-6.492 23.878-40.671-11.057z" id="path159"/><path d="m149.216 133.755 62.28 16.61-4.277 14.965 5.554 1.525-1.195 4.128-5.379-1.496-3.04 11.476 9.413 2.73-2.698 10.928-9.647-2.596-5.517 20.35-56.855-15.318 5.984-20.8-9.987-2.558 2.794-10.338 9.65 2.694 5.835-21.455-5.546-1.34z" id="path160"/><path d="m554.755 222.491 9.446 2.568-1.475 4.389-9.184-2.497z" id="path161"/><path d="m532.39 200.067 22.041 5.992-3.638 13.382-22.041-5.992z" id="path162"/><path d="m500.115 191.293 22.041 5.992-3.638 13.382-22.041-5.992z" id="path163"/><path d="m683.323 232.55 5.81 6.09-5.813 5.445-5.944-6.117z" id="path164"/><path d="m815.88 253.763 9.348 2.589-2.738 10.375-9.347-2.588z" id="path165"/><path d="m591.552 189.748 21.612 8.298-3.852 14.48-12.9-3.423-1.598 5.962-9.446-2.568z" id="path166"/><path d="m134.786 62.14 16.106 4.424-10.218 37.946-5.443-1.686-.532 1.632-10.587-2.929z" id="path167"/><path d="m560.908 163.58 11.282 3.067-2.853 10.495-11.282-3.067z" id="path168"/><path d="m162.061 38.38 38.977 10.438-4.422 16.268L158.98 55.01l1.708-5.789-1.578-.49z" id="path169"/><path d="m136.403 16.894 11.283 3.068-2.924 10.758-11.283-3.068z" id="path170"/><path d="m405.04 88.114 9.616 2.667-2.78 10.405-9.617-2.668z" id="path171"/><path d="m299.466 58.689 7.872 2.14-1.926 7.085-7.872-2.14z" id="path172"/></g><g id="Misc" transform="matrix(-4.2716 0 0 -4.2716 3537.88 3251.39)" fill="#444"><path d="m427.751 507.227 7.084 1.926-1.141 4.197-7.085-1.926z" id="path173"/><path d="m390.532 488.654 3.412.928-2.354 8.658-3.412-.927z" id="path174"/><path d="m381.874 486.3 3.411.928-2.354 8.658-3.411-.927z" id="path175"/><path d="m423.423 493.087 3.674.999-3.781 13.907-3.673-.999z" id="path176"/><path d="m417.913 491.589 3.673.999-3.781 13.907-3.672-.999z" id="path177"/><path d="m412.402 490.091 3.674.999-3.781 13.907-3.673-.999z" id="path178"/><path d="m394.242 475.009 3.411.928-2.354 8.66-3.411-.928z" id="path179"/><path d="m385.583 472.655 3.411.928-2.354 8.66-3.411-.928z" id="path180"/><path d="m433.671 485.448 7.085 1.926-1.141 4.198-7.085-1.926z" id="path181"/><path d="m312.312 422.842 6.058.52c.67.05 1.997.075 2.432.66.875 1.177-.368 2.721-.609 3.805-.174.784.142 1.428-.267 3.284l-8.753-.972.118-4.168zm-1.687 8.276 6.06.52c.67.05 1.995.075 2.43.661.464.625.093 2.355-.068 3.082l-8.753-.972z" id="path182"/><path d="m388.542 415.131 8.704.112-.331 3.292-8.705-.113z" id="path183"/><path d="m324.556 357.158 8.398 2.283-.861 3.164c.468.041 1.092.047 1.441.392.584.627.543 2.56-.269 2.987-.45.238-1.89.265-2.452.294-1.961.113-3.982.414-5.915-.01l.331-3.291 6.868-.387-8.397-2.283z" id="path184"/><path d="m331.728 338.535 3.794-6.924 3.191 1.705-3.827 6.77z" id="path185"/><path d="m339.053 331.028 3.459.677-1.174 7.7-3.457-.495z" id="path186"/><path d="m196.324 256.835 7.348 1.997-1.07 3.935-7.348-1.997z" id="path187"/><path d="m128.591 237.38 7.347 1.997-1.07 3.936-7.347-1.997z" id="path188"/><path d="m198.247 249.261 7.347 1.998-1.07 3.936-7.347-1.998z" id="path189"/><path d="m130.66 229.77 7.347 1.997-1.07 3.937-7.347-1.998z" id="path190"/><path d="m185.262 243.495 4.198 1.142-3.852 14.168-4.198-1.14z" id="path191"/><path d="m179.751 241.997 4.2 1.142-3.853 14.168-4.199-1.14z" id="path192"/><path d="m174.241 240.5 4.2 1.141-3.853 14.168-4.199-1.14z" id="path193"/><path d="m159.81 236.576 4.198 1.141-3.852 14.17-4.198-1.142z" id="path194"/><path d="m154.3 235.078 4.198 1.141-3.852 14.17-4.198-1.142z" id="path195"/><path d="m148.79 233.58 4.198 1.141-3.852 14.17-4.199-1.143z" id="path196"/><path d="M437.549 224.461c1.588.054 2.341 2.083 1.695 2.977-.334.465-1.203.935-1.701 1.228-.961.562-3.639 2.192-4.584 2.364-1.684.306-2.62-2.098-1.959-3.015.633-.876 5.377-3.174 6.549-3.554z" id="path198"/><path d="M580.118 252.54c1.765.305 2.735 2.781 3.657 4.165.397.596.977 1.437 1.088 2.149.165 1.058-1.044 2.157-2.02 2.227-1.046.074-1.897-1.651-2.416-2.423l-1.387-2.152c-1.361-2.067-1.816-3.118 1.078-3.966z" id="path199"/><path d="M583.403 231.655c1.173.112 2.634 1.598 1.877 2.795-.317.506-1.328 1.062-1.847 1.4-.768.499-3.79 2.641-4.5 2.795-1.151.253-2.677-1.773-1.805-2.948.326-.435 1.523-1.164 2.014-1.481 1.29-.828 2.851-2.071 4.261-2.561z" id="path200"/><path d="m449.693 182.939 3.149.856-2.283 8.396-3.149-.856z" id="path201"/><path d="m452.047 174.28 3.149.856-2.283 8.397-3.149-.856z" id="path202"/><path d="m448.373 173.281 3.149.856-2.283 8.397-3.148-.857z" id="path203"/><path d="m456.855 161.779 3.149.856-2.283 8.397-3.149-.856z" id="path204"/><path d="m460.671 162.253 3.149.856-2.283 8.397-3.149-.856z" id="path205"/><path d="M463.841 146.394c1.551.605 1.055 2.901.367 3.272-.452.244-1.616.235-2.154.243l-5.054-.024c-1.603-.323-1.482-2.914-.425-3.319.633-.246 6.293-.242 7.266-.172z" id="path206"/><path d="m494.576 152.591 6.462.066c.015.796.17 2.912-.286 3.501-.536.697-3.572.576-4.477.547-.486-.005-1.076.006-1.427-.388-.491-.568-.358-2.966-.272-3.726z" id="path207"/><path d="M463.791 142.435c1.551.605 1.053 2.902.366 3.272-.452.244-1.616.235-2.153.244l-5.055-.025c-1.603-.323-1.481-2.913-.425-3.319.633-.245 6.294-.242 7.267-.172z" id="path208"/></g></svg>